<?xml version="1.0" encoding="UTF-8"?>
<svg width="81px" height="70px" viewBox="0 0 81 70" version="1.1" xmlns="http://www.w3.org/2000/svg" xmlns:xlink="http://www.w3.org/1999/xlink">
    <!-- Generator: Sketch 62 (91390) - https://sketch.com -->
    <title>android</title>
    <desc>Created with Sketch.</desc>
    <g id="Page-1" stroke="none" stroke-width="1" fill="none" fill-rule="evenodd">
        <g id="Distribution---In-progress" transform="translate(-640.000000, -654.000000)" fill-rule="nonzero">
            <g id="android" transform="translate(640.000000, 654.000000)">
                <g id="g80302" transform="translate(0.063266, 52.125138)" fill="#000000">
                    <path d="M5.66499852,5.75165494 C2.91105258,5.75165494 0.0792596293,7.95847207 0.0792596293,11.821202 C0.0792596293,15.3524981 2.56906807,17.846754 5.66499852,17.846754 C8.22053537,17.846754 9.35949983,16.1314481 9.35949983,16.1314481 L9.35949983,16.8791458 C9.35949983,17.232545 9.69362924,17.6268434 10.1071975,17.6268434 L11.9544481,17.6268434 L11.9544481,6.01555246 L9.35949983,6.01555246 L9.35949983,7.48895829 C9.35949983,7.48895829 8.21099247,5.75165494 5.66499852,5.75165494 Z M6.12724113,8.12592473 C8.3943233,8.12592473 9.58352995,10.1197345 9.58352995,11.8203381 C9.58352995,13.7145353 8.17157302,15.5134715 6.13204857,15.5134715 C4.42713348,15.5134715 2.71930672,14.132679 2.71930672,11.7953409 C2.71930672,9.68548061 4.18900098,8.12592473 6.12724113,8.12592473 Z" id="path825"></path>
                    <path d="M15.5609836,17.6268514 C15.1623016,17.6268514 14.813286,17.3408925 14.813286,16.8791538 L14.813286,6.01556046 L17.4082343,6.01556046 L17.4082343,7.45244251 C17.9962543,6.56860059 19.1450497,5.74812735 20.908358,5.74812735 C23.7903852,5.74812735 25.3250319,8.04555001 25.3250319,10.1938699 L25.3250319,17.6268514 L23.5217602,17.6268514 C23.0489188,17.6268514 22.7300836,17.2310172 22.7300836,16.8351749 L22.7300836,10.7656359 C22.7300836,9.57482139 22.0004799,8.12861242 20.3131068,8.12861242 C18.492381,8.12861242 17.4082343,9.84932569 17.4082343,11.4693466 L17.4082343,17.6268514 L15.5609836,17.6268514 Z" id="path829"></path>
                    <path d="M32.8899582,5.75165494 C30.1360203,5.75165494 27.3042273,7.95847207 27.3042273,11.821202 C27.3042273,15.3524981 29.7940358,17.846754 32.8899582,17.846754 C35.4454951,17.846754 36.5844675,16.1314481 36.5844675,16.1314481 L36.5844675,16.8791458 C36.5844675,17.232545 36.9185969,17.6268434 37.3321652,17.6268434 L39.1794158,17.6268434 L39.1794158,0.209910974 L36.5844675,0.209910974 L36.5844675,7.4889503 C36.5844675,7.4889503 35.4359522,5.75165494 32.8899582,5.75165494 Z M33.3522088,8.12592473 C35.619291,8.12592473 36.8084977,10.1197345 36.8084977,11.8203381 C36.8084977,13.7145353 35.3965327,15.5134715 33.3570163,15.5134715 C31.6521012,15.5134715 29.9442744,14.132679 29.9442744,11.7953409 C29.9442744,9.68547261 31.4139607,8.12592473 33.3522088,8.12592473 L33.3522088,8.12592473 Z" id="path833"></path>
                    <path d="M42.7859513,17.6268514 C42.3872694,17.6268514 42.0382537,17.3408925 42.0382537,16.8791538 L42.0382537,6.01556046 L44.633202,6.01556046 L44.633202,7.95077696 C45.0798544,6.86666217 46.0436871,5.8836157 47.7559373,5.8836157 C48.2332662,5.8836157 48.6795666,5.97158154 48.6795666,5.97158154 L48.6795666,8.65448768 C48.6795666,8.65448768 48.122279,8.43457708 47.4480609,8.43457708 C45.6273351,8.43457708 44.633202,10.1552904 44.633202,11.7753193 L44.633202,17.6268514 L42.7859513,17.6268514 Z" id="path835"></path>
                    <path d="M64.4251801,17.6268514 C64.0264982,17.6268514 63.6774825,17.3408925 63.6774825,16.8791538 L63.6774825,6.01556046 L66.2724308,6.01556046 L66.2724308,17.6268514 L64.4251801,17.6268514 Z" id="path837"></path>
                    <path d="M73.881352,5.75165494 C71.1274061,5.75165494 68.2956131,7.95847207 68.2956131,11.821202 C68.2956131,15.3524981 70.7854216,17.846754 73.881352,17.846754 C76.4368809,17.846754 77.5758493,16.1314481 77.5758493,16.1314481 L77.5758493,16.8791458 C77.5758493,17.232545 77.9099787,17.6268434 78.323547,17.6268434 L80.1707976,17.6268434 L80.1707976,0.209910974 L77.5758493,0.209910974 L77.5758493,7.4889503 C77.5758493,7.4889503 76.427346,5.75165494 73.881352,5.75165494 L73.881352,5.75165494 Z M74.3435946,8.12592473 C76.6106768,8.12592473 77.7998794,10.1197345 77.7998794,11.8203381 C77.7998794,13.7145353 76.3879265,15.5134715 74.3484021,15.5134715 C72.643487,15.5134715 70.9356602,14.132679 70.9356602,11.7953409 C70.9356602,9.68547261 72.4053545,8.12592473 74.3435946,8.12592473 Z" id="path839"></path>
                    <circle id="path841" cx="64.954531" cy="1.79483993" r="1.71630646"></circle>
                    <path d="M55.5230883,5.74779139 C52.6389654,5.74779139 49.4702993,7.90064675 49.4702993,11.8005803 C49.4702993,15.3544339 52.1692596,17.847186 55.516817,17.847186 C59.6423405,17.847186 61.6567959,14.530697 61.6567959,11.8230897 C61.6567959,8.50057746 59.0628234,5.74779139 55.5230883,5.74779139 Z M55.5325272,8.17111151 C57.5269768,8.17111151 59.014677,9.77858186 59.014677,11.8078835 C59.014677,13.8723811 57.4354114,15.4654531 55.5384545,15.4654531 C53.7775219,15.4654531 52.0657516,14.0324186 52.0657516,11.8425915 C52.0657516,9.61626461 53.6938195,8.17111151 55.5325272,8.17111151 L55.5325272,8.17111151 Z" id="path843"></path>
                </g>
                <path d="M59.7355163,13.5854035 L66.374854,2.08418513 C66.7495159,1.43942278 66.5229782,0.620394357 65.8869217,0.245732452 C65.2508713,-0.128923398 64.423131,0.0888993481 64.057184,0.733664728 L57.3307148,12.3830073 C52.1987306,10.0391955 46.4219871,8.73224082 40.20958,8.73224082 C33.9971788,8.73224082 28.2204323,10.0391955 23.0884481,12.3830073 L16.3619789,0.733664728 C15.987317,0.0888993481 15.1682916,-0.128923398 14.5235262,0.245732452 C13.8787578,0.620394357 13.660932,1.43942278 14.0355939,2.08418513 L20.6749347,13.5854035 C9.22599487,19.7890957 1.4713828,31.3774426 0.190567012,44.9436545 L80.2285962,44.9436545 C78.9477774,31.3774426 71.1931629,19.7890957 59.7355163,13.5854035 Z M21.8337681,33.7038246 C19.9778886,33.7038246 18.479247,32.196468 18.479247,30.3493064 C18.479247,28.4934238 19.9866035,26.9947853 21.8337681,26.9947853 C23.6896477,26.9947853 25.1883302,28.5021388 25.1883302,30.3493064 C25.1970406,32.196468 23.6896477,33.7038246 21.8337681,33.7038246 Z M58.5766798,33.7038246 C56.7208033,33.7038246 55.2221526,32.196468 55.2221526,30.3493064 C55.2221526,28.4934238 56.7295122,26.9947853 58.5766798,26.9947853 C60.4325624,26.9947853 61.9312386,28.5021388 61.9312386,30.3493064 C61.939919,32.196468 60.4325624,33.7038246 58.5766798,33.7038246 Z" id="path80319" fill="#32DE84"></path>
            </g>
        </g>
    </g>
</svg>