<svg xmlns="http://www.w3.org/2000/svg" width="138" height="24" viewBox="0 0 138 24">
    <g fill="none" fill-rule="nonzero">
        <path fill="#62C248" d="M109 23.636V1.108h-4.205V7.76c-1.176-1.16-2.776-1.8-4.75-1.8-4.82 0-8.482 3.986-8.482 8.975 0 5.01 3.662 9.064 8.481 9.064 1.975 0 3.575-.694 4.75-1.854v1.49H109zm-8.497-3.761c-2.588 0-4.682-2.201-4.682-4.939 0-2.686 2.094-4.921 4.683-4.921 1.72 0 3.353.867 4.17 2.305.054.104.12.242.12.417v4.4a.732.732 0 0 1-.084.295c-.8 1.489-2.434 2.443-4.206 2.443zm-15.055 3.76h4.207V6.306h-4.208v17.33h.001zM87.56 4.99c1.347 0 2.437-1.127 2.437-2.496a2.505 2.505 0 0 0-.71-1.762A2.418 2.418 0 0 0 87.56 0a2.418 2.418 0 0 0-1.726.733 2.505 2.505 0 0 0-.708 1.762c0 1.369 1.09 2.497 2.434 2.497V4.99zM74.635 23.984c4.924 0 8.907-4.039 8.907-9.048 0-4.99-3.983-8.975-8.907-8.975-4.902 0-8.887 3.986-8.887 8.975a9.124 9.124 0 0 0 2.601 6.398 8.808 8.808 0 0 0 6.286 2.65zm0-4.315c-2.554 0-4.63-2.116-4.63-4.733.002-2.601 2.074-4.71 4.63-4.712a4.588 4.588 0 0 1 3.288 1.373 4.753 4.753 0 0 1 1.363 3.34 4.76 4.76 0 0 1-1.358 3.35 4.595 4.595 0 0 1-3.293 1.382zm-13.299 3.967V14.38c0-2.738 1.414-4.192 4.104-4.192V5.96c-5.415 0-8.309 2.928-8.309 8.42v9.255h4.205zm-6.435 0V1.108h-4.209V7.76c-1.172-1.16-2.774-1.854-4.749-1.854-4.82 0-8.48 4.039-8.48 9.03 0 5.01 3.66 9.047 8.48 9.047 1.975 0 3.577-.678 4.75-1.838v1.49h4.208zm-8.499-3.761c-2.589 0-4.683-2.201-4.683-4.939 0-2.686 2.095-4.921 4.683-4.921 1.72 0 3.356.867 4.174 2.305.05.104.117.242.117.417v4.384a.856.856 0 0 1-.083.31c-.801 1.49-2.437 2.444-4.208 2.444zm-10.694 3.76v-9.373c0-4.611-3.523-8.3-8.02-8.3-4.512 0-8.02 3.689-8.02 8.3v9.374h4.205v-9.374c0-2.27 1.568-4.005 3.815-4.005 2.23 0 3.815 1.734 3.815 4.005v9.374h4.205zm-18.27 0V6.306H13.23v1.456c-1.176-1.159-2.776-1.8-4.75-1.8C3.66 5.961 0 9.947 0 14.936c0 5.01 3.66 9.048 8.48 9.048 1.974 0 3.574-.678 4.75-1.838v1.49h4.207zm-8.498-3.76c-2.59 0-4.684-2.201-4.684-4.939 0-2.686 2.095-4.921 4.684-4.921 1.719 0 3.44.816 4.172 2.305.072.127.112.27.118.417v4.365a.915.915 0 0 1-.086.33c-.799 1.489-2.434 2.443-4.204 2.443z"/>
        <path fill="#868686" d="M119.742 24h-.363c-4.482 0-7.379-2.623-7.379-7.065V2h3.118v4.648h4.502v2.83h-4.502v7.457c0 2.521 1.761 4.014 4.261 4.014h.379l-.016 3.05V24zm11.257-.205h-3.414l-7-17.147h3.622l5.41 13.32 4.866-13.338H138l-7 17.165z"/>
    </g>
</svg>
