<?xml version="1.0" encoding="UTF-8"?>
<svg width="92px" height="44px" viewBox="0 0 92 44" version="1.1" xmlns="http://www.w3.org/2000/svg" xmlns:xlink="http://www.w3.org/1999/xlink">
    <!-- Generator: Sketch 62 (91390) - https://sketch.com -->
    <title>apple-tv</title>
    <desc>Created with Sketch.</desc>
    <g id="Page-1" stroke="none" stroke-width="1" fill="none" fill-rule="evenodd">
        <g id="Distribution---In-progress" transform="translate(-920.000000, -665.000000)" fill="#000000" fill-rule="nonzero">
            <g id="apple-tv" transform="translate(920.000000, 665.000000)">
                <path d="M24.425,7.2 C26.05,5.2 26.825,2.65 26.6,0.1 C24.1,0.35 21.775,1.55 20.125,3.45 C18.475,5.3 17.625,7.725 17.8,10.2 C20.325,10.3 22.8,9.175 24.425,7.2" id="Path"></path>
                <path d="M24.425,7.025 C26,5.075 26.775,2.575 26.6,0.075 C24.1,0.325 21.775,1.525 20.125,3.425 C18.475,5.275 17.625,7.7 17.8,10.175 C20.375,10.25 22.825,9.075 24.425,7.025" id="Path"></path>
                <path d="M26.55,10.6 C22.95,10.375 19.875,12.65 18.225,12.65 C16.575,12.65 13.875,10.7 11,10.75 C7.2,10.85 3.75,12.975 1.95,16.3 C-1.95,23 0.925,33 4.725,38.35 C6.55,41.125 8.75,43.9 11.675,43.9 C14.6,43.9 15.5,42.125 18.85,42.125 C22.2,42.125 23.15,43.9 26.075,43.85 C29,43.8 30.975,41.075 32.8,38.45 C34.1,36.55 35.1,34.45 35.8,32.25 C32.25,30.675 29.975,27.15 30,23.275 C30.05,19.875 31.85,16.725 34.75,14.95 C32.9,12.325 29.925,10.7 26.725,10.6" id="Path"></path>
                <path d="M54.975,7.05 L54.975,13.975 L60.525,13.975 L60.525,18.75 L54.975,18.75 L54.975,35 C54.975,37.525 56.075,38.7 58.55,38.7 C59.225,38.7 59.875,38.65 60.55,38.55 L60.55,43.3 C59.45,43.5 58.325,43.6 57.2,43.575 C51.225,43.575 48.875,41.325 48.875,35.625 L48.875,18.825 L44.675,18.825 L44.675,13.975 L48.95,13.975 L48.95,7.05 L54.975,7.05 L54.975,7.05 Z" id="Path"></path>
                <polygon id="Path" points="80.85 43.5 74.4 43.5 63.75 13.975 70.2 13.975 77.6 37.525 77.6 37.525 85.1 13.975 91.425 13.975"></polygon>
            </g>
        </g>
    </g>
</svg>