<svg xmlns="http://www.w3.org/2000/svg" width="35" height="34" viewBox="0 0 35 34">
  <g fill="none" fill-rule="evenodd" stroke-linejoin="round" stroke-width="2">
    <path stroke="#006AFF" stroke-linecap="round" d="M24.466 12.8c4.918.703 8.699 4.933 8.699 10.046 0 1.841-.49 3.568-1.348 5.056-.5.868-.51 1.932-.003 2.795l1.35 2.297H23.017c-5.062 0-9.259-3.707-10.023-8.555"/>
    <path stroke="#000" d="M12.993 24.33c6.528 0 11.767-5.516 11.31-12.142-.386-5.59-4.916-10.12-10.506-10.505C7.17 1.225 1.654 6.464 1.654 12.993c0 2.057.549 3.986 1.507 5.65a3.1 3.1 0 0 1 .002 3.121l-1.509 2.567h11.339z"/>
  </g>
</svg>