<?xml version="1.0" encoding="UTF-8"?>
<svg width="99px" height="54px" viewBox="0 0 99 54" version="1.1" xmlns="http://www.w3.org/2000/svg" xmlns:xlink="http://www.w3.org/1999/xlink">
    <!-- Generator: Sketch 62 (91390) - https://sketch.com -->
    <title>fire-tv</title>
    <desc>Created with Sketch.</desc>
    <defs>
        <polygon id="path-1" points="0.023605245 0.0865902062 70.6401958 0.0865902062 70.6401958 16 0.023605245 16"></polygon>
        <polygon id="path-3" points="0 0.844479163 14.4157 0.844479163 14.4157 31.5145 0 31.5145"></polygon>
        <polygon id="path-5" points="0.0249715618 0.893 19.909 0.893 19.909 21.515 0.0249715618 21.515"></polygon>
    </defs>
    <g id="Page-1" stroke="none" stroke-width="1" fill="none" fill-rule="evenodd">
        <g id="Distribution---In-progress" transform="translate(-346.000000, -967.000000)">
            <g id="fire-tv" transform="translate(346.000000, 966.000000)">
                <g id="Group-3" transform="translate(10.000000, 38.155500)">
                    <mask id="mask-2" fill="white">
                        <use xlink:href="#path-1"></use>
                    </mask>
                    <g id="Clip-2"></g>
                    <path d="M68.7836,4.4361 C59.2796,8.4671 48.9516,10.4171 39.5546,10.4171 C25.6266,10.4171 12.1396,6.5961 1.2346,0.2501 C0.2806,-0.3049 -0.4274,0.6731 0.3666,1.3901 C10.4736,10.5171 23.8316,16.0001 38.6636,16.0001 C49.2476,16.0001 61.5386,12.6731 70.0156,6.4171 C71.4186,5.3801 70.2166,3.8281 68.7836,4.4361" id="Fill-1" fill="#FC4C02" mask="url(#mask-2)"></path>
                </g>
                <path d="M73.4332,39.0661 C72.6872,39.5901 72.8152,40.3141 73.6432,40.2141 C76.3762,39.8871 82.4592,39.1561 83.5442,40.5451 C84.6292,41.9341 82.3382,47.6551 81.3142,50.2111 C81.0042,50.9831 81.6702,51.2961 82.3692,50.7111 C86.9172,46.9061 88.0932,38.9341 87.1622,37.7831 C86.2372,36.6421 78.2862,35.6581 73.4332,39.0661" id="Fill-4" fill="#FC4C02"></path>
                <path d="M48.9597,13.52 C53.7337,13.52 53.6897,17.695 53.5747,19.495 L43.4867,19.495 C43.6687,16.363 45.1807,13.52 48.9597,13.52 M49.7327,32.312 C51.2747,32.312 54.2637,31.984 56.1407,31.048 C56.8307,30.79 56.8397,30.48 56.8397,29.827 L56.8397,28.7 C56.8397,28.087 56.5757,27.84 55.9127,28.053 C53.7537,28.781 51.5857,29.071 50.2757,29.071 C48.0217,29.071 46.0507,28.416 44.9647,27.129 C43.8917,25.733 43.5357,24.165 43.4437,22.269 L56.6077,22.269 C57.2127,22.269 57.2927,20.266 57.3217,19.419 C57.5497,13.347 54.3437,10.398 49.1287,10.398 C46.2517,10.398 43.5977,11.438 41.9367,13.445 C40.3957,15.28 39.5087,17.873 39.5087,21.371 C39.5087,24.81 40.2907,27.385 41.7857,29.198 C43.3267,31.032 45.6657,32.312 49.7327,32.312" id="Fill-6" fill="#000000"></path>
                <g id="Group-10" transform="translate(0.000000, 0.155500)">
                    <mask id="mask-4" fill="white">
                        <use xlink:href="#path-3"></use>
                    </mask>
                    <g id="Clip-9"></g>
                    <path d="M14.1437,13.2545 L14.1437,11.6715 C14.1437,11.0955 13.8817,10.8665 13.3417,10.8665 L7.8817,10.8665 L7.8817,6.8475 C7.8817,3.6345 11.1047,4.0445 13.1557,4.3025 C14.0697,4.4795 14.4157,4.3285 14.4157,3.6155 L14.4157,2.2865 C14.4157,1.6225 14.1487,1.3865 13.2447,1.1445 C8.1977,0.2105 3.8097,1.2165 3.8097,7.6235 L3.8097,10.9745 L0.8567,11.3165 C0.2297,11.3725 -0.0003,11.5655 -0.0003,12.1955 L-0.0003,13.2545 C-0.0003,13.8295 0.2477,14.0605 0.8017,14.0605 L3.8097,14.0605 L3.8097,30.7135 C3.8097,31.2855 4.0397,31.5145 4.6157,31.5145 L7.0767,31.5145 C7.6517,31.5145 7.8817,31.2855 7.8817,30.7135 L7.8817,14.0605 L13.3417,14.0605 C13.9147,14.0605 14.1437,13.8295 14.1437,13.2545" id="Fill-8" fill="#000000" mask="url(#mask-4)"></path>
                </g>
                <path d="M20.8633,11.0482 L18.4463,11.0482 C17.8713,11.0482 17.6413,11.2782 17.6413,11.8502 L17.6413,30.8682 C17.6413,31.4412 17.8713,31.6702 18.4463,31.6702 L20.8633,31.6702 C21.4383,31.6702 21.6683,31.4412 21.6683,30.8682 L21.6683,11.8502 C21.6683,11.3922 21.4383,11.0482 20.8633,11.0482" id="Fill-11" fill="#000000"></path>
                <path d="M19.6846,7.4071 C21.2316,7.4071 22.2286,6.4521 22.2286,4.9321 C22.2286,3.2511 21.1696,2.4571 19.6456,2.4571 C18.2276,2.4571 17.1406,3.4121 17.1406,4.9321 C17.1406,6.4711 18.1356,7.4071 19.6846,7.4071" id="Fill-13" fill="#000000"></path>
                <g id="Group-17" transform="translate(79.000000, 10.155500)">
                    <mask id="mask-6" fill="white">
                        <use xlink:href="#path-5"></use>
                    </mask>
                    <g id="Clip-16"></g>
                    <path d="M19.2035,0.893 L16.7325,0.893 C16.1555,0.893 15.9085,1.122 15.6545,1.695 L10.0315,17.789 L4.3735,1.695 C4.1905,1.237 3.9675,0.893 3.4135,0.893 L0.6525,0.893 C0.0445,0.893 -0.1015,1.269 0.1275,1.842 L7.6095,20.713 C7.8385,21.286 8.1585,21.515 8.7345,21.515 L11.3125,21.515 C11.8675,21.515 12.1055,21.172 12.3105,20.713 L19.7955,1.824 C20.0495,1.251 19.8895,0.893 19.2035,0.893" id="Fill-15" fill="#FC4C02" mask="url(#mask-6)"></path>
                </g>
                <path d="M63.6894,14.2156 L66.6694,14.2156 L66.6694,26.3826 C66.6694,31.1846 69.9794,31.9746 72.3744,31.9746 C73.6614,31.9746 74.7004,31.8426 75.7354,31.6246 C77.0004,31.2576 76.984405,31.0436 76.984405,30.4686 L76.984405,29.0046 C76.984405,28.4296 76.7074,28.2476 76.1664,28.3756 C75.1994,28.5326 74.5594,28.6456 73.5984,28.6846 C70.9414,28.4996 70.6974,27.6466 70.6974,25.0596 L70.6974,14.2156 L76.0384,14.2156 C76.6114,14.2156 76.8404,13.9856 76.8404,13.4096 L76.8404,11.8026 C76.8404,11.2276 76.5784,10.9976 76.0384,10.9976 L70.6974,10.9976 L70.6974,6.0416 C70.6974,5.5836 70.4664,5.2396 69.8914,5.2396 L68.2734,5.2396 C67.6434,5.2396 67.3304,5.4686 67.2754,6.0966 L66.7614,11.1016 L63.7444,11.4726 C63.1164,11.5276 62.8874,11.8396 62.8874,12.4696 L62.8874,13.4096 C62.8874,13.9856 63.2314,14.2156 63.6894,14.2156" id="Fill-18" fill="#FC4C02"></path>
                <path d="M27.8002,31.6705 L30.2062,31.6705 C30.7792,31.6705 31.0082,31.4405 31.0082,30.8685 L31.0082,16.4625 C32.5802,15.3085 33.9332,14.5245 37.0182,14.5245 C37.7732,14.5375 38.8382,14.8215 38.8382,14.0145 L38.8382,11.6555 C38.8382,11.1265 38.5252,10.8345 37.5112,10.8345 C34.9652,10.8345 33.2562,11.4785 30.8332,14.0175 L30.5362,11.6935 C30.4052,11.1225 30.0782,11.0475 29.6052,11.0475 L27.8002,11.0485 C27.2272,11.0485 26.9982,11.2775 26.9982,11.8505 L26.9982,30.8685 C26.9982,31.4405 27.2272,31.6705 27.8002,31.6705" id="Fill-20" fill="#000000"></path>
            </g>
        </g>
    </g>
</svg>