<?xml version="1.0" encoding="UTF-8"?>
<svg width="70px" height="70px" viewBox="0 0 70 70" version="1.1" xmlns="http://www.w3.org/2000/svg" xmlns:xlink="http://www.w3.org/1999/xlink">
  <!-- Generator: Sketch 54.1 (76490) - https://sketchapp.com -->
  <title>Group 2</title>
  <desc>Created with Sketch.</desc>
  <defs>
      <path d="M21.4589844,42 L21.4589844,32.5253906 L22.9707031,32.5253906 L22.9707031,42 L21.4589844,42 Z M22.2148438,30.6005859 C21.6347656,30.6005859 21.1601562,30.1259766 21.1601562,29.5458984 C21.1601562,28.9658203 21.6347656,28.4912109 22.2148438,28.4912109 C22.7949219,28.4912109 23.2695312,28.9658203 23.2695312,29.5458984 C23.2695312,30.1259766 22.7949219,30.6005859 22.2148438,30.6005859 Z M31.3818359,29.0185547 C34.9853516,29.0185547 37.1826172,31.5849609 37.1826172,35.6542969 C37.1826172,39.7060547 35.0029297,42.2988281 31.3818359,42.2988281 C27.7431641,42.2988281 25.5546875,39.7148438 25.5546875,35.6542969 C25.5546875,31.5761719 27.7958984,29.0185547 31.3818359,29.0185547 Z M31.3818359,30.4775391 C28.7978516,30.4775391 27.1806641,32.4814453 27.1806641,35.6542969 C27.1806641,38.8007812 28.7451172,40.8398438 31.3818359,40.8398438 C33.9833984,40.8398438 35.5566406,38.8007812 35.5566406,35.6542969 C35.5566406,32.4814453 33.9746094,30.4775391 31.3818359,30.4775391 Z M39.3183594,38.6865234 L40.9179688,38.6865234 C41.1113281,40.0136719 42.3769531,40.8574219 44.1787109,40.8574219 C45.8837891,40.8574219 47.140625,39.9345703 47.140625,38.6777344 C47.140625,37.5966797 46.3496094,36.9111328 44.6005859,36.4716797 L42.9746094,36.0498047 C40.6806641,35.4697266 39.6875,34.4326172 39.6875,32.6308594 C39.6875,30.4775391 41.4892578,29.0185547 44.1699219,29.0185547 C46.6220703,29.0185547 48.4501953,30.4775391 48.5820312,32.5253906 L46.9912109,32.5253906 C46.7714844,31.2246094 45.6992188,30.4511719 44.1171875,30.4511719 C42.4296875,30.4511719 41.3134766,31.2949219 41.3134766,32.578125 C41.3134766,33.5712891 42.0078125,34.1425781 43.7568359,34.5908203 L45.0839844,34.9423828 C47.7119141,35.6015625 48.7666016,36.6210938 48.7666016,38.484375 C48.7666016,40.8134766 46.9296875,42.2988281 44.0292969,42.2988281 C41.3398438,42.2988281 39.4853516,40.875 39.3183594,38.6865234 Z" id="path-1"></path>
  </defs>
  <g id="Page-1" stroke="none" stroke-width="1" fill="none" fill-rule="evenodd">
    <g id="Distribution" transform="translate(-361.000000, -654.000000)" fill-rule="nonzero">
      <g id="i-os" transform="translate(361.000000, 654.000000)">
        <g id="Group-2">
          <rect id="Rectangle-path" fill="#101324" x="0" y="0" width="70" height="70" rx="16"></rect>
          <g id="iOS">
            <use fill="#000000" xlink:href="#path-1"></use>
            <use fill="#FFFFFF" xlink:href="#path-1"></use>
          </g>
        </g>
      </g>
    </g>
  </g>
</svg>