<?xml version="1.0" encoding="utf-8"?>
<!-- Generator: Adobe Illustrator 21.1.0, SVG Export Plug-In . SVG Version: 6.00 Build 0)  -->
<svg version="1.1" id="webOS_x5F_banner_x5F_whitecircle_xA0_Image_1_"
	 xmlns="http://www.w3.org/2000/svg" xmlns:xlink="http://www.w3.org/1999/xlink" x="0px" y="0px" viewBox="0 0 620.1 123.2"
	 style="enable-background:new 0 0 620.1 123.2;" xml:space="preserve">
<style type="text/css">
	.st0{fill:#5A6870;}
	.st1{fill:#7C7B7B;}
	.st2{fill:#C2064C;}
	.st3{fill:url(#SVGID_1_);}
	.st4{fill:url(#SVGID_2_);}
	.st5{fill:url(#SVGID_3_);}
	.st6{fill:#646E78;}
	.st7{fill:#8599A2;}
	.st8{fill:#8F9CA3;}
	.st9{fill:url(#SVGID_4_);}
	.st10{fill:url(#SVGID_5_);}
	.st11{fill:#B4BDC3;}
	.st12{fill:none;}
	.st13{fill:url(#SVGID_6_);}
	.st14{fill:#525E62;}
	.st15{fill:#102029;}
	.st16{fill:#919EA6;}
	.st17{fill:url(#SVGID_7_);}
	.st18{fill:url(#SVGID_8_);}
	.st19{fill:url(#SVGID_9_);}
	.st20{fill:url(#SVGID_10_);}
	.st21{fill:url(#SVGID_11_);}
	.st22{fill:url(#SVGID_12_);}
	.st23{fill:#FFFFFF;}
</style>
<g>
	<g>
		<polygon class="st0" points="173.6,101.6 207.3,101.6 207.3,86 169.2,86 169.2,21.9 150.8,21.9 150.8,101.6 		"/>
		<path class="st0" d="M247.8,71.2h15v13.9c-2.8,1.1-8.2,2.1-13.3,2.1c-16.6,0-22.1-8.4-22.1-25.5c0-16.3,5.3-25.9,21.8-25.9
			c9.2,0,14.5,2.9,18.8,8.4l11.4-10.5c-7-10-19.2-13-30.6-13c-25.8,0-39.3,14.1-39.3,40.9c0,26.7,12.2,41.2,39.2,41.2
			c12.4,0,24.5-3.2,31-7.8V56.3h-31.9C247.8,56.3,247.8,71.2,247.8,71.2z"/>
	</g>
</g>
<g>
	<path class="st1" d="M374.1,47.2h2.1l-17,53.3h-2.7l-16.6-51.3h-0.2L323,100.5h-2.9l-16.6-53.4h2.1l15.9,51.3h0.2l16.5-51.3h3.2
		l16.4,51.3h0.2L374.1,47.2z"/>
	<path class="st1" d="M380.1,74.2c0.2,14.3,5.9,25.4,21.1,25.4c11,0,19.1-6.1,20.9-17.6h2.1c-1.5,12.2-10.6,19.7-22.7,19.7
		c-16.5,0.2-23.4-12-23.4-27.9c0-17.8,11.3-27.9,23.4-27.9c16.6,0,24,13.7,23.4,28.3C424.7,74.2,380.1,74.2,380.1,74.2z M422.6,72.2
		c0.1-13.1-7.3-24.2-21.1-24.2c-11.5,0-20.8,9.2-21.5,24.2H422.6L422.6,72.2z"/>
	<path class="st1" d="M436.4,83.6c2.7,9.1,9.5,16.1,20.3,16.1c13.8,0,20.7-12,20.7-25.7c0-12.4-6-25.9-20.7-25.9
		c-13,0-21.6,9.4-21.6,25.9v0.5H433V26.4h2.1v35.7l0,0h0.2c2.5-9.7,10.1-16.2,21.4-16.2c14.7,0,22.7,13.1,22.7,28
		c0,16.1-8.6,27.8-22.7,27.8c-10.9,0-19.8-7.6-22.4-18.2h0.1"/>
	<path class="st2" d="M522.6,24.6c24.5,0,37.7,17.7,37.7,38.8s-13.2,38.8-37.7,38.8s-37.7-17.7-37.7-38.8
		C484.9,42.4,498.1,24.6,522.6,24.6z M522.6,100.2c22,0,35.2-15.4,35.4-36.7c-0.2-21.4-13.4-36.7-35.4-36.7s-35.2,15.4-35.4,36.7
		C487.4,84.8,500.6,100.2,522.6,100.2z"/>
	<path class="st2" d="M616.5,47.2c-0.5-15.2-11-20.4-24.8-20.4c-10.8,0-23.9,3.7-23.9,17c0,13.4,13.2,14.9,26.3,18
		c14.2,3.5,26,5.2,26,20.7c0,14-13.9,19.9-26.9,19.9c-17.3,0-30.1-7.7-29.8-26.4h2.1c0,17.7,11.4,24.3,27.6,24.3
		c12,0,24.8-5.2,24.8-18c0-14.9-14.9-16.2-26.7-19c-12.4-2.8-25.6-5-25.6-19.5c0-14.7,13.8-19.1,26-19.1c14.9,0,26.1,5.9,26.9,22.5
		C618.7,47.2,616.5,47.2,616.5,47.2z"/>
</g>
<g>

		<radialGradient id="SVGID_1_" cx="-984.8788" cy="297.2211" r="2.013" gradientTransform="matrix(31.9334 0 0 31.9334 31509.6426 -9431.3662)" gradientUnits="userSpaceOnUse">
		<stop  offset="0" style="stop-color:#C22043"/>
		<stop  offset="0.5" style="stop-color:#C22043"/>
		<stop  offset="0.7435" style="stop-color:#C02042"/>
		<stop  offset="0.846" style="stop-color:#B91F3F"/>
		<stop  offset="0.9219" style="stop-color:#AE1E3A"/>
		<stop  offset="0.9844" style="stop-color:#A01C33"/>
		<stop  offset="1" style="stop-color:#9B1B31"/>
	</radialGradient>
	<path class="st3" d="M61.5,0C27.6,0,0,27.6,0,61.6c0,34,27.6,61.6,61.5,61.6c33.9,0,61.4-27.3,61.7-61.1v-1
		C122.9,27.3,95.5,0,61.5,0z"/>

		<linearGradient id="SVGID_2_" gradientUnits="userSpaceOnUse" x1="36.3629" y1="118.196" x2="68.853" y2="28.9298" gradientTransform="matrix(1 0 0 -1 0 126.1485)">
		<stop  offset="0" style="stop-color:#F18996"/>
		<stop  offset="0.2359" style="stop-color:#DD5F70"/>
		<stop  offset="0.4716" style="stop-color:#CE3D55"/>
		<stop  offset="0.6681" style="stop-color:#C52848"/>
		<stop  offset="0.8011" style="stop-color:#C22043"/>
		<stop  offset="1" style="stop-color:#C22043"/>
	</linearGradient>
	<path class="st4" d="M19.9,19.9c-20.6,20.6-22.7,51.9-4.6,70c18.1,18.1,49.4,16,70-4.6c20.6-20.6,22.7-52,4.6-70.1
		C81.7,7,70.7,3,59.1,3C45.5,3,31.1,8.7,19.9,19.9"/>

		<linearGradient id="SVGID_3_" gradientUnits="userSpaceOnUse" x1="20.489" y1="96.1373" x2="95.0249" y2="21.6013" gradientTransform="matrix(1 0 0 -1 0 126.1485)">
		<stop  offset="0" style="stop-color:#CE435D"/>
		<stop  offset="0.1158" style="stop-color:#BA354F"/>
		<stop  offset="0.2712" style="stop-color:#A82944"/>
		<stop  offset="0.447" style="stop-color:#9B203C"/>
		<stop  offset="0.6582" style="stop-color:#941B37"/>
		<stop  offset="1" style="stop-color:#921936"/>
	</linearGradient>
	<path class="st5" d="M58.4,89.2l1.5-0.9l0-52l-0.4-0.6l0.4-0.1v-0.1h0.3l4.6-1.6l0.8,1.4c0,0,0.1,0.1,0.1,0.4l-0.1,47.4h11.2
		l0.9,1.4c0.1,0.1,0.1,0.2,0.1,0.6v4.8c0,0.3-0.2,0.4-0.3,0.4H60.4c-0.4,0-0.8-0.2-0.9-0.2L58.4,89.2z M114,58.7l-38.1,0v6.1
		l0.9,1.3l0,0c0,0,0.1,0.1,0.3,0.1h29h2.8h0h0c-1.6,24.1-22,43-46.3,43c-12.4,0-24-4.8-32.8-13.5C21.2,87,16.4,75.5,16.4,63.1
		c0-12.3,4.6-24.1,13.3-32.8c8.8-8.7,19.9-13.3,33.1-13.5l2.5,0h0.3c0.2,0,0.3,0,0.3-0.4v-5c0-0.4-0.1-0.5-0.1-0.5l-1.1-1.4
		l-2.5,0.4l-1.3,0.4c-28.9,0-50.6,24.2-50.6,53c0,13.9,5.5,27.1,15.4,36.9c9.9,9.9,23,14.9,37,14.9c14.1,0,27.3-5.3,37.2-15.2
		c9.9-9.9,15.4-23,15.4-36.9v-3L114,58.7z M42.7,34.6c-4.6,0-8.3,3.7-8.3,8.2c0,4.5,3.7,8.2,8.3,8.2c4.6,0,8.3-3.7,8.3-8.2
		C51,38.3,47.3,34.6,42.7,34.6z"/>
	<polygon class="st6" points="59.7,88 58.4,89.2 76.9,89.2 75.7,88 	"/>
	<polygon class="st7" points="75.7,84.3 76.9,83.1 64.8,83.1 63.3,84.3 	"/>
	<polygon class="st8" points="64.8,33.9 58.4,33.9 59.6,35 63.4,35 	"/>

		<linearGradient id="SVGID_4_" gradientUnits="userSpaceOnUse" x1="63.4161" y1="67.1047" x2="64.7883" y2="67.1047" gradientTransform="matrix(1 0 0 -1 0 126.1485)">
		<stop  offset="0" style="stop-color:#B4BDC3"/>
		<stop  offset="5.460000e-02" style="stop-color:#A9B3B9"/>
		<stop  offset="0.5061" style="stop-color:#646A71"/>
		<stop  offset="0.833" style="stop-color:#3F464E"/>
		<stop  offset="1" style="stop-color:#343B42"/>
	</linearGradient>
	<polygon class="st9" points="63.5,84.2 64.8,83.1 64.8,33.9 63.4,35 	"/>

		<linearGradient id="SVGID_5_" gradientUnits="userSpaceOnUse" x1="75.6637" y1="40.0049" x2="76.8729" y2="40.0049" gradientTransform="matrix(1 0 0 -1 0 126.1485)">
		<stop  offset="0" style="stop-color:#B4BBC2"/>
		<stop  offset="0.1586" style="stop-color:#959CA2"/>
		<stop  offset="0.5603" style="stop-color:#565D62"/>
		<stop  offset="0.8514" style="stop-color:#363D42"/>
		<stop  offset="1" style="stop-color:#2B3337"/>
	</linearGradient>
	<polygon class="st10" points="75.7,84.3 75.7,88 76.9,89.2 76.9,83.1 	"/>
	<polygon class="st11" points="58.4,33.9 58.4,89.2 59.7,88 59.6,35 	"/>
	<path class="st12" d="M35.1,41.9c0,3.8,3.1,6.8,6.9,6.8c3.8,0,6.8-3,6.8-6.8c0-3.8-3.1-6.8-6.8-6.8C38.1,35.1,35.1,38.1,35.1,41.9z
		"/>

		<linearGradient id="SVGID_6_" gradientUnits="userSpaceOnUse" x1="-933.6089" y1="250.3079" x2="-932.2076" y2="250.3079" gradientTransform="matrix(8.1027 8.1027 -8.1027 8.1027 9629.1699 5572.8286)">
		<stop  offset="0" style="stop-color:#ACBCC3"/>
		<stop  offset="1" style="stop-color:#272B31"/>
	</linearGradient>
	<path class="st13" d="M33.9,41.9c0,4.4,3.6,8,8,8c4.4,0,8-3.6,8-8c0-4.4-3.6-8-8-8C37.5,33.9,33.9,37.5,33.9,41.9z M48.8,41.9
		c0,3.8-3.1,6.8-6.8,6.8c-3.8,0-6.9-3-6.9-6.8c0-3.8,3.1-6.8,6.9-6.8C45.7,35.1,48.8,38.1,48.8,41.9z"/>
	<polygon class="st14" points="108.8,63.5 76.8,63.4 75.6,64.7 107.5,64.7 108.2,64 	"/>
	<path class="st15" d="M64.7,15.5L64.7,15.5L64.7,15.5z"/>
	<polygon class="st16" points="76.8,59.8 112.5,59.8 113.8,58.5 75.6,58.6 	"/>

		<linearGradient id="SVGID_7_" gradientUnits="userSpaceOnUse" x1="-1000.9583" y1="286.0836" x2="-999.5571" y2="286.0836" gradientTransform="matrix(53.1048 53.1048 -53.1048 53.1048 68367.7969 37992.2383)">
		<stop  offset="0" style="stop-color:#B4BDC3"/>
		<stop  offset="1" style="stop-color:#3F464E"/>
	</linearGradient>
	<path class="st17" d="M113.8,61.6v-3l-1.2,1.2v1.8c0,13.6-5.3,26.4-14.9,36.1c-9.6,9.6-22.4,14.9-36.1,14.9
		c-13.6,0-26.4-5.3-36-14.9C15.9,88,10.6,75.2,10.6,61.6c0-28.1,22.9-51,50.9-51l2,0l1.2-1.2l-3.1,0C32.8,9.4,9.4,32.8,9.4,61.6
		c0,13.9,5.4,27.1,15.3,36.9c9.8,9.9,22.9,15.3,36.9,15.3c14,0,27.1-5.4,36.9-15.3C108.3,88.6,113.8,75.5,113.8,61.6z"/>

		<linearGradient id="SVGID_8_" gradientUnits="userSpaceOnUse" x1="-1027.9059" y1="288.0257" x2="-1026.5026" y2="288.0257" gradientTransform="matrix(-67.4051 0 0 -67.4051 -69177.3203 19475.9727)">
		<stop  offset="0" style="stop-color:#B4BDC3"/>
		<stop  offset="1" style="stop-color:#49535B"/>
	</linearGradient>
	<path class="st18" d="M63.5,14.3l-1.3,0h-1.3c-12.3,0.2-23.9,5.1-32.7,13.8C19.2,37,14.3,48.9,14.3,61.6c0,12.6,4.9,24.5,13.8,33.4
		c8.8,8.8,20.4,13.7,32.8,13.9h1.2c24.5-0.3,44.9-19.6,46.6-44.1l0-1.3l-0.6,0.6l-0.6,0.7c-1.7,24.1-21.8,43-46,43
		c-12.3,0-23.9-4.8-32.6-13.5c-8.7-8.7-13.5-20.3-13.5-32.6c0-12.3,4.8-23.9,13.5-32.6c8.7-8.7,20.3-13.5,32.6-13.5l3.1,0L63.5,14.3
		z"/>
	<path class="st15" d="M64.7,15.5"/>

		<linearGradient id="SVGID_9_" gradientUnits="userSpaceOnUse" x1="-1027.2515" y1="288.7088" x2="-1027.2515" y2="288.7088" gradientTransform="matrix(-67.4051 0 0 -67.4051 -69177.3203 19475.9727)">
		<stop  offset="0" style="stop-color:#ABB8C2"/>
		<stop  offset="1" style="stop-color:#102029"/>
	</linearGradient>
	<path class="st19" d="M64.7,15.5"/>
	<polygon class="st11" points="76.8,59.8 75.6,58.6 75.6,64.7 76.8,63.4 	"/>

		<linearGradient id="SVGID_10_" gradientUnits="userSpaceOnUse" x1="63.4798" y1="113.6866" x2="64.6673" y2="113.6866" gradientTransform="matrix(1 0 0 -1 0 126.1485)">
		<stop  offset="0" style="stop-color:#B4BBC2"/>
		<stop  offset="0.1586" style="stop-color:#959CA2"/>
		<stop  offset="0.5603" style="stop-color:#565D62"/>
		<stop  offset="0.8514" style="stop-color:#363D42"/>
		<stop  offset="1" style="stop-color:#2B3337"/>
	</linearGradient>
	<polygon class="st20" points="63.5,14.3 64.7,15.5 64.7,9.4 63.5,10.5 	"/>

		<radialGradient id="SVGID_11_" cx="330.8199" cy="397.3737" r="113.0675" gradientTransform="matrix(0.6971 0 0 -0.6971 -189.8595 316.7438)" gradientUnits="userSpaceOnUse">
		<stop  offset="0" style="stop-color:#FFFFFF"/>
		<stop  offset="0.35" style="stop-color:#FFFFFF"/>
		<stop  offset="0.4976" style="stop-color:#FCFCFD"/>
		<stop  offset="0.6499" style="stop-color:#F1F4F6"/>
		<stop  offset="0.8044" style="stop-color:#E0E6E9"/>
		<stop  offset="0.9596" style="stop-color:#C7D2D8"/>
		<stop  offset="1" style="stop-color:#C0CDD3"/>
	</radialGradient>
	<path class="st21" d="M59.1,34.6v54h17.2v-4.8H64V34.6H59.1z M60.9,10C32.8,10.3,10,33.3,10,61.6c0,13.8,5.4,26.7,15.1,36.5
		c9.7,9.7,22.7,15.1,36.4,15.1c13.8,0,26.8-5.4,36.5-15.1s15.1-22.7,15.1-36.5v-2.3l-2,0H76.3V64h31.9c0,0.1,0,0.6,0,0.7
		c-1.7,24.3-21.9,43.6-46.6,43.6c-12.5,0-24.2-4.9-33-13.7c-8.8-8.8-13.7-20.5-13.7-33c0-12.5,4.9-24.2,13.7-33
		c8.9-8.8,20.6-13.7,33-13.7c0.5,0,1.9,0,2.5,0V10c-0.5,0-1.3,0-1.9,0C62.1,10,60.9,10,60.9,10z"/>

		<radialGradient id="SVGID_12_" cx="328.0371" cy="398.1586" r="16.5061" gradientTransform="matrix(0.6971 0 0 -0.6971 -189.8595 316.7438)" gradientUnits="userSpaceOnUse">
		<stop  offset="0" style="stop-color:#FFFFFF"/>
		<stop  offset="0.35" style="stop-color:#FFFFFF"/>
		<stop  offset="0.5211" style="stop-color:#FCFDFD"/>
		<stop  offset="0.6984" style="stop-color:#F2F5F6"/>
		<stop  offset="0.8778" style="stop-color:#E0E7EB"/>
		<stop  offset="1" style="stop-color:#D0DBE0"/>
	</radialGradient>
	<path class="st22" d="M34.5,41.9c0,4.1,3.3,7.4,7.4,7.4s7.4-3.3,7.4-7.4c0-4.1-3.3-7.4-7.4-7.4S34.5,37.8,34.5,41.9"/>
	<g>
		<path class="st23" d="M43.2,35.9c1.7,0,3.2,0.6,4.5,1.6c-1.3-1.8-3.5-2.9-5.8-2.9c-4.1,0-7.4,3.3-7.4,7.4c0,2.4,1.1,4.4,2.9,5.8
			c-1-1.2-1.5-2.8-1.5-4.4C35.8,39.2,39.1,35.9,43.2,35.9"/>
		<path class="st23" d="M64,10c-0.6,0-1.9,0-2.5,0C33.1,10,10,33.1,10,61.6c0,13.8,5.4,26.7,15.1,36.5c0.3,0.3,0.6,0.6,0.9,0.9
			c-9.2-9.6-14.2-22.2-14.2-35.5C11.8,35,31.9,11.5,64,10"/>
		<path class="st23" d="M64,83.7c0,0,3.5,1,12.2,1v-1H64z"/>
		<path class="st23" d="M64,36.1v-1.5h-4.9v54c0,0,1.5-8.2,1.5-52.5L64,36.1L64,36.1z"/>
		<path class="st23" d="M113.1,59.2l-36.8,0V64h1.3v-3.4C109.7,60.6,113.1,59.2,113.1,59.2"/>
		<path class="st23" d="M108.2,64c0,0.1,0,0.6,0,0.7c-1.6,24.3-21.9,43.6-46.6,43.6c-12.5,0-24.2-4.9-33-13.7
			c-5.8-5.7-9.8-12.8-11.9-20.4c5.5,20.1,23.9,34.7,45.8,34.7c23.5,0,45.1-18.4,46.4-44.9H108.2z"/>
	</g>
</g>
</svg>
