<svg xmlns="http://www.w3.org/2000/svg" width="162" height="101" viewBox="0 0 162 101">
  <g fill="none" fill-rule="evenodd">
    <g fill="#141516">
      <path d="M17.906 78.333h117.188V4.51H17.906v73.824zM134.314 0H18.686C16.098 0 14 2.113 14 4.72V84h125V4.72c0-2.607-2.098-4.72-4.686-4.72z"/>
      <path d="M143.63 89H9.37a12.274 12.274 0 0 1-8.184-3.13l-.997-.891A.56.56 0 0 1 .56 84h151.88a.56.56 0 0 1 .372.979l-.997.892A12.275 12.275 0 0 1 143.631 89"/>
    </g>
    <path fill="#FFF" d="M124.176 18h29.648A6.175 6.175 0 0 1 160 24.174v68.652A6.175 6.175 0 0 1 153.824 99h-29.648A6.175 6.175 0 0 1 118 92.826V24.174A6.175 6.175 0 0 1 124.176 18"/>
    <path stroke="#006AFF" stroke-width="3" d="M124.176 18h29.648A6.175 6.175 0 0 1 160 24.174v68.652A6.175 6.175 0 0 1 153.824 99h-29.648A6.175 6.175 0 0 1 118 92.826V24.174A6.175 6.175 0 0 1 124.176 18z"/>
    <path fill="#006AFF" d="M126 19.25V18h25v1.25c-.571-.003-.98.414-1.226 1.25a2.069 2.069 0 0 1-1.976 1.5h-18.596c-.911 0-1.715-.61-1.976-1.5-.246-.836-.655-1.253-1.226-1.25"/>
  </g>
</svg>