<svg xmlns="http://www.w3.org/2000/svg" xmlns:xlink="http://www.w3.org/1999/xlink" width="104" height="32" viewBox="0 0 104 32">
  <defs>
    <path id="a" d="M0 0h28.044v31.504H0z"/>
    <path id="c" d="M.015.011h78.434v25.68H.015z"/>
  </defs>
  <g fill="none" fill-rule="evenodd">
    <g>
      <mask id="b" fill="#fff">
        <use xlink:href="#a"/>
      </mask>
      <path fill="#6C3C97" fill-rule="nonzero" d="M28.044 31.504h-9.531l-7.568-10.501H8.4V31.48H0V0h12.034c6.937 0 12.6 4.718 12.6 10.522 0 3.54-2.171 6.702-5.475 8.636l8.885 12.346M16.233 10.522c0-2.928-2.356-5.286-5.236-5.286H8.4v10.525h2.597c2.88 0 5.236-2.36 5.236-5.24" mask="url(#b)"/>
    </g>
    <g transform="translate(24.619 6.31)">
      <mask id="d" fill="#fff">
        <use xlink:href="#c"/>
      </mask>
      <path fill="#6C3C97" fill-rule="nonzero" d="M45.542.534l-9.677 9.675V.502h-8.398v24.67h8.398V15.165l10.103 10.007h10.57l-12.837-12.84L54.334 1.704v14.64c0 4.862 2.924 9.347 10.285 9.347 3.495 0 6.702-1.982 8.26-3.775l3.777 3.257h1.793V.534H70.05v15.952c-.946 1.65-2.263 2.688-4.3 2.688-2.067 0-3.015-1.225-3.015-5.143V.534H45.542zM25.829 12.85c0 7.13-5.799 12.84-12.93 12.84C5.771 25.69.015 19.98.015 12.85.015 5.725 5.77.01 12.899.01c7.131 0 12.93 5.714 12.93 12.839v.001zM12.9 6.102c-2.218 0-4.105 3.015-4.105 6.748 0 3.732 1.887 6.752 4.105 6.752 2.27 0 4.154-3.02 4.154-6.752 0-3.733-1.884-6.748-4.154-6.748z" mask="url(#d)"/>
    </g>
  </g>
</svg>
