<svg xmlns="http://www.w3.org/2000/svg" xmlns:xlink="http://www.w3.org/1999/xlink" width="141" height="55" viewBox="0 0 141 55">
  <defs>
    <path id="a" d="M0 1.003h16.175v22.01H0z"/>
    <path id="c" d="M0 .006h6.834v11.04H0z"/>
  </defs>
  <g fill="none" fill-rule="evenodd">
    <path fill="#1954A5" d="M41.928 32.447v12.167l-9.62-6.804z"/>
    <path fill="#8EA955" d="M22.737 32.447v12.167l9.62-6.804z"/>
    <path fill="#FFDD2E" d="M32.358 20.142l-12.437 7.01 12.437-.035z"/>
    <path fill="#EBBAB6" d="M32.348 20.142l12.433 7.01-12.433-.035z"/>
    <path fill="#C9DA36" d="M32.358 37.81l-12.41 8.7h12.41z"/>
    <path fill="#14B0E6" d="M32.348 37.81l12.42 8.7h-12.42z"/>
    <path fill="#F5EF85" d="M19.948 46.51l12.399 8.483V46.51z"/>
    <path fill="#9CDBF8" d="M32.347 46.51v8.483L44.73 46.51z"/>
    <path fill="#F58B32" d="M19.948 27.119h12.437v6.909z"/>
    <path fill="#EE4D8E" d="M44.794 27.119H32.36v6.909z"/>
    <path fill="#231F20" d="M44.766 46.545V27.118l-12.41 6.91-12.408-6.91v19.418l2.789 1.891v-15.98l9.62 5.316 9.571-5.33v15.994zM81.342 39.47a6.041 6.041 0 0 0 2.651-1.93c.852-1.072 1.283-2.357 1.283-3.813 0-.947-.167-1.82-.491-2.6a5.527 5.527 0 0 0-1.486-2.063c-.645-.564-1.444-1.003-2.368-1.3-.906-.29-1.955-.438-3.126-.438H69.77V48.6h2.814V30.028h5.222c1.504 0 2.665.327 3.466.958.76.62 1.13 1.514 1.13 2.741s-.37 2.122-1.13 2.739c-.797.636-1.962.964-3.466.964H74.36v2.674h4.159l3.95 8.496h3.096l-4.223-9.13zM87.676 27.325v2.729h6.4v18.548h2.82V30.054h6.43v-2.729zM54.169 39.425l2.875-7.551 2.933 7.556-5.808-.005zm4.068-12.1h-2.371l-8.164 21.277h2.972l2.571-6.666 7.736.036 2.569 6.63h2.943l-8.256-21.276z"/>
    <g transform="translate(0 25.956)">
      <mask id="b" fill="#fff">
        <use xlink:href="#a"/>
      </mask>
      <path fill="#231F20" d="M15.743 14.36a5.883 5.883 0 0 0-1.222-1.857 6.742 6.742 0 0 0-1.849-1.33 7.502 7.502 0 0 0-2.343-.684l-3.816-.475a6.4 6.4 0 0 1-1.202-.279 2.942 2.942 0 0 1-.923-.51 2.413 2.413 0 0 1-.612-.81c-.156-.322-.233-.73-.233-1.235 0-.548.099-.994.311-1.364a3.96 3.96 0 0 1 .829-1.038 3.749 3.749 0 0 1 1.49-.788 6.994 6.994 0 0 1 1.905-.257c.841 0 1.622.136 2.319.408.665.252 1.181.614 1.554 1.078.28.323.494.656.631.993.15.352.261.759.32 1.209l.088.564h2.815l-.06-.716c-.064-.798-.25-1.515-.546-2.132a7.337 7.337 0 0 0-1.15-1.709c-.637-.733-1.507-1.327-2.601-1.77a8.917 8.917 0 0 0-3.37-.655 8.917 8.917 0 0 0-2.95.49c-.958.329-1.793.808-2.477 1.43A6.751 6.751 0 0 0 1.25 4.696C.864 5.39.668 6.224.668 7.18c0 .858.143 1.628.419 2.282a5.04 5.04 0 0 0 1.194 1.724c.497.48 1.094.862 1.77 1.138a8.86 8.86 0 0 0 2.152.556l3.755.476a4.453 4.453 0 0 1 1.424.397c.42.206.766.45 1.057.743.277.283.495.607.64.972.146.352.218.726.218 1.114 0 .534-.088 1.005-.262 1.381-.186.391-.425.73-.72 1.01-.475.447-1.073.776-1.779.983a8.478 8.478 0 0 1-2.344.324 6.653 6.653 0 0 1-2.221-.37 4.587 4.587 0 0 1-1.735-1.06 5.14 5.14 0 0 1-.856-1.215 4.585 4.585 0 0 1-.44-1.478l-.078-.577H0l.067.727c.084.844.312 1.646.663 2.383a7.514 7.514 0 0 0 1.34 1.97 6.886 6.886 0 0 0 2.704 1.776c1.034.38 2.188.578 3.418.578 1.232 0 2.388-.177 3.445-.514a7.163 7.163 0 0 0 2.747-1.626 6.55 6.55 0 0 0 1.282-1.78c.335-.691.51-1.537.51-2.512a5.83 5.83 0 0 0-.433-2.221" mask="url(#b)"/>
    </g>
    <path fill="#231F20" d="M130.9 48.675h1.872L141 27.233h-2.147l-7 18.39-7.153-18.39h-15.668v1.955h6.729v19.487h2.042V29.188h5.543zM41.928 32.43v15.998l2.837-1.883V27.117l-12.408 6.91v3.735z"/>
    <g transform="translate(0 .03)">
      <mask id="d" fill="#fff">
        <use xlink:href="#c"/>
      </mask>
      <path fill="#231F20" d="M1.76 5.452C.456 4.992.086 3.947.086 2.938v-.263C.087.958 1.056.006 3.003.006h.962c1.539 0 2.488.662 2.488 2.255 0 .368-.187.707-.706.707-.491 0-.709-.34-.709-.707 0-.627-.445-.905-1.073-.905h-.962c-1.057 0-1.506.4-1.506 1.32v.262c0 .626.371 1.009.835 1.177l2.74.986c1.166.41 1.762 1.268 1.762 2.585v.538c0 1.718-.966 2.821-2.912 2.821H2.48C.947 11.045 0 10.387 0 8.791c0-.366.18-.703.704-.703.489 0 .7.337.7.703 0 .645.452.905 1.076.905h1.442c1.057 0 1.517-.553 1.517-1.472v-.538c0-.672-.304-1.043-.768-1.21L1.76 5.451z" mask="url(#d)"/>
    </g>
    <path fill="#231F20" d="M12.92 9.634V6.906h-2.148c-.627 0-.935.309-.935.798v1.148c0 .459.308.782.935.782h2.149zM11.85 2.95c1.514 0 2.452.968 2.452 2.363v4.905c0 .364-.218.705-.706.705h-2.823c-1.407 0-2.315-.658-2.315-2.07v-1.18c0-1.408.908-2.052 2.315-2.052h2.149v-.292c0-.768-.445-1.088-1.072-1.088h-1.98c-.38 0-.687-.186-.687-.644 0-.46.307-.647.687-.647h1.98zM23.896 5.742c0-.92-.428-1.472-1.454-1.472h-.877v6.1c0 .37-.183.706-.69.706-.5 0-.692-.336-.692-.706v-6.1h-2.33v6.1c0 .37-.18.706-.686.706s-.694-.336-.694-.706V3.657c0-.383.203-.705.694-.705h5.275c1.912 0 2.832 1.072 2.832 2.79v4.628c0 .37-.18.706-.688.706-.522 0-.69-.336-.69-.706V5.742zM29.476 11.076c-1.408 0-2.25-.569-2.25-1.855 0-.4.155-.72.683-.72.526 0 .647.32.677.72.017.353.336.614.89.614h1.24c.737 0 .964-.37.964-.83V8.47c0-.367-.193-.567-.562-.676l-2.41-.672c-.92-.26-1.392-.889-1.392-1.886v-.366c0-1.41.795-2.07 2.328-2.07h.858c1.411 0 2.257.566 2.257 1.854 0 .4-.153.72-.679.72-.519 0-.655-.32-.69-.72-.015-.354-.322-.613-.874-.613h-.872c-.75 0-.98.368-.98.829v.366c0 .338.188.568.563.676l2.394.658c.935.262 1.411.87 1.411 1.9v.536c0 1.412-.812 2.071-2.317 2.071h-1.239zM36.252 8.132c0 .921.432 1.472 1.458 1.472h1.839V3.502c0-.366.166-.705.689-.705.489 0 .69.339.69.705v6.718c0 .377-.201.7-.69.7H37.71c-1.918 0-2.838-1.071-2.838-2.788v-4.63c0-.366.187-.705.686-.705.526 0 .694.339.694.705v4.63zM47.871 5.742c0-.92-.429-1.472-1.459-1.472h-1.835v6.1c0 .37-.171.706-.691.706-.488 0-.69-.336-.69-.706V3.657c0-.383.202-.705.69-.705h2.526c1.919 0 2.836 1.072 2.836 2.79v4.628c0 .37-.181.706-.687.706-.522 0-.69-.336-.69-.706V5.742zM54.112 4.27c-1.028 0-1.489.707-1.489 1.685v2.176c0 .922.414 1.472 1.44 1.472h1.859V4.27h-1.81zm3.187 7.494c0 1.704-.964 2.99-2.885 2.99h-1.713c-.354 0-.677-.17-.677-.659 0-.46.323-.657.677-.657h1.713c1.032 0 1.508-.691 1.508-1.674v-.843h-1.858c-1.919 0-2.824-1.072-2.824-2.79V5.955c0-1.715.955-3.006 2.872-3.006h2.484c.503 0 .703.338.703.706v8.109z"/>
  </g>
</svg>