<svg width="48" height="48" viewBox="0 0 48 48" fill="none" xmlns="http://www.w3.org/2000/svg">
<g clip-path="url(#clip0)">
<path d="M45.7655 36.4613L45.7576 36.478L45.7625 36.4958L47.9246 44.3739C48.0848 45.1877 47.4673 45.95 46.6422 45.95C46.6253 45.95 46.6093 45.9475 46.5761 45.9378C46.5416 45.9278 46.4945 45.9121 46.4138 45.8868C46.2544 45.837 45.974 45.7535 45.4418 45.6187C44.3776 45.349 42.3056 44.8738 38.1785 44.0508L38.1622 44.0476L38.1471 44.0548C29.3763 48.2509 18.8155 43.4617 16.186 33.9123L16.1764 33.8773L16.1402 33.8756C14.0549 33.7752 12.0532 33.2721 10.1714 32.3718L10.1548 32.3638L10.137 32.3685L1.61012 34.6286C0.699323 34.8093 -0.105098 33.998 0.0756873 33.0779L2.55585 24.8139L2.56135 24.7956L2.55321 24.7783C1.55081 22.646 1.04291 20.3591 1.04291 17.9728C1.04291 9.1929 8.16541 2.05 16.9198 2.05C24.0286 2.05 30.2421 6.84321 32.1337 13.7157L32.1433 13.7506L32.1795 13.7524C40.5727 14.162 47.2758 21.1384 47.2758 29.6558C47.2758 32.0421 46.7679 34.329 45.7655 36.4613ZM3.04003 31.5785L3.01134 31.6671L3.10106 31.642L10.0857 29.6895C10.373 29.6325 10.6713 29.6747 10.9323 29.8093C12.4119 30.5722 13.985 31.0349 15.627 31.1941L15.6871 31.1999L15.6816 31.1398C14.8822 22.4575 21.1132 14.9287 29.3855 13.8619L29.4454 13.8542L29.4266 13.7967C27.6679 8.43652 22.6353 4.6882 16.9198 4.6882C9.60692 4.6882 3.65772 10.6477 3.65772 17.9728C3.65772 20.1001 4.14087 22.1318 5.09346 24.0115L5.09348 24.0115C5.22741 24.2754 5.2691 24.5773 5.21211 24.868L3.04003 31.5785ZM44.9015 42.9392L44.9851 42.9588L44.9609 42.8764L43.1068 36.5517C43.0496 36.2607 43.0913 35.9586 43.2253 35.6945L43.1807 35.6719L43.2253 35.6945C44.178 33.8148 44.6611 31.7831 44.6611 29.6558C44.6611 22.3307 38.7118 16.3712 31.3989 16.3712C24.1356 16.3712 18.2273 22.3311 18.2273 29.6558C18.2273 36.9806 24.1356 42.9405 31.3989 42.9405C33.5082 42.9405 35.5228 42.4531 37.3865 41.4923C37.6478 41.3576 37.9463 41.3155 38.2341 41.3727C38.2344 41.3727 38.2347 41.3728 38.235 41.3728L44.9015 42.9392Z" fill="black" stroke="white" stroke-width="0.1"/>
<path d="M36.524 25.4499L30.5057 31.8981L27.3895 29.1162C26.8435 28.6281 25.956 28.6281 25.41 29.1162C24.8633 29.6043 24.8633 30.3956 25.41 30.8837L29.6098 34.6337C29.8736 34.8688 30.2299 35 30.6002 35C30.6212 35 30.6429 35 30.6639 34.9988C31.0566 34.9831 31.4241 34.82 31.676 34.55L38.6756 27.05C39.1705 26.5193 39.09 25.7318 38.4964 25.2893C37.9022 24.8481 37.0188 24.9193 36.524 25.4499Z" fill="black"/>
</g>
<defs>
<clipPath id="clip0">
<rect width="48" height="48" fill="white"/>
</clipPath>
</defs>
</svg>
