<svg width="48" height="48" viewBox="0 0 48 48" fill="none" xmlns="http://www.w3.org/2000/svg">
<path d="M4.21875 13.4062H10.6039C13.0448 5.64506 20.3071 0 28.8636 0C39.4154 0 48 8.58459 48 19.1364C48 22.8084 46.9661 26.3481 45.0029 29.4206L47.9127 37.2937C48.103 37.8087 47.9763 38.3874 47.5881 38.7757C47.3196 39.0442 46.96 39.1876 46.5935 39.1876C46.43 39.1876 46.2651 39.159 46.1062 39.1003L37.8347 36.0431C36.1131 36.9577 34.259 37.6011 32.3438 37.9543V39.1875C32.3438 41.5137 30.4512 43.4062 28.125 43.4062H8.19534L2.232 47.7321C1.98731 47.9095 1.69753 48 1.40606 48C1.188 48 0.968998 47.9493 0.767342 47.8464C0.296436 47.6063 0 47.1224 0 46.5938V17.625C0 15.2988 1.89244 13.4062 4.21875 13.4062ZM37.7175 33.0944C37.8819 33.0944 38.0471 33.1233 38.205 33.1816L44.2156 35.4031L42.1168 29.7244C41.9575 29.2935 42.0188 28.8121 42.2809 28.4347C44.1823 25.6965 45.1875 22.4812 45.1875 19.1364C45.1875 10.1354 37.8646 2.8125 28.8636 2.8125C19.8624 2.8125 12.5396 10.1353 12.5396 19.1364C12.5396 28.1375 19.8624 35.4603 28.8636 35.4603C31.7298 35.4603 34.5481 34.7074 37.014 33.2829C37.2305 33.158 37.4733 33.0944 37.7175 33.0944ZM2.8125 43.8365L6.91331 40.8618C7.1535 40.6877 7.44244 40.5938 7.73906 40.5938H28.125C28.9004 40.5938 29.5312 39.963 29.5312 39.1876V38.2601C29.309 38.2679 29.0865 38.2728 28.8637 38.2728C18.3117 38.2728 9.72722 29.6883 9.72722 19.1364C9.72722 18.1447 9.80316 17.1703 9.94931 16.2188H4.21875C3.44334 16.2188 2.8125 16.8496 2.8125 17.625V43.8365Z" fill="black"/>
<path d="M27.375 26.0626V12.1875C27.375 11.4109 28.0046 10.7812 28.7812 10.7812C29.5579 10.7812 30.1875 11.4109 30.1875 12.1875V26.0625C30.1875 26.8391 29.5579 27.4688 28.7812 27.4688C28.0046 27.4688 27.375 26.8392 27.375 26.0626Z" fill="black"/>
<path d="M23.1562 22.2019C22.3796 22.2019 21.75 21.5723 21.75 20.7956V17.4545C21.75 16.6778 22.3796 16.0482 23.1562 16.0482C23.9329 16.0482 24.5625 16.6778 24.5625 17.4545V20.7956C24.5625 21.5723 23.9329 22.2019 23.1562 22.2019Z" fill="black"/>
<path d="M34.4062 16.0482C35.1829 16.0482 35.8125 16.6778 35.8125 17.4545V20.7956C35.8125 21.5723 35.1829 22.2019 34.4062 22.2019C33.6296 22.2019 33 21.5723 33 20.7956V17.4545C33 16.6778 33.6296 16.0482 34.4062 16.0482Z" fill="black"/>
<path d="M17.5312 24.4517C16.7546 24.4517 16.125 23.8221 16.125 23.0455V15.2045C16.125 14.4279 16.7546 13.7983 17.5312 13.7983C18.3079 13.7983 18.9375 14.4279 18.9375 15.2045V23.0455C18.9375 23.8221 18.3079 24.4517 17.5312 24.4517Z" fill="black"/>
<path d="M40.0312 13.7983C40.8079 13.7983 41.4375 14.4279 41.4375 15.2045V23.0455C41.4375 23.8221 40.8079 24.4517 40.0312 24.4517C39.2546 24.4517 38.625 23.8221 38.625 23.0455V15.2045C38.625 14.4279 39.2546 13.7983 40.0312 13.7983Z" fill="black"/>
</svg>
