<svg width="250" height="211" viewBox="0 0 280 236" fill="none" xmlns="http://www.w3.org/2000/svg">
<g clip-path="url(#clip0)">
<path d="M92.1225 78.076C93.9665 76.4411 96.164 75.3336 98.527 74.5421C102.825 72.8028 111.826 71.0049 111.826 71.0049C115.233 70.7829 118.617 70.7539 121.89 71.8002C126.755 73.3556 129.159 76.4334 129.211 81.3195C129.231 83.1822 129.094 85.0474 129.084 86.9113C129.073 89.0454 129.218 89.1108 131.383 88.7133C133.048 88.4074 140.752 87.2223 142.693 86.8484C147.622 85.9012 152.484 84.6264 157.444 83.8464C159.216 83.5676 161.432 83.4635 163.768 83.2966C164.135 86.4226 164.73 89.5027 165.784 92.5118C158.619 120.756 155.461 125.952 154.025 125.909C144.685 125.618 135.349 126.263 126.012 126.418C120.729 126.507 115.495 126.051 110.501 124.299C106.749 122.984 103.941 120.74 102.519 117.094C101.843 115.361 101.155 113.631 100.531 111.878C98.5694 106.369 96.287 101.017 92.6764 96.2878C91.5379 94.7966 90.4151 93.2909 89.5348 91.6331C86.9934 86.8429 87.9211 81.8004 92.1225 78.076Z" fill="#E0D7FB"/>
<path d="M98.9345 82.1899C98.3824 79.3911 118.015 75.4231 118.816 78.4139C121.136 87.0753 100.581 90.5355 98.9345 82.1899Z" fill="#CABDF3"/>
<path d="M102.709 77.8988C101.219 82.916 101.151 83.7137 104.131 83.8906C107.709 84.1031 108.281 84.0478 111.139 83.7705C114.57 83.4376 115.665 83.1449 116.061 81.2377C116.66 79.6643 117.046 78.0103 117.528 76.3921C118.92 70.909 119.94 65.3222 122.02 60.0271C122.427 58.9898 123.033 58.4187 124.185 57.9878C126.99 56.9402 129.035 54.9302 130.284 52.2855C131 50.7696 130.912 49.1959 129.262 48.1644C128.254 47.5344 128.146 46.7288 128.403 45.8546C128.759 44.646 128.261 43.834 127.371 43.0585C125.158 41.1259 122.969 39.1659 120.769 37.2188C119.994 36.5341 119.029 36.1768 118.08 35.8397C115.976 35.0959 114.015 36.0594 113.101 38.2721C112.348 40.0964 112.286 42.0662 112.088 43.9973C111.75 47.3039 111.491 50.619 111.173 53.9288C111.111 54.5699 111.057 55.2505 110.8 55.8259C108.524 60.9439 103.213 76.1992 102.709 77.8988Z" fill="#FFB599"/>
<path d="M138.142 37.4231C131.772 37.3828 120.204 38.2168 114.115 38.8262C112.69 38.8852 111.004 39.5664 110.667 40.9708L109.865 46.5942C109.425 48.4362 110.654 50.2325 112.507 50.4521L136.978 53.3469C138.659 53.5466 140.215 52.3634 140.502 50.6716L140.66 40.8872C140.985 38.9703 140.061 37.4354 138.142 37.4231Z" fill="#002E31"/>
<path d="M138.186 53.608C137.44 52.6393 136.681 38.0392 137.775 37.7459C143.276 36.2719 143.31 52.9456 138.186 53.608Z" fill="#627475"/>
<path d="M130.542 49.0726C129.845 46.6114 127.467 45.0237 126.121 42.8419C125.835 42.379 125.59 41.8782 125.202 41.4935C124.815 41.1079 124.232 40.8529 123.712 41.0248C123.492 41.0977 123.302 41.2397 123.136 41.4007C122.037 42.4692 122.063 44.3095 122.786 45.6611C123.511 47.0118 124.779 47.9825 126.021 48.8886C124.824 48.0162 121.326 51.9392 121.063 52.8986C120.626 54.4883 121.603 56.1592 123.022 56.9096C127.211 59.1249 131.585 52.7554 130.542 49.0726Z" fill="#FFB599"/>
<mask id="mask0" mask-type="alpha" maskUnits="userSpaceOnUse" x="105" y="5" width="175" height="179">
<path d="M190.911 183.761C206.865 184.729 223.099 181.28 237.769 172.829C279.052 149.049 292.312 94.8507 267.385 51.7734C242.459 8.69735 188.786 -6.94401 147.503 16.8367C106.22 40.6174 92.9617 94.8146 117.888 137.891C122.607 146.046 128.36 153.213 134.861 159.32C127.859 164.898 119.065 170.544 108.798 174.392C108.798 174.392 145.149 183.323 190.911 183.761Z" fill="white"/>
</mask>
<g mask="url(#mask0)">
<rect opacity="0.15" x="43.0918" y="-37.4105" width="262.368" height="233.336" fill="url(#paint0_linear)"/>
<path d="M179.11 194.25C172.693 191.315 167.042 187.232 162.654 181.683C162.606 181.549 162.564 181.414 162.531 181.277C162.317 180.376 161.832 179.547 161.693 178.59C161.072 174.327 161.194 170.095 162.394 165.954C164.261 159.506 166.216 153.086 168.176 146.668C170.36 139.511 171.035 132.227 170.041 124.818C168.865 116.046 161.807 107.857 165.039 99.5502C166.582 95.5867 158.457 83.7763 163.676 83.5499C166.575 83.4241 183.568 88.5838 185.663 89.8764C185.357 91.3112 183.936 92.1592 183.259 93.3913C181.049 97.4097 181.397 93.3997 184.5 96.8609C186.511 99.1046 187.948 100.098 191 98.5C194.575 96.6276 197.655 99.2012 196.882 95.3839C196.639 94.1843 196.254 93.0119 195.934 91.8278C196.429 91.6932 196.902 91.6589 197.265 92.1195C198.382 93.8686 208.847 95.1955 210.077 96.8609C216.351 105.352 217.524 114.088 218.518 124.343C219.287 132.276 215.742 138.527 218.562 151.216C219.911 157.284 220.11 158.87 222.465 165.254C224.623 171.106 226.454 174.559 226.763 181.753C226.896 184.842 245.362 186.225 243.547 189.357C241.307 193.22 219.603 197.622 209.715 198.402C199.163 198.216 190.475 199.053 179.11 194.25Z" fill="#DCCFFF"/>
<path d="M241.056 142.894C240.754 142.573 240.582 142.03 239.847 142.098C239.714 142.543 239.892 142.979 240.001 143.415C240.563 145.674 241.15 147.926 241.682 150.19C243.403 157.513 245.118 160.919 248.87 167.423C249.806 169.68 250.711 171.931 250.597 174.401C251.559 179.756 248.663 186.158 245.154 188.799C239.638 192.952 234.289 194.318 227.159 195.602C226.525 193.258 226.339 190.228 223.984 186.352C221.441 179.271 218.226 172.458 215.559 165.431C213.708 160.552 212.76 155.451 212.243 150.253C211.631 144.114 211.259 137.966 211.743 131.823C212.168 126.434 212.433 121.039 212.788 115.647C213.041 111.81 212.822 107.982 212.247 104.197C211.84 101.515 209.599 97.4979 208.5 95C216.184 93.9851 225.398 95.0124 232.96 97.0933C233.706 97.2988 234.429 97.5439 235.14 97.8136C237.809 99.3485 240.18 101.384 242.164 104.061C243.303 105.597 244.533 107.127 246.146 108.206C250.304 110.984 253.469 114.588 255.631 119.083C256.744 121.397 258.514 122.872 261.13 123.249C264.943 123.8 267.964 125.639 270.17 128.796C270.484 129.245 270.872 129.64 271.213 130.069C272.61 131.824 274.37 133.068 276.407 134.021C278.805 135.142 281.381 135.607 283.903 136.271C285.984 136.82 287.997 137.498 289.623 138.978C295.278 144.132 297.056 150.479 295.287 157.826C294.348 161.724 292.088 165.207 289.203 167.966C284.854 172.124 279.551 174.501 273.483 174.263C267.463 174.027 263.214 171.142 260.917 165.546C260.033 163.393 258.961 161.32 258.239 159.098C258.007 158.386 257.637 157.744 256.825 157.443C253.689 156.282 251.434 153.954 249.211 151.61C246.475 148.722 243.783 145.792 241.056 142.894Z" fill="#DCCFFF"/>
<path fill-rule="evenodd" clip-rule="evenodd" d="M99.9729 75.053C97.6099 75.8445 95.4124 76.952 93.5684 78.5869C89.367 82.3113 88.4393 87.3538 90.9806 92.144C91.861 93.8017 92.9838 95.3074 94.1223 96.7987C97.7329 101.527 100.015 106.88 101.977 112.389C102.507 113.878 103.083 115.351 103.659 116.822C103.761 117.083 103.863 117.344 103.965 117.605C105.387 121.251 108.195 123.495 111.947 124.81C116.941 126.562 122.175 127.018 127.458 126.929C130.663 126.876 133.868 126.764 137.073 126.653C139.982 126.553 142.892 126.452 145.802 126.394C146.159 129.722 146.209 133.069 146.26 136.455C146.268 136.979 146.275 137.503 146.284 138.028C146.55 139.995 146.74 141.974 146.93 143.951C147.455 149.416 147.979 154.869 150.085 160.033C153.166 167.587 157.538 175.309 162.603 181.725C162.605 181.728 162.608 181.731 162.61 181.733C162.614 181.738 162.618 181.742 162.622 181.747C162.575 181.613 162.533 181.477 162.5 181.341C162.408 180.954 162.266 180.58 162.123 180.203C161.933 179.704 161.742 179.2 161.663 178.655C161.041 174.391 161.163 170.16 162.363 166.017C164.23 159.571 166.185 153.151 168.145 146.731C170.329 139.575 171.005 132.292 170.01 124.883C168.834 116.111 169.454 107.54 172.687 99.2344C173.751 96.4985 174.83 93.7681 175.909 91.0378C176.393 89.8126 176.877 88.5874 177.36 87.3618C177.269 87.2865 177.181 87.2026 177.093 87.1188C176.902 86.9364 176.711 86.7542 176.483 86.6614C169.725 83.044 162.394 82.9861 155.925 84.8778C153.947 85.2572 151.98 85.6898 150.012 86.1225C148.058 86.5521 146.104 86.9817 144.139 87.3593C143.054 87.5684 140.166 88.0312 137.539 88.4521C135.47 88.7837 133.563 89.0893 132.829 89.2242C130.664 89.6216 130.519 89.5563 130.53 87.4221C130.535 86.5871 130.564 85.7519 130.594 84.9167C130.631 83.8876 130.668 82.8586 130.657 81.8303C130.605 76.9443 128.201 73.8665 123.336 72.3111C120.063 71.2648 116.679 71.2938 113.272 71.5158C113.272 71.5158 104.271 73.3137 99.9729 75.053Z" fill="#DCCFFF"/>
<path d="M98.9875 81.7136C98.6387 78.8823 118.506 76.3411 119.09 79.3819C120.778 88.1882 100.028 90.1562 98.9875 81.7136Z" fill="#CABDF3"/>
<path d="M270.241 166.179C271.398 168.237 285.886 160.18 284.783 157.867C281.586 151.169 266.79 160.042 270.241 166.179Z" fill="#CABDF3"/>
<path d="M104.248 78.0635C102.769 83.0402 102.703 83.8317 105.682 84.0132C109.258 84.2312 109.829 84.1776 112.686 83.908C116.114 83.5845 117.208 83.2962 117.6 81.4041C118.195 79.8436 118.578 78.2028 119.056 76.5977C120.436 71.1585 121.445 65.6156 123.513 60.3644C123.918 59.3356 124.522 58.77 125.673 58.3447C128.474 57.3105 130.514 55.3197 131.757 52.6974C132.47 51.1943 132.378 49.6322 130.727 48.605C129.718 47.9778 129.609 47.178 129.863 46.3109C130.218 45.1121 129.718 44.3051 128.827 43.5337C126.611 41.6111 124.419 39.6615 122.217 37.7245C121.441 37.0434 120.476 36.6869 119.526 36.3504C117.422 35.608 115.463 36.5604 114.554 38.7547C113.806 40.5638 113.748 42.5186 113.554 44.4349C113.223 47.7161 112.97 51.0058 112.66 54.2902C112.599 54.9263 112.546 55.6016 112.291 56.1722C110.026 61.2474 104.749 76.3777 104.248 78.0635Z" fill="#FFB599"/>
<path d="M138.073 37.4231C131.704 37.3828 120.136 38.2168 114.047 38.8262C112.622 38.8852 110.936 39.5665 110.599 40.9708L109.797 46.5943C109.357 48.4362 110.586 50.2326 112.439 50.4521L136.91 53.3469C138.591 53.5466 140.147 52.3634 140.433 50.6717L140.592 40.8872C140.917 38.9703 139.993 37.4354 138.073 37.4231Z" fill="#002E31"/>
<path d="M138.118 53.608C137.372 52.6393 136.613 38.0392 137.707 37.7459C143.208 36.2719 143.242 52.9456 138.118 53.608Z" fill="#627475"/>
<path d="M131.988 49.5835C131.292 47.1223 128.913 45.5346 127.568 43.3528C127.281 42.8899 127.036 42.3891 126.648 42.0044C126.261 41.6188 125.678 41.3638 125.158 41.5357C124.938 41.6086 124.748 41.7506 124.582 41.9116C123.483 42.9801 123.509 44.8204 124.232 46.172C124.957 47.5227 126.225 48.4934 127.467 49.3995C126.27 48.5271 122.772 52.4501 122.509 53.4095C122.072 54.9992 123.049 56.6701 124.469 57.4205C128.657 59.6358 133.031 53.2663 131.988 49.5835Z" fill="#FFB599"/>
<path d="M280.995 158.213C281.818 158.882 282.66 159.53 283.465 160.22C284.988 161.527 286.478 162.871 287.982 164.199C288.436 164.721 290.644 166.845 291.524 166.832C292.323 166.82 298.949 166.366 301.454 166.303C304.032 166.239 306.594 166.385 309.12 165.714C309.836 165.524 310.928 165.341 311.201 165.924C311.928 167.48 308.731 168.751 307.644 168.977C307.434 169.021 307.209 169.138 307.215 169.429C307.222 169.716 307.449 169.815 307.662 169.88C307.934 169.962 308.221 169.992 308.502 170.051C309.625 170.285 310.751 170.504 311.868 170.762C312.313 170.865 312.808 171.014 312.891 171.56C312.985 172.166 312.554 172.504 312.101 172.777C311.35 173.231 310.515 173.402 309.65 173.505C307.522 173.759 305.419 173.541 303.31 173.252C302.652 173.161 301.967 172.881 301.32 173.272C301.319 173.567 301.506 173.683 301.708 173.808C303.227 174.756 304.794 175.589 306.544 176.037C307.134 176.189 307.575 176.601 307.506 177.295C307.443 177.926 306.94 178.1 306.416 178.218C305.229 178.486 304.064 178.616 302.865 178.16C301.202 177.528 299.458 177.099 297.943 176.106C297.585 175.872 297.215 175.813 296.796 175.881C295.835 176.036 294.865 176.144 293.906 176.311C293.057 176.459 292.993 176.63 293.423 177.481C293.969 178.563 294.515 179.645 295.099 180.705C295.504 181.439 295.586 182.244 295.711 183.037C295.799 183.597 295.602 184.094 295.037 184.29C294.526 184.467 294.156 184.157 293.885 183.746C293.662 183.41 293.446 183.065 293.268 182.704C292.877 181.909 292.318 181.261 291.647 180.697C290.588 179.807 289.57 178.861 288.463 178.037C286.414 176.513 285.124 174.559 284.809 172C284.735 171.404 284.58 170.863 284.101 170.472C283.432 169.928 282.898 169.223 282.121 168.809C280.189 166.814 277.916 165.263 275.66 163.681C274.677 162.994 273.706 162.273 272.812 161.474C275.294 159.116 278.2 158.339 280.995 158.213Z" fill="#FFB599"/>
<path d="M191.846 25.2608C191.846 25.2608 184.711 21.1505 177.739 26.3732C170.766 31.5948 174.773 36.0401 168.88 38.3519C162.986 40.6637 166.137 49.2316 159.231 52.2012C152.324 55.1707 155.583 64.7578 162.115 66.7966C162.115 66.7966 164.374 75.5965 171.502 75.5679C171.502 75.5679 177.201 83.5166 190.399 80.3432L195.284 78.9517L191.846 25.2608Z" fill="#ED6337"/>
<path d="M217.263 30.6246C217.263 30.6246 225.58 32.6536 226.375 40.3168C227.17 47.979 226.773 46.1443 230.978 50.469C235.182 54.7937 228.84 58.4482 232.091 62.6676C233.751 64.8223 234.456 66.5114 234.43 68.3642C234.382 71.6283 231.822 74.2563 228.596 74.796C226.396 75.164 224.427 76.9844 222.85 79.5843C219.721 84.7447 210.982 81.3786 210.982 81.3786C210.982 81.3786 201.92 85.3771 197.121 81.1237C192.323 76.8713 205.861 27.1507 205.861 27.1507L217.263 30.6246Z" fill="#ED6337"/>
<path d="M184.425 24.86C184.425 24.86 188.723 17.3923 201.026 18.7636C213.328 20.1348 215.788 32.6013 215.788 32.6013L196.792 40.3383L184.425 24.86Z" fill="#ED6337"/>
<path d="M208.295 55.7532C206.857 58.1897 205.448 61.885 208.825 63.5297C211.181 64.6767 214.444 61.7362 215.883 59.2986C217.321 56.8621 216.87 54.5533 214.532 53.3658C212.197 52.1786 209.733 53.3167 208.295 55.7532Z" fill="#FFB599"/>
<path d="M173.04 38.5536C171.899 48.7078 180.072 57.9544 191.296 59.2054C202.519 60.4562 213.779 52.9564 214.92 42.8022C216.061 32.648 206.65 23.6837 195.428 22.4329C184.204 21.1819 174.18 28.3993 173.04 38.5536Z" fill="#ED6337"/>
<path d="M198 68.8651C198 68.8651 196.65 76.3238 196.616 81.1798C196.582 86.0357 201.742 93.7043 201.742 93.7043L179.72 90.5931C179.72 90.5931 184.196 84.7288 185.263 79.9144C186.332 75.0916 183.51 70.9183 183.51 70.9183L198 68.8651Z" fill="#FFB599"/>
<path d="M195.775 26.7333C204.743 27.7328 211.837 35.9528 210.821 45.0038L209.084 55.8087C209.084 55.8087 207.167 71.1885 192.824 74.3332C191.234 74.6814 186.833 73.3282 185.359 72.6387C174.244 71.4666 176.344 52.1595 176.344 52.1595L177.048 41.2396C178.065 32.1886 186.809 25.7339 195.775 26.7333Z" fill="#FFB599"/>
<path d="M194.749 62.0731L186.195 61.118C186.195 61.118 186.178 63.897 190.164 64.3421C193.699 64.7368 194.749 62.0731 194.749 62.0731Z" fill="white"/>
<path d="M183.916 24.8024C183.916 24.8024 183.787 33.4839 193.333 35.9262C203.066 38.417 200.275 43.9454 212.442 43.9015C212.442 43.9015 217.489 38.1101 211.78 30.9159C208 26.1541 200.078 21.6509 194.049 21.5834C192.021 21.5621 186.865 24.5464 183.916 24.8024Z" fill="#ED6337"/>
<path d="M185.106 25.5437C185.106 25.5437 190.566 32.4152 172.243 41.7196C172.243 41.7196 171.896 38.1157 174.146 34.7152C176.396 31.3147 185.106 25.5437 185.106 25.5437Z" fill="#ED6337"/>
<path d="M211.851 94.7891L191.213 83.2006L177.97 87.2411C177.97 87.2411 168.364 103.89 185.041 103.886C206.266 103.881 211.851 94.7891 211.851 94.7891Z" fill="#FFB599"/>
</g>
<path d="M111.252 44.4765C111.252 44.4765 79.4112 33.6971 59.7007 42.5408C16.7398 61.8164 -3.90337 130.263 5.11584 167.378C13.201 200.65 41.2169 221.041 73.3462 206.762C82.9491 202.494 92.4165 177.992 85.4767 167.378C78.537 156.765 61.4143 158.865 57.6789 170.411C46.5592 204.779 113.948 237.952 153.707 210.844C170.883 199.134 156.739 170.411 177.966 170.411C193.634 170.411 194.618 213.552 223.454 199.134C243.67 189.025 256.811 239.567 256.811 239.567" stroke="#002E31" stroke-width="1.51625"/>
</g>
<defs>
<linearGradient id="paint0_linear" x1="174.276" y1="205.749" x2="174.276" y2="-38.0811" gradientUnits="userSpaceOnUse">
<stop stop-color="#DBA2FF"/>
<stop offset="1" stop-color="#EAAFFF"/>
</linearGradient>
<clipPath id="clip0">
<rect width="280" height="236" fill="white"/>
</clipPath>
</defs>
</svg>
