<?xml version="1.0" encoding="UTF-8" standalone="no"?>
<!DOCTYPE svg PUBLIC "-//W3C//DTD SVG 1.1//EN" "http://www.w3.org/Graphics/SVG/1.1/DTD/svg11.dtd">
<svg version="1.1" xmlns="http://www.w3.org/2000/svg" xmlns:xlink="http://www.w3.org/1999/xlink" preserveAspectRatio="xMidYMid meet" viewBox="118.70473406790597 86.32682171194665 73.99999999999997 74" width="70" height="70"><defs><path d="M137.72 129.54C137.72 134.85 140.45 138.2 144.82 138.2C149.17 138.2 151.92 134.85 151.92 129.54C151.92 124.21 149.17 120.86 144.82 120.86C140.45 120.86 137.72 124.21 137.72 129.54Z" id="a4di4msWS8"></path><path d="M149.77 112.37C150.87 112.37 151.69 111.67 151.69 110.7C151.69 110.66 151.69 110.47 151.69 110.13C150.62 110.19 150.02 110.23 149.91 110.24C148.9 110.31 148.37 110.68 148.37 111.33C148.37 111.96 148.92 112.37 149.77 112.37Z" id="d3JiuiYkNi"></path><path d="M119.7 122.33C119.7 141.63 135.4 157.33 154.7 157.33C174 157.33 189.7 141.63 189.7 122.33C189.7 103.03 174 87.33 154.7 87.33C135.4 87.33 119.7 103.03 119.7 122.33ZM168.02 103.4L168.02 107.39C168.03 107.39 168.04 107.39 168.05 107.39C168.48 106.54 169.23 106.1 170.34 106.1C171.93 106.1 172.89 107.17 172.89 108.8C172.89 109.11 172.89 110.65 172.89 113.42L171.5 113.42C171.5 110.8 171.5 109.35 171.5 109.06C171.5 107.97 170.95 107.3 169.87 107.3C168.72 107.3 168.02 108.08 168.02 109.27C168.02 109.55 168.02 110.93 168.02 113.42L166.64 113.42L166.64 103.4L168.02 103.4ZM165.41 108.63C165.27 108.63 164.21 108.63 164.07 108.63C163.94 107.86 163.32 107.27 162.31 107.27C161.13 107.27 160.33 108.27 160.33 109.8C160.33 111.38 161.13 112.34 162.32 112.34C163.27 112.34 163.9 111.87 164.09 111.02C164.22 111.02 165.29 111.02 165.42 111.02C165.25 112.51 164.03 113.51 162.31 113.51C160.27 113.51 158.92 112.1 158.92 109.8C158.92 107.56 160.27 106.09 162.3 106.09C164.14 106.09 165.27 107.26 165.41 108.63ZM148.63 108.31C148.5 108.31 147.46 108.31 147.33 108.31C147.37 107.04 148.57 106.09 150.18 106.09C151.93 106.09 153.07 107.02 153.07 108.45C153.07 108.78 153.07 110.44 153.07 113.43L151.75 113.43L151.75 112.21C151.73 112.21 151.72 112.21 151.72 112.21C151.31 113 150.41 113.5 149.41 113.5C147.97 113.5 146.98 112.64 146.98 111.36C146.98 110.09 147.94 109.36 149.73 109.24C149.86 109.24 150.51 109.2 151.69 109.13C151.69 108.78 151.69 108.59 151.69 108.56C151.69 107.72 151.14 107.25 150.15 107.25C149.34 107.25 148.76 107.67 148.63 108.31ZM139.31 111.95L139.34 111.95L140.89 106.17L142.23 106.17L143.79 111.95L143.82 111.95L145.19 106.17L146.56 106.17L144.56 113.43L143.13 113.43L141.57 107.93L141.54 107.93L139.97 113.43L138.56 113.43L136.55 106.17L137.93 106.17L139.31 111.95ZM134.45 129.54C134.45 122.47 138.44 118.02 144.82 118.02C151.19 118.02 155.18 122.47 155.18 129.54C155.18 136.61 151.19 141.04 144.82 141.04C138.44 141.04 134.45 136.61 134.45 129.54ZM155.12 107.29L154.07 107.29L154.07 106.17L155.12 106.17L155.12 104.44L156.51 104.44L156.51 106.17L157.9 106.17L157.9 107.29L156.51 107.29C156.51 109.75 156.51 111.12 156.51 111.4C156.51 112.03 156.79 112.33 157.4 112.33C157.55 112.33 157.81 112.31 157.9 112.29C157.9 112.41 157.9 113.29 157.9 113.41C157.74 113.45 157.4 113.47 157.09 113.47C155.68 113.47 155.12 112.92 155.12 111.52C155.12 110.96 155.12 109.55 155.12 107.29ZM157.4 134.49C157.71 134.49 160.24 134.49 160.56 134.49C160.81 136.78 163.02 138.29 166.04 138.29C168.94 138.29 171.03 136.78 171.03 134.71C171.03 132.92 169.76 131.84 166.83 131.1C166.54 131.03 164.26 130.46 163.97 130.39C159.87 129.37 158 127.5 158 124.43C158 120.65 161.3 118.02 166.01 118.02C170.61 118.02 173.82 120.66 173.95 124.46C173.63 124.46 171.12 124.46 170.81 124.46C170.6 122.18 168.73 120.77 165.95 120.77C163.19 120.77 161.27 122.19 161.27 124.24C161.27 125.86 162.48 126.82 165.41 127.56C165.65 127.62 167.58 128.1 167.82 128.16C172.4 129.28 174.28 131.08 174.28 134.32C174.28 138.46 171.01 141.04 165.79 141.04C160.93 141.04 157.63 138.49 157.4 134.49Z" id="cHSqT0Qxr"></path></defs><g><g><use xlink:href="#a4di4msWS8" opacity="1" fill="#000000" fill-opacity="1"></use><g><use xlink:href="#a4di4msWS8" opacity="1" fill-opacity="0" stroke="#000000" stroke-width="1" stroke-opacity="0"></use></g></g><g><use xlink:href="#d3JiuiYkNi" opacity="1" fill="#000000" fill-opacity="1"></use><g><use xlink:href="#d3JiuiYkNi" opacity="1" fill-opacity="0" stroke="#000000" stroke-width="1" stroke-opacity="0"></use></g></g><g><use xlink:href="#cHSqT0Qxr" opacity="1" fill="#000000" fill-opacity="1"></use><g><use xlink:href="#cHSqT0Qxr" opacity="1" fill-opacity="0" stroke="#000000" stroke-width="1" stroke-opacity="0"></use></g></g></g></svg>
