<svg width="300" height="329" viewBox="0 0 324 339" fill="none" xmlns="http://www.w3.org/2000/svg">
<g filter="url(#filter0_d)">
<path d="M57 252L57 21C57 16.5817 60.5817 13 65 13L267 13C271.418 13 275 16.5817 275 21L275 252L57 252Z" fill="white"/>
<g clip-path="url(#clip0)">
<rect width="36" height="36" rx="18" transform="matrix(-1 0 0 1 213 65)" fill="white"/>
<rect opacity="0.15" width="240.342" height="240.342" transform="matrix(-1 0 0 1 218.21 52.3164)" fill="url(#paint0_linear)"/>
<path d="M211.782 90.5936C208.896 89.2362 205.778 88.3058 202.592 88.0569C201.582 89.7694 200.223 91.1577 198.583 92.2821C197.075 93.3165 195.455 94.0303 193.583 94.0618C190.912 94.1068 188.808 92.1571 188.089 89.5758C187.962 89.1214 187.868 88.6586 187.758 88.1997C182.445 87.4494 178.648 90.54 173.463 91.113C172.408 92.905 171.355 94.6537 170.384 96.4934C169.313 98.5209 168.027 100.407 167.029 102.47C167.337 102.777 167.527 103.432 167.767 103.629C167.972 103.798 168.149 104.063 168.505 105.211C169.454 108.268 171.153 105.256 170.999 109.714C148.762 114.48 173.495 116.607 177.466 118.322C186.758 122.337 198.938 122.263 204.989 112.997C206.305 110.98 207.689 109.007 209.032 107.007C209.209 106.743 209.297 106.272 209.649 106.35C211.938 106.841 211.774 107.004 213.572 107.004C214.017 106.115 215.345 105.683 215.87 104.843C217.772 101.793 217.459 98.2234 219.348 95.1669C219.397 95.0878 219.421 94.9939 219.458 94.9069C219.336 94.834 219.219 94.7537 219.093 94.6892C217.23 93.731 214.19 91.7268 211.782 90.5936Z" fill="#002E31"/>
<path d="M212.146 106.92C212.589 106.034 213.317 105.164 213.84 104.328C215.736 101.291 217.425 98.0795 219.309 95.0356C219.358 94.9568 219.382 94.8633 219.524 94.929C222.874 96.4848 226.048 98.3089 228.689 100.937C229.68 101.923 230.586 102.984 231.051 104.328C231.764 106.386 231.282 108.312 230.287 110.154C229.499 111.611 228.307 112.712 227.049 113.755C224.106 116.197 220.977 118.374 217.664 120.286C215.686 121.428 213.734 122.618 211.684 123.633C210.641 124.149 209.751 124.878 208.922 125.694C207.966 126.633 206.815 127.169 205.449 127.21C204.91 127.226 204.419 127.102 203.989 126.794C203.668 126.566 203.34 126.445 202.944 126.439C202.208 126.428 201.541 126.25 201.153 125.534C201.061 125.365 200.902 125.337 200.726 125.37C200.564 125.401 200.4 125.427 200.241 125.469C199.972 125.54 199.697 125.539 199.533 125.301C199.355 125.043 199.311 124.733 199.448 124.428C199.599 124.09 199.873 123.856 200.181 123.683C201.742 122.808 203.289 121.9 204.94 121.203C205.436 120.993 205.847 120.733 206.182 120.318C209.171 116.612 212.503 113.216 215.803 109.792C216.358 109.216 216.936 108.662 217.501 108.095C217.628 107.968 217.801 107.867 217.807 107.586C217.262 107.433 216.703 107.417 216.148 107.381C214.902 107.299 213.373 107.169 212.146 106.92Z" fill="#FF715E"/>
<path d="M198.256 85.6017C197.451 83.4348 198.84 81.2424 199.719 79.1751C199.777 79.0047 199.836 78.835 199.9 78.6667C199.019 79.0167 198.517 79.744 198.159 80.618C198.04 80.9068 197.931 81.2067 198.006 81.5078C198.089 81.8398 197.915 82.0327 197.744 82.2627C196.49 83.9548 194.817 85.0993 192.927 85.9628C193.106 86.61 193.042 86.7387 192.433 87.0605C190.792 87.9275 189.455 88.2037 187.627 88.1923C187.737 88.6512 187.809 89.1215 187.935 89.5758C188.664 92.1892 190.913 94.1067 193.583 94.0617C195.455 94.0302 197.076 93.3164 198.584 92.282C200.194 91.178 201.532 89.8194 202.536 88.1498C200.771 87.9746 198.805 87.0788 198.256 85.6017Z" fill="#9C603D"/>
<path d="M200.35 78.54C199.899 79.3273 200.012 80.0021 199.336 81.0143C198.885 81.6891 198.083 81.8046 197.744 82.2623C196.49 83.9547 194.817 85.0992 192.927 85.9626C192.724 85.938 192.562 86.0475 192.396 86.1327C191.13 86.7835 189.803 86.8153 188.464 86.4587C185.613 85.6996 184.996 82.4494 186.137 80.6772C186.886 79.5135 187.825 78.8048 189.2 78.6747C189.365 78.6591 189.527 78.612 189.691 78.6096C191.094 78.5898 192.469 78.4302 193.765 77.8451C193.949 78.2266 194.125 78.612 194.319 78.9881C194.502 79.3432 194.686 79.6968 194.989 79.9754C195.626 80.5599 196.212 80.5878 196.877 80.0474C197.748 79.3387 198.267 78.3942 198.612 77.355C198.867 76.587 198.503 75.8962 197.754 75.5792C197.273 75.3756 196.758 75.3015 196.256 75.1764C197.224 73.9246 198.762 73.8361 199.778 74.9761C200.144 75.3861 200.42 75.8429 200.593 76.3725C200.856 77.1763 200.913 77.6403 200.35 78.54Z" fill="#002E31"/>
<path d="M196.256 75.177C196.758 75.302 197.273 75.3761 197.754 75.5797C198.503 75.8965 198.867 76.5875 198.612 77.3555C198.267 78.3948 197.749 79.3392 196.877 80.0479C196.213 80.5883 195.626 80.5604 194.989 79.9756C194.686 79.6973 194.502 79.3437 194.319 78.9886C194.126 78.6125 193.95 78.2271 193.765 77.8456C194.417 77.363 194.936 76.7608 195.398 76.0983C195.637 75.7546 195.885 75.4049 196.256 75.177Z" fill="#9C603D"/>
<path d="M200.949 77.5916C201.362 76.3787 200.664 75.0786 199.872 74.0702C199.081 73.0619 198.131 72.0695 197.939 70.803C197.765 69.6537 198.237 68.3748 197.651 67.3701C196.831 65.9641 195.086 65.6228 193.746 66.5154C190.414 68.7347 193.81 73.9326 196.4 75.1316C196.882 75.3548 197.399 75.5029 197.863 75.7603C198.328 76.0176 198.752 76.4156 198.87 76.9329C199.01 77.5484 198.804 78.5186 199.692 78.6635C200.298 78.7624 200.777 78.0975 200.949 77.5916Z" fill="#002E31"/>
<path d="M194.407 80.7634C193.983 80.9931 193.454 80.89 193.178 80.5004C192.901 80.1105 192.98 79.5778 193.339 79.2551L194.407 80.7634Z" fill="white"/>
</g>
<g clip-path="url(#clip1)">
<rect x="224" y="65" width="36" height="36" rx="18" fill="white"/>
<rect opacity="0.1" x="224" y="65" width="382.439" height="382.439" fill="url(#paint1_linear)"/>
<path d="M257.485 106.889C258.933 105.69 260.105 104.247 260.85 102.514C260.854 102.476 260.855 102.439 260.854 102.401C260.847 102.154 260.914 101.907 260.884 101.65C260.749 100.508 260.426 99.4256 259.831 98.4406C258.905 96.9069 257.959 95.3864 257.011 93.8665C255.954 92.1718 255.278 90.3402 255.021 88.3614C254.718 86.0184 255.968 83.4206 254.562 81.5015C253.892 80.5859 255.166 76.9806 253.808 77.282C253.053 77.4495 249.038 79.9511 248.589 80.4288C248.767 80.7777 249.191 80.8984 249.45 81.1694C250.296 82.0532 250.355 82.7885 249.796 83.8948C249.434 84.612 248.734 84.8196 247.839 84.6179C246.79 84.3816 246.148 83.6598 246.083 82.6222C246.063 82.2962 246.081 81.9673 246.081 81.64C245.945 81.6394 245.821 81.6632 245.759 81.807C245.592 82.3349 242.992 83.3984 242.79 83.9127C241.763 86.5345 242.065 88.8678 242.518 91.5804C242.868 93.6789 244.212 95.0464 244.363 98.5124C244.435 100.17 244.493 100.593 244.329 102.401C244.178 104.059 243.945 105.075 244.363 106.951C244.542 107.757 239.887 109.387 240.571 110.069C241.414 110.911 247.301 110.55 249.899 110.069C252.601 109.294 254.894 108.91 257.485 106.889Z" fill="#FBE3C7"/>
<path d="M238.001 97.9173C238.056 97.8136 238.063 97.6619 238.257 97.6288C238.322 97.7342 238.306 97.8589 238.308 97.9789C238.32 98.6 238.324 99.221 238.344 99.8416C238.407 101.848 238.201 102.845 237.685 104.78C237.6 105.427 237.523 106.07 237.723 106.699C237.846 108.146 239.033 109.597 240.118 110.036C241.824 110.726 243.294 110.71 245.218 110.55C245.219 109.901 245.057 109.107 245.395 107.946C245.56 105.945 245.917 103.966 246.117 101.971C246.256 100.585 246.148 99.2045 245.922 97.8285C245.655 96.2036 245.326 94.5927 244.777 93.0421C244.295 91.6819 243.854 90.3091 243.391 88.9433C243.06 87.9714 242.852 86.9692 242.739 85.9538C242.658 85.2342 242.708 84.5068 242.818 83.787C240.771 84.0549 238.721 84.4922 236.92 85.5499C236.742 85.6544 236.573 85.7674 236.408 85.886C235.828 86.4657 235.359 87.1538 235.033 87.981C234.846 88.4556 234.635 88.9349 234.295 89.3241C233.417 90.3272 232.852 91.4746 232.606 92.7825C232.48 93.4558 232.126 93.9581 231.479 94.2357C230.537 94.6405 229.886 95.3232 229.537 96.2892C229.487 96.4265 229.415 96.5552 229.357 96.6893C229.119 97.2381 228.752 97.6803 228.294 98.0663C227.754 98.5205 227.124 98.818 226.521 99.1631C226.023 99.4482 225.552 99.7617 225.236 100.255C224.137 101.974 224.119 103.733 225.081 105.505C225.592 106.446 226.414 107.188 227.347 107.701C228.753 108.473 230.282 108.72 231.826 108.241C233.358 107.765 234.252 106.728 234.457 105.127C234.535 104.511 234.668 103.902 234.7 103.28C234.71 103.08 234.761 102.889 234.949 102.756C235.676 102.24 236.095 101.484 236.505 100.727C237.01 99.7934 237.5 98.8524 238.001 97.9173Z" fill="#FFAC00"/>
<path d="M245.62 80.369C245.398 80.5344 245.161 80.6769 244.906 80.7904C244.85 80.8151 244.793 80.8385 244.735 80.8601C243.479 81.3337 242.093 81.0811 240.845 81.6188C239.637 82.139 238.679 83.0834 237.837 84.0672C236.591 85.5236 235.461 87.1648 233.787 88.1004C230.75 89.4998 226.75 86.9998 225.856 85.3398C225.41 84.6965 225.339 84.4553 225 83.7498C224.685 83.0917 224.493 81.98 224.5 81.2498C224.515 79.758 224.818 78.1751 226 77.1998C228.75 74.7498 231.029 76.814 234.391 77.9235C235.027 78.1338 235.729 78.2952 236.359 78.0666C237.352 77.7068 237.777 76.553 237.991 75.5204C238.317 73.9549 238.445 72.3371 239.002 70.8376C239.687 68.9925 241.092 67.3507 242.955 66.708C244.817 66.0653 247.117 66.5989 248.263 68.1991C249.084 69.3452 249.24 70.8407 249.149 72.2468C249.038 73.959 248.596 75.648 247.864 77.1998C247.334 78.3217 246.651 79.5962 245.62 80.369Z" fill="#002E31"/>
<path d="M248.713 80.4108C248.077 79.9678 247.906 79.6008 248.17 79.0497C248.634 78.0815 248.946 77.0865 248.876 76.0005C248.856 75.677 249.001 75.5503 249.317 75.5463C249.62 75.5428 249.826 75.3493 249.99 75.1155C250.683 74.132 250.29 72.5802 249.209 72.0207C249.163 72.1379 249.121 72.2567 249.07 72.3717C248.722 73.1655 248.35 73.3074 247.589 72.885C246.945 72.5274 246.508 71.9732 246.328 71.2595C246.316 71.2123 246.302 71.1698 246.288 71.1316C245.551 71.2267 244.806 71.1535 244.087 70.9616C244.044 72.6346 243.484 74.3731 242.537 75.7032C242.294 76.0452 241.95 76.4228 241.552 76.7673C241.888 78.0065 242.69 78.884 243.732 79.5952C244.346 80.0131 245.074 80.156 245.725 80.478C245.875 80.5214 246.005 80.5827 246.013 80.7675C246.028 81.1148 246.062 81.4649 245.843 81.7728C245.842 82.1001 245.824 82.429 245.844 82.755C245.909 83.7926 246.551 84.5144 247.6 84.7507C248.496 84.9524 249.481 84.6069 249.843 83.8898C250.402 82.7835 250.343 82.1001 249.497 81.2164C249.238 80.9453 248.89 80.7597 248.713 80.4108Z" fill="#E46720"/>
<path d="M250.542 73.9005C250.542 75.0453 249.993 75.9731 249.315 75.9731C248.637 75.9731 248.088 75.0453 248.088 73.9005C248.088 72.7558 248.637 71.828 249.315 71.828C249.993 71.828 250.542 72.7558 250.542 73.9005Z" fill="#E46720"/>
<path d="M245.52 76.4986C245.635 77.0004 245.376 77.5146 244.894 77.6859C244.413 77.8575 243.887 77.6234 243.658 77.1623L245.52 76.4986Z" fill="white"/>
<path fill-rule="evenodd" clip-rule="evenodd" d="M269.608 70.6997C270.271 70.7409 270.913 70.875 271.5 71.1695C272.838 71.8401 273.425 73.0763 273.103 74.4866C272.991 74.9747 272.806 75.4404 272.616 75.9034C272.014 77.3715 271.796 78.9089 271.672 80.4646C271.639 80.8849 271.592 81.3044 271.546 81.7235C271.538 81.7978 271.529 81.8722 271.521 81.9465C271.408 82.9846 270.84 83.7567 269.966 84.3543C268.802 85.1503 267.487 85.6288 266.122 85.97C265.294 86.1772 264.461 86.3694 263.629 86.5617C262.874 86.7363 262.118 86.9109 261.366 87.0966C261.504 87.9792 261.722 88.8458 261.943 89.7224C261.977 89.8578 262.011 89.9935 262.045 90.1295C262.113 90.655 262.201 91.1783 262.288 91.7011C262.531 93.1466 262.773 94.5887 262.588 96.0654C262.317 98.2255 261.726 100.518 260.866 102.521C260.866 102.522 260.865 102.523 260.865 102.524C260.864 102.525 260.863 102.527 260.863 102.528C260.865 102.49 260.867 102.453 260.866 102.415C260.863 102.309 260.874 102.203 260.884 102.096C260.899 101.954 260.913 101.811 260.896 101.665C260.761 100.523 260.437 99.44 259.843 98.4546C258.917 96.9213 257.97 95.4007 257.023 93.8805C255.966 92.1859 255.289 90.3546 255.033 88.3758C254.73 86.0328 253.978 83.8658 252.573 81.947C252.11 81.315 251.644 80.6853 251.177 80.0556C250.968 79.7731 250.759 79.4906 250.55 79.2079C250.569 79.1822 250.585 79.1545 250.602 79.1269C250.639 79.0667 250.675 79.0065 250.727 78.9669C252.216 77.5685 254.098 77.0482 255.892 77.0899C256.428 77.0514 256.964 77.0273 257.5 77.0032C258.033 76.9793 258.565 76.9553 259.097 76.9173C259.39 76.8964 260.165 76.8166 260.87 76.7441C261.425 76.6869 261.937 76.6343 262.135 76.6184C262.72 76.5717 262.752 76.5448 262.602 75.9954C262.543 75.7804 262.478 75.5671 262.412 75.3538C262.332 75.091 262.251 74.8282 262.183 74.5623C261.859 73.2989 262.265 72.3396 263.409 71.6032C264.179 71.1078 265.051 70.882 265.943 70.7044C265.943 70.7044 268.383 70.5476 269.608 70.6997Z" fill="#FFAC00"/>
<path d="M268.765 71.8537C269.495 73.0447 269.567 73.2457 268.813 73.4967C267.907 73.7981 267.756 73.8233 267.002 73.9488C266.096 74.0995 265.794 74.0995 265.561 73.6351C265.298 73.2706 265.084 72.8708 264.849 72.4867C264.112 71.169 263.463 69.7988 262.562 68.5769C262.386 68.3375 262.191 68.232 261.864 68.2003C261.071 68.1235 260.406 67.7463 259.902 67.1504C259.613 66.809 259.527 66.3971 259.88 66.0174C260.095 65.7855 260.068 65.5703 259.941 65.3626C259.766 65.0756 259.838 64.8318 260.013 64.5706C260.449 63.9197 260.877 63.2634 261.308 62.6098C261.46 62.3798 261.684 62.2212 261.905 62.0688C262.395 61.732 262.966 61.8452 263.354 62.3528C263.673 62.7713 263.825 63.2749 264.01 63.7591C264.325 64.5884 264.621 65.4253 264.931 66.2568C264.992 66.4179 265.053 66.5896 265.158 66.7202C266.097 67.883 268.518 71.4503 268.765 71.8537Z" fill="#FF715E"/>
<path d="M259.613 66.3398C259.622 65.6572 260.124 65.0838 260.32 64.4285C260.361 64.2894 260.39 64.1434 260.463 64.0175C260.536 63.8914 260.668 63.7854 260.814 63.7939C260.876 63.7976 260.935 63.821 260.988 63.8511C261.345 64.0509 261.465 64.5272 261.373 64.9255C261.279 65.3238 261.02 65.6614 260.763 65.9807C261.011 65.6733 262.182 66.4436 262.316 66.6728C262.538 67.0526 262.402 67.5508 262.089 67.8421C261.165 68.702 259.599 67.3613 259.613 66.3398Z" fill="#FF715E"/>
</g>
<g clip-path="url(#clip2)">
<rect x="130" y="65" width="36" height="36" rx="18" fill="white"/>
<rect opacity="0.15" x="130" y="65" width="216.148" height="216.148" fill="url(#paint2_linear)"/>
<path d="M129.262 84.4769C127.101 86.4034 127.407 88.9723 126.841 91.2522C126.299 93.471 130.901 95.4457 131.287 97.7181C131.628 99.7357 132.229 101.682 132.766 103.645C132.909 104.167 133.047 104.693 133.174 105.22C133.292 105.71 133.394 106.207 133.506 106.698C133.651 107.331 133.668 107.948 133.589 108.55C133.495 109.253 133.27 109.939 132.961 110.606C132.729 111.108 132.486 111.605 132.245 112.105C131.857 112.912 131.476 113.722 131.171 114.563C131.105 114.744 131.042 114.927 130.983 115.111C130.616 116.271 130.39 117.465 130.266 118.674C130.225 119.076 130.226 119.479 130.096 119.869C129.919 120.394 130.106 120.81 130.521 121.139C130.965 121.49 131.483 121.696 132.014 121.861C133.732 122.39 135.471 122.837 137.232 123.191C139.603 123.666 141.976 124.127 144.365 124.491C144.976 124.585 145.588 124.671 146.202 124.75C149.101 125.121 152.006 125.459 154.939 125.416C154.972 125.414 155.006 125.415 155.04 125.414C155.673 125.402 156.297 125.31 156.93 125.29C157.852 125.26 158.532 124.395 158.49 123.467C158.419 121.916 157.735 120.59 156.919 119.333C155.818 117.63 154.431 116.144 153.162 114.572C152.241 113.429 151.322 112.287 150.394 111.15C150.012 110.681 149.834 110.151 149.777 109.552C149.714 108.907 149.73 108.278 149.818 107.659C149.931 106.816 150.173 105.995 150.513 105.187C150.659 104.84 150.814 104.499 150.976 104.161L150.977 104.159C151.442 103.201 151.973 102.28 152.567 101.391C152.898 100.896 152.907 100.89 153.476 101.139C155.188 101.894 156.988 102.415 158.709 103.154C159.472 103.483 160.303 103.354 160.949 102.694C161.197 102.442 161.461 102.207 161.718 101.964C162.128 101.268 162.715 100.709 163.216 100.087C164.32 98.7215 165.466 97.391 166.594 96.0476C166.739 95.7526 166.893 95.4629 167.024 95.1632C167.338 94.4509 167.082 93.8644 166.342 93.5934C166.105 93.5053 165.86 93.4421 165.618 93.3702C164.563 93.0554 163.626 92.5178 162.74 91.878C162.677 91.8353 162.616 91.7907 162.555 91.744C161.821 91.1992 161.087 90.6543 160.339 90.13C159.971 89.8684 159.599 89.6132 159.222 89.3649C157.675 88.3449 156.024 87.5543 154.178 87.1805C152.775 86.8948 151.388 86.7155 149.972 87.0199C149.161 87.5802 148.28 88.0132 147.402 88.4527C146.833 88.7381 146.323 89.0971 145.87 89.546C144.616 90.7977 143.418 92.0912 142.616 93.6958C142.436 94.061 142.204 94.393 141.888 94.6529C141.41 95.0432 140.903 94.9177 140.673 94.346C140.539 94.016 140.518 93.6599 140.528 93.3037C140.565 91.8622 140.785 90.452 141.148 89.0508C141.553 87.4817 142.058 85.96 142.704 84.4769C142.868 84.1006 143.084 83.7692 143.415 83.5202C143.619 82.9053 143.422 82.442 143 81.9504C141.708 80.4409 140.698 78.759 140.081 76.85C139.871 76.2049 139.581 75.5792 139.27 74.9722C138.802 74.0633 137.343 67.4909 134.764 69.7738C133.792 71.1127 132.91 72.5309 131.865 73.8212C130.518 75.4838 129.126 77.1085 127.943 78.8972C127.842 79.1606 129.176 84.2389 129.262 84.4769Z" fill="#0097D5"/>
<path d="M149.224 83.7254C152.384 85.5403 155.757 87.1952 159.389 87.4896C161.76 87.6815 164.462 87.132 166.483 85.8511C170.891 83.0565 169.042 77.5799 163.879 77.9515C161.161 78.1473 158.321 79.2025 157.186 75.9871C156.535 74.1431 156.041 72.234 155.163 70.4863C153.784 67.7377 151.311 65.6748 148.054 66.1126C145.484 66.4576 143.277 68.5115 142.471 70.9452C141.322 74.4183 142.704 78.3676 145.212 81.0311C147.544 82.7026 148.71 83.5065 149.224 83.7254Z" fill="url(#paint3_linear)"/>
<path d="M140.528 93.3036C140.518 93.6598 140.539 94.0159 140.673 94.3458C140.903 94.9176 141.41 95.0434 141.888 94.6531C142.204 94.3929 142.436 94.0608 142.616 93.6961C143.418 92.091 144.616 90.7976 145.87 89.5462C146.323 89.0973 146.833 88.7383 147.402 88.4526C148.28 88.0131 149.161 87.58 149.972 87.0201C148.926 86.5206 148.553 85.6861 148.869 84.5676C148.944 84.3013 149.022 84.0376 149.178 83.8061C149.247 83.6311 149.377 83.6178 149.547 83.6314C149.971 83.6659 150.401 83.6954 150.826 83.6318C151.536 83.5272 152.066 83.2225 152.47 82.7908C152.872 82.361 153.15 81.805 153.357 81.1948C153.663 80.2902 153.918 79.3663 154.219 78.4566C154.266 78.3176 154.311 78.1745 154.331 78.0243C154.345 77.9212 154.348 77.8159 154.331 77.7048C152.267 77.5733 151.033 76.3449 150.177 74.6238C149.909 74.0811 149.681 73.5172 149.429 72.9659C149.214 72.4969 149.144 72.4815 148.727 72.824C148.074 73.3631 147.597 74.0459 147.163 74.7622C147.072 74.9138 146.989 75.0687 146.901 75.2211C146.758 75.4723 146.607 75.5197 146.364 75.3127C146.101 75.0885 145.848 74.8567 145.43 74.9005C144.942 74.9541 144.609 75.1855 144.441 75.611C144.184 76.2709 144.193 76.9519 144.491 77.6027C144.666 77.983 144.951 78.2902 145.385 78.3531C145.785 78.4099 145.858 78.6223 145.839 78.9785C145.799 79.6692 146.034 80.3998 145.527 81.0191C145.233 81.6297 144.959 82.25 144.636 82.8433C144.383 83.3116 144.014 83.6383 143.415 83.52C143.084 83.7695 142.868 84.1008 142.704 84.4767C142.058 85.9599 141.553 87.4819 141.148 89.0506C140.785 90.4519 140.565 91.8621 140.528 93.3036Z" fill="#FFBF9D"/>
<path d="M149.152 79.6019C148.968 80.3206 149.321 81.0714 150.007 81.3363C150.693 81.6011 151.459 81.2834 151.806 80.6276L149.152 79.6019Z" fill="white"/>
<path d="M139.071 104.804C140.075 106.177 142.042 106.34 143.738 106.209C145.432 106.078 147.267 105.811 148.72 106.692C149.145 106.95 149.5 107.282 149.817 107.659C149.931 106.816 150.173 105.995 150.513 105.187C150.659 104.841 150.814 104.499 150.976 104.161L150.976 104.159C150.775 103.949 150.578 103.732 150.392 103.514C148.932 101.825 147.558 99.895 145.486 99.0616C143.407 98.2231 140.782 98.7985 139.397 100.561C138.456 101.76 138.171 103.575 139.071 104.804Z" fill="#53BAE4"/>
<path d="M129.052 91.4091C129.024 91.517 128.997 91.6269 128.97 91.7355C129.534 91.7739 130.102 91.8613 130.643 91.9547C132.389 92.2591 134.404 92.5064 135.742 91.3419C136.998 90.2487 137.116 88.34 136.864 86.694C136.833 86.4895 136.798 86.2825 136.705 86.0974C136.577 85.8358 136.346 85.6353 136.095 85.4843C134.861 84.7443 133.245 85.1655 132.005 85.8944C131.056 86.4511 130.203 87.1763 129.257 87.7233C129.418 88.1801 129.581 88.6368 129.749 89.0911C129.86 89.3991 129.847 89.6582 129.702 89.9572C129.471 90.4338 129.19 90.8895 129.052 91.4091Z" fill="#53BAE4"/>
<path d="M176.786 93.0896C176.398 92.4637 175.864 91.9616 175.255 91.5375C174.174 90.6791 171.751 89.4161 171.751 89.4161C170.794 89.0709 169.828 88.7836 168.801 88.817C167.275 88.8667 166.324 89.5605 165.891 90.9723C165.725 91.5105 165.605 92.0623 165.448 92.6033C165.268 93.2228 165.221 93.2297 164.636 92.9361C164.185 92.7101 163.468 92.3363 162.945 92.0679C161.848 91.5065 162.166 100.091 155.09 101.805C158.194 103.496 160.285 103.491 162.945 104.306C164.449 104.767 165.987 105.067 167.567 104.971C168.753 104.899 169.749 104.48 170.469 103.54C170.811 103.094 171.156 102.649 171.484 102.193C172.518 100.758 173.63 99.3948 175.068 98.3219C175.522 97.9836 175.972 97.6398 176.366 97.2319C177.504 96.0531 177.67 94.5153 176.786 93.0896Z" fill="#0097D5"/>
</g>
<path d="M57 21C57 16.5817 60.5817 13 65 13H113V252H57V21Z" fill="#F2F2F2"/>
<rect x="83" y="99" width="4" height="20" rx="2" fill="#BDBDBD"/>
<rect x="75" y="111" width="4" height="20" rx="2" transform="rotate(-90 75 111)" fill="#BDBDBD"/>
<rect x="67" y="44" width="36" height="36" rx="10" fill="#0E71EB"/>
<rect x="74" y="57.1191" width="3.31575" height="8.7619" rx="1.65788" fill="white"/>
<rect x="78.4209" y="52.7383" width="3.31575" height="17.5238" rx="1.65788" fill="white"/>
<rect x="82.8423" y="54.9287" width="3.31575" height="13.1429" rx="1.65788" fill="white"/>
<rect x="87.2632" y="50" width="3.31575" height="23" rx="1.65788" fill="white"/>
<rect x="91.6841" y="57.1191" width="3.31575" height="8.7619" rx="1.65788" fill="white"/>
<rect x="132.65" y="23.4917" width="63.8251" height="6.99454" rx="3.49727" fill="#E0E0E0"/>
<rect x="143.142" y="37.481" width="80.4372" height="6.99454" rx="3.49727" fill="#F2F2F2"/>
<rect x="132.65" y="37.481" width="6.99454" height="6.99454" rx="3.49727" fill="#F2F2F2"/>
<rect x="70.5742" y="23.4917" width="6.99454" height="6.99454" rx="3.49727" fill="#BDBDBD"/>
<rect x="81.9399" y="23.4917" width="6.99454" height="6.99454" rx="3.49727" fill="#BDBDBD"/>
<rect x="93.3062" y="23.4917" width="6.99454" height="6.99454" rx="3.49727" fill="#BDBDBD"/>
</g>
<g filter="url(#filter1_d)">
<rect x="23" y="170" width="273" height="158" rx="16" fill="white"/>
<path d="M23 186C23 177.163 30.1634 170 39 170H93V328H38C29.7157 328 23 321.284 23 313V186Z" fill="#3F0E40"/>
<rect x="23" y="261" width="70" height="25" fill="#804A88"/>
<circle cx="123.033" cy="273.546" r="8.74317" fill="#F2F2F2"/>
<circle cx="123.033" cy="245.568" r="8.74317" fill="#F2F2F2"/>
<circle cx="123.033" cy="217.59" r="8.74317" fill="#F2F2F2"/>
<circle cx="123.033" cy="189.612" r="8.74317" fill="#F2F2F2"/>
<rect x="142.268" y="264.803" width="132.896" height="17.4863" rx="4" fill="#F2F2F2"/>
<rect x="142.268" y="236.825" width="132.896" height="17.4863" rx="4" fill="#F2F2F2"/>
<rect x="142.268" y="208.847" width="132.896" height="17.4863" rx="4" fill="#F2F2F2"/>
<rect x="142.268" y="180.869" width="132.896" height="17.4863" rx="4" fill="#F2F2F2"/>
<rect x="114.29" y="293.656" width="160.874" height="22.7322" rx="4" stroke="#F2F2F2" stroke-width="2"/>
<circle cx="46" cy="177" r="36" fill="white"/>
<path d="M33.3146 182.545C33.3146 185.06 31.2837 187.093 28.7708 187.093C26.258 187.093 24.2271 185.06 24.2271 182.545C24.2271 180.031 26.258 177.998 28.7708 177.998H33.3146V182.545Z" fill="#E01E5A"/>
<path d="M35.5864 182.545C35.5864 180.031 37.6174 177.998 40.1302 177.998C42.6431 177.998 44.674 180.031 44.674 182.545V193.914C44.674 196.429 42.6431 198.461 40.1302 198.461C37.6174 198.461 35.5864 196.429 35.5864 193.914V182.545Z" fill="#E01E5A"/>
<path d="M40.1302 164.287C37.6174 164.287 35.5864 162.254 35.5864 159.739C35.5864 157.224 37.6174 155.192 40.1302 155.192C42.6431 155.192 44.674 157.224 44.674 159.739V164.287H40.1302Z" fill="#36C5F0"/>
<path d="M40.13 166.595C42.6429 166.595 44.6738 168.627 44.6738 171.142C44.6738 173.657 42.6429 175.69 40.13 175.69H28.7362C26.2233 175.69 24.1924 173.657 24.1924 171.142C24.1924 168.627 26.2233 166.595 28.7362 166.595H40.13Z" fill="#36C5F0"/>
<path d="M58.3394 171.142C58.3394 168.627 60.3703 166.595 62.8831 166.595C65.396 166.595 67.4269 168.627 67.4269 171.142C67.4269 173.657 65.396 175.69 62.8831 175.69H58.3394V171.142Z" fill="#2EB67D"/>
<path d="M56.068 171.142C56.068 173.657 54.0371 175.69 51.5243 175.69C49.0114 175.69 46.9805 173.657 46.9805 171.142V159.739C46.9805 157.224 49.0114 155.192 51.5243 155.192C54.0371 155.192 56.068 157.224 56.068 159.739V171.142Z" fill="#2EB67D"/>
<path d="M51.5238 189.367C54.0366 189.367 56.0675 191.399 56.0675 193.914C56.0675 196.429 54.0366 198.462 51.5238 198.462C49.0109 198.462 46.98 196.429 46.98 193.914V189.367H51.5238Z" fill="#ECB22E"/>
<path d="M51.5247 187.093C49.0119 187.093 46.981 185.06 46.981 182.545C46.981 180.031 49.0119 177.998 51.5247 177.998H62.9186C65.4315 177.998 67.4624 180.031 67.4624 182.545C67.4624 185.06 65.4315 187.093 62.9186 187.093H51.5247Z" fill="#ECB22E"/>
</g>
<g filter="url(#filter2_d)">
<rect x="126.53" y="118.792" width="188" height="158" rx="8" fill="white"/>
</g>
<rect x="132.65" y="125.787" width="86.5574" height="60.3279" rx="8" fill="#F2F2F2"/>
<rect x="132.65" y="187.863" width="86.5574" height="60.3279" rx="8" fill="#F2F2F2"/>
<rect x="220.957" y="125.787" width="86.5574" height="60.3279" rx="8" fill="#F2F2F2"/>
<rect x="220.957" y="187.863" width="86.5574" height="60.3279" rx="8" fill="#F2F2F2"/>
<rect x="132.65" y="254.311" width="174.863" height="14.8634" rx="4" fill="#E0E0E0"/>
<rect x="266" y="98" width="56" height="56" rx="16" fill="url(#paint4_linear)"/>
<path d="M307.628 118.694L303.838 121.402C303.312 121.777 303 122.383 303 123.029V128.971C303 129.617 303.312 130.223 303.838 130.598L307.628 133.306C308.621 134.015 310 133.305 310 132.085V119.915C310 118.695 308.621 117.985 307.628 118.694Z" fill="white"/>
<path d="M278 120C278 118.343 279.343 117 281 117H295C298.314 117 301 119.686 301 123V132C301 133.657 299.657 135 298 135H284C280.686 135 278 132.314 278 129V120Z" fill="white"/>
<defs>
<filter id="filter0_d" x="47" y="5" width="238" height="259" filterUnits="userSpaceOnUse" color-interpolation-filters="sRGB">
<feFlood flood-opacity="0" result="BackgroundImageFix"/>
<feColorMatrix in="SourceAlpha" type="matrix" values="0 0 0 0 0 0 0 0 0 0 0 0 0 0 0 0 0 0 127 0"/>
<feOffset dy="2"/>
<feGaussianBlur stdDeviation="5"/>
<feColorMatrix type="matrix" values="0 0 0 0 0 0 0 0 0 0 0 0 0 0 0 0 0 0 0.2 0"/>
<feBlend mode="normal" in2="BackgroundImageFix" result="effect1_dropShadow"/>
<feBlend mode="normal" in="SourceGraphic" in2="effect1_dropShadow" result="shape"/>
</filter>
<filter id="filter1_d" x="2" y="135" width="302" height="203" filterUnits="userSpaceOnUse" color-interpolation-filters="sRGB">
<feFlood flood-opacity="0" result="BackgroundImageFix"/>
<feColorMatrix in="SourceAlpha" type="matrix" values="0 0 0 0 0 0 0 0 0 0 0 0 0 0 0 0 0 0 127 0"/>
<feOffset dy="2"/>
<feGaussianBlur stdDeviation="4"/>
<feColorMatrix type="matrix" values="0 0 0 0 0 0 0 0 0 0 0 0 0 0 0 0 0 0 0.16 0"/>
<feBlend mode="normal" in2="BackgroundImageFix" result="effect1_dropShadow"/>
<feBlend mode="normal" in="SourceGraphic" in2="effect1_dropShadow" result="shape"/>
</filter>
<filter id="filter2_d" x="118.53" y="112.792" width="204" height="174" filterUnits="userSpaceOnUse" color-interpolation-filters="sRGB">
<feFlood flood-opacity="0" result="BackgroundImageFix"/>
<feColorMatrix in="SourceAlpha" type="matrix" values="0 0 0 0 0 0 0 0 0 0 0 0 0 0 0 0 0 0 127 0"/>
<feOffset dy="2"/>
<feGaussianBlur stdDeviation="4"/>
<feColorMatrix type="matrix" values="0 0 0 0 0 0 0 0 0 0 0 0 0 0 0 0 0 0 0.16 0"/>
<feBlend mode="normal" in2="BackgroundImageFix" result="effect1_dropShadow"/>
<feBlend mode="normal" in="SourceGraphic" in2="effect1_dropShadow" result="shape"/>
</filter>
<linearGradient id="paint0_linear" x1="120.171" y1="250.462" x2="120.171" y2="-0.690694" gradientUnits="userSpaceOnUse">
<stop stop-color="#FFC258"/>
<stop offset="1" stop-color="#FFA621"/>
</linearGradient>
<linearGradient id="paint1_linear" x1="498.428" y1="430.065" x2="369.848" y2="52.5194" gradientUnits="userSpaceOnUse">
<stop offset="2.7e-07" stop-color="#FF87C8"/>
<stop offset="0.826693" stop-color="#EF0D0D"/>
</linearGradient>
<linearGradient id="paint2_linear" x1="308.942" y1="264.214" x2="291.517" y2="87.4324" gradientUnits="userSpaceOnUse">
<stop stop-color="#0DB9EF"/>
<stop offset="1" stop-color="#55FFFF"/>
</linearGradient>
<linearGradient id="paint3_linear" x1="155.511" y1="65.1497" x2="155.511" y2="87.5886" gradientUnits="userSpaceOnUse">
<stop stop-color="#FFB32F"/>
<stop offset="1" stop-color="#F29100"/>
</linearGradient>
<linearGradient id="paint4_linear" x1="294" y1="98" x2="294" y2="154" gradientUnits="userSpaceOnUse">
<stop stop-color="#57A3FF"/>
<stop offset="1" stop-color="#3C82FA"/>
</linearGradient>
<clipPath id="clip0">
<rect width="36" height="36" rx="18" transform="matrix(-1 0 0 1 213 65)" fill="white"/>
</clipPath>
<clipPath id="clip1">
<rect x="224" y="65" width="36" height="36" rx="18" fill="white"/>
</clipPath>
<clipPath id="clip2">
<rect x="130" y="65" width="36" height="36" rx="18" fill="white"/>
</clipPath>
</defs>
</svg>
