<svg width="420" height="390" viewBox="0 0 489 397" fill="none" xmlns="http://www.w3.org/2000/svg">
<g clip-path="url(#clip0)">
<g clip-path="url(#clip1)">
<mask id="mask0" mask-type="alpha" maskUnits="userSpaceOnUse" x="51" y="-21" width="213" height="212">
<path d="M132.969 146.303C120.629 143.884 109.008 138.028 99.6307 128.651C73.2438 102.264 74.5905 58.1353 102.64 30.0858C130.689 2.03712 174.817 0.69046 201.204 27.0774C227.591 53.4643 226.244 97.5922 198.195 125.641C192.885 130.951 186.996 135.3 180.763 138.689C184.913 144.347 190.411 150.412 197.409 155.393C197.409 155.393 167.873 155.031 132.969 146.303Z" fill="url(#paint0_linear)"/>
</mask>
<g mask="url(#mask0)">
<rect opacity="0.15" width="192.612" height="205.13" transform="matrix(-0.977074 0.212899 0.212899 0.977074 229.619 -30.949)" fill="url(#paint1_linear)"/>
<path d="M81.8657 59.9577C75.1039 65.9849 73.4546 74.0215 71.6833 81.1539C69.9867 88.0955 73.9223 98.3909 75.1299 105.5C76.198 111.812 88.5396 113.783 90.2182 119.924C90.6657 121.558 91.0986 123.202 91.4954 124.85C91.8653 126.385 92.1835 127.94 92.5343 129.477C92.9874 131.454 93.0403 133.385 92.794 135.269C92.4995 137.469 91.7945 139.615 90.8287 141.701C90.1024 143.271 89.3424 144.826 88.588 146.39C87.3748 148.916 86.1842 151.449 85.2274 154.08C85.0216 154.648 84.826 155.219 84.6416 155.796C83.4914 159.425 82.7842 163.159 82.3986 166.942C82.2693 168.199 82.2715 169.458 81.8657 170.679C81.3114 172.323 81.896 173.623 83.1946 174.652C84.5831 175.751 86.2033 176.397 87.8661 176.913C93.2404 178.565 98.6809 179.964 104.191 181.072C111.607 182.56 119.032 184.002 126.504 185.14C128.416 185.434 130.332 185.703 132.252 185.95C141.321 187.109 150.41 188.169 159.586 188.032C159.689 188.028 159.797 188.031 159.9 188.027C161.882 187.991 163.834 187.701 165.814 187.64C168.699 187.544 170.825 184.839 170.696 181.936C170.471 177.084 168.332 172.936 165.78 169.002C162.336 163.675 157.995 159.027 154.027 154.109C151.146 150.534 148.27 146.96 145.367 143.403C144.171 141.937 143.614 140.277 143.437 138.405C143.239 136.387 143.291 134.417 143.564 132.483C143.919 129.843 144.677 127.275 145.739 124.749C146.197 123.664 146.681 122.596 147.189 121.538L147.19 121.533C148.645 118.535 150.305 115.655 152.164 112.873C155.5 110 159.219 110.221 161 111C166.355 113.364 171.096 97.6895 176.48 100C178.868 101.03 177.48 112.563 179.5 110.5C180.274 109.711 182.607 112.259 183.411 111.5C184.693 109.323 183.911 110.739 185.48 108.792C188.934 104.521 192.518 100.359 196.049 96.1562C196.5 95.2332 196.982 94.327 197.394 93.3893C198.374 91.1609 197.575 89.326 195.259 88.4783C194.518 88.2028 193.75 88.0049 192.993 87.7801C189.692 86.7952 186.762 85.1132 183.992 83.1119C183.794 82.9781 183.604 82.8387 183.411 82.6926C181.117 80.9881 176.837 82.6404 174.5 81C173.348 80.1815 173.178 77.2769 172 76.5C167.159 73.3092 162.978 69.5852 157.204 68.4159C152.816 67.5221 148.476 66.9611 144.047 67.9134C141.51 69.6662 138.754 71.021 136.007 72.396C134.226 73.2887 132.63 74.4119 131.213 75.8162C127.291 79.7322 123.544 83.7786 121.035 88.7987C120.47 89.941 119.744 90.9799 118.756 91.7928C117.26 93.0138 115.675 92.6214 114.957 90.8326C114.537 89.8005 114.471 88.6863 114.501 87.5721C114.618 83.0624 115.306 78.6506 116.442 74.2669C117.708 69.3581 119.289 64.5978 121.309 59.9577C121.821 58.7805 122.497 57.7439 123.534 56.9648C124.173 55.041 123.557 53.5918 122.235 52.0537C118.194 47.3316 115.032 42.0698 113.104 36.0974C112.447 34.0793 111.54 32.1218 110.566 30.2228C109.102 27.3794 104.538 6.81804 96.4692 13.9601C93.4288 18.1487 90.6699 22.5856 87.4005 26.6222C83.1865 31.8233 78.8298 36.9064 75.1297 42.5021C74.8137 43.3262 81.5947 59.2134 81.8657 59.9577Z" fill="#0097D5"/>
<path d="M141.707 57.607C151.592 63.2848 162.146 68.4623 173.508 69.3831C180.923 69.9835 189.379 68.2644 195.699 64.2574C209.49 55.5147 203.706 38.3812 187.554 39.5437C179.052 40.1565 170.164 43.4575 166.615 33.3982C164.58 27.6293 163.032 21.6569 160.287 16.1894C155.972 7.59059 148.237 1.137 138.046 2.50642C130.005 3.58577 123.1 10.0112 120.58 17.6251C116.985 28.4905 121.309 40.8457 129.154 49.178C136.449 54.4072 140.099 56.9223 141.707 57.607Z" fill="url(#paint2_linear)"/>
<path d="M114.501 87.5716C114.471 88.6858 114.537 89.8 114.957 90.8321C115.675 92.6209 117.26 93.0144 118.756 91.7934C119.744 90.9794 120.47 89.9405 121.035 88.7993C123.544 83.7781 127.292 79.7317 131.213 75.8168C132.63 74.4126 134.226 73.2894 136.007 72.3955C138.754 71.0205 141.51 69.6657 144.047 67.914C140.775 66.3512 139.608 63.7405 140.594 60.2416C140.829 59.4085 141.073 58.5833 141.564 57.8592C141.778 57.3117 142.184 57.2701 142.717 57.3128C144.044 57.4207 145.387 57.5129 146.72 57.3139C148.938 56.9867 150.599 56.0333 151.86 54.683C153.12 53.3383 153.988 51.599 154.636 49.6899C155.594 46.86 156.391 43.9694 157.334 41.1237C157.479 40.6886 157.621 40.2411 157.682 39.7712C157.726 39.4485 157.736 39.1191 157.683 38.7717C151.226 38.3602 147.366 34.5172 144.687 29.1329C143.849 27.4351 143.138 25.6711 142.347 23.9464C141.675 22.4791 141.456 22.4308 140.151 23.5023C138.109 25.1888 136.617 27.325 135.26 29.5657C134.975 30.0402 134.713 30.5248 134.439 31.0015C133.991 31.7874 133.518 31.9358 132.759 31.2882C131.937 30.5866 131.146 29.8614 129.837 29.9986C128.311 30.1661 127.268 30.8902 126.744 32.2214C125.94 34.2856 125.966 36.4162 126.9 38.4523C127.447 39.6419 128.337 40.6032 129.695 40.7999C130.949 40.9776 131.175 41.642 131.115 42.7562C130.991 44.9172 131.726 47.2029 130.141 49.1401C129.221 51.0503 128.363 52.9909 127.352 54.8472C126.562 56.3121 125.406 57.3342 123.534 56.9643C122.497 57.7445 121.821 58.7812 121.309 59.9572C119.289 64.5973 117.708 69.3587 116.442 74.2664C115.306 78.6501 114.618 83.0619 114.501 87.5716Z" fill="#FFBF9D"/>
<path d="M141.479 44.7073C140.905 46.956 142.01 49.3047 144.155 50.1333C146.303 50.9619 148.699 49.968 149.785 47.9161L141.479 44.7073Z" fill="white"/>
<path d="M109.945 123.551C113.084 127.844 119.239 128.354 124.544 127.946C129.843 127.536 135.585 126.701 140.13 129.456C141.46 130.263 142.571 131.303 143.563 132.482C143.919 129.843 144.677 127.275 145.74 124.748C146.197 123.664 146.682 122.595 147.188 121.538L147.189 121.532C146.558 120.875 145.944 120.196 145.36 119.515C140.794 114.229 136.494 108.192 130.013 105.585C123.508 102.962 115.298 104.762 110.963 110.277C108.02 114.026 107.128 119.705 109.945 123.551Z" fill="#53BAE4"/>
<path d="M78.6009 81.6453C78.5109 81.9826 78.4266 82.3267 78.3423 82.6662C80.1075 82.7865 81.8839 83.0597 83.5782 83.3521C89.0402 84.3044 95.3431 85.0779 99.5301 81.4351C103.457 78.0149 103.828 72.0437 103.04 66.8943C102.941 66.2545 102.833 65.6069 102.542 65.0279C102.141 64.2094 101.42 63.582 100.633 63.1098C96.7732 60.7949 91.7183 62.1126 87.8394 64.3927C84.8701 66.1342 82.2021 68.4031 79.2395 70.1143C79.7443 71.5433 80.2548 72.9724 80.7798 74.3935C81.1283 75.357 81.0856 76.1677 80.6336 77.1031C79.9096 78.5939 79.0315 80.0196 78.6009 81.6453Z" fill="#53BAE4"/>
</g>
<path d="M213.563 67.3683C211.886 65.789 209.867 64.7016 207.685 63.9098C203.724 62.1864 195.382 60.3204 195.382 60.3204C192.213 60.0475 189.06 59.9574 185.984 60.8855C181.411 62.2653 179.093 65.1295 178.921 69.7462C178.855 71.5062 178.935 73.2714 178.897 75.0331C178.854 77.0503 178.716 77.1093 176.709 76.6936C175.165 76.3736 172.697 75.8208 170.898 75.4315C167.13 74.6179 175.008 100.313 155 111.193C165.744 113.804 172.062 112.107 180.758 112.427C185.678 112.609 190.568 112.274 195.266 110.711C198.795 109.538 201.469 107.47 202.886 104.05C203.56 102.425 204.245 100.802 204.87 99.1578C206.838 93.9875 209.101 88.9715 212.585 84.5695C213.684 83.1812 214.768 81.779 215.631 80.2287C218.12 75.7487 217.384 70.966 213.563 67.3683Z" fill="#0097D5"/>
<path d="M207.5 68C207.847 65.4931 189.558 62.3103 189 65C187.384 72.7894 206.464 75.4756 207.5 68Z" fill="#0078A9"/>
<path d="M203.907 66.3116C203.953 67.756 203.718 68.1104 202.138 68.6086C200.081 69.2571 198.172 69.0566 196 69.0001C193.5 68.9352 191.866 67.5112 191.711 66.1862C191.557 64.8612 191.603 63.5172 191.559 62.1814C191.615 57.7033 192.013 53.2205 191.437 48.7481C191.324 47.872 190.936 47.3132 190.047 46.7517C187.883 45.3862 186.59 43.4364 186.122 41.1605C185.854 39.8559 186.288 38.6686 187.935 38.2101C188.942 37.9302 189.218 37.3351 189.197 36.6142C189.167 35.6171 189.778 35.0954 190.717 34.6803C193.053 33.6451 195.373 32.5839 197.7 31.5349C198.52 31.1663 199.427 31.0865 200.317 31.0191C202.288 30.8721 203.749 32.0039 204.028 33.8818C204.257 35.4298 203.861 36.9505 203.592 38.469C203.128 41.0688 202.596 43.6593 202.114 46.2574C202.021 46.7607 201.913 47.2927 202.002 47.7849C202.786 52.161 203.861 64.9089 203.907 66.3116Z" fill="#FFBF9D"/>
<path d="M179.607 46.5256L199.906 42.1416C200.717 41.9682 201.282 41.2134 201.235 40.3648L200.71 30.8723C200.663 30.0237 200.02 29.3356 199.195 29.2526L178.762 27.1975L179.607 46.5256Z" fill="#002E31"/>
<path d="M186.634 38.5446C187.766 36.7975 190.114 36.0593 191.728 34.6572C192.071 34.3599 192.388 34.0253 192.8 33.8086C193.21 33.5909 193.756 33.5127 194.154 33.7494C194.322 33.8496 194.45 33.9969 194.553 34.1538C195.237 35.1948 194.805 36.6008 193.898 37.4915C192.99 38.3814 191.711 38.8703 190.467 39.3147C191.665 38.8869 193.726 42.6006 193.733 43.3893C193.745 44.6966 192.554 45.7811 191.196 46.0704C187.191 46.9252 184.939 41.1587 186.634 38.5446Z" fill="#FFBF9D"/>
<path d="M179.607 46.5258C180.972 46.2322 180.088 27.2404 178.677 27.1522C174.693 26.9032 175.153 46.7636 179.607 46.5258Z" fill="#ACACAC"/>
<path d="M139.427 89.0633L138.978 88.5422L139.427 89.0633ZM225.052 107.976L225.052 107.288L225.052 107.976ZM252.562 73.9328L251.881 74.0314L252.562 73.9328ZM167.001 152.027C166.74 152.303 166.751 152.738 167.027 152.999C167.303 153.261 167.738 153.249 167.999 152.973L167.001 152.027ZM139.876 89.5845C144.594 85.5217 150.474 84.5881 157.174 85.5499C163.892 86.5142 171.348 89.3729 179.111 92.7942C186.836 96.1987 194.897 100.176 202.676 103.277C210.465 106.382 218.096 108.664 225.052 108.664L225.052 107.288C218.366 107.288 210.934 105.088 203.185 101.999C195.427 98.9064 187.476 94.9775 179.666 91.5355C171.893 88.1102 164.288 85.1815 157.369 84.1884C150.433 83.1927 144.1 84.1317 138.978 88.5422L139.876 89.5845ZM225.052 108.664C235.016 108.664 242.849 105.195 247.802 99.043C252.749 92.8982 254.741 84.1792 253.242 73.8342L251.881 74.0314C253.341 84.1057 251.378 92.4084 246.731 98.1804C242.09 103.945 234.688 107.288 225.052 107.288L225.052 108.664ZM253.242 73.8342C250.675 56.1175 240.873 46.0787 229.873 40.6866C218.91 35.3125 206.774 34.5561 199.429 35.3159L199.571 36.6841C206.726 35.9439 218.59 36.6875 229.267 41.9216C239.908 47.1377 249.386 56.8153 251.881 74.0314L253.242 73.8342ZM158.683 130.616C146.952 127.953 139.261 120.224 136.008 111.887C132.745 103.523 133.973 94.6674 139.876 89.5845L138.978 88.5422C132.502 94.1193 131.323 103.661 134.727 112.387C138.141 121.138 146.191 129.191 158.378 131.958L158.683 130.616ZM158.378 131.958C164.288 133.299 167.678 135.256 169.505 137.345C171.307 139.406 171.653 141.669 171.306 143.82C170.954 145.996 169.89 148.045 168.887 149.571C168.389 150.33 167.914 150.948 167.564 151.376C167.389 151.589 167.246 151.754 167.148 151.865C167.098 151.921 167.061 151.962 167.036 151.99C167.023 152.003 167.014 152.013 167.008 152.02C167.005 152.023 167.003 152.025 167.002 152.026C167.001 152.027 167.001 152.027 167.001 152.027C167.001 152.027 167.001 152.027 167.001 152.027C167.001 152.027 167.001 152.027 167.5 152.5C167.999 152.973 168 152.973 168 152.972C168 152.972 168.001 152.972 168.001 152.971C168.002 152.971 168.003 152.97 168.004 152.968C168.006 152.966 168.01 152.962 168.014 152.958C168.022 152.949 168.034 152.936 168.049 152.92C168.079 152.887 168.122 152.839 168.177 152.778C168.286 152.655 168.441 152.476 168.628 152.247C169.002 151.79 169.507 151.133 170.037 150.327C171.09 148.724 172.268 146.487 172.664 144.039C173.063 141.565 172.662 138.865 170.54 136.439C168.443 134.042 164.732 131.989 158.683 130.616L158.378 131.958Z" fill="#002E31"/>
<path d="M159.715 14.7319C155.371 6.02311 147.584 -0.513012 137.324 0.87392C129.229 1.96707 122.278 8.47472 119.74 16.186C116.121 27.1903 120.474 39.7035 128.372 48.1423C122.36 29.0042 115.356 26.8222 159.715 14.7319Z" fill="url(#paint3_linear)"/>
</g>
<path opacity="0.15" d="M253.647 131.103C256.534 129.626 259.03 127.344 260.756 124.346C265.612 115.909 262.543 105.025 253.9 100.035C245.258 95.045 234.315 97.8395 229.458 106.276C224.602 114.713 227.671 125.598 236.314 130.587C237.95 131.532 239.669 132.197 241.413 132.598C240.743 134.3 239.766 136.199 238.353 137.934C238.353 137.934 245.599 135.75 253.647 131.103Z" fill="url(#paint4_linear)"/>
<path opacity="0.1" d="M353.54 291.928C347.026 288.723 341.416 283.712 337.575 277.078C326.764 258.41 334.004 234.037 353.747 222.638C373.489 211.24 398.257 217.133 409.068 235.801C419.878 254.469 412.638 278.842 392.895 290.24C389.158 292.398 385.24 293.933 381.271 294.882C382.749 298.658 384.918 302.864 388.082 306.691C388.082 306.691 371.69 302.043 353.54 291.928Z" fill="url(#paint5_linear)"/>
<g clip-path="url(#clip2)">
<mask id="mask1" mask-type="alpha" maskUnits="userSpaceOnUse" x="274" y="0" width="168" height="172">
<path d="M356.332 171.633C371.631 172.563 387.2 169.248 401.268 161.126C440.858 138.269 453.574 86.1759 429.669 44.7718C405.766 3.36896 354.294 -11.6648 314.704 11.1922C275.115 34.0492 262.4 86.1412 286.304 127.544C290.829 135.382 296.347 142.272 302.581 148.141C295.866 153.502 287.432 158.929 277.587 162.628C277.587 162.628 312.447 171.212 356.332 171.633Z" fill="url(#paint6_linear)"/>
</mask>
<g mask="url(#mask1)">
<rect opacity="0.25" x="201.641" y="-22.9226" width="251.607" height="223.766" fill="#D98F00"/>
<path d="M271.386 99.5421C281.453 94.8059 292.333 91.5598 303.449 90.6912C306.973 96.6665 311.714 101.51 317.435 105.434C322.699 109.043 328.352 111.533 334.884 111.643C344.202 111.8 351.542 104.998 354.052 95.9908C354.493 94.4054 354.824 92.7908 355.206 91.1897C373.745 88.5717 386.991 99.3552 405.085 101.355C408.764 107.607 412.44 113.709 415.829 120.127C419.563 127.201 424.052 133.781 427.532 140.979C426.458 142.052 425.795 144.336 424.957 145.026C424.244 145.613 423.625 146.539 422.383 150.543C419.072 161.211 415.829 153.623 413.68 166.255C491.27 182.886 404.973 190.306 391.118 196.292C358.697 210.3 266.096 223.877 244.985 191.545C240.391 184.508 236.191 186.91 280.98 156.811C280.361 155.889 280.055 154.247 278.827 154.519C270.841 156.231 271.412 156.801 265.137 156.801C263.586 153.698 258.951 152.192 257.121 149.259C250.483 138.62 251.578 126.164 244.985 115.499C244.815 115.223 244.729 114.895 244.603 114.592C245.025 114.338 245.435 114.057 245.873 113.832C252.377 110.489 262.983 103.496 271.386 99.5421Z" fill="#002E31"/>
<path d="M340.955 82.1238C338.146 74.5633 342.994 66.9137 346.06 59.7006C346.263 59.1062 346.469 58.5139 346.691 57.9268C343.618 59.148 341.867 61.6857 340.615 64.735C340.202 65.7428 339.819 66.7892 340.082 67.8398C340.372 68.9983 339.764 69.6711 339.169 70.4737C334.794 76.3778 328.957 80.371 322.362 83.3838C322.985 85.642 322.761 86.0909 320.636 87.2138C314.912 90.2391 309.838 90.876 303.459 90.8363C303.842 92.4373 304.502 94.4048 304.945 95.9902C307.488 105.108 327.068 111.906 336.385 111.749C342.917 111.639 343.136 110.018 348.399 106.409C354.628 99.2901 353.293 97.5104 355.889 91.0145C349.731 90.4033 342.871 87.2776 340.955 82.1238Z" fill="#9C603D"/>
<path d="M348.258 57.4832C346.686 60.2301 347.079 62.5846 344.721 66.1164C343.149 68.4709 340.35 68.8737 339.166 70.4706C334.791 76.3757 328.954 80.369 322.359 83.3817C321.652 83.2959 321.087 83.6778 320.507 83.975C316.09 86.2458 311.46 86.3567 306.788 85.1125C296.838 82.464 294.686 71.1236 298.667 64.9401C301.281 60.8799 304.559 58.4072 309.355 57.953C309.929 57.8986 310.497 57.7343 311.07 57.7259C315.964 57.6569 320.762 57.1002 325.284 55.0585C325.927 56.3896 326.541 57.7343 327.217 59.0466C327.854 60.2856 328.498 61.5193 329.555 62.4915C331.776 64.531 333.823 64.6283 336.142 62.7426C339.182 60.2699 340.99 56.9746 342.194 53.3487C343.084 50.6687 341.814 48.2587 339.202 47.1526C337.522 46.4421 335.726 46.1836 333.974 45.7473C337.351 41.3794 342.719 41.0707 346.264 45.0482C347.539 46.4787 348.504 48.0725 349.107 49.9205C350.024 52.725 350.223 54.3438 348.258 57.4832Z" fill="#002E31"/>
<path d="M333.977 45.7492C335.728 46.1856 337.526 46.4441 339.206 47.1546C341.817 48.2596 343.088 50.6707 342.198 53.3506C340.994 56.9766 339.186 60.2718 336.144 62.7446C333.826 64.6303 331.779 64.533 329.558 62.4924C328.501 61.5213 327.857 60.2875 327.22 59.0485C326.544 57.7363 325.93 56.3916 325.288 55.0605C327.56 53.3768 329.371 51.2755 330.983 48.9639C331.819 47.7647 332.683 46.5445 333.977 45.7492Z" fill="#9C603D"/>
<path d="M375.809 34.7254C376.194 33.2133 376.295 31.63 376.105 30.0813C375.928 28.6372 375.47 27.1742 374.484 26.1027C373.886 25.4549 372.951 24.9578 372.139 25.2969C371.233 25.6768 370.997 26.8268 370.887 27.8031C370.699 29.4659 370.51 31.1287 370.323 32.7916C370.109 34.6835 369.945 36.7743 371.064 38.3157C373.368 41.4844 381.39 42.0139 377.758 36.5493C377.654 36.3924 375.912 34.3225 375.809 34.7254Z" fill="#FF715E"/>
<path d="M327.525 65.2415C326.046 66.0431 324.199 65.6831 323.236 64.3238C322.272 62.9634 322.547 61.1049 323.796 59.9789L327.525 65.2415Z" fill="white"/>
</g>
<path d="M403.441 101.263C407.073 107.438 410.832 113.539 414.178 119.878C417.866 126.864 420.378 134.584 423.815 141.692C423.968 141.638 425.34 140.138 425.463 140.045C433.775 133.756 440.784 127.189 447.51 119.063C451.267 114.523 454.844 109.995 457.411 104.629C460.262 98.67 459.411 93.4812 455.323 88.5404C451.84 84.3313 449.008 81.5766 445.052 77.7995C431.96 65.2971 423.146 59.5557 408.912 48.3689C405.647 45.8019 402.635 42.9207 399.267 40.4746C398.351 39.8091 397.941 39.0495 398.008 37.8022C398.141 35.2745 397.685 32.7715 396.992 30.3316C396.178 27.4546 394.315 25.4197 391.48 24.5992C387.634 23.4841 383.915 22.0456 380.172 20.6567C379.867 20.5441 379.549 20.4666 379.242 20.357C374.985 18.84 372.925 21.7201 373.198 25.3236C373.363 27.5155 374.402 29.3664 375.332 31.2555C375.332 31.2555 374.53 36.6055 374.41 36.9941C373.521 42.2428 374.381 45.4082 379.377 48.9415C380.99 50.0824 382.376 51.401 383.538 53.0152C394.147 67.758 399.922 76.3992 410.555 91.1234C410.794 91.453 411.052 91.7682 411.293 92.0969C411.846 92.8482 411.839 93.4207 411.13 94.2113C408.792 96.8176 406.473 99.4197 403.441 101.263Z" fill="#9C603D"/>
<g clip-path="url(#clip3)">
<path d="M371.416 50.9387L392.459 33.9563C393.308 33.2706 393.523 32.0483 392.963 31.079L386.704 20.2374C386.144 19.2683 384.978 18.8426 383.96 19.2356L358.731 28.968L371.416 50.9387Z" fill="#002E31"/>
<path opacity="0.1" d="M374.325 48.5908L362.219 27.6225L358.731 28.9681L371.416 50.9387L374.325 48.5908Z" fill="#171D26"/>
</g>
<path d="M371.536 50.7906C373.004 49.5506 360.404 28.1824 358.632 28.9882C353.629 31.2639 366.276 53.9623 371.536 50.7906Z" fill="#ACACAC"/>
<path d="M350.808 52.5365C352.248 48.3047 349.812 43.7684 347.051 40.2502C344.289 36.732 340.975 33.2693 340.305 28.8502C339.696 24.8402 341.346 20.3782 339.301 16.8726C336.44 11.9668 330.349 10.7759 325.674 13.8902C314.048 21.6339 325.898 39.7699 334.934 43.9536C336.616 44.7321 338.419 45.2491 340.04 46.1469C341.661 47.0448 343.141 48.4334 343.553 50.2385C344.043 52.3859 343.323 55.7711 346.422 56.2765C348.537 56.6219 350.207 54.3019 350.808 52.5365Z" fill="#002E31"/>
<path d="M386.219 25.8737C404.461 14.7501 423.621 5.485 441.782 11.2632C451.771 14.4413 458.395 23.3922 460.351 31.707C462.108 39.1759 461.537 49.6266 455.911 56.9483C449.5 65.292 436.429 71.2095 427.792 79.6408C422.999 84.3202 419.794 87.5392 417.719 94.8036C413.752 108.688 416.829 120.662 427.253 130.218C439.168 141.139 464.225 153.215 479.012 142.022C485.917 136.795 489.909 127.493 486.276 117.051C482.96 107.516 470.927 103.551 460.397 102.976C437.941 101.75 424.529 117.051 411.348 133.302C395.033 153.419 389.628 163.523 389.628 163.523" stroke="#002E31" stroke-width="1.36207" stroke-linecap="round" stroke-linejoin="round"/>
<path d="M379.775 41.9671C380.155 40.4738 380.254 38.9102 380.067 37.3807C379.892 35.9546 379.439 34.5099 378.466 33.4517C377.876 32.812 376.952 32.3211 376.15 32.6559C375.255 33.0311 375.022 34.1668 374.913 35.131C374.728 36.7731 374.542 38.4152 374.357 40.0573C374.145 41.9257 373.983 43.9905 375.088 45.5127C377.364 48.6419 385.286 49.1649 381.699 43.7683C381.596 43.6133 379.876 41.5692 379.775 41.9671Z" fill="#9C603D"/>
<path opacity="0.1" d="M473.945 16.213C476.814 18.7478 478.983 22.0789 480.038 25.9938C483.008 37.0105 476.072 48.4449 464.546 51.5334C453.02 54.6217 441.268 48.1945 438.299 37.1778C435.329 26.1612 442.265 14.7271 453.791 11.6388C455.973 11.0541 458.163 10.8118 460.3 10.876C460.058 8.74555 459.524 6.30029 458.435 3.91086C458.435 3.91086 466.112 8.54577 473.945 16.213Z" fill="url(#paint7_linear)"/>
</g>
<g clip-path="url(#clip4)">
<mask id="mask2" mask-type="alpha" maskUnits="userSpaceOnUse" x="108" y="174" width="198" height="202">
<path d="M205.225 375.437C223.264 376.531 241.621 372.631 258.209 363.076C304.889 336.186 319.883 274.902 291.697 226.193C263.512 177.485 202.822 159.799 156.142 186.689C109.462 213.578 94.4696 274.861 122.655 323.569C127.991 332.79 134.496 340.895 141.847 347.8C133.929 354.107 123.985 360.492 112.376 364.843C112.376 364.843 153.48 374.941 205.225 375.437Z" fill="white"/>
</mask>
<g mask="url(#mask2)">
<rect x="38.0796" y="125.349" width="296.67" height="263.842" fill="white"/>
<rect opacity="0.15" x="38.0796" y="125.349" width="296.67" height="263.842" fill="url(#paint8_linear)"/>
<path d="M191.798 388.127C184.518 384.815 178.109 380.203 173.135 373.932C173.08 373.781 173.032 373.627 172.995 373.473C172.753 372.455 172.204 371.517 172.048 370.435C171.347 365.614 170.681 361.036 172.048 356.351C174.174 349.056 173.705 342.08 175.937 334.818C178.424 326.721 180.307 318.829 179.187 310.451C177.862 300.53 172.259 290.432 175.937 281.033C177.692 276.548 168.483 263.199 174.408 262.937C177.699 262.792 196.98 268.608 199.356 270.068C199.007 271.691 197.394 272.652 196.624 274.046C194.111 278.593 194.511 274.058 198.029 277.969C200.308 280.504 201.939 281.626 205.405 279.815C209.465 277.693 212.958 280.601 212.085 276.284C211.81 274.927 211.374 273.602 211.013 272.263C211.574 272.11 212.111 272.071 212.523 272.591C213.789 274.568 225.665 276.057 227.06 277.939C234.171 287.536 235.493 297.416 236.609 309.013C237.472 317.985 233.441 325.06 236.628 339.408C238.153 346.27 238.376 348.063 241.042 355.281C243.485 361.898 245.559 365.801 245.901 373.937C246.049 377.431 267.006 378.974 264.942 382.518C262.396 386.891 237.756 391.895 226.532 392.788C214.555 392.59 204.692 393.546 191.798 388.127Z" fill="#DCCFFF"/>
<path d="M262.129 329.984C261.787 329.621 261.593 329.007 260.761 329.084C260.611 329.587 260.813 330.08 260.935 330.573C261.571 333.127 262.234 335.673 262.837 338.234C264.783 346.514 266.721 350.366 270.964 357.72C272.023 360.272 273.045 362.817 272.917 365.611C274.004 371.666 270.73 378.904 266.763 381.891C260.525 386.586 254.477 388.131 246.415 389.583C245.697 386.932 245.487 383.506 242.824 379.124C239.949 371.117 236.314 363.413 233.298 355.467C231.205 349.95 230.133 344.182 229.548 338.305C228.856 331.364 228.435 324.412 228.983 317.465C229.464 311.372 229.764 305.271 230.165 299.174C230.451 294.836 230.203 290.507 229.553 286.228C229.093 283.195 226.559 278.653 225.316 275.828C234.004 274.681 244.423 275.842 252.973 278.195C253.817 278.427 254.635 278.705 255.439 279.01C258.457 280.745 261.137 283.046 263.382 286.074C264.669 287.811 266.06 289.541 267.883 290.76C272.586 293.902 276.165 297.977 278.609 303.06C279.867 305.676 281.869 307.344 284.827 307.77C289.138 308.393 292.555 310.473 295.049 314.043C295.404 314.55 295.843 314.997 296.228 315.482C297.808 317.467 299.798 318.874 302.102 319.951C304.813 321.218 307.725 321.744 310.577 322.495C312.93 323.116 315.206 323.882 317.045 325.556C323.44 331.383 325.45 338.561 323.449 346.868C322.388 351.276 319.833 355.214 316.571 358.334C311.652 363.035 305.656 365.723 298.794 365.454C291.988 365.187 287.183 361.925 284.586 355.597C283.587 353.162 282.374 350.818 281.557 348.306C281.295 347.501 280.877 346.775 279.959 346.435C276.413 345.122 273.864 342.49 271.35 339.839C268.256 336.573 265.212 333.26 262.129 329.984Z" fill="#DCCFFF"/>
<path d="M188.91 265.642C189.286 265.795 189.573 266.163 189.902 266.433C188.139 270.908 186.362 275.377 184.617 279.858C180.962 289.25 180.261 298.941 181.591 308.86C182.715 317.238 181.952 325.473 179.482 333.565C177.266 340.824 175.055 348.083 172.944 355.372C171.587 360.056 171.449 364.841 172.152 369.662C172.309 370.744 172.857 371.682 173.098 372.699C173.136 372.854 173.184 373.007 173.237 373.159C173.231 373.151 173.223 373.143 173.215 373.134C167.488 365.879 162.545 357.148 159.061 348.606C155.818 340.655 155.892 332.098 154.763 323.724C154.641 316.603 154.706 309.644 152.745 302.711C150.874 296.092 148.209 289.545 144.705 283.618C144.448 271.816 168.902 254.931 188.91 265.642Z" fill="#DCCFFF"/>
<path d="M206.282 196.214C206.282 196.214 198.214 191.567 190.33 197.472C182.446 203.376 186.977 208.403 180.313 211.017C173.649 213.631 177.212 223.319 169.403 226.677C161.592 230.035 165.278 240.875 172.664 243.18C172.664 243.18 175.218 253.131 183.278 253.098C183.278 253.098 189.722 262.086 204.646 258.498L210.169 256.925L206.282 196.214Z" fill="#ED6337"/>
<path d="M235.022 202.279C235.022 202.279 244.426 204.574 245.325 213.239C246.224 221.903 245.776 219.828 250.53 224.718C255.284 229.608 248.112 233.741 251.788 238.512C253.666 240.948 254.463 242.858 254.433 244.953C254.379 248.644 251.485 251.615 247.837 252.226C245.349 252.642 243.123 254.7 241.339 257.64C237.801 263.475 227.92 259.669 227.92 259.669C227.92 259.669 217.673 264.19 212.247 259.381C206.822 254.572 222.13 198.351 222.13 198.351L235.022 202.279Z" fill="#ED6337"/>
<path d="M197.89 195.761C197.89 195.761 202.75 187.317 216.662 188.868C230.572 190.418 233.354 204.514 233.354 204.514L211.874 213.263L197.89 195.761Z" fill="#ED6337"/>
<path d="M224.881 230.693C223.255 233.448 221.663 237.626 225.481 239.486C228.145 240.783 231.835 237.458 233.461 234.702C235.087 231.947 234.577 229.336 231.934 227.994C229.294 226.651 226.508 227.938 224.881 230.693Z" fill="#FFB599"/>
<path d="M185.017 211.244C183.727 222.726 192.969 233.182 205.66 234.596C218.35 236.011 231.083 227.53 232.373 216.049C233.663 204.567 223.022 194.431 210.332 193.016C197.641 191.602 186.307 199.763 185.017 211.244Z" fill="#ED6337"/>
<path d="M213.24 245.519C213.24 245.519 211.715 253.953 211.676 259.444C211.637 264.935 217.471 273.606 217.471 273.606L192.571 270.088C192.571 270.088 197.631 263.457 198.838 258.013C200.047 252.56 196.856 247.841 196.856 247.841L213.24 245.519Z" fill="#FFB599"/>
<path d="M210.725 197.879C220.865 199.009 228.887 208.304 227.737 218.538L225.773 230.756C225.773 230.756 223.606 248.146 207.388 251.702C205.59 252.096 200.614 250.566 198.947 249.786C186.379 248.461 188.753 226.629 188.753 226.629L189.55 214.282C190.7 204.047 200.586 196.749 210.725 197.879Z" fill="#FFB599"/>
<path d="M209.565 237.839L199.893 236.759C199.893 236.759 199.873 239.902 204.38 240.405C208.378 240.851 209.565 237.839 209.565 237.839Z" fill="white"/>
<path d="M197.314 195.696C197.314 195.696 197.169 205.512 207.963 208.274C218.968 211.09 215.813 217.342 229.57 217.292C229.57 217.292 235.277 210.743 228.821 202.609C224.548 197.224 215.59 192.132 208.773 192.056C206.479 192.032 200.65 195.406 197.314 195.696Z" fill="#ED6337"/>
<path d="M198.66 196.534C198.66 196.534 204.834 204.304 184.116 214.825C184.116 214.825 183.723 210.75 186.268 206.905C188.812 203.06 198.66 196.534 198.66 196.534Z" fill="#ED6337"/>
<path d="M228.902 274.833L205.566 261.729L190.591 266.298C190.591 266.298 179.729 285.123 198.587 285.119C222.587 285.113 228.902 274.833 228.902 274.833Z" fill="#FFB599"/>
</g>
<path d="M93.9669 256.284C96.0519 254.435 98.5367 253.183 101.209 252.288C106.069 250.321 116.246 248.288 116.246 248.288C120.098 248.037 123.925 248.004 127.626 249.187C133.127 250.946 135.846 254.426 135.904 259.951C135.927 262.057 135.772 264.166 135.761 266.274C135.748 268.687 135.912 268.761 138.36 268.312C140.243 267.966 148.955 266.626 151.149 266.203C156.723 265.132 162.22 263.69 167.828 262.809C169.832 262.493 172.337 262.375 174.979 262.187C175.394 265.722 176.067 269.204 177.259 272.607C169.157 304.544 165.586 310.419 163.962 310.37C153.402 310.041 142.844 310.77 132.287 310.946C126.314 311.047 120.395 310.531 114.748 308.55C110.506 307.063 107.33 304.526 105.723 300.403C104.958 298.444 104.18 296.487 103.475 294.505C101.257 288.276 98.6758 282.224 94.5931 276.877C93.3058 275.19 92.0362 273.488 91.0407 271.613C88.1671 266.197 89.2161 260.495 93.9669 256.284Z" fill="#DCCFFF"/>
<path d="M101.67 260.935C101.045 257.771 123.244 253.284 124.15 256.666C126.773 266.459 103.531 270.372 101.67 260.935Z" fill="#CABDF3"/>
<path d="M105.937 256.083C104.252 261.756 104.176 262.658 107.546 262.858C111.591 263.099 112.238 263.036 115.47 262.722C119.349 262.346 120.587 262.015 121.036 259.859C121.712 258.079 122.149 256.209 122.693 254.379C124.268 248.18 125.421 241.862 127.773 235.875C128.234 234.702 128.918 234.056 130.222 233.569C133.393 232.384 135.705 230.112 137.117 227.121C137.927 225.407 137.827 223.628 135.962 222.461C134.822 221.749 134.7 220.838 134.99 219.85C135.394 218.483 134.83 217.565 133.824 216.688C131.321 214.503 128.846 212.286 126.359 210.085C125.482 209.31 124.391 208.906 123.318 208.525C120.939 207.684 118.721 208.774 117.688 211.276C116.837 213.338 116.767 215.566 116.543 217.749C116.161 221.488 115.867 225.237 115.508 228.979C115.438 229.704 115.377 230.474 115.086 231.124C112.513 236.912 106.508 254.161 105.937 256.083Z" fill="#FFB599"/>
<path d="M146.002 210.315C138.8 210.27 125.72 211.213 118.834 211.902C117.223 211.969 115.317 212.739 114.935 214.327L114.029 220.686C113.531 222.768 114.921 224.8 117.016 225.048L144.687 228.321C146.587 228.547 148.347 227.209 148.671 225.296L148.85 214.232C149.217 212.065 148.173 210.329 146.002 210.315Z" fill="#002E31"/>
<path d="M146.5 228C144 229.5 144.762 210.832 146 210.5C152.22 208.833 152.294 227.251 146.5 228Z" fill="#ACACAC"/>
<path d="M137.409 223.488C136.622 220.705 133.932 218.91 132.411 216.443C132.087 215.92 131.81 215.353 131.371 214.918C130.933 214.482 130.274 214.194 129.686 214.388C129.437 214.471 129.222 214.631 129.035 214.813C127.792 216.022 127.822 218.103 128.639 219.631C129.459 221.158 130.892 222.256 132.297 223.28C130.944 222.294 126.988 226.73 126.691 227.814C126.196 229.612 127.301 231.501 128.906 232.35C133.642 234.855 138.589 227.653 137.409 223.488Z" fill="#FFB599"/>
<path d="M115.598 218.291C115.598 218.291 85.8127 213.856 56.6666 226.933C7.93322 248.799 -6.23176 302.266 3.96663 344.233C21.5878 416.746 100.867 385.033 86.452 357.261C78.605 345.26 65.4238 348.179 61.2 361.233C53.2134 398.61 123.527 416.262 158.667 355.567C177.367 323.267 209.667 340.267 209.667 375.967" stroke="#002E31" stroke-width="1.71448"/>
<path opacity="0.1" d="M14.369 287.236C10.0745 285.14 6.38101 281.853 3.85755 277.496C-3.2435 265.234 1.58227 249.184 14.6368 241.647C27.691 234.11 44.03 237.941 51.131 250.203C58.2321 262.465 53.4061 278.515 40.3519 286.051C37.8805 287.478 35.291 288.496 32.669 289.128C33.6378 291.609 35.0619 294.372 37.1433 296.884C37.1433 296.884 26.3312 293.858 14.369 287.236Z" fill="url(#paint9_linear)"/>
</g>
</g>
<defs>
<linearGradient id="paint0_linear" x1="129.738" y1="12.9855" x2="197.074" y2="159.059" gradientUnits="userSpaceOnUse">
<stop offset="2.7e-07" stop-color="#FF87C8"/>
<stop offset="0.826693" stop-color="#EF0D0D"/>
</linearGradient>
<linearGradient id="paint1_linear" x1="159.458" y1="189.06" x2="141.869" y2="21.5053" gradientUnits="userSpaceOnUse">
<stop stop-color="#0DB9EF"/>
<stop offset="1" stop-color="#55FFFF"/>
</linearGradient>
<linearGradient id="paint2_linear" x1="161.374" y1="-0.505813" x2="161.374" y2="69.6928" gradientUnits="userSpaceOnUse">
<stop stop-color="#FFB638"/>
<stop offset="1" stop-color="#FF9900"/>
</linearGradient>
<linearGradient id="paint3_linear" x1="139.083" y1="-1.31025" x2="139.083" y2="48.2787" gradientUnits="userSpaceOnUse">
<stop stop-color="#FFB02B"/>
<stop offset="1" stop-color="#FFA621"/>
</linearGradient>
<linearGradient id="paint4_linear" x1="246.171" y1="97.7017" x2="239.593" y2="138.971" gradientUnits="userSpaceOnUse">
<stop offset="2.7e-07" stop-color="#FF81C5"/>
<stop offset="0.776042" stop-color="#EF0D0D"/>
</linearGradient>
<linearGradient id="paint5_linear" x1="381.646" y1="218.76" x2="375.863" y2="299.756" gradientUnits="userSpaceOnUse">
<stop stop-color="#77CFFE"/>
<stop offset="2.7e-07" stop-color="#77CFFE"/>
<stop offset="1" stop-color="#0D3BEF"/>
</linearGradient>
<linearGradient id="paint6_linear" x1="382.878" y1="8.6145" x2="308.685" y2="163.365" gradientUnits="userSpaceOnUse">
<stop stop-color="#77CFFE"/>
<stop offset="2.7e-07" stop-color="#77CFFE"/>
<stop offset="1" stop-color="#0D3BEF"/>
</linearGradient>
<linearGradient id="paint7_linear" x1="449.898" y1="49.6588" x2="464.086" y2="9.27445" gradientUnits="userSpaceOnUse">
<stop stop-color="#77CFFE"/>
<stop offset="2.7e-07" stop-color="#77CFFE"/>
<stop offset="1" stop-color="#0D3BEF"/>
</linearGradient>
<linearGradient id="paint8_linear" x1="186.415" y1="400.3" x2="186.415" y2="124.591" gradientUnits="userSpaceOnUse">
<stop stop-color="#DBA2FF"/>
<stop offset="1" stop-color="#EAAFFF"/>
</linearGradient>
<linearGradient id="paint9_linear" x1="26.2674" y1="238.031" x2="36.6298" y2="298.201" gradientUnits="userSpaceOnUse">
<stop offset="2.7e-07" stop-color="#FF81C5"/>
<stop offset="0.776042" stop-color="#EF0D0D"/>
</linearGradient>
<clipPath id="clip0">
<rect width="489" height="397" fill="white"/>
</clipPath>
<clipPath id="clip1">
<rect width="176" height="156" fill="white" transform="translate(80)"/>
</clipPath>
<clipPath id="clip2">
<rect width="225" height="172.172" fill="white" transform="translate(264)"/>
</clipPath>
<clipPath id="clip3">
<rect width="31.3574" height="30.5735" fill="white" transform="translate(371.197 54.5232) rotate(-120)"/>
</clipPath>
<clipPath id="clip4">
<rect width="306" height="231.413" fill="white" transform="translate(0 168)"/>
</clipPath>
</defs>
</svg>
