<svg width="326" height="589" viewBox="0 0 326 589" fill="none" xmlns="http://www.w3.org/2000/svg">
<g clip-path="url(#clip0)">
<path d="M6.5 0.5H319.5C322.814 0.5 325.5 3.18629 325.5 6.5V582.5C325.5 585.814 322.814 588.5 319.5 588.5H6.5C3.18629 588.5 0.5 585.814 0.5 582.5V6.5C0.5 3.18629 3.18629 0.5 6.5 0.5Z" fill="white" stroke="#CDCDCD"/>
<path d="M28.33 18.5778C28.33 21.6554 25.8188 24.1556 22.7145 24.1556C19.6103 24.1556 17.0991 21.6554 17.0991 18.5778C17.0991 15.5002 19.6103 13 22.7145 13C25.8188 13 28.33 15.5002 28.33 18.5778Z" fill="#F25C54" stroke="#D6443C"/>
<path d="M48.7147 18.5778C48.7147 21.6554 46.2035 24.1556 43.0993 24.1556C39.9951 24.1556 37.4839 21.6554 37.4839 18.5778C37.4839 15.5002 39.9951 13 43.0993 13C46.2035 13 48.7147 15.5002 48.7147 18.5778Z" fill="#F2B32C" stroke="#D69917"/>
<path d="M69.0996 18.5778C69.0996 21.6554 66.5884 24.1556 63.4841 24.1556C60.3799 24.1556 57.8687 21.6554 57.8687 18.5778C57.8687 15.5002 60.3799 13 63.4841 13C66.5884 13 69.0996 15.5002 69.0996 18.5778Z" fill="#E9E9E9" stroke="#CDCDCD"/>
<path d="M19.0957 47.5V42.7852H23.9683V40.8013H19.0957V37.5889H24.4331V35.522H16.5889V47.5H19.0957ZM33.9292 38.6016H31.5054V43.6982C31.5054 44.877 30.833 45.6489 29.7539 45.6489C28.6831 45.6489 28.0938 45.0181 28.0938 43.8311V38.6016H25.6699V44.3374C25.6699 46.4126 26.9483 47.666 28.874 47.666C30.2188 47.666 31.0987 47.0186 31.5386 45.8979H31.5884V47.5H33.9292V38.6016ZM35.5064 47.5H37.9302V42.395C37.9302 41.2412 38.6192 40.4443 39.7066 40.4443C40.794 40.4443 41.3418 41.1084 41.3418 42.2705V47.5H43.7656V41.7642C43.7656 39.6807 42.6533 38.4355 40.6778 38.4355C39.3081 38.4355 38.3701 39.083 37.897 40.187H37.8472V38.6016H35.5064V47.5ZM45.3013 47.5H47.7251V42.395C47.7251 41.2412 48.4141 40.4443 49.5015 40.4443C50.5889 40.4443 51.1367 41.1084 51.1367 42.2705V47.5H53.5606V41.7642C53.5606 39.6807 52.4483 38.4355 50.4727 38.4355C49.103 38.4355 48.1651 39.083 47.6919 40.187H47.6421V38.6016H45.3013V47.5ZM56.1919 50.7954C58.458 50.7954 59.5786 49.9736 60.334 47.6909L63.397 38.6016H60.8404L58.9561 45.5576H58.9063L57.0137 38.6016H54.3574L57.4536 47.5C57.4619 47.5415 57.3706 47.8901 57.3706 47.9316C57.2046 48.6372 56.7647 48.9194 55.8848 48.9194C55.7935 48.9194 55.3535 48.9111 55.2705 48.8945V50.7705C55.3535 50.7871 56.1006 50.7954 56.1919 50.7954ZM67.8711 35.522V47.5H72.4448C76.0391 47.5 78.1558 45.2671 78.1558 41.4653C78.1558 37.6636 76.0391 35.522 72.4448 35.522H67.8711ZM70.378 37.5889H72.146C74.354 37.5889 75.5991 38.9668 75.5991 41.4736C75.5991 44.0635 74.3872 45.4248 72.146 45.4248H70.378V37.5889ZM85.4605 44.7773C85.2364 45.458 84.5557 45.8979 83.6675 45.8979C82.4307 45.8979 81.6255 45.0264 81.6255 43.7563V43.6069H87.7598V42.8682C87.7598 40.1621 86.1245 38.4106 83.5347 38.4106C80.9033 38.4106 79.2432 40.2534 79.2432 43.0923C79.2432 45.9395 80.8867 47.6909 83.626 47.6909C85.8257 47.6909 87.4195 46.5205 87.6851 44.7773H85.4605ZM83.5596 40.2036C84.6387 40.2036 85.3775 40.9839 85.4273 42.1211H81.6504C81.7334 41.0088 82.4971 40.2036 83.5596 40.2036ZM97.0982 41.9136C96.9903 39.8965 95.4629 38.4106 93.0557 38.4106C90.3911 38.4106 88.6895 40.187 88.6895 43.0425C88.6895 45.9478 90.3911 47.6909 93.0723 47.6909C95.4131 47.6909 96.982 46.3379 97.1065 44.2378H94.8487C94.6992 45.209 94.0684 45.79 93.0972 45.79C91.8936 45.79 91.1465 44.7939 91.1465 43.0425C91.1465 41.3242 91.8936 40.3115 93.0889 40.3115C94.085 40.3115 94.7075 40.9756 94.8487 41.9136H97.0982ZM99.5219 37.3979C100.228 37.3979 100.784 36.8335 100.784 36.1528C100.784 35.4639 100.228 34.9077 99.5219 34.9077C98.8164 34.9077 98.2603 35.4639 98.2603 36.1528C98.2603 36.8335 98.8164 37.3979 99.5219 37.3979ZM98.3184 47.5H100.742V38.6016H98.3184V47.5ZM107.649 47.6411C109.89 47.6411 111.259 45.9146 111.259 43.0508C111.259 40.1787 109.881 38.4604 107.64 38.4604C106.37 38.4604 105.382 39.0913 104.893 40.1455H104.843V35.522H102.419V47.5H104.81V45.9727H104.859C105.349 47.0103 106.345 47.6411 107.649 47.6411ZM106.81 40.4028C108.014 40.4028 108.777 41.4321 108.777 43.0508C108.777 44.6777 108.022 45.6904 106.81 45.6904C105.631 45.6904 104.835 44.6611 104.835 43.0508C104.835 41.457 105.64 40.4028 106.81 40.4028ZM118.415 44.7773C118.191 45.458 117.51 45.8979 116.622 45.8979C115.385 45.8979 114.58 45.0264 114.58 43.7563V43.6069H120.714V42.8682C120.714 40.1621 119.079 38.4106 116.489 38.4106C113.858 38.4106 112.197 40.2534 112.197 43.0923C112.197 45.9395 113.841 47.6909 116.58 47.6909C118.78 47.6909 120.374 46.5205 120.639 44.7773H118.415ZM116.514 40.2036C117.593 40.2036 118.332 40.9839 118.381 42.1211H114.605C114.688 41.0088 115.451 40.2036 116.514 40.2036ZM122.026 47.5H124.449V35.522H122.026V47.5ZM127.869 50.1147L128.982 45.4414H126.674L126.051 50.1147H127.869ZM135.904 47.5V35.522H133.398V47.5H135.904ZM137.689 47.5H140.113V42.395C140.113 41.2412 140.802 40.4443 141.889 40.4443C142.977 40.4443 143.525 41.1084 143.525 42.2705V47.5H145.948V41.7642C145.948 39.6807 144.836 38.4355 142.86 38.4355C141.491 38.4355 140.553 39.083 140.08 40.187H140.03V38.6016H137.689V47.5ZM155.569 41.9136C155.461 39.8965 153.934 38.4106 151.526 38.4106C148.862 38.4106 147.16 40.187 147.16 43.0425C147.16 45.9478 148.862 47.6909 151.543 47.6909C153.884 47.6909 155.453 46.3379 155.577 44.2378H153.319C153.17 45.209 152.539 45.79 151.568 45.79C150.364 45.79 149.617 44.7939 149.617 43.0425C149.617 41.3242 150.364 40.3115 151.56 40.3115C152.556 40.3115 153.178 40.9756 153.319 41.9136H155.569Z" fill="#2F2F2F"/>
<path d="M35.4404 58.188C32.8442 58.188 31.2192 60.0161 31.2192 62.9233C31.2192 65.8306 32.8442 67.6523 35.4404 67.6523C38.0366 67.6523 39.6616 65.8306 39.6616 62.9233C39.6616 60.0161 38.0366 58.188 35.4404 58.188ZM35.4404 59.2417C37.3129 59.2417 38.4873 60.6636 38.4873 62.9233C38.4873 65.1768 37.3129 66.5986 35.4404 66.5986C33.5678 66.5986 32.3935 65.1768 32.3935 62.9233C32.3935 60.6636 33.5678 59.2417 35.4404 59.2417ZM40.9121 67.5H42.0166V63.6152C42.0166 62.498 42.6958 61.7617 43.7368 61.7617C44.7524 61.7617 45.2539 62.3457 45.2539 63.4121V67.5H46.3584V63.2153C46.3584 61.7173 45.5205 60.7842 44.0732 60.7842C43.0512 60.7842 42.3466 61.2412 41.9785 61.9521H41.9531V60.8984H40.9121V67.5ZM47.8247 67.5H48.9292V58.3403H47.8247V67.5ZM51.0302 59.7241C51.4174 59.7241 51.7221 59.4131 51.7221 59.0322C51.7221 58.645 51.4174 58.3403 51.0302 58.3403C50.6494 58.3403 50.3383 58.645 50.3383 59.0322C50.3383 59.4131 50.6494 59.7241 51.0302 59.7241ZM50.478 67.5H51.5825V60.8984H50.478V67.5ZM53.0742 67.5H54.1787V63.6152C54.1787 62.498 54.8579 61.7617 55.8989 61.7617C56.9145 61.7617 57.416 62.3457 57.416 63.4121V67.5H58.5205V63.2153C58.5205 61.7173 57.6826 60.7842 56.2353 60.7842C55.2133 60.7842 54.5087 61.2412 54.1406 61.9521H54.1152V60.8984H53.0742V67.5ZM64.3095 65.6084C64.1254 66.2305 63.5097 66.6558 62.6718 66.6558C61.4848 66.6558 60.7421 65.8242 60.7421 64.561V64.4976H65.4775V64.0786C65.4775 62.0791 64.3794 60.7842 62.5957 60.7842C60.7739 60.7842 59.6059 62.1743 59.6059 64.2246C59.6059 66.3003 60.7548 67.6143 62.6464 67.6143C64.0874 67.6143 65.2045 66.7637 65.395 65.6084H64.3095ZM62.5766 61.7427C63.6176 61.7427 64.3095 62.5298 64.3349 63.6343H60.7485C60.8183 62.5361 61.5419 61.7427 62.5766 61.7427Z" fill="#777776"/>
<path d="M21.127 67.5C23.6276 67.5 25.6548 65.4853 25.6548 63C25.6548 60.5147 23.6276 58.5 21.127 58.5C18.6263 58.5 16.5991 60.5147 16.5991 63C16.5991 65.4853 18.6263 67.5 21.127 67.5Z" fill="#28CD41"/>
<g filter="url(#filter0_d)">
<circle cx="57.74" cy="132.57" r="38.74" stroke="#FF0000" stroke-width="4"/>
</g>
<path d="M53.689 188.348C55.7222 188.348 56.9175 186.643 56.9175 183.948C56.9175 181.27 55.7104 179.577 53.689 179.577C51.6675 179.577 50.4487 181.276 50.4487 183.954C50.4487 186.649 51.6499 188.348 53.689 188.348ZM53.689 187.247C52.4644 187.247 51.7788 185.999 51.7788 183.954C51.7788 181.938 52.4819 180.678 53.689 180.678C54.896 180.678 55.5933 181.932 55.5933 183.954C55.5933 186.004 54.9077 187.247 53.689 187.247ZM59.0034 182.459C59.4312 182.459 59.771 182.125 59.771 181.698C59.771 181.264 59.4312 180.93 59.0034 180.93C58.5757 180.93 58.2358 181.264 58.2358 181.698C58.2358 182.125 58.5757 182.459 59.0034 182.459ZM59.0034 186.989C59.4312 186.989 59.771 186.655 59.771 186.221C59.771 185.793 59.4312 185.459 59.0034 185.459C58.5757 185.459 58.2358 185.793 58.2358 186.221C58.2358 186.655 58.5757 186.989 59.0034 186.989ZM64.3296 188.348C66.3628 188.348 67.5581 186.643 67.5581 183.948C67.5581 181.27 66.3511 179.577 64.3296 179.577C62.3081 179.577 61.0894 181.276 61.0894 183.954C61.0894 186.649 62.2905 188.348 64.3296 188.348ZM64.3296 187.247C63.105 187.247 62.4194 185.999 62.4194 183.954C62.4194 181.938 63.1226 180.678 64.3296 180.678C65.5366 180.678 66.2339 181.932 66.2339 183.954C66.2339 186.004 65.5483 187.247 64.3296 187.247ZM68.9702 188.19H70.3472L74.021 180.872V179.735H68.2671V180.842H72.7261V180.872L68.9702 188.19Z" fill="black"/>
<ellipse cx="44.9773" cy="183.98" rx="2.97727" ry="2.91" fill="#FF0000"/>
<path d="M269.906 187.053H265.852V184.428H269.689V183.338H265.852V180.866H269.906V179.735H264.539V188.19H269.906V187.053ZM276.393 184.147C276.281 182.934 275.314 181.915 273.727 181.915C271.975 181.915 270.826 183.151 270.826 185.108C270.826 187.1 271.975 188.307 273.738 188.307C275.221 188.307 276.27 187.417 276.404 186.104H275.186C275.039 186.819 274.529 187.247 273.75 187.247C272.766 187.247 272.115 186.461 272.115 185.108C272.115 183.784 272.76 182.969 273.738 182.969C274.564 182.969 275.057 183.491 275.186 184.147H276.393ZM277.348 188.19H278.613V184.627C278.613 183.655 279.188 183.01 280.125 183.01C281.016 183.01 281.473 183.555 281.473 184.463V188.19H282.744V184.217C282.744 182.823 281.936 181.92 280.582 181.92C279.645 181.92 278.971 182.336 278.631 183.057H278.602V179.735H277.348V188.19ZM286.617 188.307C288.381 188.307 289.541 187.094 289.541 185.108C289.541 183.127 288.375 181.915 286.617 181.915C284.859 181.915 283.693 183.127 283.693 185.108C283.693 187.094 284.854 188.307 286.617 188.307ZM286.617 187.264C285.627 187.264 284.982 186.479 284.982 185.108C284.982 183.743 285.627 182.958 286.617 182.958C287.607 182.958 288.252 183.743 288.252 185.108C288.252 186.479 287.613 187.264 286.617 187.264Z" fill="black"/>
<circle cx="258.91" cy="183.98" r="2.41" stroke="#28CD41"/>
<ellipse cx="259.021" cy="183.91" rx="3.02066" ry="2.91" fill="#28CD41"/>
<path d="M51.6108 304.59H52.9995L49.9468 296.135H48.5288L45.4761 304.59H46.8413L47.6147 302.305H50.8374L51.6108 304.59ZM49.2085 297.541H49.2437L50.5034 301.25H47.9487L49.2085 297.541ZM56.9897 298.326C56.0991 298.326 55.3901 298.777 55.0269 299.486H55.0034V298.426H53.7788V306.629H55.0444V303.576H55.0737C55.4253 304.262 56.1284 304.695 57.0132 304.695C58.5601 304.695 59.5854 303.459 59.5854 301.508C59.5854 299.557 58.5542 298.326 56.9897 298.326ZM56.6558 303.623C55.6831 303.623 55.0386 302.791 55.0386 301.508C55.0386 300.236 55.689 299.393 56.6558 299.393C57.6577 299.393 58.2847 300.219 58.2847 301.508C58.2847 302.803 57.6577 303.623 56.6558 303.623ZM63.2124 304.707C64.9761 304.707 66.1362 303.494 66.1362 301.508C66.1362 299.527 64.9702 298.314 63.2124 298.314C61.4546 298.314 60.2886 299.527 60.2886 301.508C60.2886 303.494 61.4487 304.707 63.2124 304.707ZM63.2124 303.664C62.2222 303.664 61.5776 302.879 61.5776 301.508C61.5776 300.143 62.2222 299.357 63.2124 299.357C64.2026 299.357 64.8472 300.143 64.8472 301.508C64.8472 302.879 64.2085 303.664 63.2124 303.664ZM67.1616 304.59H68.4272V296.135H67.1616V304.59ZM69.7749 304.59H71.0405V296.135H69.7749V304.59ZM74.9897 304.707C76.7534 304.707 77.9136 303.494 77.9136 301.508C77.9136 299.527 76.7476 298.314 74.9897 298.314C73.2319 298.314 72.0659 299.527 72.0659 301.508C72.0659 303.494 73.2261 304.707 74.9897 304.707ZM74.9897 303.664C73.9995 303.664 73.355 302.879 73.355 301.508C73.355 300.143 73.9995 299.357 74.9897 299.357C75.98 299.357 76.6245 300.143 76.6245 301.508C76.6245 302.879 75.9858 303.664 74.9897 303.664Z" fill="black"/>
<path d="M42.7429 300.38C42.7429 301.678 41.6028 302.79 40.1214 302.79C38.64 302.79 37.5 301.678 37.5 300.38C37.5 299.081 38.64 297.97 40.1214 297.97C41.6028 297.97 42.7429 299.081 42.7429 300.38Z" stroke="#FFA621"/>
<path d="M167.142 305H168.531L165.478 296.545H164.06L161.007 305H162.373L163.146 302.715H166.369L167.142 305ZM164.74 297.951H164.775L166.035 301.66H163.48L164.74 297.951ZM169.31 305H170.576V301.309C170.576 300.436 171.08 299.891 171.894 299.891C172.14 299.891 172.363 299.92 172.462 299.961V298.783C172.369 298.766 172.21 298.736 172.029 298.736C171.302 298.736 170.751 299.164 170.546 299.885H170.517V298.836H169.31V305ZM173.921 297.84C174.326 297.84 174.648 297.512 174.648 297.113C174.648 296.709 174.326 296.387 173.921 296.387C173.517 296.387 173.189 296.709 173.189 297.113C173.189 297.512 173.517 297.84 173.921 297.84ZM173.289 305H174.554V298.836H173.289V305ZM177.654 305.105C178.462 305.105 179.242 304.672 179.599 303.986H179.628V305H180.841V300.752C180.841 299.516 179.886 298.725 178.392 298.725C176.869 298.725 175.919 299.545 175.849 300.658H177.044C177.156 300.107 177.613 299.756 178.345 299.756C179.119 299.756 179.582 300.166 179.582 300.852V301.326L177.894 301.426C176.429 301.508 175.603 302.17 175.603 303.248C175.603 304.355 176.447 305.105 177.654 305.105ZM178.005 304.104C177.326 304.104 176.88 303.752 176.88 303.213C176.88 302.686 177.308 302.352 178.064 302.299L179.582 302.205V302.691C179.582 303.494 178.89 304.104 178.005 304.104Z" fill="black"/>
<ellipse cx="155.821" cy="300.79" rx="3.02066" ry="2.91" fill="#28CD41"/>
<path d="M143.887 188.19H144.895L145.358 185.875H146.858L147.045 184.885H145.557L145.956 182.946H147.403L147.59 181.961H146.161L146.612 179.735H145.61L145.147 181.961H143.348L143.793 179.735H142.797L142.334 181.961H140.922L140.723 182.946H142.135L141.749 184.885H140.383L140.19 185.875H141.543L141.081 188.19H142.077L142.545 185.875H144.356L143.887 188.19ZM142.704 184.932L143.114 182.905H144.995L144.579 184.932H142.704ZM156.063 187.053H152.125V179.735H150.813V188.19H156.063V187.053ZM158.84 188.295C159.649 188.295 160.428 187.862 160.786 187.176H160.815V188.19H162.028V183.942C162.028 182.706 161.073 181.915 159.579 181.915C158.055 181.915 157.106 182.735 157.036 183.848H158.231C158.342 183.297 158.799 182.946 159.532 182.946C160.305 182.946 160.768 183.356 160.768 184.042V184.516L159.081 184.616C157.616 184.698 156.79 185.36 156.79 186.438C156.79 187.545 157.633 188.295 158.84 188.295ZM159.192 187.293C158.512 187.293 158.067 186.942 158.067 186.403C158.067 185.875 158.495 185.542 159.25 185.489L160.768 185.395V185.881C160.768 186.684 160.077 187.293 159.192 187.293ZM168.543 182.026H167.278V185.618C167.278 186.579 166.727 187.211 165.813 187.211C164.94 187.211 164.495 186.708 164.495 185.77V182.026H163.229V186.016C163.229 187.428 164.049 188.301 165.391 188.301C166.334 188.301 166.961 187.885 167.301 187.147H167.331V188.19H168.543V182.026ZM169.797 188.19H171.063V184.598C171.063 183.643 171.637 183.01 172.528 183.01C173.407 183.01 173.84 183.52 173.84 184.446V188.19H175.112V184.2C175.112 182.788 174.333 181.92 172.973 181.92C172.024 181.92 171.368 182.354 171.034 183.057H171.004V182.026H169.797V188.19ZM181.627 184.147C181.516 182.934 180.549 181.915 178.961 181.915C177.209 181.915 176.061 183.151 176.061 185.108C176.061 187.1 177.209 188.307 178.973 188.307C180.456 188.307 181.504 187.417 181.639 186.104H180.42C180.274 186.819 179.764 187.247 178.985 187.247C178 187.247 177.35 186.461 177.35 185.108C177.35 183.784 177.995 182.969 178.973 182.969C179.799 182.969 180.292 183.491 180.42 184.147H181.627ZM182.583 188.19H183.848V184.627C183.848 183.655 184.422 183.01 185.36 183.01C186.25 183.01 186.708 183.555 186.708 184.463V188.19H187.979V184.217C187.979 182.823 187.17 181.92 185.817 181.92C184.879 181.92 184.206 182.336 183.866 183.057H183.836V179.735H182.583V188.19ZM189.631 179.735L189.725 185.389H190.844L190.938 179.735H189.631ZM190.282 188.278C190.721 188.278 191.055 187.95 191.055 187.522C191.055 187.094 190.721 186.766 190.282 186.766C189.854 186.766 189.514 187.094 189.514 187.522C189.514 187.95 189.854 188.278 190.282 188.278Z" fill="black"/>
<g filter="url(#filter1_d)">
<g clip-path="url(#clip1)">
<rect x="22.8198" y="214.05" width="69.84" height="69.84" rx="34.92" fill="white"/>
<rect opacity="0.15" width="430.86" height="430.86" transform="matrix(-1 0 0 1 123.38 179.49)" fill="url(#paint0_linear)"/>
<g clip-path="url(#clip2)">
<g clip-path="url(#clip3)">
<path d="M85.4634 259.932C80.2908 257.498 74.7009 255.83 68.9893 255.384C67.179 258.454 64.7429 260.943 61.8034 262.959C59.0991 264.813 56.1946 266.093 52.8383 266.149C48.0507 266.23 44.2795 262.735 42.9898 258.107C42.7631 257.293 42.5935 256.463 42.397 255.64C32.8716 254.295 26.0659 259.836 16.7695 260.863C14.8795 264.075 12.9904 267.21 11.2495 270.508C9.33091 274.143 7.02449 277.523 5.23621 281.222C5.78821 281.773 6.12895 282.947 6.55919 283.301C6.92556 283.603 7.24363 284.078 7.88217 286.136C9.58314 291.617 12.6295 286.217 12.3535 294.209C-27.5117 302.753 16.827 306.566 23.9456 309.641C40.6034 316.838 62.4388 316.706 73.2858 300.094C75.6459 296.478 78.1262 292.941 80.5337 289.356C80.8519 288.882 81.0091 288.039 81.6402 288.179C85.7431 289.058 85.4501 289.351 88.6738 289.351C89.4707 287.757 91.8525 286.983 92.7926 285.476C96.2028 280.009 95.6406 273.61 99.0281 268.13C99.1153 267.988 99.1595 267.82 99.2241 267.664C99.0071 267.534 98.7966 267.389 98.5715 267.274C95.23 265.556 89.7804 261.963 85.4634 259.932Z" fill="#002E31"/>
<path d="M61.2154 250.983C59.7718 247.098 62.2628 243.168 63.8384 239.462C63.9423 239.157 64.0484 238.852 64.1625 238.551C62.5837 239.178 61.6839 240.482 61.0404 242.049C60.8283 242.566 60.6317 243.104 60.7669 243.644C60.9155 244.239 60.6032 244.585 60.2973 244.997C58.0497 248.031 55.051 250.082 51.6624 251.63C51.9822 252.791 51.8675 253.021 50.7755 253.598C47.8343 255.153 45.4385 255.648 42.1613 255.627C42.3579 256.45 42.4861 257.293 42.7134 258.107C44.0203 262.792 48.0508 266.23 52.8378 266.149C56.1942 266.093 59.0992 264.813 61.8029 262.959C64.6886 260.98 67.0881 258.544 68.8882 255.551C65.7241 255.237 62.1998 253.631 61.2154 250.983Z" fill="#9C603D"/>
<path d="M64.97 238.324C64.1622 239.735 64.3642 240.945 63.1526 242.759C62.3449 243.969 60.9066 244.176 60.2981 244.996C58.0505 248.03 55.0517 250.082 51.6631 251.63C51.2996 251.586 51.0094 251.782 50.7116 251.935C48.4419 253.102 46.0629 253.159 43.6629 252.519C38.5506 251.159 37.4446 245.332 39.4903 242.155C40.8333 240.069 42.5176 238.798 44.9817 238.565C45.2767 238.537 45.5686 238.453 45.8626 238.448C48.3773 238.413 50.8424 238.127 53.166 237.078C53.496 237.762 53.8116 238.453 54.1589 239.127C54.4863 239.763 54.8169 240.397 55.3602 240.897C56.5013 241.945 57.5529 241.995 58.7446 241.026C60.3067 239.755 61.2356 238.062 61.8543 236.199C62.3114 234.822 61.6588 233.584 60.3169 233.016C59.4537 232.651 58.5308 232.518 57.6305 232.294C59.366 230.05 62.124 229.891 63.9452 231.935C64.6005 232.67 65.0959 233.488 65.4061 234.438C65.8772 235.879 65.9796 236.711 64.97 238.324Z" fill="#002E31"/>
<path d="M57.631 232.294C58.5308 232.519 59.4543 232.651 60.3175 233.017C61.6594 233.584 62.312 234.823 61.8548 236.2C61.2361 238.063 60.3073 239.756 58.7446 241.027C57.5535 241.995 56.5019 241.945 55.3608 240.897C54.8175 240.398 54.4869 239.764 54.1595 239.128C53.8122 238.453 53.4966 237.762 53.1665 237.079C54.334 236.213 55.2644 235.134 56.0926 233.946C56.5223 233.33 56.966 232.703 57.631 232.294Z" fill="#9C603D"/>
<path d="M66.044 236.623C66.7839 234.448 65.5324 232.118 64.1136 230.31C62.6947 228.502 60.992 226.723 60.6479 224.453C60.3351 222.393 61.1826 220.1 60.1321 218.299C58.662 215.778 55.5324 215.166 53.1303 216.766C47.157 220.745 53.2455 230.063 57.8882 232.213C58.7525 232.613 59.6787 232.878 60.5117 233.34C61.3442 233.801 62.105 234.515 62.3167 235.442C62.5681 236.545 62.1982 238.285 63.7905 238.544C64.8771 238.722 65.7354 237.53 66.044 236.623Z" fill="#002E31"/>
<path d="M54.3169 242.309C53.5566 242.721 52.6078 242.536 52.1129 241.837C51.6175 241.138 51.7591 240.183 52.401 239.605L54.3169 242.309Z" fill="white"/>
</g>
</g>
</g>
</g>
<g clip-path="url(#clip4)">
<rect x="22.8198" y="97.6499" width="69.84" height="69.84" rx="34.92" fill="white"/>
<rect opacity="0.15" x="22.8198" y="97.6499" width="394.494" height="394.494" fill="url(#paint1_linear)"/>
<path d="M21.3883 135.435C17.1952 139.173 17.7899 144.156 16.6915 148.579C15.6394 152.884 24.5669 156.715 25.3157 161.123C25.978 165.037 27.1444 168.813 28.1854 172.622C28.4629 173.635 28.7313 174.654 28.9774 175.676C29.2068 176.628 29.4041 177.592 29.6216 178.545C29.9026 179.771 29.9354 180.968 29.7827 182.137C29.6 183.501 29.1628 184.832 28.5639 186.126C28.1135 187.099 27.6422 188.063 27.1744 189.033C26.4221 190.6 25.6838 192.171 25.0905 193.802C24.9629 194.154 24.8416 194.508 24.7272 194.866C24.014 197.117 23.5754 199.432 23.3363 201.778C23.2561 202.558 23.2575 203.338 23.0058 204.096C22.6621 205.115 23.0246 205.921 23.8299 206.559C24.691 207.241 25.6956 207.641 26.7268 207.961C30.0595 208.986 33.4332 209.853 36.8503 210.54C41.4491 211.463 46.0534 212.357 50.6871 213.063C51.8723 213.245 53.0604 213.412 54.2512 213.565C59.8749 214.284 65.5111 214.941 71.2017 214.856C71.2652 214.854 71.3321 214.856 71.3963 214.853C72.6254 214.831 73.8358 214.651 75.0636 214.613C76.8526 214.554 78.1711 212.876 78.0909 211.076C77.9514 208.067 76.6253 205.495 75.0427 203.055C72.9071 199.752 70.2152 196.87 67.7541 193.82C65.9678 191.603 64.1843 189.387 62.3842 187.181C61.6423 186.272 61.2972 185.242 61.187 184.082C61.0643 182.83 61.0964 181.609 61.2658 180.409C61.4861 178.772 61.9561 177.18 62.6149 175.613C62.8987 174.94 63.1992 174.278 63.5136 173.622L63.5143 173.619C64.4165 171.76 65.4463 169.974 66.5988 168.249C67.2409 167.288 67.2583 167.276 68.3627 167.759C71.6835 169.225 75.1758 170.236 78.5148 171.668C79.9957 172.307 81.6082 172.056 82.8611 170.777C83.3408 170.287 83.8546 169.831 84.3531 169.361C85.1486 168.011 86.2858 166.925 87.2591 165.718C89.4009 163.07 91.6229 160.489 93.8128 157.883C94.0924 157.31 94.3915 156.748 94.6467 156.167C95.2547 154.785 94.759 153.647 93.3227 153.121C92.8632 152.95 92.3871 152.828 91.9178 152.688C89.8708 152.078 88.0539 151.035 86.336 149.793C86.2133 149.711 86.0954 149.624 85.9755 149.533C84.5532 148.476 83.1274 147.419 81.6779 146.402C80.9633 145.895 80.2418 145.4 79.5111 144.918C76.5089 142.939 73.3052 141.405 69.7244 140.68C67.0032 140.126 64.3119 139.778 61.5656 140.369C59.992 141.456 58.2832 142.296 56.5799 143.148C55.4755 143.702 54.4855 144.398 53.607 145.269C51.1751 147.698 48.8513 150.207 47.2952 153.32C46.9452 154.028 46.4948 154.673 45.8819 155.177C44.9546 155.934 43.9716 155.69 43.526 154.581C43.266 153.941 43.2249 153.25 43.2437 152.559C43.3162 149.763 43.7429 147.027 44.4471 144.309C45.2321 141.265 46.2124 138.313 47.4653 135.435C47.7825 134.705 48.2022 134.062 48.8451 133.579C49.2411 132.386 48.859 131.488 48.0398 130.534C45.5333 127.606 43.5728 124.343 42.377 120.639C41.9699 119.388 41.4072 118.174 40.8034 116.996C39.8957 115.233 37.0653 102.482 32.0617 106.911C30.1763 109.509 28.4654 112.26 26.438 114.763C23.8249 117.989 21.1232 121.141 18.8287 124.611C18.6328 125.122 21.2202 134.974 21.3883 135.435Z" fill="#0097D5"/>
<path d="M60.1142 133.977C66.2441 137.498 72.7888 140.709 79.8347 141.28C84.4328 141.652 89.6765 140.586 93.5956 138.101C102.148 132.68 98.5611 122.055 88.545 122.776C83.2727 123.156 77.7612 125.203 75.5602 118.965C74.2982 115.388 73.3382 111.684 71.6363 108.294C68.9604 102.961 64.1636 98.9594 57.8441 99.8086C52.8576 100.478 48.5761 104.462 47.0129 109.184C44.784 115.922 47.4654 123.583 52.3299 128.75C56.854 131.993 59.1172 133.553 60.1142 133.977Z" fill="url(#paint2_linear)"/>
<path d="M43.2437 152.559C43.2249 153.25 43.266 153.941 43.5261 154.581C43.9716 155.69 44.9547 155.934 45.8819 155.177C46.4948 154.672 46.9452 154.028 47.2952 153.32C48.8514 150.207 51.1752 147.697 53.607 145.27C54.4855 144.399 55.4755 143.702 56.5799 143.148C58.2832 142.296 59.9921 141.455 61.5657 140.369C59.5368 139.4 58.8131 137.781 59.4245 135.611C59.5702 135.095 59.7215 134.583 60.0255 134.134C60.1587 133.794 60.4104 133.769 60.7409 133.795C61.5636 133.862 62.3967 133.919 63.2229 133.796C64.5985 133.593 65.6283 133.002 66.4106 132.164C67.1921 131.331 67.7304 130.252 68.132 129.068C68.726 127.313 69.2203 125.521 69.8053 123.756C69.8952 123.486 69.9831 123.209 70.0207 122.917C70.0479 122.717 70.0542 122.513 70.0214 122.297C66.0173 122.042 63.6238 119.659 61.9624 116.32C61.443 115.268 61.0016 114.174 60.5115 113.104C60.0945 112.194 59.9586 112.164 59.1498 112.829C57.883 113.874 56.9578 115.199 56.1163 116.589C55.9399 116.883 55.7774 117.183 55.6073 117.479C55.3298 117.966 55.0363 118.058 54.5657 117.657C54.056 117.222 53.5652 116.772 52.7536 116.857C51.8075 116.961 51.1605 117.41 50.8356 118.236C50.3371 119.516 50.3531 120.837 50.9325 122.099C51.2714 122.837 51.8236 123.433 52.6658 123.555C53.4432 123.665 53.5833 124.077 53.5464 124.768C53.469 126.108 53.9249 127.526 52.9419 128.727C52.3716 129.912 51.8396 131.115 51.2128 132.266C50.7227 133.175 50.0059 133.808 48.8451 133.579C48.2023 134.063 47.7825 134.706 47.4653 135.435C46.2124 138.312 45.2321 141.265 44.4471 144.308C43.7429 147.027 43.3162 149.763 43.2437 152.559Z" fill="#FFBF9D"/>
<path d="M59.9739 125.978C59.6176 127.372 60.3029 128.829 61.6332 129.342C62.9649 129.856 64.4506 129.24 65.1241 127.968L59.9739 125.978Z" fill="white"/>
<path d="M40.4183 174.87C42.3649 177.533 46.1821 177.849 49.4715 177.595C52.7575 177.342 56.3181 176.824 59.1369 178.532C59.9617 179.032 60.6506 179.677 61.2655 180.409C61.4865 178.772 61.9564 177.18 62.6153 175.613C62.8991 174.94 63.1996 174.277 63.5133 173.622L63.514 173.619C63.1229 173.211 62.7422 172.79 62.3796 172.368C59.5483 169.09 56.8821 165.346 52.8627 163.729C48.8294 162.103 43.7377 163.219 41.0499 166.639C39.2246 168.964 38.6717 172.486 40.4183 174.87Z" fill="#53BAE4"/>
<path d="M20.9812 148.884C20.9254 149.093 20.8731 149.306 20.8208 149.517C21.9154 149.591 23.017 149.761 24.0677 149.942C27.4547 150.533 31.3633 151.012 33.9597 148.753C36.3951 146.633 36.6251 142.93 36.1364 139.736C36.075 139.34 36.0081 138.938 35.8275 138.579C35.5786 138.071 35.1317 137.682 34.6437 137.39C32.2501 135.954 29.1155 136.771 26.7101 138.185C24.8688 139.265 23.2143 140.672 21.3772 141.733C21.6902 142.619 22.0068 143.506 22.3323 144.387C22.5485 144.984 22.522 145.487 22.2417 146.067C21.7927 146.992 21.2482 147.876 20.9812 148.884Z" fill="#53BAE4"/>
<path d="M113.585 152.143C112.832 150.929 111.796 149.955 110.615 149.132C108.517 147.467 103.816 145.016 103.816 145.016C101.961 144.347 100.086 143.789 98.0946 143.854C95.1341 143.951 93.2877 145.297 92.4475 148.036C92.1268 149.08 91.8931 150.15 91.5887 151.2C91.2407 152.401 91.1491 152.415 90.0128 151.845C89.1386 151.407 87.7483 150.682 86.7324 150.161C84.6046 149.072 85.2217 165.726 71.4951 169.05C77.516 172.331 81.5726 172.323 86.7325 173.903C89.6516 174.798 92.6345 175.378 95.6992 175.192C98.0014 175.053 99.9339 174.24 101.329 172.418C101.992 171.552 102.662 170.689 103.299 169.803C105.304 167.019 107.461 164.375 110.252 162.294C111.132 161.637 112.006 160.97 112.77 160.179C114.977 157.892 115.3 154.909 113.585 152.143Z" fill="#0097D5"/>
</g>
<g filter="url(#filter2_d)">
<g clip-path="url(#clip5)">
<rect x="238.16" y="97.6501" width="69.84" height="69.84" rx="34.92" fill="white"/>
<rect opacity="0.1" x="238.16" y="97.6501" width="72" height="72" fill="url(#paint3_linear)"/>
<path d="M305.211 184.339C308.027 182.007 310.306 179.202 311.755 175.832C311.761 175.758 311.764 175.685 311.763 175.612C311.749 175.131 311.88 174.651 311.821 174.152C311.559 171.931 310.929 169.825 309.772 167.91C307.972 164.927 306.131 161.97 304.288 159.014C302.234 155.719 300.917 152.157 300.419 148.308C299.829 143.752 302.26 138.7 299.527 134.967C298.223 133.187 300.701 126.175 298.059 126.762C296.592 127.087 288.991 131.877 288.116 132.806C288.462 133.485 289.08 133.794 289.584 134.322C291.23 136.04 291.345 137.47 290.257 139.622C289.553 141.016 288.192 141.42 286.451 141.028C284.41 140.568 283.162 139.165 283.036 137.147C282.997 136.513 283.032 135.873 283.033 135.237C282.767 135.236 282.635 135.327 282.515 135.607C282.065 136.657 277.025 138.656 276.633 139.656C274.635 144.755 275.222 149.293 276.103 154.568C276.784 158.649 279.397 161.309 279.691 168.049C279.831 171.273 279.945 172.095 279.625 175.612C279.331 178.835 278.879 180.812 279.691 184.461C280.04 186.028 270.987 189.197 272.316 190.524C273.956 192.161 285.406 191.459 290.457 190.524C295.711 189.016 300.171 188.271 305.211 184.339Z" fill="#FBE3C7"/>
<path d="M267.319 166.892C267.427 166.69 267.44 166.395 267.817 166.331C267.943 166.536 267.912 166.778 267.917 167.012C267.939 168.219 267.948 169.427 267.986 170.634C268.109 174.537 267.709 176.475 266.705 180.239C266.54 181.496 266.39 182.746 266.779 183.97C267.017 186.784 269.326 189.606 271.436 190.46C274.754 191.802 277.613 191.77 281.353 191.459C281.356 190.198 281.042 188.654 281.699 186.394C282.02 182.503 282.713 178.656 283.103 174.774C283.374 172.08 283.162 169.395 282.723 166.719C282.204 163.559 281.564 160.426 280.497 157.411C279.56 154.766 278.702 152.096 277.8 149.44C277.158 147.549 276.754 145.601 276.533 143.626C276.376 142.226 276.473 140.812 276.687 139.412C272.707 139.933 268.719 140.783 265.216 142.84C264.87 143.044 264.541 143.263 264.222 143.494C263.093 144.621 262.18 145.96 261.547 147.568C261.184 148.491 260.774 149.423 260.112 150.18C258.405 152.131 257.305 154.362 256.828 156.906C256.582 158.215 255.895 159.192 254.636 159.732C252.803 160.519 251.538 161.847 250.859 163.726C250.762 163.993 250.621 164.243 250.508 164.504C250.045 165.571 249.332 166.431 248.44 167.182C247.391 168.065 246.165 168.643 244.993 169.315C244.025 169.869 243.109 170.479 242.495 171.439C240.358 174.781 240.321 178.202 242.193 181.649C243.187 183.478 244.785 184.922 246.599 185.918C249.334 187.42 252.307 187.901 255.31 186.968C258.29 186.043 260.028 184.026 260.426 180.913C260.579 179.714 260.837 178.531 260.9 177.32C260.92 176.932 261.019 176.561 261.384 176.301C262.797 175.298 263.613 173.829 264.41 172.355C265.391 170.54 266.344 168.71 267.319 166.892Z" fill="#FFAC00"/>
<path d="M282.135 132.766C281.704 133.087 281.243 133.365 280.746 133.585C280.637 133.633 280.526 133.679 280.414 133.721C277.972 134.642 275.276 134.151 272.848 135.196C270.5 136.208 268.637 138.044 266.999 139.958C264.576 142.79 262.379 145.982 259.123 147.801C253.218 150.523 245.439 145.661 243.7 142.433C242.832 141.182 242.693 140.713 242.035 139.34C241.422 138.061 241.049 135.899 241.062 134.479C241.09 131.577 241.68 128.499 243.98 126.602C249.328 121.838 253.76 125.852 260.297 128.01C261.535 128.419 262.899 128.733 264.125 128.288C266.056 127.588 266.882 125.344 267.299 123.336C267.932 120.292 268.182 117.146 269.264 114.229C270.596 110.641 273.33 107.448 276.952 106.198C280.574 104.949 285.046 105.986 287.275 109.098C288.872 111.327 289.175 114.235 288.998 116.97C288.782 120.3 287.924 123.584 286.499 126.602C285.469 128.784 284.141 131.263 282.135 132.766Z" fill="#002E31"/>
<path d="M288.151 132.846C286.915 131.985 286.582 131.271 287.096 130.199C287.998 128.317 288.604 126.382 288.469 124.27C288.429 123.64 288.711 123.394 289.326 123.386C289.916 123.38 290.315 123.003 290.635 122.548C291.983 120.636 291.219 117.618 289.115 116.53C289.026 116.758 288.944 116.989 288.846 117.213C288.169 118.756 287.445 119.032 285.965 118.211C284.713 117.515 283.863 116.437 283.512 115.049C283.49 114.958 283.464 114.875 283.435 114.801C282.003 114.986 280.553 114.843 279.155 114.47C279.071 117.724 277.983 121.105 276.141 123.691C275.669 124.357 274.999 125.091 274.225 125.761C274.879 128.171 276.439 129.877 278.465 131.26C279.658 132.073 281.074 132.351 282.341 132.977C282.632 133.062 282.885 133.181 282.9 133.54C282.93 134.216 282.995 134.896 282.569 135.495C282.569 136.132 282.533 136.771 282.573 137.405C282.699 139.423 283.947 140.827 285.987 141.287C287.729 141.679 289.645 141.007 290.349 139.612C291.437 137.461 291.322 136.132 289.676 134.413C289.172 133.886 288.497 133.525 288.151 132.846Z" fill="#E57C2F"/>
<path d="M291.708 120.186C291.708 122.412 290.64 124.217 289.322 124.217C288.004 124.217 286.936 122.412 286.936 120.186C286.936 117.96 288.004 116.155 289.322 116.155C290.64 116.155 291.708 117.96 291.708 120.186Z" fill="#E57C2F"/>
<path d="M281.94 125.239C282.163 126.214 281.66 127.214 280.724 127.548C279.788 127.881 278.765 127.426 278.319 126.529L281.94 125.239Z" fill="white"/>
<path fill-rule="evenodd" clip-rule="evenodd" d="M328.789 113.961C330.077 114.041 331.325 114.302 332.468 114.875C335.07 116.179 336.212 118.583 335.584 121.326C335.366 122.275 335.007 123.181 334.637 124.081C333.466 126.936 333.044 129.926 332.802 132.952C332.737 133.769 332.647 134.585 332.556 135.4C332.54 135.544 332.524 135.689 332.508 135.833C332.287 137.852 331.184 139.354 329.483 140.516C327.22 142.064 324.663 142.995 322.008 143.658C320.397 144.061 318.779 144.435 317.16 144.809C315.691 145.148 314.222 145.488 312.758 145.849C313.027 147.565 313.451 149.251 313.881 150.955C313.947 151.219 314.014 151.483 314.08 151.747C314.212 152.769 314.382 153.787 314.553 154.803C315.025 157.615 315.495 160.419 315.135 163.291C314.608 167.492 313.459 171.95 311.787 175.846C311.785 175.851 311.782 175.855 311.78 175.859C311.786 175.786 311.789 175.712 311.787 175.639C311.781 175.433 311.802 175.226 311.823 175.018C311.85 174.743 311.878 174.464 311.845 174.18C311.583 171.959 310.953 169.854 309.797 167.937C307.996 164.955 306.156 161.998 304.312 159.042C302.258 155.746 300.942 152.185 300.444 148.337C299.854 143.78 298.392 139.566 295.659 135.834C294.991 134.923 294.246 133.997 293.501 133.072C292.791 132.191 292.082 131.31 291.442 130.443C291.558 130.366 291.665 130.3 291.761 130.241C291.883 130.166 291.987 130.101 292.07 130.039C294.965 127.318 298.626 126.307 302.116 126.388C303.157 126.313 304.199 126.267 305.241 126.22C306.276 126.173 307.312 126.127 308.346 126.053C308.917 126.012 310.424 125.857 311.794 125.716C312.874 125.605 313.869 125.502 314.255 125.472C315.391 125.381 315.455 125.328 315.163 124.26C315.048 123.842 314.921 123.427 314.794 123.012C314.637 122.501 314.481 121.99 314.348 121.473C313.717 119.016 314.507 117.15 316.732 115.718C318.229 114.755 319.926 114.316 321.66 113.97C321.66 113.97 326.404 113.665 328.789 113.961Z" fill="#FFAC00"/>
</g>
</g>
<g filter="url(#filter3_d)">
<g clip-path="url(#clip6)">
<rect width="69.84" height="69.84" rx="34.92" transform="matrix(-1 0 0 1 201.3 214.05)" fill="white"/>
<rect opacity="0.15" width="72" height="72" transform="matrix(-1 0 0 1 201.3 214.05)" fill="url(#paint4_linear)"/>
<path d="M168.959 223.223C168.959 223.223 164.195 220.473 159.541 223.965C154.887 227.456 157.564 230.43 153.629 231.975C149.695 233.52 151.8 239.251 147.19 241.236C142.58 243.221 144.757 249.633 149.118 250.998C149.118 250.998 150.628 256.884 155.386 256.866C155.386 256.866 159.192 262.183 168.002 260.063L171.263 259.133L168.959 223.223Z" fill="#ED6337"/>
<path d="M185.92 226.809C185.92 226.809 191.472 228.167 192.004 233.292C192.536 238.417 192.271 237.19 195.079 240.083C197.886 242.976 193.653 245.419 195.824 248.242C196.933 249.683 197.404 250.813 197.386 252.052C197.355 254.235 195.646 255.993 193.493 256.353C192.024 256.599 190.71 257.816 189.657 259.555C187.569 263.006 181.735 260.753 181.735 260.753C181.735 260.753 175.686 263.426 172.482 260.58C169.278 257.735 178.308 224.483 178.308 224.483L185.92 226.809Z" fill="#ED6337"/>
<path d="M164.006 222.949C164.006 222.949 166.874 217.956 175.086 218.875C183.297 219.794 184.941 228.131 184.941 228.131L172.263 233.301L164.006 222.949Z" fill="#ED6337"/>
<path d="M179.938 243.615C178.978 245.244 178.038 247.715 180.293 248.816C181.866 249.583 184.043 247.617 185.003 245.987C185.963 244.358 185.661 242.814 184.101 242.019C182.542 241.225 180.897 241.985 179.938 243.615Z" fill="#FFB599"/>
<path d="M156.407 232.107C155.647 238.897 161.104 245.082 168.597 245.921C176.088 246.759 183.603 241.746 184.363 234.955C185.123 228.165 178.84 222.168 171.348 221.33C163.856 220.491 157.167 225.317 156.407 232.107Z" fill="#ED6337"/>
<path d="M173.066 252.388C173.066 252.388 172.167 257.376 172.145 260.623C172.123 263.871 175.568 269 175.568 269L160.868 266.916C160.868 266.916 163.854 262.995 164.566 259.775C165.279 256.55 163.395 253.759 163.395 253.759L173.066 252.388Z" fill="#FFB599"/>
<path d="M171.58 224.206C177.566 224.876 182.304 230.375 181.627 236.428L180.469 243.654C180.469 243.654 179.192 253.94 169.617 256.041C168.556 256.273 165.618 255.368 164.634 254.906C157.214 254.121 158.612 241.208 158.612 241.208L159.081 233.905C159.758 227.852 165.594 223.536 171.58 224.206Z" fill="#FFB599"/>
<path d="M170.898 247.843L165.189 247.204C165.189 247.204 165.177 249.062 167.838 249.36C170.198 249.624 170.898 247.843 170.898 247.843Z" fill="white"/>
<path d="M163.665 222.911C163.665 222.911 163.581 228.716 169.953 230.351C176.45 232.018 174.588 235.715 182.709 235.687C182.709 235.687 186.077 231.815 182.265 227.004C179.741 223.819 174.453 220.806 170.429 220.76C169.075 220.746 165.634 222.74 163.665 222.911Z" fill="#ED6337"/>
<path d="M164.462 223.41C164.462 223.41 168.109 228.006 155.878 234.226C155.878 234.226 155.646 231.816 157.147 229.542C158.649 227.268 164.462 223.41 164.462 223.41Z" fill="#ED6337"/>
<path d="M134.859 276.552C136.034 272.843 138.888 270.181 142.256 269.177C142.47 269.072 142.695 268.985 142.933 268.927L168.95 262.286L190.631 274.373C190.976 274.542 191.311 274.728 191.636 274.933L191.669 274.952C191.685 274.961 191.697 274.973 191.713 274.982C194.496 276.768 196.464 279.832 196.771 283.481L196.967 285.802L134.154 278.773L134.859 276.552Z" fill="white"/>
<path d="M134.478 279.955C135.735 275.523 138.651 272.3 142.048 271.036C142.265 270.907 142.492 270.799 142.732 270.724L168.95 262.286L190.428 276.191C190.77 276.384 191.102 276.599 191.423 276.835L191.456 276.857C191.472 276.867 191.483 276.882 191.5 276.892C194.252 278.955 196.159 282.555 196.39 286.884L196.538 289.637L133.725 282.608L134.478 279.955Z" fill="white"/>
<path d="M113.591 273.292C114.35 272.139 115.376 271.22 116.539 270.449C118.609 268.884 123.212 266.608 123.212 266.608C125.021 265.994 126.846 265.489 128.768 265.584C131.624 265.723 133.371 267.045 134.11 269.688C134.392 270.695 134.59 271.726 134.856 272.739C135.16 273.898 135.248 273.912 136.36 273.384C137.216 272.977 141.208 271.22 142.203 270.736C144.729 269.51 147.171 268.116 149.739 266.975C150.656 266.568 151.838 266.191 153.077 265.763C153.73 267.405 154.5 268.989 155.508 270.469C155.746 286.823 154.795 290.098 154.013 290.282C148.922 291.475 143.969 293.175 138.945 294.61C136.103 295.422 133.207 295.931 130.252 295.703C128.033 295.533 126.189 294.722 124.89 292.95C124.272 292.108 123.648 291.269 123.056 290.409C121.194 287.704 119.181 285.132 116.541 283.089C115.709 282.445 114.883 281.791 114.165 281.019C112.095 278.788 111.862 275.919 113.591 273.292Z" fill="white"/>
<path d="M160.57 267.951C160.746 268.048 160.867 268.245 161.014 268.397C159.901 270.508 158.78 272.615 157.676 274.731C155.362 279.164 154.483 283.909 154.592 288.878C154.683 293.075 153.855 297.097 152.195 300.954C150.705 304.415 149.219 307.876 147.779 311.357C146.854 313.593 146.523 315.947 146.603 318.366C146.621 318.908 146.839 319.402 146.901 319.917C146.911 319.995 146.926 320.073 146.944 320.151C146.942 320.147 146.938 320.143 146.935 320.138C144.518 316.241 142.568 311.658 141.325 307.25C140.167 303.147 140.675 298.928 140.581 294.732C140.913 291.211 141.328 287.78 140.745 284.25C140.189 280.88 139.239 277.502 137.842 274.382C138.365 268.543 151.32 261.56 160.57 267.951Z" fill="white"/>
<path d="M182.313 269.729L168.536 261.977L155.579 265.594C155.579 265.594 151.182 272.242 162.191 274.4C175.987 277.105 182.313 269.729 182.313 269.729Z" fill="#FFB599"/>
</g>
</g>
<g clip-path="url(#clip7)" filter="url(#filter4_d)">
<path d="M93.3751 163.087L92.7053 161.636L91.6932 162.873L85.5762 170.349V135.78L109.173 159.377H99.5805H98.0174L98.6726 160.796L102.911 169.977L97.6047 172.251L93.3751 163.087Z" fill="black" stroke="white" stroke-width="2"/>
</g>
<g filter="url(#filter5_d)">
<circle cx="150.375" cy="121.415" r="23.765" fill="white"/>
</g>
<mask id="mask0" mask-type="alpha" maskUnits="userSpaceOnUse" x="128" y="99" width="45" height="45">
<circle cx="150.375" cy="121.415" r="21.825" fill="#C4C4C4"/>
</mask>
<g mask="url(#mask0)">
<rect x="128.55" y="99.5903" width="43.65" height="43.65" fill="white"/>
<rect opacity="0.15" x="128.55" y="99.5903" width="43.65" height="43.65" fill="url(#paint5_linear)"/>
<path d="M161.373 132.329C162.537 138.147 165.3 151.615 166.519 157.551C166.855 159.188 165.876 160.808 164.271 161.271C162.569 161.762 160.791 160.778 160.305 159.075L153.157 134.053C152.639 131.692 154.218 129.382 156.606 129.007C158.83 128.658 160.932 130.122 161.373 132.329Z" fill="#F3A396"/>
<path d="M151.79 134.381C151.79 131.385 154.218 128.956 157.214 128.956C159.872 128.956 162.079 130.869 162.545 133.393L162.548 133.392L164.861 143.966L154.336 146.405L152.036 136C151.876 135.489 151.79 134.945 151.79 134.381Z" fill="#006189"/>
<path d="M156.092 135.42C153.495 132.823 152.957 129.274 155.074 127.158C157.882 126.038 158.345 125.074 162.726 127.261L168.368 130.251L173.634 134.496L168.314 144.045L157.67 136.65C157.114 136.32 156.581 135.909 156.092 135.42Z" fill="#006189"/>
<path d="M152.12 125.839H148.12H144.279L135.284 129.46L137.303 160.565H148.12H159.044L159.154 129.271L152.12 125.839Z" fill="#006189"/>
<path d="M132.624 133.813C131.852 139.695 129.997 153.318 129.178 159.323C128.951 160.978 130.037 162.529 131.669 162.884C133.401 163.26 135.108 162.159 135.48 160.427L140.937 134.983C141.296 132.592 139.566 130.394 137.158 130.179C134.917 129.98 132.917 131.582 132.624 133.813Z" fill="#F3A396"/>
<path d="M141.762 134.507C141.656 131.514 139.3 129.178 136.499 129.292C134.014 129.392 132.018 131.388 131.673 133.927L131.669 133.926L129.882 144.58L139.977 145.618L141.59 136.135C141.721 135.618 141.782 135.071 141.762 134.507Z" fill="#006189"/>
<path d="M141.707 134.498C141.601 131.487 139.255 129.139 136.466 129.253C133.992 129.354 132.005 131.361 131.661 133.914L131.657 133.913L129.877 144.628L139.93 145.672L141.535 136.135C141.665 135.615 141.726 135.065 141.707 134.498Z" fill="#006189"/>
<path d="M145.26 123.975C146.121 121.657 144.635 119.311 143.694 117.1C143.632 116.918 143.569 116.736 143.501 116.556C144.443 116.931 144.98 117.709 145.364 118.644C145.491 118.952 145.608 119.273 145.527 119.595C145.439 119.951 145.625 120.157 145.807 120.403C147.149 122.213 149.561 120.52 151.583 121.443C150.616 123.484 150.77 125.041 151.583 125.471C153.338 126.399 154.031 126.718 155.987 126.706C155.869 127.197 155.396 128.21 155.396 128.21C155.396 128.21 153.115 133.073 150.259 133.025C148.256 132.991 146.522 132.227 144.909 131.121C143.187 129.94 141.648 129.029 140.574 127.243C142.4 126.746 144.672 125.555 145.26 123.975Z" fill="#FFCC8F"/>
<path d="M142.553 116.341L141.175 110.549C140.62 107.452 143.773 105.815 145.68 105.815H152.283C154.306 105.815 156.714 107.44 155.689 110.93L154.537 115.321L142.553 116.341Z" fill="#1A1A1A"/>
<path d="M154.962 112.899C154.962 114.978 154.603 116.773 154.246 118.047C153.888 119.32 154.016 120.31 152.533 121.057C148.835 122.919 144.259 121.164 143.497 118.028C142.906 115.594 142.841 112.899 142.841 112.899C142.841 112.899 142.279 107.649 148.815 107.75C155.352 107.853 154.962 112.899 154.962 112.899Z" fill="#FFCC8F"/>
<path d="M150.563 123.377C150.516 123.025 150.925 122.387 150.992 122.034C150.984 121.793 151.471 121.771 151.679 121.701C152.197 121.527 152.718 121.344 153.189 121.053C153.972 120.57 154.444 119.941 154.701 119.228C154.958 118.516 155.003 117.72 154.938 116.895C154.841 115.673 154.673 114.453 154.567 113.227C154.552 113.04 154.533 112.848 154.479 112.661C154.444 112.532 154.394 112.406 154.318 112.284C151.816 113.175 149.738 112.352 147.855 110.755C147.264 110.251 146.71 109.701 146.132 109.179C145.641 108.735 145.55 108.752 145.232 109.367C144.735 110.334 144.519 111.382 144.37 112.447C144.34 112.672 144.319 112.897 144.293 113.121C144.252 113.49 144.097 113.623 143.706 113.501C143.283 113.37 142.867 113.225 142.395 113.489C141.847 113.799 141.571 114.241 141.589 114.828C141.621 115.737 141.976 116.536 142.658 117.152C143.057 117.512 143.548 117.731 144.092 117.585C144.594 117.448 144.787 117.662 144.945 118.092C145.248 118.927 145.896 119.67 145.612 120.658C145.575 121.527 145.566 122.398 145.485 123.261C145.263 125.652 151.028 126.913 150.563 123.377Z" fill="#FFCC8F"/>
<path d="M155.428 103.994C153.209 102.589 149.047 103.538 146.737 104.597C146.856 102.899 142.589 105.944 143.365 108.275C143.365 108.275 143.381 108.282 143.405 108.294C142.98 109.215 142.362 109.943 142.883 113.495C142.883 113.495 144.027 110.885 144.056 108.593C145.858 109.388 151.316 111.085 154.537 110.004C155.108 110.844 154.859 111.132 154.859 111.132C155.196 108.831 155.879 111.132 155.987 108.823C156.685 107.695 158.135 105.708 155.428 103.994Z" fill="#1A1A1A"/>
<path d="M149.586 113.441C149.586 114.568 148.648 115.482 147.492 115.482C146.335 115.482 145.397 114.568 145.397 113.441C145.397 112.314 146.335 111.401 147.492 111.401C148.648 111.401 149.586 112.314 149.586 113.441Z" stroke="#1A1A1A" stroke-width="0.762193" stroke-miterlimit="10" stroke-linecap="round" stroke-linejoin="round"/>
<path d="M155.268 113.441C155.268 114.568 154.33 115.482 153.173 115.482C152.017 115.482 151.079 114.568 151.079 113.441C151.079 112.314 152.017 111.401 153.173 111.401C154.33 111.401 155.268 112.314 155.268 113.441Z" stroke="#1A1A1A" stroke-width="0.762193" stroke-miterlimit="10" stroke-linecap="round" stroke-linejoin="round"/>
<path d="M149.903 113.441C149.903 113.441 150.349 112.958 150.763 113.441" stroke="#1A1A1A" stroke-width="0.762193" stroke-miterlimit="10" stroke-linecap="round" stroke-linejoin="round"/>
<path d="M147.798 117.999L152.767 118.206C152.767 118.206 152.621 119.468 150.339 119.373C148.057 119.278 147.798 117.999 147.798 117.999Z" fill="white"/>
</g>
<g filter="url(#filter6_d)">
<circle cx="185.295" cy="121.415" r="23.765" fill="white"/>
</g>
<mask id="mask1" mask-type="alpha" maskUnits="userSpaceOnUse" x="163" y="99" width="45" height="45">
<circle cx="185.295" cy="121.415" r="21.825" fill="#C4C4C4"/>
</mask>
<g mask="url(#mask1)">
<rect x="161.53" y="99.5903" width="45.59" height="43.65" fill="white"/>
<rect opacity="0.15" width="50.44" height="49.47" transform="matrix(-1 0 0 1 211 96.6802)" fill="url(#paint6_linear)"/>
<path d="M204.365 126.407C201.33 124.979 198.05 124 194.699 123.738C193.636 125.54 192.207 127 190.482 128.183C188.895 129.271 187.191 130.022 185.222 130.055C182.413 130.102 180.2 128.051 179.443 125.336C179.31 124.858 179.21 124.371 179.095 123.889C173.506 123.099 169.513 126.35 164.058 126.953C162.949 128.838 161.84 130.678 160.819 132.613C159.693 134.745 158.34 136.729 157.29 138.899C157.614 139.222 157.814 139.911 158.067 140.119C158.282 140.296 158.468 140.575 158.843 141.782C159.841 144.998 161.629 141.83 161.467 146.519C138.075 151.533 164.091 153.77 168.268 155.575C178.043 159.798 190.855 159.72 197.22 149.972C198.605 147.851 200.06 145.776 201.473 143.672C201.659 143.394 201.751 142.899 202.122 142.981C204.529 143.497 204.357 143.669 206.249 143.669C206.716 142.734 208.114 142.279 208.666 141.395C210.667 138.188 210.337 134.432 212.324 131.217C212.376 131.134 212.402 131.035 212.439 130.944C212.312 130.867 212.189 130.783 212.057 130.715C210.096 129.707 206.898 127.599 204.365 126.407Z" fill="#002E31"/>
<path d="M190.137 121.156C189.29 118.876 190.752 116.57 191.676 114.396C191.737 114.216 191.799 114.038 191.866 113.861C190.94 114.229 190.412 114.994 190.034 115.913C189.91 116.217 189.795 116.533 189.874 116.849C189.961 117.199 189.778 117.402 189.598 117.644C188.28 119.423 186.52 120.627 184.532 121.536C184.719 122.216 184.652 122.352 184.011 122.69C182.285 123.602 180.88 123.893 178.957 123.881C179.072 124.364 179.147 124.858 179.281 125.336C180.048 128.085 182.412 130.102 185.221 130.055C187.191 130.022 188.895 129.271 190.482 128.183C192.175 127.022 193.583 125.592 194.639 123.836C192.783 123.652 190.715 122.71 190.137 121.156Z" fill="#9C603D"/>
<path d="M192.34 113.727C191.866 114.556 191.985 115.265 191.274 116.33C190.8 117.04 189.956 117.161 189.599 117.643C188.28 119.423 186.521 120.627 184.532 121.535C184.319 121.509 184.149 121.625 183.974 121.714C182.642 122.399 181.246 122.432 179.838 122.057C176.838 121.259 176.189 117.84 177.39 115.976C178.178 114.751 179.166 114.006 180.612 113.869C180.785 113.853 180.956 113.803 181.129 113.801C182.604 113.78 184.051 113.612 185.414 112.996C185.608 113.398 185.793 113.803 185.997 114.199C186.189 114.572 186.383 114.944 186.702 115.237C187.371 115.852 187.988 115.881 188.687 115.313C189.604 114.568 190.149 113.574 190.512 112.481C190.78 111.673 190.397 110.946 189.61 110.613C189.104 110.399 188.562 110.321 188.034 110.189C189.052 108.872 190.67 108.779 191.739 109.979C192.124 110.41 192.414 110.89 192.596 111.447C192.873 112.293 192.933 112.781 192.34 113.727Z" fill="#002E31"/>
<path d="M188.034 110.19C188.562 110.321 189.103 110.399 189.61 110.613C190.397 110.947 190.78 111.673 190.512 112.481C190.149 113.575 189.604 114.568 188.687 115.313C187.988 115.882 187.371 115.853 186.702 115.237C186.383 114.945 186.189 114.573 185.997 114.199C185.793 113.804 185.608 113.398 185.414 112.997C186.099 112.489 186.645 111.856 187.131 111.159C187.383 110.797 187.643 110.43 188.034 110.19Z" fill="#9C603D"/>
<path d="M192.971 112.73C193.405 111.454 192.671 110.086 191.838 109.025C191.005 107.965 190.006 106.921 189.804 105.589C189.621 104.38 190.118 103.034 189.502 101.978C188.639 100.499 186.803 100.14 185.393 101.079C181.888 103.413 185.461 108.881 188.185 110.142C188.692 110.377 189.236 110.533 189.725 110.803C190.213 111.074 190.659 111.493 190.784 112.037C190.931 112.684 190.714 113.705 191.648 113.857C192.286 113.961 192.79 113.262 192.971 112.73Z" fill="#002E31"/>
<path d="M186.089 116.066C185.643 116.308 185.086 116.199 184.796 115.789C184.505 115.379 184.589 114.819 184.965 114.479L186.089 116.066Z" fill="white"/>
</g>
<g filter="url(#filter7_d)">
<circle cx="167.835" cy="144.695" r="23.765" fill="white"/>
</g>
<mask id="mask2" mask-type="alpha" maskUnits="userSpaceOnUse" x="146" y="122" width="44" height="45">
<circle cx="167.835" cy="144.695" r="21.825" fill="#C4C4C4"/>
</mask>
<g mask="url(#mask2)">
<rect x="146.01" y="122.87" width="43.65" height="43.65" fill="white"/>
<rect opacity="0.15" width="47.53" height="46.56" transform="matrix(-1 0 0 1 191.6 122.87)" fill="url(#paint7_linear)"/>
<path d="M169.051 128.472C169.051 128.472 166.169 126.808 163.354 128.921C160.539 131.033 162.158 132.831 159.778 133.766C157.398 134.701 158.672 138.167 155.883 139.368C153.094 140.569 154.411 144.448 157.049 145.273C157.049 145.273 157.962 148.834 160.841 148.823C160.841 148.823 163.143 152.039 168.472 150.757L170.445 150.194L169.051 128.472Z" fill="#ED6337"/>
<path d="M179.311 130.641C179.311 130.641 182.67 131.463 182.992 134.563C183.314 137.663 183.153 136.921 184.852 138.671C186.55 140.421 183.989 141.899 185.302 143.606C185.973 144.478 186.258 145.162 186.247 145.911C186.228 147.232 185.195 148.295 183.892 148.513C183.004 148.661 182.209 149.398 181.572 150.449C180.309 152.537 176.78 151.174 176.78 151.174C176.78 151.174 173.121 152.791 171.182 151.07C169.244 149.349 174.707 129.234 174.707 129.234L179.311 130.641Z" fill="#ED6337"/>
<path d="M166.055 128.306C166.055 128.306 167.79 125.286 172.757 125.842C177.724 126.398 178.719 131.441 178.719 131.441L171.05 134.569L166.055 128.306Z" fill="#ED6337"/>
<path d="M175.693 140.807C175.112 141.793 174.544 143.288 175.908 143.953C176.859 144.417 178.176 143.228 178.757 142.242C179.337 141.257 179.155 140.323 178.211 139.842C177.268 139.361 176.273 139.822 175.693 140.807Z" fill="#FFB599"/>
<path d="M161.459 133.846C160.999 137.954 164.3 141.695 168.832 142.202C173.364 142.709 177.91 139.677 178.37 135.569C178.829 131.461 175.029 127.834 170.497 127.327C165.965 126.82 161.918 129.738 161.459 133.846Z" fill="#ED6337"/>
<path d="M171.536 146.114C171.536 146.114 170.992 149.132 170.979 151.096C170.965 153.061 173.05 156.164 173.05 156.164L164.157 154.903C164.157 154.903 165.964 152.531 166.394 150.583C166.826 148.632 165.686 146.944 165.686 146.944L171.536 146.114Z" fill="#FFB599"/>
<path d="M170.637 129.067C174.258 129.472 177.124 132.798 176.715 136.46L176.014 140.831C176.014 140.831 175.242 147.053 169.45 148.324C168.808 148.465 167.031 147.917 166.436 147.638C161.947 147.163 162.793 139.352 162.793 139.352L163.076 134.934C163.486 131.272 167.016 128.662 170.637 129.067Z" fill="#FFB599"/>
<path d="M170.224 143.365L166.771 142.979C166.771 142.979 166.764 144.102 168.373 144.283C169.8 144.442 170.224 143.365 170.224 143.365Z" fill="white"/>
<path d="M165.849 128.283C165.849 128.283 165.798 131.795 169.653 132.784C173.583 133.792 172.456 136.028 177.369 136.012C177.369 136.012 179.406 133.67 177.1 130.759C175.574 128.832 172.375 127.01 169.94 126.982C169.121 126.973 167.04 128.18 165.849 128.283Z" fill="#ED6337"/>
<path d="M166.331 128.585C166.331 128.585 168.537 131.365 161.139 135.128C161.139 135.128 160.998 133.67 161.906 132.294C162.815 130.919 166.331 128.585 166.331 128.585Z" fill="#ED6337"/>
<path d="M148.424 160.732C149.135 158.488 150.861 156.877 152.898 156.27C153.028 156.207 153.164 156.154 153.308 156.119L169.046 152.102L182.161 159.413C182.37 159.515 182.573 159.628 182.769 159.752L182.789 159.763C182.799 159.769 182.806 159.776 182.816 159.782C184.499 160.862 185.689 162.716 185.875 164.923L185.994 166.327L147.998 162.075L148.424 160.732Z" fill="white"/>
<path d="M148.193 162.79C148.953 160.109 150.717 158.159 152.772 157.395C152.904 157.317 153.041 157.252 153.186 157.206L169.046 152.102L182.038 160.513C182.245 160.63 182.446 160.76 182.64 160.903L182.66 160.916C182.67 160.922 182.677 160.931 182.687 160.937C184.351 162.185 185.505 164.363 185.645 166.981L185.734 168.647L147.738 164.395L148.193 162.79Z" fill="white"/>
<path d="M135.559 158.76C136.018 158.062 136.639 157.506 137.342 157.04C138.594 156.093 141.378 154.716 141.378 154.716C142.473 154.345 143.577 154.04 144.739 154.097C146.467 154.181 147.524 154.981 147.971 156.579C148.141 157.189 148.261 157.813 148.422 158.425C148.606 159.126 148.659 159.135 149.332 158.815C149.85 158.569 152.264 157.506 152.866 157.214C154.394 156.472 155.872 155.628 157.425 154.939C157.98 154.692 158.695 154.464 159.444 154.205C159.839 155.198 160.305 156.157 160.915 157.052C161.059 166.945 160.483 168.926 160.01 169.037C156.931 169.759 153.935 170.787 150.896 171.655C149.176 172.146 147.424 172.454 145.637 172.316C144.295 172.213 143.179 171.723 142.393 170.651C142.02 170.142 141.642 169.634 141.284 169.114C140.157 167.478 138.94 165.922 137.343 164.686C136.84 164.296 136.34 163.901 135.906 163.434C134.653 162.084 134.513 160.349 135.559 158.76Z" fill="white"/>
<path d="M163.977 155.529C164.083 155.587 164.157 155.707 164.245 155.798C163.572 157.075 162.894 158.35 162.226 159.63C160.826 162.312 160.295 165.182 160.361 168.188C160.416 170.726 159.915 173.159 158.911 175.493C158.01 177.586 157.11 179.68 156.24 181.785C155.68 183.138 155.48 184.562 155.528 186.025C155.539 186.353 155.671 186.652 155.709 186.963C155.715 187.011 155.724 187.058 155.735 187.105C155.733 187.103 155.731 187.1 155.729 187.097C154.267 184.74 153.087 181.968 152.335 179.301C151.635 176.819 151.942 174.267 151.885 171.729C152.086 169.599 152.337 167.524 151.984 165.388C151.648 163.349 151.073 161.306 150.229 159.419C150.545 155.887 158.381 151.663 163.977 155.529Z" fill="white"/>
<path d="M177.13 156.604L168.796 151.915L160.958 154.103C160.958 154.103 158.298 158.124 164.958 159.43C173.303 161.066 177.13 156.604 177.13 156.604Z" fill="#FFB599"/>
</g>
</g>
<defs>
<filter id="filter0_d" x="9" y="85.8301" width="97.48" height="97.48" filterUnits="userSpaceOnUse" color-interpolation-filters="sRGB">
<feFlood flood-opacity="0" result="BackgroundImageFix"/>
<feColorMatrix in="SourceAlpha" type="matrix" values="0 0 0 0 0 0 0 0 0 0 0 0 0 0 0 0 0 0 127 0"/>
<feOffset dy="2"/>
<feGaussianBlur stdDeviation="4"/>
<feColorMatrix type="matrix" values="0 0 0 0 1 0 0 0 0 0 0 0 0 0 0 0 0 0 0.5 0"/>
<feBlend mode="normal" in2="BackgroundImageFix" result="effect1_dropShadow"/>
<feBlend mode="normal" in="SourceGraphic" in2="effect1_dropShadow" result="shape"/>
</filter>
<filter id="filter1_d" x="-1.18018" y="190.05" width="117.84" height="117.84" filterUnits="userSpaceOnUse" color-interpolation-filters="sRGB">
<feFlood flood-opacity="0" result="BackgroundImageFix"/>
<feColorMatrix in="SourceAlpha" type="matrix" values="0 0 0 0 0 0 0 0 0 0 0 0 0 0 0 0 0 0 127 0"/>
<feOffset/>
<feGaussianBlur stdDeviation="12"/>
<feColorMatrix type="matrix" values="0 0 0 0 0 0 0 0 0 0 0 0 0 0 0 0 0 0 0.12 0"/>
<feBlend mode="normal" in2="BackgroundImageFix" result="effect1_dropShadow"/>
<feBlend mode="normal" in="SourceGraphic" in2="effect1_dropShadow" result="shape"/>
</filter>
<filter id="filter2_d" x="214.16" y="73.6501" width="117.84" height="117.84" filterUnits="userSpaceOnUse" color-interpolation-filters="sRGB">
<feFlood flood-opacity="0" result="BackgroundImageFix"/>
<feColorMatrix in="SourceAlpha" type="matrix" values="0 0 0 0 0 0 0 0 0 0 0 0 0 0 0 0 0 0 127 0"/>
<feOffset/>
<feGaussianBlur stdDeviation="12"/>
<feColorMatrix type="matrix" values="0 0 0 0 0 0 0 0 0 0 0 0 0 0 0 0 0 0 0.12 0"/>
<feBlend mode="normal" in2="BackgroundImageFix" result="effect1_dropShadow"/>
<feBlend mode="normal" in="SourceGraphic" in2="effect1_dropShadow" result="shape"/>
</filter>
<filter id="filter3_d" x="107.46" y="190.05" width="117.84" height="117.84" filterUnits="userSpaceOnUse" color-interpolation-filters="sRGB">
<feFlood flood-opacity="0" result="BackgroundImageFix"/>
<feColorMatrix in="SourceAlpha" type="matrix" values="0 0 0 0 0 0 0 0 0 0 0 0 0 0 0 0 0 0 127 0"/>
<feOffset/>
<feGaussianBlur stdDeviation="12"/>
<feColorMatrix type="matrix" values="0 0 0 0 0 0 0 0 0 0 0 0 0 0 0 0 0 0 0.12 0"/>
<feBlend mode="normal" in2="BackgroundImageFix" result="effect1_dropShadow"/>
<feBlend mode="normal" in="SourceGraphic" in2="effect1_dropShadow" result="shape"/>
</filter>
<filter id="filter4_d" x="74.1099" y="132.51" width="46.8" height="46.8" filterUnits="userSpaceOnUse" color-interpolation-filters="sRGB">
<feFlood flood-opacity="0" result="BackgroundImageFix"/>
<feColorMatrix in="SourceAlpha" type="matrix" values="0 0 0 0 0 0 0 0 0 0 0 0 0 0 0 0 0 0 127 0"/>
<feOffset dy="2"/>
<feGaussianBlur stdDeviation="2"/>
<feColorMatrix type="matrix" values="0 0 0 0 0 0 0 0 0 0 0 0 0 0 0 0 0 0 0.12 0"/>
<feBlend mode="normal" in2="BackgroundImageFix" result="effect1_dropShadow"/>
<feBlend mode="normal" in="SourceGraphic" in2="effect1_dropShadow" result="shape"/>
</filter>
<filter id="filter5_d" x="102.61" y="73.6501" width="95.53" height="95.53" filterUnits="userSpaceOnUse" color-interpolation-filters="sRGB">
<feFlood flood-opacity="0" result="BackgroundImageFix"/>
<feColorMatrix in="SourceAlpha" type="matrix" values="0 0 0 0 0 0 0 0 0 0 0 0 0 0 0 0 0 0 127 0"/>
<feOffset/>
<feGaussianBlur stdDeviation="12"/>
<feColorMatrix type="matrix" values="0 0 0 0 0 0 0 0 0 0 0 0 0 0 0 0 0 0 0.12 0"/>
<feBlend mode="normal" in2="BackgroundImageFix" result="effect1_dropShadow"/>
<feBlend mode="normal" in="SourceGraphic" in2="effect1_dropShadow" result="shape"/>
</filter>
<filter id="filter6_d" x="137.53" y="73.6501" width="95.53" height="95.53" filterUnits="userSpaceOnUse" color-interpolation-filters="sRGB">
<feFlood flood-opacity="0" result="BackgroundImageFix"/>
<feColorMatrix in="SourceAlpha" type="matrix" values="0 0 0 0 0 0 0 0 0 0 0 0 0 0 0 0 0 0 127 0"/>
<feOffset/>
<feGaussianBlur stdDeviation="12"/>
<feColorMatrix type="matrix" values="0 0 0 0 0 0 0 0 0 0 0 0 0 0 0 0 0 0 0.12 0"/>
<feBlend mode="normal" in2="BackgroundImageFix" result="effect1_dropShadow"/>
<feBlend mode="normal" in="SourceGraphic" in2="effect1_dropShadow" result="shape"/>
</filter>
<filter id="filter7_d" x="120.07" y="96.9302" width="95.53" height="95.53" filterUnits="userSpaceOnUse" color-interpolation-filters="sRGB">
<feFlood flood-opacity="0" result="BackgroundImageFix"/>
<feColorMatrix in="SourceAlpha" type="matrix" values="0 0 0 0 0 0 0 0 0 0 0 0 0 0 0 0 0 0 127 0"/>
<feOffset/>
<feGaussianBlur stdDeviation="12"/>
<feColorMatrix type="matrix" values="0 0 0 0 0 0 0 0 0 0 0 0 0 0 0 0 0 0 0.12 0"/>
<feBlend mode="normal" in2="BackgroundImageFix" result="effect1_dropShadow"/>
<feBlend mode="normal" in="SourceGraphic" in2="effect1_dropShadow" result="shape"/>
</filter>
<linearGradient id="paint0_linear" x1="215.43" y1="449.001" x2="215.43" y2="-1.2382" gradientUnits="userSpaceOnUse">
<stop stop-color="#FFC258"/>
<stop offset="1" stop-color="#FFA621"/>
</linearGradient>
<linearGradient id="paint1_linear" x1="349.409" y1="461.239" x2="317.607" y2="138.592" gradientUnits="userSpaceOnUse">
<stop stop-color="#0DB9EF"/>
<stop offset="1" stop-color="#55FFFF"/>
</linearGradient>
<linearGradient id="paint2_linear" x1="72.3101" y1="97.9407" x2="72.3101" y2="141.472" gradientUnits="userSpaceOnUse">
<stop stop-color="#FFB32F"/>
<stop offset="1" stop-color="#F29100"/>
</linearGradient>
<linearGradient id="paint3_linear" x1="292.52" y1="169.65" x2="265.801" y2="95.1659" gradientUnits="userSpaceOnUse">
<stop offset="0.213675" stop-color="#DA0000"/>
<stop offset="1" stop-color="#FF95B5"/>
</linearGradient>
<linearGradient id="paint4_linear" x1="54" y1="72" x2="27.6394" y2="-2.465" gradientUnits="userSpaceOnUse">
<stop stop-color="#7400BB"/>
<stop offset="1" stop-color="#DE97FF"/>
</linearGradient>
<linearGradient id="paint5_linear" x1="150.86" y1="143.24" x2="153.191" y2="99.7152" gradientUnits="userSpaceOnUse">
<stop stop-color="#118F5A"/>
<stop offset="1" stop-color="#71F47E"/>
</linearGradient>
<linearGradient id="paint6_linear" x1="25.22" y1="51.5529" x2="25.22" y2="-0.142167" gradientUnits="userSpaceOnUse">
<stop stop-color="#FFC258"/>
<stop offset="1" stop-color="#FFA621"/>
</linearGradient>
<linearGradient id="paint7_linear" x1="35.6475" y1="46.56" x2="18.8734" y2="-1.81165" gradientUnits="userSpaceOnUse">
<stop stop-color="#7400BB"/>
<stop offset="1" stop-color="#DE97FF"/>
</linearGradient>
<clipPath id="clip0">
<rect width="326" height="589" fill="white"/>
</clipPath>
<clipPath id="clip1">
<rect x="22.8198" y="214.05" width="69.84" height="69.84" rx="34.92" fill="white"/>
</clipPath>
<clipPath id="clip2">
<rect width="71.8325" height="71.8325" fill="white" transform="matrix(-1 0 0 1 94.8198 214.05)"/>
</clipPath>
<clipPath id="clip3">
<rect width="79.1376" height="79.1376" fill="white" transform="matrix(-1 0 0 1 94.8198 214.05)"/>
</clipPath>
<clipPath id="clip4">
<rect x="22.8198" y="97.6499" width="69.84" height="69.84" rx="34.92" fill="white"/>
</clipPath>
<clipPath id="clip5">
<rect x="238.16" y="97.6501" width="69.84" height="69.84" rx="34.92" fill="white"/>
</clipPath>
<clipPath id="clip6">
<rect width="69.84" height="69.84" rx="34.92" transform="matrix(-1 0 0 1 201.3 214.05)" fill="white"/>
</clipPath>
<clipPath id="clip7">
<rect width="38.8" height="38.8" fill="white" transform="translate(78.1099 134.51)"/>
</clipPath>
</defs>
</svg>
