<svg width="276" height="217" viewBox="0 0 486 316" fill="none" xmlns="http://www.w3.org/2000/svg">
<path d="M374.626 100H57.57C36.3712 100 19.196 119.276 19.196 143.055V206.945C19.196 214.918 21.1279 222.38 24.5045 228.783C18.6464 238.088 10.0411 245.055 0 248.176C3.7931 249.356 7.79003 250 11.9199 250C20.6582 250 28.7938 247.18 35.671 242.3C41.8836 247.15 49.4255 250 57.57 250H374.626C395.816 250 413 230.724 413 206.945V143.055C413 119.276 395.816 100 374.626 100Z" fill="#007AFF"/>
<path d="M47.7244 144.195H50.4923V126.365H47.7244V144.195ZM63.1575 144.455C63.7012 144.455 64.2078 144.393 64.5167 144.344V142.28C64.319 142.305 64.0842 142.33 63.8 142.33C62.6756 142.33 62.0825 141.934 62.0825 140.612V133.322H64.5167V131.196H62.0825V127.811H59.3518V131.196H57.4859V133.322H59.3518V140.773C59.3518 143.367 60.5874 144.455 63.1575 144.455ZM66.8273 144.195H69.4963V136.67C69.4963 134.644 70.7196 133.235 72.5607 133.235C74.4388 133.235 75.5262 134.52 75.5262 136.67V144.195H78.1952V136.164C78.1952 133.025 76.3664 130.949 73.5862 130.949C71.6463 130.949 70.25 131.827 69.5581 133.334H69.4963V126.365H66.8273V144.195ZM82.2357 129.195C83.113 129.195 83.7926 128.503 83.7926 127.663C83.7926 126.81 83.113 126.118 82.2357 126.118C81.3707 126.118 80.6788 126.81 80.6788 127.663C80.6788 128.503 81.3707 129.195 82.2357 129.195ZM80.9012 144.195H83.5702V131.196H80.9012V144.195ZM86.3256 144.195H88.9946V136.621C88.9946 134.594 90.2055 133.235 92.0837 133.235C93.9371 133.235 94.8515 134.335 94.8515 136.287V144.195H97.5328V135.781C97.5328 132.79 95.8894 130.949 93.0351 130.949C91.0704 130.949 89.736 131.839 89.0564 133.161H88.9946V131.196H86.3256V144.195ZM100.264 144.195H102.933V139.512L104.045 138.413L108.456 144.195H111.557L106.009 136.806L111.347 131.196H108.209L102.994 136.744H102.933V126.365H100.264V144.195ZM120.59 144.195H123.345L126.051 134.459H126.113L128.844 144.195H131.624L135.183 131.196H132.538L130.166 141.427H130.104L127.386 131.196H124.816L122.11 141.427H122.06L119.688 131.196H117.019L120.59 144.195ZM142.287 144.455C145.438 144.455 147.44 142.577 147.86 140.513L147.885 140.377H145.352L145.315 140.476C144.981 141.452 143.931 142.268 142.349 142.268C140.224 142.268 138.877 140.834 138.828 138.375H148.033V137.473C148.033 133.569 145.797 130.949 142.152 130.949C138.506 130.949 136.159 133.668 136.159 137.733V137.745C136.159 141.848 138.469 144.455 142.287 144.455ZM142.164 133.136C143.906 133.136 145.166 134.236 145.389 136.485H138.865C139.099 134.31 140.434 133.136 142.164 133.136ZM155.249 144.195H157.918V136.621C157.918 134.594 159.129 133.235 161.007 133.235C162.861 133.235 163.775 134.335 163.775 136.287V144.195H166.456V135.781C166.456 132.79 164.813 130.949 161.959 130.949C159.994 130.949 158.66 131.839 157.98 133.161H157.918V131.196H155.249V144.195ZM174.587 144.455C177.738 144.455 179.739 142.577 180.16 140.513L180.184 140.377H177.651L177.614 140.476C177.281 141.452 176.23 142.268 174.649 142.268C172.523 142.268 171.177 140.834 171.127 138.375H180.333V137.473C180.333 133.569 178.096 130.949 174.451 130.949C170.806 130.949 168.458 133.668 168.458 137.733V137.745C168.458 141.848 170.769 144.455 174.587 144.455ZM174.463 133.136C176.206 133.136 177.466 134.236 177.688 136.485H171.164C171.399 134.31 172.733 133.136 174.463 133.136ZM187.956 144.455C191.107 144.455 193.109 142.577 193.529 140.513L193.554 140.377H191.021L190.984 140.476C190.65 141.452 189.6 142.268 188.018 142.268C185.893 142.268 184.546 140.834 184.497 138.375H193.702V137.473C193.702 133.569 191.466 130.949 187.821 130.949C184.175 130.949 181.828 133.668 181.828 137.733V137.745C181.828 141.848 184.138 144.455 187.956 144.455ZM187.833 133.136C189.575 133.136 190.835 134.236 191.058 136.485H184.534C184.768 134.31 186.103 133.136 187.833 133.136ZM200.634 144.455C202.5 144.455 203.933 143.516 204.712 141.996H204.761V144.195H207.442V126.365H204.761V133.408H204.712C203.933 131.876 202.45 130.949 200.609 130.949C197.347 130.949 195.197 133.544 195.197 137.684V137.696C195.197 141.835 197.323 144.455 200.634 144.455ZM201.338 142.157C199.225 142.157 197.928 140.464 197.928 137.696V137.684C197.928 134.94 199.238 133.235 201.338 133.235C203.34 133.235 204.773 134.99 204.773 137.684V137.696C204.773 140.402 203.352 142.157 201.338 142.157ZM219.144 144.43C220.861 144.43 222.369 143.54 223.123 142.144H223.172V144.195H225.853V135.237C225.853 132.63 223.839 130.949 220.664 130.949C217.463 130.949 215.523 132.667 215.338 134.903L215.326 135.039H217.846L217.871 134.928C218.094 133.89 219.045 133.161 220.589 133.161C222.245 133.161 223.172 134.026 223.172 135.459V136.436L219.638 136.646C216.561 136.831 214.807 138.215 214.807 140.476V140.501C214.807 142.836 216.549 144.43 219.144 144.43ZM217.5 140.439V140.414C217.5 139.315 218.39 138.61 219.996 138.511L223.172 138.314V139.327C223.172 141.02 221.751 142.292 219.873 142.292C218.439 142.292 217.5 141.576 217.5 140.439ZM234.367 144.195H237.048V133.322H239.643V131.196H236.999V129.862C236.999 128.713 237.567 128.132 238.766 128.132C239.099 128.132 239.433 128.157 239.692 128.194V126.217C239.334 126.155 238.741 126.106 238.197 126.106C235.553 126.106 234.367 127.292 234.367 129.813V131.196H232.575V133.322H234.367V144.195ZM246.155 144.455C249.306 144.455 251.307 142.577 251.727 140.513L251.752 140.377H249.219L249.182 140.476C248.848 141.452 247.798 142.268 246.217 142.268C244.091 142.268 242.744 140.834 242.695 138.375H251.9V137.473C251.9 133.569 249.664 130.949 246.019 130.949C242.374 130.949 240.026 133.668 240.026 137.733V137.745C240.026 141.848 242.337 144.455 246.155 144.455ZM246.031 133.136C247.773 133.136 249.034 134.236 249.256 136.485H242.732C242.967 134.31 244.301 133.136 246.031 133.136ZM256.509 144.195H259.265L261.971 134.459H262.033L264.763 144.195H267.544L271.102 131.196H268.458L266.085 141.427H266.024L263.305 131.196H260.735L258.029 141.427H257.98L255.607 131.196H252.938L256.509 144.195ZM277.873 144.195H280.542V136.164C280.542 134.483 281.667 133.235 283.248 133.235C284.756 133.235 285.707 134.199 285.707 135.707V144.195H288.327V136.065C288.327 134.421 289.427 133.235 291.008 133.235C292.59 133.235 293.492 134.211 293.492 135.904V144.195H296.173V135.262C296.173 132.655 294.493 130.949 291.923 130.949C290.069 130.949 288.537 131.925 287.87 133.507H287.808C287.289 131.876 285.979 130.949 284.188 130.949C282.482 130.949 281.16 131.851 280.604 133.211H280.542V131.196H277.873V144.195ZM304.341 144.455C308.06 144.455 310.506 141.885 310.506 137.696V137.671C310.506 133.507 308.035 130.949 304.328 130.949C300.634 130.949 298.175 133.519 298.175 137.671V137.696C298.175 141.872 300.609 144.455 304.341 144.455ZM304.353 142.218C302.265 142.218 300.906 140.575 300.906 137.696V137.671C300.906 134.829 302.277 133.186 304.328 133.186C306.417 133.186 307.776 134.829 307.776 137.671V137.696C307.776 140.563 306.441 142.218 304.353 142.218ZM312.57 144.195H315.239V136.374C315.239 134.533 316.302 133.384 318.019 133.384C318.538 133.384 319.008 133.445 319.218 133.532V131.048C319.008 131.011 318.674 130.949 318.291 130.949C316.759 130.949 315.597 131.864 315.202 133.346H315.14V131.196H312.57V144.195ZM325.853 144.455C329.004 144.455 331.006 142.577 331.426 140.513L331.45 140.377H328.917L328.88 140.476C328.547 141.452 327.496 142.268 325.915 142.268C323.79 142.268 322.443 140.834 322.393 138.375H331.599V137.473C331.599 133.569 329.362 130.949 325.717 130.949C322.072 130.949 319.724 133.668 319.724 137.733V137.745C319.724 141.848 322.035 144.455 325.853 144.455ZM325.729 133.136C327.472 133.136 328.732 134.236 328.954 136.485H322.43C322.665 134.31 324 133.136 325.729 133.136ZM49.9609 174.195H52.7164L55.4224 164.459H55.4842L58.215 174.195H60.9951L64.5538 161.196H61.9095L59.5371 171.427H59.4753L56.7569 161.196H54.1868L51.4808 171.427H51.4313L49.0589 161.196H46.39L49.9609 174.195ZM71.6587 174.455C74.8095 174.455 76.8112 172.577 77.2314 170.513L77.2561 170.377H74.723L74.686 170.476C74.3523 171.452 73.302 172.268 71.7204 172.268C69.5951 172.268 68.2483 170.834 68.1989 168.375H77.4043V167.473C77.4043 163.569 75.1679 160.949 71.5227 160.949C67.8776 160.949 65.5299 163.668 65.5299 167.733V167.745C65.5299 171.848 67.8405 174.455 71.6587 174.455ZM71.5351 163.136C73.2773 163.136 74.5377 164.236 74.7601 166.485H68.236C68.4707 164.31 69.8052 163.136 71.5351 163.136ZM85.0282 174.455C88.1791 174.455 90.1808 172.577 90.6009 170.513L90.6256 170.377H88.0926L88.0555 170.476C87.7219 171.452 86.6716 172.268 85.09 172.268C82.9647 172.268 81.6179 170.834 81.5684 168.375H90.7739V167.473C90.7739 163.569 88.5374 160.949 84.8923 160.949C81.2472 160.949 78.8995 163.668 78.8995 167.733V167.745C78.8995 171.848 81.2101 174.455 85.0282 174.455ZM84.9046 163.136C86.6469 163.136 87.9072 164.236 88.1296 166.485H81.6055C81.8403 164.31 83.1748 163.136 84.9046 163.136ZM92.998 174.195H95.667V169.512L96.7791 168.413L101.19 174.195H104.292L98.7437 166.806L104.082 161.196H100.943L95.7288 166.744H95.667V156.365H92.998V174.195ZM110.074 174.455C113.139 174.455 115.363 172.824 115.363 170.451V170.439C115.363 168.573 114.35 167.523 111.693 166.905L109.58 166.423C108.184 166.09 107.653 165.546 107.653 164.743V164.73C107.653 163.692 108.555 163.013 109.988 163.013C111.495 163.013 112.385 163.804 112.546 164.94L112.558 165.027H115.066L115.054 164.879C114.918 162.667 113.065 160.949 109.988 160.949C106.998 160.949 104.971 162.543 104.971 164.866V164.879C104.971 166.769 106.195 167.955 108.666 168.524L110.791 169.006C112.187 169.339 112.657 169.821 112.657 170.661V170.674C112.657 171.724 111.693 172.391 110.087 172.391C108.443 172.391 107.554 171.687 107.307 170.488L107.282 170.365H104.638L104.65 170.476C104.922 172.848 106.825 174.455 110.074 174.455ZM127.139 174.455C127.682 174.455 128.189 174.393 128.498 174.344V172.28C128.3 172.305 128.065 172.33 127.781 172.33C126.657 172.33 126.064 171.934 126.064 170.612V163.322H128.498V161.196H126.064V157.811H123.333V161.196H121.467V163.322H123.333V170.773C123.333 173.367 124.568 174.455 127.139 174.455ZM135.973 174.455C139.693 174.455 142.139 171.885 142.139 167.696V167.671C142.139 163.507 139.668 160.949 135.961 160.949C132.266 160.949 129.808 163.519 129.808 167.671V167.696C129.808 171.872 132.242 174.455 135.973 174.455ZM135.986 172.218C133.897 172.218 132.538 170.575 132.538 167.696V167.671C132.538 164.829 133.91 163.186 135.961 163.186C138.049 163.186 139.408 164.829 139.408 167.671V167.696C139.408 170.563 138.074 172.218 135.986 172.218ZM151.901 174.195H154.656L157.362 164.459H157.424L160.155 174.195H162.935L166.493 161.196H163.849L161.477 171.427H161.415L158.697 161.196H156.127L153.42 171.427H153.371L150.999 161.196H148.33L151.901 174.195ZM168.125 174.195H170.793V166.374C170.793 164.533 171.856 163.384 173.574 163.384C174.093 163.384 174.562 163.445 174.772 163.532V161.048C174.562 161.011 174.229 160.949 173.845 160.949C172.313 160.949 171.152 161.864 170.756 163.346H170.695V161.196H168.125V174.195ZM179.974 174.43C181.692 174.43 183.199 173.54 183.953 172.144H184.002V174.195H186.684V165.237C186.684 162.63 184.67 160.949 181.494 160.949C178.294 160.949 176.354 162.667 176.168 164.903L176.156 165.039H178.677L178.702 164.928C178.924 163.89 179.875 163.161 181.42 163.161C183.076 163.161 184.002 164.026 184.002 165.459V166.436L180.468 166.646C177.392 166.831 175.637 168.215 175.637 170.476V170.501C175.637 172.836 177.379 174.43 179.974 174.43ZM178.331 170.439V170.414C178.331 169.315 179.22 168.61 180.827 168.511L184.002 168.314V169.327C184.002 171.02 182.581 172.292 180.703 172.292C179.27 172.292 178.331 171.576 178.331 170.439ZM189.279 178.52H191.948V172.008H192.009C192.775 173.516 194.271 174.455 196.112 174.455C199.374 174.455 201.511 171.848 201.511 167.708V167.696C201.511 163.544 199.386 160.949 196.075 160.949C194.221 160.949 192.788 161.888 192.009 163.433H191.948V161.196H189.279V178.52ZM195.383 172.157C193.368 172.157 191.935 170.402 191.935 167.708V167.696C191.935 164.99 193.356 163.235 195.383 163.235C197.471 163.235 198.793 164.928 198.793 167.696V167.708C198.793 170.451 197.483 172.157 195.383 172.157ZM210.173 159.195C211.05 159.195 211.73 158.503 211.73 157.663C211.73 156.81 211.05 156.118 210.173 156.118C209.308 156.118 208.616 156.81 208.616 157.663C208.616 158.503 209.308 159.195 210.173 159.195ZM208.839 174.195H211.508V161.196H208.839V174.195ZM218.823 174.455C219.366 174.455 219.873 174.393 220.182 174.344V172.28C219.984 172.305 219.749 172.33 219.465 172.33C218.341 172.33 217.748 171.934 217.748 170.612V163.322H220.182V161.196H217.748V157.811H215.017V161.196H213.151V163.322H215.017V170.773C215.017 173.367 216.252 174.455 218.823 174.455ZM231.957 174.455C233.934 174.455 235.256 173.553 235.936 172.243H235.998V174.195H238.679V161.196H235.998V168.783C235.998 170.81 234.787 172.157 232.909 172.157C231.055 172.157 230.141 171.069 230.141 169.105V161.196H227.472V169.623C227.472 172.614 229.103 174.455 231.957 174.455ZM241.323 178.52H243.992V172.008H244.054C244.82 173.516 246.315 174.455 248.156 174.455C251.419 174.455 253.556 171.848 253.556 167.708V167.696C253.556 163.544 251.431 160.949 248.119 160.949C246.266 160.949 244.833 161.888 244.054 163.433H243.992V161.196H241.323V178.52ZM247.427 172.157C245.413 172.157 243.98 170.402 243.98 167.708V167.696C243.98 164.99 245.401 163.235 247.427 163.235C249.516 163.235 250.838 164.928 250.838 167.696V167.708C250.838 170.451 249.528 172.157 247.427 172.157ZM256.732 168.252H259.092L259.29 156.365H256.534L256.732 168.252ZM257.906 174.331C258.832 174.331 259.537 173.627 259.537 172.725C259.537 171.823 258.832 171.131 257.906 171.131C257.004 171.131 256.287 171.823 256.287 172.725C256.287 173.627 257.004 174.331 257.906 174.331Z" fill="white"/>
<mask id="mask0" mask-type="alpha" maskUnits="userSpaceOnUse" x="77" y="265" width="50" height="50">
<circle cx="102" cy="290" r="25" fill="#C4C4C4"/>
</mask>
<g mask="url(#mask0)">
<rect opacity="0.15" x="77" y="265" width="52.6604" height="52.6604" fill="url(#paint0_linear)"/>
<path d="M66.67 295.616C63.5214 298.432 63.968 302.186 63.1432 305.519C62.3532 308.762 69.0568 311.648 69.6191 314.969C70.1165 317.918 70.9923 320.763 71.774 323.632C71.9824 324.395 72.1839 325.163 72.3687 325.933C72.541 326.65 72.6891 327.377 72.8525 328.095C73.0635 329.019 73.0881 329.921 72.9734 330.801C72.8362 331.829 72.508 332.832 72.0583 333.806C71.7201 334.54 71.3662 335.266 71.0149 335.997C70.45 337.177 69.8955 338.361 69.45 339.59C69.3542 339.855 69.2631 340.122 69.1773 340.391C68.6417 342.087 68.3124 343.832 68.1328 345.599C68.0726 346.186 68.0736 346.775 67.8846 347.345C67.6265 348.113 67.8988 348.72 68.5035 349.201C69.15 349.715 69.9044 350.016 70.6788 350.257C73.1813 351.03 75.7146 351.683 78.2805 352.2C81.7337 352.896 85.1912 353.569 88.6706 354.101C89.5606 354.238 90.4527 354.364 91.3469 354.48C95.5698 355.021 99.802 355.516 104.075 355.452C104.123 355.45 104.173 355.452 104.221 355.45C105.144 355.433 106.053 355.297 106.975 355.269C108.318 355.224 109.308 353.961 109.248 352.604C109.143 350.337 108.148 348.399 106.959 346.561C105.356 344.073 103.334 341.901 101.486 339.604C100.145 337.933 98.8057 336.263 97.454 334.602C96.8969 333.917 96.6378 333.141 96.5551 332.266C96.4629 331.323 96.487 330.403 96.6142 329.5C96.7797 328.266 97.1325 327.067 97.6273 325.886C97.8403 325.379 98.066 324.88 98.3021 324.386L98.3026 324.384C98.9801 322.983 99.7533 321.638 100.619 320.338C101.101 319.614 101.114 319.605 101.943 319.969C104.437 321.074 107.059 321.835 109.567 322.914C110.678 323.395 111.889 323.206 112.83 322.242C113.19 321.874 113.576 321.53 113.951 321.175C114.548 320.159 115.402 319.341 116.133 318.431C117.741 316.436 119.409 314.491 121.054 312.528C121.264 312.096 121.488 311.673 121.68 311.235C122.137 310.194 121.764 309.337 120.686 308.941C120.341 308.812 119.983 308.719 119.631 308.614C118.094 308.154 116.729 307.368 115.439 306.433C115.347 306.371 115.259 306.306 115.169 306.237C114.101 305.441 113.03 304.645 111.942 303.878C111.405 303.496 110.863 303.123 110.315 302.76C108.06 301.269 105.655 300.114 102.966 299.567C100.922 299.15 98.9015 298.888 96.8393 299.333C95.6577 300.151 94.3745 300.784 93.0955 301.427C92.2662 301.844 91.5228 302.369 90.8632 303.025C89.0371 304.854 87.2921 306.745 86.1236 309.09C85.8608 309.624 85.5226 310.109 85.0624 310.489C84.3661 311.06 83.6279 310.876 83.2934 310.04C83.0981 309.558 83.0672 309.038 83.0813 308.517C83.1358 306.41 83.4562 304.349 83.985 302.301C84.5745 300.008 85.3105 297.783 86.2513 295.616C86.4895 295.066 86.8047 294.581 87.2874 294.217C87.5848 293.319 87.2979 292.641 86.6827 291.923C84.8006 289.717 83.3284 287.258 82.4306 284.468C82.1248 283.525 81.7023 282.611 81.2489 281.723C80.5673 280.395 78.442 270.789 74.6848 274.125C73.269 276.082 71.9843 278.155 70.4619 280.041C68.4997 282.471 66.471 284.846 64.748 287.46C64.6009 287.845 66.5439 295.268 66.67 295.616Z" fill="#0097D5"/>
<path d="M95.7491 294.516C100.352 297.169 105.266 299.588 110.557 300.018C114.01 300.299 117.948 299.496 120.89 297.623C127.312 293.539 124.619 285.534 117.098 286.077C113.139 286.363 109 287.906 107.348 283.206C106.4 280.511 105.679 277.72 104.401 275.166C102.392 271.149 98.7898 268.133 94.0444 268.773C90.3001 269.278 87.0851 272.28 85.9113 275.837C84.2376 280.913 86.2511 286.685 89.9038 290.578C93.301 293.021 95.0004 294.197 95.7491 294.516Z" fill="url(#paint1_linear)"/>
<path d="M83.0816 308.517C83.0674 309.037 83.0983 309.558 83.2936 310.04C83.6282 310.876 84.3663 311.059 85.0626 310.489C85.5228 310.109 85.861 309.623 86.1239 309.09C87.2924 306.744 89.0373 304.854 90.8634 303.025C91.5231 302.369 92.2665 301.844 93.0958 301.426C94.3748 300.784 95.658 300.151 96.8396 299.332C95.3161 298.602 94.7727 297.383 95.2318 295.748C95.3412 295.359 95.4548 294.973 95.6831 294.635C95.7831 294.379 95.9721 294.36 96.2202 294.38C96.838 294.43 97.4636 294.473 98.084 294.38C99.117 294.227 99.8902 293.782 100.478 293.151C101.065 292.523 101.469 291.71 101.77 290.818C102.216 289.496 102.587 288.145 103.027 286.816C103.094 286.613 103.16 286.404 103.189 286.184C103.209 286.033 103.214 285.879 103.189 285.717C100.182 285.525 98.3851 283.729 97.1375 281.214C96.7474 280.421 96.416 279.596 96.048 278.791C95.7349 278.105 95.6328 278.083 95.0255 278.583C94.0743 279.371 93.3795 280.369 92.7476 281.416C92.6152 281.638 92.4932 281.864 92.3654 282.087C92.1571 282.454 91.9367 282.523 91.5833 282.221C91.2006 281.893 90.832 281.554 90.2226 281.618C89.5122 281.697 89.0263 282.035 88.7824 282.657C88.408 283.621 88.4201 284.617 88.8551 285.568C89.1096 286.124 89.5242 286.573 90.1566 286.665C90.7404 286.748 90.8456 287.058 90.8179 287.579C90.7598 288.588 91.1022 289.656 90.364 290.561C89.9357 291.454 89.5363 292.36 89.0656 293.228C88.6976 293.912 88.1594 294.39 87.2877 294.217C86.805 294.581 86.4898 295.066 86.2516 295.615C85.3108 297.783 84.5747 300.007 83.9852 302.3C83.4564 304.348 83.136 306.41 83.0816 308.517Z" fill="#FFBF9D"/>
<path d="M95.6439 288.49C95.3764 289.541 95.891 290.638 96.8899 291.025C97.8899 291.412 99.0056 290.948 99.5113 289.989L95.6439 288.49Z" fill="white"/>
<path d="M66.365 305.748C66.3232 305.905 66.2839 306.066 66.2446 306.225C67.0666 306.281 67.8938 306.409 68.6827 306.545C71.2261 306.99 74.161 307.352 76.1107 305.65C77.9394 304.052 78.1122 301.262 77.7452 298.856C77.6991 298.557 77.6488 298.255 77.5132 297.984C77.3263 297.602 76.9907 297.309 76.6243 297.088C74.827 296.007 72.4731 296.622 70.6669 297.687C69.2843 298.501 68.0419 299.561 66.6624 300.361C66.8975 301.028 67.1352 301.696 67.3797 302.36C67.542 302.81 67.5221 303.189 67.3116 303.626C66.9744 304.322 66.5656 304.988 66.365 305.748Z" fill="#53BAE4"/>
</g>
<mask id="mask1" mask-type="alpha" maskUnits="userSpaceOnUse" x="137" y="265" width="50" height="50">
<circle cx="162" cy="290" r="25" fill="#C4C4C4"/>
</mask>
<g mask="url(#mask1)">
<rect opacity="0.15" width="297.193" height="297.193" transform="matrix(-1 0 0 1 206.321 241.162)" fill="url(#paint2_linear)"/>
<path d="M179.411 296.443C175.857 294.766 172.017 293.616 168.093 293.308C166.849 295.425 165.176 297.14 163.156 298.529C161.299 299.808 159.303 300.69 156.997 300.729C153.708 300.784 151.117 298.375 150.231 295.185C150.076 294.624 149.959 294.052 149.824 293.485C143.28 292.558 138.604 296.377 132.218 297.085C130.919 299.299 129.622 301.46 128.426 303.733C127.107 306.239 125.523 308.569 124.294 311.118C124.674 311.498 124.908 312.307 125.203 312.551C125.455 312.759 125.673 313.087 126.112 314.505C127.281 318.284 129.374 314.561 129.184 320.07C101.796 325.96 132.257 328.588 137.148 330.708C148.592 335.669 163.593 335.577 171.045 324.127C172.666 321.635 174.37 319.196 176.024 316.725C176.243 316.399 176.351 315.817 176.784 315.914C179.603 316.52 179.402 316.722 181.617 316.722C182.164 315.623 183.8 315.089 184.446 314.051C186.789 310.283 186.403 305.871 188.73 302.094C188.79 301.996 188.82 301.88 188.865 301.773C188.716 301.683 188.571 301.584 188.416 301.504C186.121 300.32 182.377 297.843 179.411 296.443Z" fill="#002E31"/>
<path d="M162.753 290.274C161.761 287.597 163.472 284.888 164.555 282.333C164.626 282.122 164.699 281.913 164.777 281.705C163.693 282.137 163.075 283.036 162.632 284.116C162.487 284.473 162.352 284.843 162.445 285.216C162.547 285.626 162.332 285.864 162.122 286.148C160.578 288.239 158.518 289.654 156.19 290.721C156.409 291.52 156.331 291.679 155.58 292.077C153.56 293.148 151.914 293.49 149.662 293.476C149.797 294.043 149.886 294.624 150.042 295.185C150.94 298.415 153.708 300.784 156.997 300.729C159.303 300.69 161.299 299.808 163.156 298.529C165.139 297.165 166.787 295.486 168.024 293.423C165.85 293.207 163.429 292.1 162.753 290.274Z" fill="#9C603D"/>
<path d="M165.332 281.548C164.777 282.521 164.916 283.355 164.083 284.606C163.529 285.44 162.54 285.582 162.122 286.148C160.578 288.239 158.518 289.653 156.19 290.72C155.94 290.69 155.741 290.825 155.536 290.931C153.977 291.735 152.343 291.774 150.694 291.333C147.182 290.395 146.422 286.379 147.827 284.189C148.75 282.751 149.907 281.876 151.6 281.715C151.803 281.695 152.003 281.637 152.205 281.634C153.933 281.61 155.626 281.413 157.223 280.69C157.449 281.161 157.666 281.637 157.905 282.102C158.13 282.541 158.357 282.978 158.73 283.322C159.514 284.044 160.236 284.079 161.055 283.411C162.128 282.535 162.766 281.368 163.191 280.084C163.506 279.135 163.057 278.281 162.135 277.89C161.542 277.638 160.908 277.546 160.29 277.392C161.482 275.845 163.377 275.736 164.628 277.144C165.078 277.651 165.418 278.215 165.632 278.87C165.955 279.863 166.026 280.436 165.332 281.548Z" fill="#002E31"/>
<path d="M160.29 277.392C160.908 277.546 161.543 277.638 162.136 277.89C163.057 278.281 163.506 279.135 163.192 280.084C162.767 281.368 162.129 282.535 161.055 283.411C160.237 284.079 159.514 284.044 158.73 283.322C158.357 282.978 158.13 282.541 157.905 282.102C157.666 281.637 157.45 281.161 157.223 280.689C158.025 280.093 158.664 279.349 159.233 278.53C159.528 278.106 159.833 277.673 160.29 277.392Z" fill="#9C603D"/>
<path d="M166.07 280.376C166.578 278.877 165.718 277.27 164.744 276.024C163.769 274.778 162.599 273.552 162.363 271.987C162.148 270.567 162.73 268.986 162.008 267.745C160.998 266.007 158.848 265.586 157.198 266.689C153.094 269.431 157.277 275.854 160.467 277.336C161.06 277.612 161.697 277.795 162.269 278.113C162.841 278.431 163.364 278.922 163.509 279.562C163.682 280.322 163.428 281.521 164.522 281.7C165.268 281.822 165.858 281.001 166.07 280.376Z" fill="#002E31"/>
<path d="M158.013 284.295C157.491 284.579 156.839 284.451 156.499 283.97C156.159 283.488 156.256 282.83 156.697 282.431L158.013 284.295Z" fill="white"/>
</g>
<mask id="mask2" mask-type="alpha" maskUnits="userSpaceOnUse" x="17" y="265" width="50" height="50">
<circle cx="42" cy="290" r="25" fill="#C4C4C4"/>
</mask>
<g mask="url(#mask2)">
<rect opacity="0.15" x="17" y="264.375" width="50" height="50" fill="url(#paint3_linear)"/>
<path d="M43.5908 305.962C43.5908 302.419 46.4535 299.547 49.9853 299.547C53.1183 299.547 55.7202 301.809 56.2687 304.794L56.2729 304.793L58.9986 317.299L46.5922 320.184L43.881 307.878C43.6923 307.273 43.5908 306.63 43.5908 305.962Z" fill="#006189"/>
<path d="M48.662 307.191C45.6009 304.12 44.9664 299.922 47.4611 297.419C50.7711 296.096 51.3179 294.955 56.4813 297.542L63.1317 301.078L69.3395 306.099L63.0688 317.392L50.522 308.646C49.8659 308.255 49.2385 307.77 48.662 307.191Z" fill="#006189"/>
<path d="M43.9801 295.86H39.2643H34.7376L24.1343 300.143L26.5145 336.931H39.2643H52.1412L52.2713 299.92L43.9801 295.86Z" fill="#006189"/>
<path d="M31.771 306.113C31.646 302.572 28.8681 299.81 25.5669 299.945C22.6376 300.063 20.285 302.423 19.8777 305.426L19.8729 305.425L17.7666 318.026L29.6671 319.254L31.5673 308.038C31.7217 307.426 31.7944 306.78 31.771 306.113Z" fill="#006189"/>
<path d="M35.8931 293.655C36.9086 290.914 35.1565 288.14 34.0482 285.524C33.9751 285.309 33.9005 285.094 33.8202 284.881C34.9307 285.324 35.5636 286.244 36.0162 287.35C36.1655 287.715 36.3037 288.095 36.2086 288.476C36.1041 288.896 36.3238 289.14 36.5389 289.431C38.1198 291.572 40.9636 289.569 43.3471 290.661C42.2076 293.075 42.3889 294.917 43.3471 295.425C45.4159 296.522 46.233 296.9 48.5381 296.886C48.3999 297.466 47.8417 298.664 47.8417 298.664C47.8417 298.664 45.153 304.415 41.7858 304.358C39.425 304.319 37.3816 303.416 35.4799 302.107C33.4502 300.71 31.6358 299.633 30.3696 297.521C32.522 296.933 35.2008 295.524 35.8931 293.655Z" fill="#FFCC8F"/>
<path d="M32.7028 284.627L31.0796 277.776C30.4249 274.114 34.1419 272.178 36.3894 272.178H44.1734C46.557 272.178 49.3963 274.099 48.1877 278.227L46.8296 283.42L32.7028 284.627Z" fill="#1A1A1A"/>
<path d="M47.33 280.555C47.33 283.015 46.9076 285.138 46.4857 286.644C46.0639 288.151 46.2157 289.321 44.4666 290.205C40.1081 292.406 34.7143 290.33 33.8159 286.622C33.1189 283.744 33.0426 280.555 33.0426 280.555C33.0426 280.555 32.3793 274.346 40.0842 274.466C47.7896 274.588 47.33 280.555 47.33 280.555Z" fill="#FFCC8F"/>
<path d="M42.1443 292.947C42.0896 292.531 42.5711 291.776 42.6507 291.359C42.6416 291.074 43.2154 291.049 43.4604 290.965C44.0708 290.759 44.6856 290.543 45.2398 290.199C46.1634 289.628 46.7194 288.884 47.0222 288.04C47.3255 287.199 47.3791 286.257 47.3022 285.281C47.1874 283.835 46.9896 282.393 46.8653 280.944C46.8466 280.722 46.8241 280.495 46.7613 280.274C46.7191 280.121 46.6607 279.973 46.5709 279.828C43.6221 280.882 41.1722 279.908 38.9527 278.02C38.256 277.423 37.6027 276.773 36.9219 276.155C36.3427 275.63 36.236 275.65 35.861 276.378C35.2751 277.522 35.02 278.76 34.8448 280.02C34.809 280.286 34.7851 280.552 34.7543 280.818C34.7055 281.254 34.5234 281.411 34.0624 281.267C33.563 281.112 33.0726 280.94 32.5171 281.252C31.8709 281.619 31.5455 282.142 31.5669 282.837C31.6039 283.911 32.0224 284.857 32.8267 285.586C33.2968 286.011 33.8763 286.269 34.5176 286.097C35.1087 285.936 35.3361 286.189 35.5225 286.697C35.8798 287.685 36.6433 288.563 36.3087 289.731C36.2648 290.759 36.2542 291.789 36.1596 292.811C35.8975 295.638 42.6935 297.13 42.1443 292.947Z" fill="#FFCC8F"/>
<path d="M47.8798 270.024C45.2635 268.362 40.3577 269.484 37.635 270.736C37.7756 268.729 32.7457 272.33 33.6604 275.087C33.6604 275.087 33.679 275.096 33.7066 275.11C33.2068 276.198 32.4783 277.059 33.0917 281.261C33.0917 281.261 34.4402 278.174 34.475 275.463C36.5993 276.403 43.032 278.41 46.8289 277.132C47.5029 278.125 47.2087 278.466 47.2087 278.466C47.6064 275.744 48.4115 278.466 48.5381 275.735C49.3611 274.401 51.0703 272.051 47.8798 270.024Z" fill="#1A1A1A"/>
<path d="M40.9934 281.197C40.9934 282.53 39.8879 283.611 38.5243 283.611C37.1607 283.611 36.0557 282.53 36.0557 281.197C36.0557 279.864 37.1607 278.784 38.5243 278.784C39.8879 278.784 40.9934 279.864 40.9934 281.197Z" stroke="#1A1A1A" stroke-width="1.4698" stroke-miterlimit="10" stroke-linecap="round" stroke-linejoin="round"/>
<path d="M47.6912 281.197C47.6912 282.53 46.5856 283.611 45.2221 283.611C43.8585 283.611 42.7534 282.53 42.7534 281.197C42.7534 279.864 43.8585 278.784 45.2221 278.784C46.5856 278.784 47.6912 279.864 47.6912 281.197Z" stroke="#1A1A1A" stroke-width="1.4698" stroke-miterlimit="10" stroke-linecap="round" stroke-linejoin="round"/>
<path d="M41.3672 281.197C41.3672 281.197 41.8923 280.626 42.3801 281.197" stroke="#1A1A1A" stroke-width="1.4698" stroke-miterlimit="10" stroke-linecap="round" stroke-linejoin="round"/>
<path d="M38.8869 286.587L44.7436 286.832C44.7436 286.832 44.5715 288.325 41.8821 288.212C39.1922 288.1 38.8869 286.587 38.8869 286.587Z" fill="white"/>
</g>
<path d="M64.0345 211.412C64.637 211.76 64.637 212.63 64.0345 212.978L48.4531 221.974C47.8506 222.322 47.0975 221.887 47.0975 221.191L47.0975 203.199C47.0975 202.503 47.8506 202.069 48.4531 202.417L64.0345 211.412Z" fill="white"/>
<path d="M347.814 219.277C351.372 219.277 353.463 216.293 353.463 211.577C353.463 206.892 351.351 203.929 347.814 203.929C344.277 203.929 342.145 206.902 342.145 211.587C342.145 216.304 344.246 219.277 347.814 219.277ZM347.814 217.349C345.672 217.349 344.472 215.166 344.472 211.587C344.472 208.061 345.702 205.856 347.814 205.856C349.926 205.856 351.146 208.05 351.146 211.587C351.146 215.176 349.947 217.349 347.814 217.349ZM357.113 216.908C357.862 216.908 358.456 216.314 358.456 215.565C358.456 214.817 357.862 214.222 357.113 214.222C356.365 214.222 355.77 214.817 355.77 215.565C355.77 216.314 356.365 216.908 357.113 216.908ZM357.113 208.983C357.862 208.983 358.456 208.389 358.456 207.64C358.456 206.892 357.862 206.297 357.113 206.297C356.365 206.297 355.77 206.892 355.77 207.64C355.77 208.389 356.365 208.983 357.113 208.983ZM366.433 219.277C369.99 219.277 372.082 216.293 372.082 211.577C372.082 206.892 369.97 203.929 366.433 203.929C362.896 203.929 360.763 206.902 360.763 211.587C360.763 216.304 362.865 219.277 366.433 219.277ZM366.433 217.349C364.29 217.349 363.091 215.166 363.091 211.587C363.091 208.061 364.321 205.856 366.433 205.856C368.545 205.856 369.765 208.05 369.765 211.587C369.765 215.176 368.565 217.349 366.433 217.349ZM379.464 219.277C382.734 219.277 385.062 217.513 385.062 215.002C385.062 213.125 383.729 211.639 381.781 211.208V211.157C383.452 210.665 384.508 209.414 384.508 207.866C384.508 205.579 382.406 203.929 379.464 203.929C376.532 203.929 374.399 205.59 374.399 207.856C374.399 209.424 375.476 210.685 377.147 211.157V211.208C375.199 211.628 373.866 213.115 373.866 215.002C373.866 217.503 376.183 219.277 379.464 219.277ZM379.464 217.431C377.577 217.431 376.234 216.345 376.234 214.837C376.234 213.32 377.577 212.233 379.464 212.233C381.35 212.233 382.683 213.31 382.683 214.837C382.683 216.345 381.35 217.431 379.464 217.431ZM379.464 210.388C377.823 210.388 376.685 209.424 376.685 208.071C376.685 206.707 377.823 205.754 379.464 205.754C381.094 205.754 382.242 206.707 382.242 208.071C382.242 209.424 381.084 210.388 379.464 210.388Z" fill="white"/>
<path d="M336 211.871L334.683 209.454C333.977 208.16 332.662 208.155 331.76 209.442L330.16 211.725C329.575 212.56 328.281 212.578 327.285 211.766L326.21 210.89C325.431 210.254 324.154 210.254 323.375 210.89L322.907 211.27C321.577 212.355 320.275 212.319 320.014 211.19L318.655 205.301C317.769 201.466 316.441 201.467 315.702 205.304L313.835 215.015C313.233 218.142 311.906 218.147 310.886 215.026L310.306 213.255C309.279 210.112 307.951 210.117 307.357 213.267L305.974 220.598C304.961 225.963 303.632 225.96 303.02 220.592L300.873 201.778C300.3 196.744 298.971 196.74 297.92 201.77L295.961 211.156C295.721 212.304 294.419 212.341 293.068 211.239L292.797 211.019C291.931 210.312 290.645 210.32 289.941 211.038L289.593 211.393C288.596 212.41 287.29 212.395 286.692 211.36L285.428 209.171C284.353 207.309 283.032 207.32 282.491 209.195L280.42 216.37C279.733 218.752 278.407 218.756 277.474 216.379L275.824 212.172C275.297 210.831 273.983 210.815 272.902 212.136L272.014 213.224C271.215 214.2 269.91 214.2 269.113 213.224L267.422 211.156C266.782 210.373 265.492 210.359 264.553 211.124L264.031 211.55C262.889 212.481 261.59 212.454 261.145 211.489L260.129 209.287C259.239 207.361 257.916 207.364 257.188 209.294L255.372 214.105C254.731 215.803 253.411 215.81 252.437 214.122L250.846 211.366C250.328 210.468 249.031 210.445 247.965 211.315L247.669 211.556C246.532 212.484 245.233 212.456 244.784 211.495L243.024 207.73C242.075 205.695 240.749 205.701 240.083 207.742L238.658 212.098C237.742 214.899 236.414 214.897 235.709 212.092L234.301 206.492C233.414 202.967 232.086 202.968 231.349 206.496L230.138 212.301C229.173 216.921 227.845 216.918 227.185 212.295L226.452 207.161C225.62 201.338 224.291 201.338 223.498 207.162L222.201 216.681C221.341 222.994 220.012 222.993 219.247 216.68L217.888 205.463C217.034 198.402 215.703 198.402 214.934 205.464L213.42 219.352C212.655 226.367 211.326 226.367 210.466 219.353L209.198 209.017C208.862 206.274 207.536 206.261 206.252 208.987L204.742 212.195C204.015 213.736 202.697 213.74 201.809 212.204L200.548 210.019C199.762 208.656 198.445 208.655 197.621 210.017L196.645 211.636C196.111 212.52 194.814 212.542 193.764 211.686L192.787 210.89C192.009 210.254 190.733 210.254 189.953 210.89L189.39 211.348C188.112 212.391 186.81 212.356 186.498 211.273L184.689 205.002C183.63 201.332 182.301 201.337 181.737 205.014L179.71 218.245C179.022 222.732 177.692 222.734 176.756 218.25L175.098 210.298C174.579 207.816 173.254 207.807 172.15 210.278L170.944 212.985C170.342 214.333 169.028 214.345 168.02 213.011L166.813 211.41C166.116 210.488 164.814 210.48 163.92 211.392C162.921 212.41 161.615 212.395 161.016 211.36L159.818 209.281C158.707 207.358 157.385 207.37 156.879 209.307L156.043 212.503C155.115 216.046 153.787 216.044 153.091 212.497L151.089 202.299C150.046 196.978 148.716 196.981 148.137 202.306L146.021 221.71C145.398 227.428 144.068 227.43 143.067 221.716L141.398 212.182C140.95 209.629 139.625 209.618 138.452 212.158L138.203 212.697C137.619 213.963 136.305 213.976 135.284 212.727L134.539 211.815C133.603 210.67 132.292 210.679 131.624 211.835L130.404 213.95C129.375 215.733 128.053 215.723 127.466 213.929L125.965 209.338C125.01 206.419 123.684 206.423 123.017 209.347L121.595 215.577C120.677 219.602 119.347 219.599 118.642 215.573L117.196 207.317C116.331 202.373 115.001 202.374 114.242 207.319L112.792 216.789C111.981 222.077 110.651 222.077 109.838 216.789L108.608 208.793C108.204 206.174 106.878 206.162 105.662 208.766L104.695 210.836C104.077 212.16 102.761 212.171 101.772 210.86L100.72 209.467C99.9216 208.407 98.6126 208.407 97.8126 209.467L96.0737 211.771C95.4628 212.58 94.1702 212.597 93.2027 211.807L92.0762 210.89C91.2965 210.254 90.0203 210.254 89.2406 210.89L88.5454 211.457C87.3399 212.44 86.0391 212.409 85.6554 211.389L84.0362 207.098C82.945 204.204 81.617 204.212 81.0877 207.114L79.6659 214.904C79.0835 218.092 77.7569 218.098 76.716 214.916L74.9677 209.57C74.603 208.453 73.2981 208.424 72.0681 209.504L70 211.322" stroke="white" stroke-width="1.5" stroke-miterlimit="10" stroke-linecap="round" stroke-linejoin="round"/>
<path d="M464.184 67.2381C467.185 61.5739 468.912 54.97 468.912 47.9189V38.0876C468.912 17.051 453.61 7.62939e-06 434.731 7.62939e-06H225.18C206.303 7.62939e-06 191 17.051 191 38.0876V47.9189C191 68.949 206.303 86 225.18 86H434.731C441.984 86 448.702 83.4789 454.227 79.1887C460.351 83.5049 467.61 86 475.392 86C479.067 86 482.621 85.4362 486 84.3928C477.061 81.632 469.395 75.4687 464.184 67.2381Z" fill="#EAEAEA"/>
<path d="M235.093 35V17.434H232.366V24.8597H223.346V17.434H220.619V35H223.346V27.2213H232.366V35H235.093ZM243.505 35.2435C247.169 35.2435 249.579 32.7236 249.579 28.5969C249.579 24.4823 247.157 21.9624 243.505 21.9624C239.853 21.9624 237.43 24.4823 237.43 28.5969C237.43 32.7236 239.841 35.2435 243.505 35.2435ZM243.505 33.0766C241.447 33.0766 240.108 31.4454 240.108 28.5969C240.108 25.7605 241.447 24.1293 243.505 24.1293C245.562 24.1293 246.901 25.7605 246.901 28.5969C246.901 31.4454 245.574 33.0766 243.505 33.0766ZM268.46 22.1937H265.855L263.518 32.2732H263.457L260.779 22.1937H258.247L255.581 32.2732H255.532L253.195 22.1937H250.565L254.083 35H256.798L259.464 25.4075H259.525L262.215 35H264.954L268.46 22.1937ZM272.355 23.8615L274.047 17.434H271.394L270.274 23.8615H272.355ZM274.851 25.8214C274.851 27.6839 276.056 28.8525 278.491 29.4125L280.572 29.8994C281.972 30.2159 282.447 30.7028 282.447 31.5306C282.447 32.5775 281.473 33.2349 279.891 33.2349C278.284 33.2349 277.371 32.5775 277.127 31.2385H274.522C274.766 33.6731 276.689 35.2435 279.891 35.2435C282.91 35.2435 285.089 33.6366 285.089 31.2993C285.089 29.449 284.09 28.4264 281.473 27.8178L279.392 27.343C278.004 27.0265 277.419 26.4787 277.419 25.6753C277.419 24.6527 278.369 23.9589 279.793 23.9589C281.266 23.9589 282.179 24.7379 282.325 25.9796H284.796C284.711 23.618 282.776 21.9624 279.793 21.9624C276.847 21.9624 274.851 23.5328 274.851 25.8214ZM297.7 35.2435C301.364 35.2435 303.775 32.7236 303.775 28.5969C303.775 24.4823 301.352 21.9624 297.7 21.9624C294.048 21.9624 291.626 24.4823 291.626 28.5969C291.626 32.7236 294.036 35.2435 297.7 35.2435ZM297.7 33.0766C295.643 33.0766 294.304 31.4454 294.304 28.5969C294.304 25.7605 295.643 24.1293 297.7 24.1293C299.757 24.1293 301.096 25.7605 301.096 28.5969C301.096 31.4454 299.77 33.0766 297.7 33.0766ZM316.788 22.1937H314.158V29.6559C314.158 31.6524 313.014 32.9671 311.115 32.9671C309.301 32.9671 308.376 31.9202 308.376 29.9724V22.1937H305.747V30.4837C305.747 33.4175 307.451 35.2313 310.239 35.2313C312.198 35.2313 313.501 34.367 314.207 32.8332H314.268V35H316.788V22.1937ZM319.393 35H322.022V27.3308C322.022 25.517 323.069 24.3849 324.761 24.3849C325.273 24.3849 325.735 24.4458 325.942 24.531V22.0842C325.747 22.0477 325.419 21.9868 325.041 21.9868C323.532 21.9868 322.388 22.8754 321.961 24.3727H321.901V22.1937H319.393V35ZM334.037 20.1243C334.877 20.1243 335.547 19.4426 335.547 18.6148C335.547 17.7748 334.877 17.1053 334.037 17.1053C333.197 17.1053 332.516 17.7748 332.516 18.6148C332.516 19.4426 333.197 20.1243 334.037 20.1243ZM332.723 35H335.352V22.1937H332.723V35ZM345.955 17.1418C340.891 17.1418 337.726 20.6356 337.726 26.2231C337.726 31.8106 340.891 35.2922 345.955 35.2922C351.007 35.2922 354.184 31.8106 354.184 26.2231C354.184 20.6356 351.007 17.1418 345.955 17.1418ZM345.955 19.54C349.29 19.54 351.384 22.1207 351.384 26.2231C351.384 30.3133 349.29 32.894 345.955 32.894C342.619 32.894 340.513 30.3133 340.513 26.2231C340.513 22.1207 342.619 19.54 345.955 19.54ZM355.998 30.1794C356.168 33.3079 358.81 35.2922 362.778 35.2922C366.869 35.2922 369.474 33.2105 369.474 29.8994C369.474 27.343 367.964 25.8701 364.288 25.091L362.364 24.6892C360.088 24.2023 359.187 23.3502 359.187 22.072C359.187 20.4651 360.697 19.4669 362.754 19.4669C364.884 19.4669 366.333 20.5503 366.503 22.3155H369.145C369.06 19.2478 366.516 17.1418 362.791 17.1418C359.053 17.1418 356.412 19.2113 356.412 22.2181C356.412 24.7501 358.006 26.3813 361.525 27.1239L363.436 27.5256C365.785 28.0369 366.71 28.889 366.71 30.2524C366.71 31.8228 365.116 32.9671 362.888 32.9671C360.551 32.9671 358.895 31.9202 358.652 30.1794H355.998ZM380.43 35.2191C382.11 35.2191 383.729 34.3183 384.471 32.894H384.532V35H387.052V26.1744C387.052 23.6058 385.068 21.9624 381.963 21.9624C378.798 21.9624 376.826 23.6667 376.68 25.9796H379.164C379.395 24.8353 380.344 24.1049 381.866 24.1049C383.473 24.1049 384.435 24.9571 384.435 26.3813V27.3674L380.929 27.5743C377.885 27.7447 376.169 29.1203 376.169 31.3602C376.169 33.6609 377.922 35.2191 380.43 35.2191ZM381.16 33.1375C379.748 33.1375 378.823 32.4071 378.823 31.2872C378.823 30.1916 379.711 29.4977 381.282 29.3881L384.435 29.1934V30.2037C384.435 31.8715 382.998 33.1375 381.16 33.1375ZM396.279 21.9868C394.429 21.9868 392.956 22.9241 392.201 24.3971H392.152V22.1937H389.608V39.2363H392.238V32.894H392.299C393.029 34.3183 394.49 35.2191 396.328 35.2191C399.542 35.2191 401.672 32.6506 401.672 28.5969C401.672 24.5432 399.529 21.9868 396.279 21.9868ZM395.585 32.9914C393.565 32.9914 392.225 31.2628 392.225 28.5969C392.225 25.9553 393.577 24.2023 395.585 24.2023C397.667 24.2023 398.969 25.9187 398.969 28.5969C398.969 31.2872 397.667 32.9914 395.585 32.9914ZM410.376 21.9868C408.525 21.9868 407.053 22.9241 406.298 24.3971H406.249V22.1937H403.705V39.2363H406.334V32.894H406.395C407.126 34.3183 408.586 35.2191 410.425 35.2191C413.638 35.2191 415.769 32.6506 415.769 28.5969C415.769 24.5432 413.626 21.9868 410.376 21.9868ZM409.682 32.9914C407.661 32.9914 406.322 31.2628 406.322 28.5969C406.322 25.9553 407.673 24.2023 409.682 24.2023C411.764 24.2023 413.066 25.9187 413.066 28.5969C413.066 31.2872 411.764 32.9914 409.682 32.9914ZM417.169 22.145H419.688C419.798 20.5382 420.881 19.5278 422.561 19.5278C424.229 19.5278 425.312 20.5382 425.312 21.9137C425.312 23.1676 424.789 23.8736 423.316 24.7623C421.648 25.7605 420.906 26.8561 420.967 28.5725L420.979 29.5464H423.499V28.8038C423.499 27.55 423.949 26.9048 425.519 25.9796C427.126 25.0179 428.076 23.691 428.076 21.8042C428.076 19.1991 425.909 17.2879 422.695 17.2879C419.165 17.2879 417.278 19.3939 417.169 22.145ZM422.257 35.1826C423.17 35.1826 423.864 34.5009 423.864 33.6122C423.864 32.7236 423.17 32.0419 422.257 32.0419C421.368 32.0419 420.662 32.7236 420.662 33.6122C420.662 34.5009 421.368 35.1826 422.257 35.1826Z" fill="#4F4F4F"/>
<path d="M236.761 59.7773C237.355 60.12 237.355 60.9768 236.761 61.3195L222.11 69.7785C221.516 70.1212 220.774 69.6929 220.774 69.0074L220.774 52.0894C220.774 51.404 221.516 50.9756 222.11 51.3183L236.761 59.7773Z" fill="#BDBDBD"/>
<path d="M243 60.0345C243.841 61.3706 245.368 61.374 246.395 60.0421L247.855 58.1487C248.766 56.9669 250.29 56.966 251.244 58.147L252.375 59.5503C252.992 60.3162 254.493 60.3355 255.709 59.593L256.841 58.903C257.742 58.352 259.219 58.352 260.122 58.903L260.774 59.3008C262.253 60.2041 263.761 60.1743 264.122 59.2352L266.217 53.8005C267.442 50.6187 268.981 50.623 269.634 53.8106L271.981 65.2783C272.778 69.1676 274.317 69.1696 275.401 65.2823L277.321 58.3902C277.921 56.2389 279.456 56.2313 280.733 58.3727L282.13 60.7197C282.827 61.8879 284.348 61.8981 285.516 60.7418L286.913 59.3544C287.719 58.555 289.227 58.548 290.262 59.3388C291.418 60.2208 292.931 60.2083 293.624 59.3108L295.012 57.5088C296.297 55.8422 297.828 55.8527 298.414 57.5317L299.381 60.3012C300.456 63.3728 301.993 63.3705 302.8 60.2964L305.117 51.4569C306.325 46.8453 307.864 46.8481 308.535 51.4631L310.985 68.2814C311.707 73.2376 313.246 73.2398 314.405 68.2865L316.338 60.0234C316.856 57.8106 318.391 57.801 319.748 60.0025L320.037 60.4699C320.713 61.5666 322.234 61.5779 323.416 60.4954L324.279 59.7052C325.363 58.7127 326.88 58.7204 327.653 59.7222L329.066 61.5558C330.257 63.1009 331.788 63.0927 332.467 61.5377L334.205 57.5586C335.311 55.0285 336.847 55.0316 337.619 57.566L339.265 62.9662C340.328 66.4542 341.867 66.4523 342.683 62.9622L344.358 55.8068C345.36 51.5214 346.899 51.5223 347.778 55.8085L349.457 64.0161C350.396 68.5996 351.935 68.5996 352.877 64.0161L354.301 57.0858C354.769 54.8155 356.303 54.8051 357.711 57.0629L358.832 58.8569C359.547 60.0042 361.07 60.0135 362.215 58.8775L363.433 57.6702C364.358 56.7514 365.873 56.7514 366.799 57.6702L368.813 59.6667C369.52 60.3686 371.016 60.383 372.137 59.6987L373.441 58.903C374.343 58.352 375.821 58.352 376.724 58.903L377.529 59.3951C378.924 60.2465 380.43 60.2199 380.875 59.336L382.749 55.6166C384.013 53.1087 385.55 53.1152 386.163 55.6307L387.809 62.3826C388.483 65.1461 390.019 65.1506 391.224 62.3934L393.249 57.7591C393.671 56.7916 395.182 56.7658 396.606 57.7022L399 59.2779" stroke="#BDBDBD" stroke-width="1.5" stroke-miterlimit="10" stroke-linecap="round" stroke-linejoin="round"/>
<path d="M409.566 68.2817C413.187 68.2817 415.316 65.2454 415.316 60.4456C415.316 55.6772 413.166 52.6617 409.566 52.6617C405.967 52.6617 403.796 55.6876 403.796 60.4561C403.796 65.2558 405.935 68.2817 409.566 68.2817ZM409.566 66.3201C407.386 66.3201 406.165 64.0976 406.165 60.4561C406.165 56.8667 407.417 54.6233 409.566 54.6233C411.716 54.6233 412.958 56.8563 412.958 60.4561C412.958 64.108 411.737 66.3201 409.566 66.3201ZM419.03 65.8714C419.792 65.8714 420.397 65.2662 420.397 64.5045C420.397 63.7428 419.792 63.1377 419.03 63.1377C418.269 63.1377 417.663 63.7428 417.663 64.5045C417.663 65.2662 418.269 65.8714 419.03 65.8714ZM419.03 57.8058C419.792 57.8058 420.397 57.2006 420.397 56.4389C420.397 55.6772 419.792 55.072 419.03 55.072C418.269 55.072 417.663 55.6772 417.663 56.4389C417.663 57.2006 418.269 57.8058 419.03 57.8058ZM428.515 68.2817C432.136 68.2817 434.264 65.2454 434.264 60.4456C434.264 55.6772 432.115 52.6617 428.515 52.6617C424.915 52.6617 422.745 55.6876 422.745 60.4561C422.745 65.2558 424.884 68.2817 428.515 68.2817ZM428.515 66.3201C426.334 66.3201 425.113 64.0976 425.113 60.4561C425.113 56.8667 426.366 54.6233 428.515 54.6233C430.664 54.6233 431.906 56.8563 431.906 60.4561C431.906 64.108 430.685 66.3201 428.515 66.3201ZM439.982 68H442.267V52.9434H439.961L435.996 55.7607V57.9727L439.93 55.2598H439.982V68Z" fill="#BDBDBD"/>
<defs>
<linearGradient id="paint0_linear" x1="124.394" y1="317.66" x2="115.41" y2="263.562" gradientUnits="userSpaceOnUse">
<stop stop-color="#008FBC"/>
<stop offset="1" stop-color="#55E0FF"/>
</linearGradient>
<linearGradient id="paint1_linear" x1="104.907" y1="267.366" x2="104.907" y2="300.163" gradientUnits="userSpaceOnUse">
<stop stop-color="#FFB32F"/>
<stop offset="1" stop-color="#F29100"/>
</linearGradient>
<linearGradient id="paint2_linear" x1="148.597" y1="309.706" x2="148.597" y2="-0.854071" gradientUnits="userSpaceOnUse">
<stop stop-color="#FFC258"/>
<stop offset="1" stop-color="#FFA621"/>
</linearGradient>
<linearGradient id="paint3_linear" x1="53.9375" y1="314.375" x2="36.1924" y2="262.693" gradientUnits="userSpaceOnUse">
<stop offset="0.215539" stop-color="#118F5A"/>
<stop offset="1" stop-color="#71F47E"/>
</linearGradient>
</defs>
</svg>
