<svg width="276" height="288" viewBox="0 0 360 288" fill="none" xmlns="http://www.w3.org/2000/svg">
<g clip-path="url(#clip0)">
<mask id="mask0" mask-type="alpha" maskUnits="userSpaceOnUse" x="131" y="56" width="198" height="198">
<circle cx="230" cy="155" r="99" fill="#C4C4C4"/>
</mask>
<g mask="url(#mask0)">
<rect x="116" y="38" width="228" height="238" fill="url(#paint0_linear)"/>
<path d="M234.219 68.8019C241.437 65.5162 252.423 65.0708 254.205 64.8618C275.558 62.3759 288.41 89.2755 289.165 97.4285C290.559 112.453 299.727 114.744 312.626 124.151C338.497 143.02 330.913 164.943 316.766 173.087C308.275 177.977 293.316 173.087 293.316 173.087C293.107 173.215 252.402 153.359 232.338 143.779C202.257 140.071 215.827 77.1777 234.219 68.8019Z" fill="url(#paint1_linear)"/>
<path d="M273.175 139.794C270.195 138.602 256.488 140.986 261.029 130.93C264.528 126.722 267.317 122.19 268.362 116.727C268.676 115.1 269.546 114.656 271.093 115.034C272.575 115.398 273.823 114.698 274.925 113.748C279.558 109.752 279.623 101.578 275.063 97.4486C274.689 97.9709 274.333 98.506 273.94 99.012C271.23 102.502 269.234 102.737 266.063 99.69C263.38 97.1104 261.956 93.8178 261.988 90.0589C261.992 89.8107 261.98 89.5834 261.957 89.3762C258.246 88.9206 254.705 87.6213 251.443 85.7672C249.099 93.9935 244.152 101.894 237.837 107.286C236.216 108.673 234.055 110.109 231.674 111.313C231.733 117.869 234.524 123.22 238.696 128.05C241.153 130.89 244.52 132.512 247.287 134.925C247.96 135.328 248.515 135.795 248.319 136.719C247.95 138.457 247.667 140.232 246.205 141.481C245.786 143.1 245.278 144.705 244.961 146.344C243.953 151.561 240.147 166.003 244.961 168.491C249.069 170.615 259.307 171.585 261.988 168.492C266.126 163.719 276.938 154.186 273.94 148.749C278.807 149.393 273.597 141.744 273.175 139.794Z" fill="#FFC5A6"/>
<path d="M244.112 123.178C244.6 125.809 246.893 127.731 249.539 127.559C252.187 127.386 254.212 125.186 254.355 122.514L244.112 123.178Z" fill="white"/>
<path d="M279.649 109.485C278.185 115.162 274.314 119.071 271.002 118.217C267.691 117.363 266.193 112.069 267.657 106.392C269.121 100.715 272.993 96.8056 276.303 97.6593C279.615 98.5134 281.113 103.807 279.649 109.485Z" fill="#FFC5A6"/>
<path d="M221.063 197.384C221.957 257.291 221.307 244.769 227.86 250.458C229.444 251.824 233.885 252.641 239.726 253.024C258.107 254.247 290.41 251.219 291.638 247.824C295.879 236.08 292.883 232.429 296.418 214.446C296.791 212.535 297.246 210.462 297.78 208.207C300.731 195.856 303.599 191.656 293.139 171.812C283.651 153.839 282.6 139.85 270.9 139.4C246.392 193.023 244.35 157.85 245.862 142.144C236.656 146.016 220.623 168.162 221.063 197.384Z" fill="#0097D5"/>
<path d="M245.863 142.139C245.863 142.139 220.107 146.505 217.084 157.589C214.06 168.673 196.263 233.829 196.263 233.829C196.263 233.829 209.353 236.185 215.405 230.14C221.452 224.09 236.448 174.045 236.448 174.045L245.863 142.139Z" fill="#0097D5"/>
<path d="M218.3 154.846C217.477 156.082 217.691 155.955 217.477 156.082C218.317 157.042 219.263 157.23 219.98 158.24C222.287 161.503 225.112 165.105 229.075 165.411C232.794 165.696 235.981 162.888 238.164 159.901C238.435 159.529 238.705 159.149 238.847 158.71C239.054 158.094 239.001 157.412 238.837 156.774C238.031 153.644 234.793 151.728 231.67 150.895C229.282 150.256 227.18 149.965 224.81 149.313C223.682 149.877 223.118 150.441 221.99 151.005C220.862 152.134 220.862 152.134 220.298 152.698C219.17 153.826 219.169 153.826 218.3 154.846Z" fill="#53BAE4"/>
<path d="M231.58 175.261C231.58 175.261 222.207 178.308 221.106 186.043C220.006 193.779 213.529 239.251 213.529 239.251C213.529 239.251 218.293 240.895 220.496 236.676C222.696 232.454 228.154 197.528 228.154 197.528L231.58 175.261Z" fill="#006189"/>
<path d="M239.476 258.447C257.765 259.765 289.907 256.499 291.129 252.838C295.348 240.171 292.368 236.234 295.885 216.837L287.07 189.927C287.07 189.927 288.524 219.893 280.372 227.773C272.221 235.653 246.981 242.987 243.016 249.573C241.102 252.736 239.841 255.9 239.476 258.447Z" fill="#006189"/>
<path d="M263.692 181.309C259.95 183.424 258.941 188.719 260.621 192.679C262.306 196.632 266.017 199.371 269.905 201.2C273.795 203.027 277.993 204.14 281.883 205.968C283.607 206.781 285.258 207.733 286.824 208.795C286.842 208.556 286.869 208.321 286.899 208.078C287.238 205.22 287.572 202.357 287.833 199.493C287.527 199.019 287.229 198.536 286.943 198.049C284.943 194.607 283.551 190.793 281.073 187.683C279.264 185.409 276.918 183.588 274.356 182.217C271.071 180.467 266.933 179.471 263.692 181.309Z" fill="#53BAE4"/>
<path d="M260.78 239.406C260.78 239.406 242.65 235.372 239.726 236.978C236.803 238.589 229.655 244.445 228.755 246.484C227.86 248.523 235.269 244.934 237.681 244.289C239.237 243.873 243.35 245.295 245.379 245.973C253.938 248.828 259.18 247.362 259.18 247.362L260.78 239.406Z" fill="#FFC5A6"/>
<path d="M238.849 242.022C238.849 242.022 235.053 246.922 233.808 247.506C232.563 248.089 231.757 247.945 231.757 247.945L234.313 243.339L238.849 242.022Z" fill="#FFBF9D"/>
<path d="M239.727 236.978L228.683 242.339C228.683 242.339 229.155 243.105 230.511 243.044C231.873 242.983 235.302 241.728 235.302 241.728L239.727 236.978Z" fill="#FFC5A6"/>
<path d="M228.543 247.193H151.791L128.7 189.801H205.336L228.543 247.193Z" fill="#637172"/>
<path d="M151.263 242.827H249.383C251.025 242.827 252.356 244.158 252.356 245.8C252.356 247.442 251.025 248.773 249.383 248.773H158.173C154.715 248.773 151.778 246.245 151.263 242.827Z" fill="#637172"/>
<path d="M171.166 218.495C170.585 216.479 171.752 214.844 173.774 214.844C175.79 214.844 177.895 216.479 178.476 218.495C179.052 220.51 177.885 222.15 175.869 222.15C173.847 222.15 171.743 220.51 171.166 218.495Z" fill="white"/>
<path d="M272.925 139.761C272.925 139.761 297.269 141.261 305.695 153.011C317.562 169.55 341.094 240.029 327.605 249.435C312.415 260.019 258.48 252.202 258.48 252.202C258.48 252.202 256.684 243.818 259.18 239.757C261.681 235.702 302.26 229.151 304.133 227.279C306.006 225.407 280.723 190.767 280.723 185.151C280.723 179.534 272.925 139.761 272.925 139.761Z" fill="#0097D5"/>
<path d="M271.144 248.516L266.399 218.905C266.212 217.722 265.217 216.857 264.057 216.869L251.084 216.999C249.924 217.011 248.947 217.896 248.783 219.082L244.741 248.459L271.144 248.516Z" fill="#002E31"/>
<path d="M275.474 156.835C276.216 159.681 279.541 161.278 282.456 160.862C285.366 160.441 287.829 158.467 289.721 156.216C291.613 153.964 293.086 151.382 294.978 149.13C295.818 148.133 296.738 147.207 297.715 146.358C297.56 146.304 297.409 146.245 297.254 146.183C295.423 145.457 293.588 144.733 291.739 144.058C291.372 144.177 291 144.29 290.628 144.393C288 145.112 285.233 145.363 282.741 146.456C280.919 147.254 279.303 148.486 277.947 149.94C276.212 151.806 274.827 154.368 275.474 156.835Z" fill="#53BAE4"/>
<path d="M300.104 260H23.8975C21.6347 260 19.7998 258.232 19.7998 256.05V252.251C19.7998 250.069 21.6347 248.3 23.8975 248.3H300.104C302.366 248.3 304.2 250.069 304.2 252.251V256.05C304.2 258.232 302.366 260 300.104 260Z" fill="#E7C27B"/>
<path d="M234.45 66.9499C239.634 61.9999 250.703 61.5499 256.5 61.5499C278.55 61.55 285.75 81.7999 286.65 89.8999C271.8 66.9499 198.688 101.098 234.45 66.9499Z" fill="#FDAD26"/>
</g>
<path d="M217.172 284.281C221.039 284.281 223.418 282.383 223.418 279.383V279.371C223.418 276.793 221.965 275.387 218.496 274.625L216.621 274.215C214.418 273.734 213.398 272.867 213.398 271.484V271.473C213.398 269.844 214.875 268.766 217.137 268.754C219.281 268.754 220.723 269.773 220.98 271.496L221.004 271.66H223.113L223.102 271.484C222.914 268.719 220.5 266.809 217.195 266.809C213.715 266.809 211.254 268.754 211.242 271.531V271.543C211.242 274.016 212.789 275.504 216.094 276.23L217.969 276.641C220.289 277.156 221.262 277.988 221.262 279.477V279.488C221.262 281.234 219.727 282.336 217.289 282.336C214.84 282.336 213.199 281.293 212.953 279.594L212.93 279.43H210.82L210.832 279.594C211.043 282.488 213.516 284.281 217.172 284.281ZM230.625 284.234C233.988 284.234 236.262 281.797 236.262 277.906V277.883C236.262 273.992 233.977 271.578 230.613 271.578C227.25 271.578 224.977 274.004 224.977 277.883V277.906C224.977 281.785 227.238 284.234 230.625 284.234ZM230.637 282.43C228.48 282.43 227.062 280.777 227.062 277.906V277.883C227.062 275.035 228.492 273.383 230.613 273.383C232.77 273.383 234.176 275.023 234.176 277.883V277.906C234.176 280.766 232.781 282.43 230.637 282.43ZM238.324 284H240.363V276.828C240.363 274.754 241.617 273.383 243.539 273.383C245.414 273.383 246.34 274.473 246.34 276.453V284H248.379V276.09C248.379 273.312 246.832 271.578 244.16 271.578C242.309 271.578 241.066 272.41 240.41 273.547H240.363V271.812H238.324V284ZM252.152 288.102C254.355 288.102 255.422 287.094 256.289 284.762L261.047 271.812H258.902L255.527 281.961H255.48L252.117 271.812H249.938L254.461 284.012L254.215 284.703C253.723 286.086 253.008 286.414 251.719 286.414C251.473 286.414 251.238 286.379 251.062 286.344V288.008C251.32 288.055 251.754 288.102 252.152 288.102ZM265.98 284.234C267.609 284.234 269.074 283.355 269.789 282.02H269.836V284H271.875V275.574C271.875 273.137 270.07 271.578 267.188 271.578C264.316 271.578 262.57 273.195 262.395 275.199L262.383 275.328H264.352L264.375 275.223C264.609 274.133 265.594 273.383 267.164 273.383C268.863 273.383 269.836 274.285 269.836 275.773V276.793L266.344 276.992C263.543 277.156 261.926 278.457 261.926 280.531V280.555C261.926 282.77 263.555 284.234 265.98 284.234ZM264.012 280.555V280.531C264.012 279.395 264.949 278.668 266.578 278.574L269.836 278.375V279.371C269.836 281.141 268.359 282.465 266.438 282.465C264.973 282.465 264.012 281.727 264.012 280.555Z" fill="#4F4F4F"/>
<circle cx="193" cy="275" r="7" stroke="#FFA621" stroke-width="4"/>
<path d="M257.4 218.25C257.4 218.25 252.132 201.604 257.4 193.5C269.1 175.5 289.298 186.3 310.05 186.3C331.2 186.3 342 175.95 349.65 161.55C354.761 149.85 356.667 133.966 345.6 123.3C329.162 107.457 302.85 123.3 310.05 139.05C315.527 151.032 331.973 151.093 343.35 144.45C349.161 141.057 351.396 137.317 354.6 131.4C362.642 116.55 358.177 96.3 349.65 84.6C332.268 60.75 306 43.2 269.55 38.7C238.124 34.8203 206.55 39.6 174.6 52.2" stroke="#002E31" stroke-width="1.8"/>
<g filter="url(#filter0_d)">
<rect x="18.0005" y="18" width="164" height="132" rx="12" fill="white"/>
</g>
<path d="M60.7891 54.3813C65.582 54.3813 68.5703 51.0181 68.5703 45.6509V45.6274C68.5703 40.272 65.5703 36.9087 60.7891 36.9087C55.9961 36.9087 52.9844 40.272 52.9844 45.6274V45.6509C52.9844 51.0181 55.9844 54.3813 60.7891 54.3813ZM60.7891 52.436C57.3203 52.436 55.1406 49.811 55.1406 45.6509V45.6274C55.1406 41.4673 57.332 38.854 60.7891 38.854C64.2344 38.854 66.4141 41.479 66.4141 45.6274V45.6509C66.4141 49.7759 64.2695 52.436 60.7891 52.436ZM70.8789 54.1001H72.918V46.9282C72.918 44.854 74.1719 43.4829 76.0938 43.4829C77.9688 43.4829 78.8945 44.5728 78.8945 46.5532V54.1001H80.9336V46.1899C80.9336 43.4126 79.3867 41.6782 76.7148 41.6782C74.8633 41.6782 73.6211 42.5103 72.9648 43.647H72.918V41.9126H70.8789V54.1001ZM83.6406 54.1001H85.6797V37.1899H83.6406V54.1001ZM89.582 39.8501C90.2969 39.8501 90.8594 39.2759 90.8594 38.5728C90.8594 37.8579 90.2969 37.2954 89.582 37.2954C88.8789 37.2954 88.3047 37.8579 88.3047 38.5728C88.3047 39.2759 88.8789 39.8501 89.582 39.8501ZM88.5625 54.1001H90.6016V41.9126H88.5625V54.1001ZM93.3789 54.1001H95.418V46.9282C95.418 44.854 96.6719 43.4829 98.5938 43.4829C100.469 43.4829 101.395 44.5728 101.395 46.5532V54.1001H103.434V46.1899C103.434 43.4126 101.887 41.6782 99.2148 41.6782C97.3633 41.6782 96.1211 42.5103 95.4648 43.647H95.418V41.9126H93.3789V54.1001ZM111.051 54.3345C113.711 54.3345 115.703 52.7407 116.102 50.7251L116.125 50.6079H114.121L114.086 50.7134C113.734 51.7563 112.645 52.5298 111.098 52.5298C108.93 52.5298 107.547 51.0649 107.5 48.5571H116.277V47.8071C116.277 44.1509 114.25 41.6782 110.922 41.6782C107.594 41.6782 105.438 44.2681 105.438 48.0415V48.0532C105.438 51.8853 107.547 54.3345 111.051 54.3345ZM110.91 43.4829C112.691 43.4829 114.004 44.5962 114.203 46.9634H107.535C107.758 44.6899 109.141 43.4829 110.91 43.4829Z" fill="#3F3F3F"/>
<path d="M52.293 133.808H54.5078L56.207 128.968H62.9336L64.6328 133.808H66.8477L60.6133 116.898H58.5273L52.293 133.808ZM59.5469 119.429H59.5938L62.3125 127.175H56.8281L59.5469 119.429ZM70.0586 133.808H72.1328L74.875 124.375H74.9219L77.6758 133.808H79.75L83.1484 121.621H81.1328L78.6953 131.535H78.6484L75.8828 121.621H73.9141L71.1602 131.535H71.1133L68.6758 121.621H66.6484L70.0586 133.808ZM88.1523 134.042C89.7812 134.042 91.2461 133.164 91.9609 131.828H92.0078V133.808H94.0469V125.382C94.0469 122.945 92.2422 121.386 89.3594 121.386C86.4883 121.386 84.7422 123.003 84.5664 125.007L84.5547 125.136H86.5234L86.5469 125.031C86.7812 123.941 87.7656 123.191 89.3359 123.191C91.0352 123.191 92.0078 124.093 92.0078 125.582V126.601L88.5156 126.8C85.7148 126.964 84.0977 128.265 84.0977 130.339V130.363C84.0977 132.578 85.7266 134.042 88.1523 134.042ZM86.1836 130.363V130.339C86.1836 129.203 87.1211 128.476 88.75 128.382L92.0078 128.183V129.179C92.0078 130.949 90.5312 132.273 88.6094 132.273C87.1445 132.273 86.1836 131.535 86.1836 130.363ZM97.8086 137.91C100.012 137.91 101.078 136.902 101.945 134.57L106.703 121.621H104.559L101.184 131.769H101.137L97.7734 121.621H95.5938L100.117 133.82L99.8711 134.511C99.3789 135.894 98.6641 136.222 97.375 136.222C97.1289 136.222 96.8945 136.187 96.7188 136.152V137.816C96.9766 137.863 97.4102 137.91 97.8086 137.91Z" fill="#3F3F3F"/>
<rect x="18" y="68" width="164" height="35" fill="#0070F4"/>
<path d="M53.5586 93.8999H56.1836V86.8218H63.4492V84.6069H56.1836V79.2515H64.1172V76.9897H53.5586V93.8999ZM70.9727 94.146C74.5 94.146 76.8203 91.7085 76.8203 87.7358V87.7124C76.8203 83.7632 74.4766 81.3374 70.9609 81.3374C67.457 81.3374 65.125 83.7749 65.125 87.7124V87.7358C65.125 91.6968 67.4336 94.146 70.9727 94.146ZM70.9844 92.0249C69.0039 92.0249 67.7148 90.4663 67.7148 87.7358V87.7124C67.7148 85.0171 69.0156 83.4585 70.9609 83.4585C72.9414 83.4585 74.2305 85.0171 74.2305 87.7124V87.7358C74.2305 90.4546 72.9648 92.0249 70.9844 92.0249ZM84.0742 94.146C87.0391 94.146 89.1016 92.2476 89.3711 89.7749L89.3828 89.6929H86.9453L86.9336 89.7866C86.6289 91.1226 85.6328 92.0249 84.0742 92.0249C82.1172 92.0249 80.8164 90.4429 80.8164 87.7476V87.7358C80.8164 85.0991 82.0938 83.4585 84.0625 83.4585C85.7148 83.4585 86.6523 84.478 86.9219 85.6851L86.9453 85.7788H89.3594L89.3477 85.6968C89.1367 83.3765 87.2148 81.3374 84.0391 81.3374C80.5234 81.3374 78.2266 83.8101 78.2266 87.7124V87.7241C78.2266 91.6733 80.4766 94.146 84.0742 94.146ZM95.3711 94.146C97.2461 94.146 98.5 93.2905 99.1445 92.0483H99.2031V93.8999H101.746V81.5718H99.2031V88.7671C99.2031 90.689 98.0547 91.9663 96.2734 91.9663C94.5156 91.9663 93.6484 90.9351 93.6484 89.0718V81.5718H91.1172V89.564C91.1172 92.3999 92.6641 94.146 95.3711 94.146ZM108.871 94.146C111.777 94.146 113.887 92.5991 113.887 90.3491V90.3374C113.887 88.5679 112.926 87.5718 110.406 86.9858L108.402 86.5288C107.078 86.2124 106.574 85.6968 106.574 84.9351V84.9233C106.574 83.939 107.43 83.2944 108.789 83.2944C110.219 83.2944 111.062 84.0444 111.215 85.1226L111.227 85.2046H113.605L113.594 85.064C113.465 82.9663 111.707 81.3374 108.789 81.3374C105.953 81.3374 104.031 82.8491 104.031 85.0522V85.064C104.031 86.8569 105.191 87.9819 107.535 88.521L109.551 88.978C110.875 89.2944 111.32 89.7515 111.32 90.5483V90.5601C111.32 91.5562 110.406 92.189 108.883 92.189C107.324 92.189 106.48 91.521 106.246 90.3843L106.223 90.2671H103.715L103.727 90.3726C103.984 92.6226 105.789 94.146 108.871 94.146ZM121.117 94.146C124.105 94.146 126.004 92.3647 126.402 90.4077L126.426 90.2788H124.023L123.988 90.3726C123.672 91.2983 122.676 92.0718 121.176 92.0718C119.16 92.0718 117.883 90.7124 117.836 88.3804H126.566V87.5249C126.566 83.8218 124.445 81.3374 120.988 81.3374C117.531 81.3374 115.305 83.9155 115.305 87.771V87.7827C115.305 91.6733 117.496 94.146 121.117 94.146ZM121 83.4116C122.652 83.4116 123.848 84.4546 124.059 86.5874H117.871C118.094 84.5249 119.359 83.4116 121 83.4116ZM133.141 94.146C134.91 94.146 136.27 93.2554 137.008 91.814H137.055V93.8999H139.598V76.9897H137.055V83.6694H137.008C136.27 82.2163 134.863 81.3374 133.117 81.3374C130.023 81.3374 127.984 83.7983 127.984 87.7241V87.7358C127.984 91.6616 130 94.146 133.141 94.146ZM133.809 91.9663C131.805 91.9663 130.574 90.3608 130.574 87.7358V87.7241C130.574 85.1226 131.816 83.5054 133.809 83.5054C135.707 83.5054 137.066 85.1694 137.066 87.7241V87.7358C137.066 90.3022 135.719 91.9663 133.809 91.9663Z" fill="white"/>
</g>
<defs>
<filter id="filter0_d" x="8.00049" y="10" width="184" height="152" filterUnits="userSpaceOnUse" color-interpolation-filters="sRGB">
<feFlood flood-opacity="0" result="BackgroundImageFix"/>
<feColorMatrix in="SourceAlpha" type="matrix" values="0 0 0 0 0 0 0 0 0 0 0 0 0 0 0 0 0 0 127 0"/>
<feOffset dy="2"/>
<feGaussianBlur stdDeviation="5"/>
<feColorMatrix type="matrix" values="0 0 0 0 0 0 0 0 0 0 0 0 0 0 0 0 0 0 0.2 0"/>
<feBlend mode="normal" in2="BackgroundImageFix" result="effect1_dropShadow"/>
<feBlend mode="normal" in="SourceGraphic" in2="effect1_dropShadow" result="shape"/>
</filter>
<linearGradient id="paint0_linear" x1="253.371" y1="94.4091" x2="252.855" y2="51.2786" gradientUnits="userSpaceOnUse">
<stop stop-color="#DBF4FD"/>
<stop offset="1" stop-color="#E6FFFF"/>
</linearGradient>
<linearGradient id="paint1_linear" x1="272.194" y1="60.0451" x2="272.194" y2="175.578" gradientUnits="userSpaceOnUse">
<stop stop-color="#FFB32F"/>
<stop offset="1" stop-color="#F29100"/>
</linearGradient>
<clipPath id="clip0">
<rect width="360" height="288" fill="white"/>
</clipPath>
</defs>
</svg>
