<svg width="250" height="353" viewBox="0 0 312 440" fill="none" xmlns="http://www.w3.org/2000/svg">
<g clip-path="url(#clip0)">
<mask id="mask0" mask-type="alpha" maskUnits="userSpaceOnUse" x="0" y="9" width="196" height="201">
<path d="M107.041 208.058C89.7271 211.196 71.6471 209.457 54.7532 201.952C7.21334 180.83 -12.9054 122.247 9.81825 71.101C32.5412 19.9563 89.5006 -4.38194 137.04 16.7394C184.58 37.8607 204.697 96.443 181.975 147.588C177.673 157.27 172.139 165.988 165.679 173.622C173.903 178.922 184.09 184.068 195.698 187.022C195.698 187.022 156.948 201.656 107.041 208.058Z" fill="white"/>
</mask>
<g mask="url(#mask0)">
<rect opacity="0.15" x="-98.6099" y="-61.2418" width="325.228" height="289.24" fill="url(#paint0_linear)"/>
<path d="M124.026 146.395C110.176 138.399 103.912 124.078 110.429 112.791C120.978 104.919 121.843 100.34 142.732 104.603L168.193 119.205L196.766 122.74L185.108 162.433L132.049 149.791C129.335 149.028 126.634 147.901 124.026 146.395Z" fill="#006189"/>
<path d="M103.852 100.876H86.4313H69.7093L30.5398 116.645L39.3326 252.091H86.4313L196.386 235.735L160.049 184.361L134.48 115.823L103.852 100.876Z" fill="#006189"/>
<path d="M58.7497 138.625C58.2881 125.589 48.0262 115.421 35.8313 115.916C25.0102 116.353 16.3195 125.041 14.8149 136.098L14.7971 136.093L7.01636 182.487L50.9778 187.008L57.9974 145.714C58.5677 143.461 58.8362 141.08 58.7497 138.625Z" fill="#006189"/>
<path d="M57.9102 143.88C57.4519 127.57 47.2645 114.849 35.1582 115.468C24.4157 116.015 15.7881 126.885 14.2944 140.717L14.2767 140.712L6.55249 198.754L50.1947 204.41L57.1633 152.748C57.7295 149.93 57.9961 146.95 57.9102 143.88Z" fill="#006189"/>
<path d="M73.9775 92.758C77.7287 82.6644 71.2562 72.4521 67.1622 62.8223C66.8922 62.0288 66.6166 61.2381 66.3199 60.4544C70.4223 62.0847 72.7603 65.4725 74.4323 69.5435C74.9835 70.8888 75.4942 72.2859 75.143 73.6885C74.7569 75.235 75.5684 76.1333 76.3631 77.2048C82.2032 85.0869 92.7082 77.7131 101.513 81.7352C97.3038 90.6216 97.9736 97.4033 101.513 99.274C109.155 103.313 112.174 104.706 120.689 104.653C120.178 106.79 118.117 111.2 118.117 111.2C118.117 111.2 108.184 132.375 95.7456 132.165C87.0247 132.019 79.4762 128.694 72.4511 123.875C64.953 118.733 58.2506 114.768 53.5732 106.991C61.5242 104.825 71.4199 99.6384 73.9775 92.758Z" fill="#FBD09F"/>
<path d="M62.1899 59.5191L56.1935 34.296C53.7752 20.8119 67.5058 13.6839 75.8084 13.6839H104.563C113.368 13.6839 123.857 20.759 119.392 35.9554L114.375 55.076L62.1899 59.5191Z" fill="#1A1A1A"/>
<path d="M116.227 44.5275C116.227 53.5828 114.666 61.3978 113.108 66.9444C111.55 72.491 112.11 76.8012 105.649 80.0533C89.5486 88.1591 69.6234 80.5167 66.3047 66.8648C63.7297 56.2657 63.4481 44.5275 63.4481 44.5275C63.4481 44.5275 60.9978 21.6663 89.4602 22.109C117.925 22.555 116.227 44.5275 116.227 44.5275Z" fill="#FBD09F"/>
<path d="M97.07 90.1539C96.8679 88.6201 98.6467 85.8425 98.9407 84.3076C98.9069 83.2569 101.027 83.163 101.932 82.8571C104.187 82.0981 106.458 81.3013 108.505 80.0343C111.917 77.9316 113.971 75.1942 115.089 72.0867C116.21 68.9892 116.408 65.5206 116.124 61.9288C115.7 56.6059 114.969 51.2968 114.51 45.9584C114.441 45.1416 114.357 44.3069 114.126 43.4923C113.97 42.9315 113.754 42.3834 113.422 41.8503C102.529 45.7312 93.479 42.1448 85.2798 35.1941C82.7063 32.9975 80.2928 30.603 77.7778 28.3288C75.6384 26.3939 75.2442 26.4693 73.8588 29.1491C71.6944 33.36 70.752 37.9207 70.105 42.5578C69.9727 43.5376 69.8846 44.5182 69.7705 45.4946C69.5903 47.1009 68.9178 47.6786 67.2146 47.1508C65.37 46.5787 63.5585 45.9465 61.5063 47.0953C59.1192 48.4471 57.917 50.3723 57.9961 52.928C58.1328 56.8849 59.6788 60.3651 62.6499 63.0493C64.3866 64.6169 66.5271 65.567 68.8962 64.9316C71.08 64.3387 71.92 65.2703 72.6085 67.1419C73.9285 70.7783 76.749 74.0127 75.5129 78.3124C75.3508 82.0981 75.3116 85.89 74.9618 89.6514C73.9938 100.062 99.0987 105.554 97.07 90.1539Z" fill="#FBD09F"/>
<path d="M118.257 5.75355C108.593 -0.366192 90.47 3.7673 80.4123 8.37672C80.9314 0.984028 62.3505 14.2429 65.7297 24.3932C65.7297 24.3932 65.7985 24.4265 65.9005 24.4775C64.0541 28.4855 61.3631 31.6567 63.6289 47.1249C63.6289 47.1249 68.6103 35.7603 68.739 25.7802C76.5863 29.24 100.349 36.6293 114.375 31.9245C116.865 35.5798 115.778 36.8354 115.778 36.8354C117.247 26.8132 120.221 36.8354 120.689 26.7797C123.729 21.8688 130.043 13.2163 118.257 5.75355Z" fill="#1A1A1A"/>
<path d="M94.2637 46.8912C94.2637 51.7987 90.1797 55.7776 85.1425 55.7776C80.1054 55.7776 76.0232 51.7987 76.0232 46.8912C76.0232 41.9836 80.1054 38.0048 85.1425 38.0048C90.1797 38.0048 94.2637 41.9836 94.2637 46.8912Z" stroke="#1A1A1A" stroke-width="2.50602" stroke-miterlimit="10" stroke-linecap="round" stroke-linejoin="round"/>
<path d="M116.246 46.8912C116.246 51.7987 112.162 55.7776 107.125 55.7776C102.088 55.7776 98.0056 51.7987 98.0056 46.8912C98.0056 41.9836 102.088 38.0048 107.125 38.0048C112.162 38.0048 116.246 41.9836 116.246 46.8912Z" stroke="#1A1A1A" stroke-width="2.50602" stroke-miterlimit="10" stroke-linecap="round" stroke-linejoin="round"/>
<path d="M94.2642 46.8912C94.2642 46.8912 96.2042 44.7865 98.0058 46.8912" stroke="#1A1A1A" stroke-width="2.50602" stroke-miterlimit="10" stroke-linecap="round" stroke-linejoin="round"/>
<path d="M89.1778 66.0671L102.713 66.6311C102.713 66.6311 102.256 71.5084 96.0401 71.2494C89.8235 70.9903 89.1778 66.0671 89.1778 66.0671Z" fill="white"/>
<path d="M-10.302 170.81C-12.2993 166.816 -15.5821 162.894 -17.94 159.12C-26.4925 145.424 -34.1119 130.941 -42.6077 117.213C-42.8265 116.857 -42.9372 116.435 -43.5753 116.732C-58.683 123.749 -72.9992 131.975 -84.9117 143.829C-89.3804 148.276 -93.4682 153.062 -95.5655 159.12C-98.7796 168.404 -96.6067 177.091 -92.1178 185.397C-88.566 191.969 -83.1871 196.936 -77.5165 201.64C-64.2401 212.652 -50.1291 222.47 -35.1876 231.094C-26.2664 236.243 -17.4654 241.609 -8.21743 246.188C-3.51241 248.518 0.498474 251.803 4.24062 255.482C8.55265 259.72 13.7425 262.135 19.9019 262.321C22.3328 262.394 24.5503 261.832 26.4895 260.446C27.9332 259.416 29.4133 258.869 31.1986 258.843C34.5194 258.793 37.5269 257.991 39.2771 254.764C39.6944 253.998 40.4101 253.873 41.2042 254.023C41.9348 254.161 42.6721 254.278 43.3892 254.468C44.606 254.789 45.8444 254.786 46.5844 253.712C47.3853 252.55 47.5851 251.151 46.9693 249.773C46.2873 248.251 45.049 247.192 43.6634 246.415C36.6234 242.467 29.6456 238.373 22.1964 235.228C19.96 234.282 18.1072 233.112 16.596 231.239C3.11567 214.522 -11.9109 199.209 -26.7931 183.766C-29.2968 181.169 -31.9032 178.667 -34.4529 176.112C-35.0255 175.538 -35.8061 175.081 -35.8331 173.816C-33.3725 173.127 -30.8526 173.055 -28.3488 172.891C-22.7322 172.523 -15.8335 171.934 -10.302 170.81Z" fill="#FF715E"/>
</g>
<path d="M178.159 122.665C180.343 130.561 179.522 129.185 181.342 137.178C183.348 145.986 184.845 154.894 186.538 163.763C194.61 159.781 209.577 151.922 217.575 146.887C223.069 142.984 229.767 139.93 234.192 134.762C239.104 129.023 239.7 123.04 236.647 116.372C234.045 110.692 231.152 105.178 227.9 99.8347C217.138 82.1492 205.525 65.0454 193.113 48.4754C190.266 44.6734 187.792 40.5993 184.796 36.9004C183.981 35.8942 183.753 34.9339 184.195 33.5756C185.091 30.8229 185.328 27.923 185.285 25.0229C185.237 21.6038 183.781 18.8047 180.893 17.0592C176.974 14.6892 173.292 11.9995 169.568 9.35723C169.265 9.14274 168.936 8.96277 168.63 8.75109C164.377 5.81533 161.248 8.38688 160.483 12.4483C160.018 14.9185 160.616 17.2703 161.085 19.6324C161.085 19.6324 158.616 25.3047 158.368 25.6984C155.832 31.2331 155.846 34.9842 160.318 40.3658C161.763 42.1037 163.957 43.2624 165.077 45.1351C178.154 67.0019 188.985 86.5451 199.683 111.583C200.073 112.577 198.878 113.871 198.878 113.871C198.878 113.871 182.053 121.526 178.159 122.665Z" fill="#FBD09F"/>
<path d="M130.292 147.648C116.442 139.652 110.178 125.331 116.695 114.044C127.244 106.172 122.87 100.533 143.759 104.795L180.097 117.952L199.519 112.072C199.519 112.072 204.497 128.641 212.675 134.867C217.379 138.449 226.458 141.133 226.458 141.133C226.458 141.133 200.145 160.554 181.976 166.193C159.422 166.193 134.362 153.036 134.362 153.036C131.648 152.273 132.9 149.154 130.292 147.648Z" fill="#006189"/>
<path d="M150.465 43.2841L178.735 30.7533C179.877 30.2473 180.475 28.9606 180.144 27.7243L176.439 13.8958C176.108 12.6596 174.946 11.8444 173.704 11.977L142.956 15.2604L150.465 43.2841Z" fill="#002E31"/>
<path d="M143.703 15.0302C145.39 16.4662 152.331 42.4011 150.512 43.3766C141.371 48.2793 134.916 18.3196 143.703 15.0302Z" fill="#627475"/>
<path d="M164.158 34.8443C165.02 33.3072 165.592 31.6094 165.838 29.8645C166.067 28.2374 165.995 26.5077 165.232 25.0505C164.77 24.1693 163.896 23.3538 162.91 23.4862C161.81 23.6356 161.217 24.8212 160.812 25.8541C160.121 27.6132 159.429 29.372 158.738 31.131C157.952 33.1324 157.162 35.3651 157.932 37.3738C159.52 41.504 168.116 44.4264 165.75 37.4035C165.683 37.2019 164.388 34.4348 164.158 34.8443Z" fill="#FBD09F"/>
<path d="M118.266 3.29328C108.362 -2.91705 89.7903 1.27763 79.4836 5.95528C80.0155 -1.54684 60.9746 11.9083 64.4374 22.2088C64.4374 22.2088 64.5079 22.2426 64.6125 22.2944C62.7203 26.3617 59.9627 29.5798 62.2846 45.2771C62.2846 45.2771 67.3893 33.7442 67.5212 23.6164C75.5628 27.1275 99.9142 34.6261 114.287 29.8516C116.839 33.5611 115.725 34.8352 115.725 34.8352C117.231 24.6647 119.81 37.313 120.289 27.1084C123.405 22.1248 131.267 11.4458 118.266 3.29328Z" fill="#1A1A1A"/>
<path d="M165.055 24.3801C165.055 24.3801 207.987 7.8678 233.404 16.4957C271.868 29.5526 287.993 65.324 285.805 105.477C283.377 150.021 252.769 178.689 210.621 192.205C167.234 206.118 109.498 202.905 95.5661 242.89C83.7898 276.689 96.4599 301.089 127.462 319.481C167.333 343.135 239.448 324.55 228.847 303.15C218.246 281.749 188.407 298.689 183.851 319.481C177.68 347.64 188.5 366 158.5 384C131.198 400.381 114.353 377 91 377C62.5212 377 50 440 50 440" stroke="#002E31" stroke-width="1.70538"/>
</g>
<defs>
<linearGradient id="paint0_linear" x1="141.652" y1="227.998" x2="48.3017" y2="-77.7107" gradientUnits="userSpaceOnUse">
<stop offset="0.215539" stop-color="#118F5A"/>
<stop offset="1" stop-color="#71F47E"/>
</linearGradient>
<clipPath id="clip0">
<rect width="312" height="440" fill="white"/>
</clipPath>
</defs>
</svg>
