<svg width="48" height="48" viewBox="0 0 48 48" fill="none" xmlns="http://www.w3.org/2000/svg">
<path d="M24 45C23.3167 45 22.6578 44.7565 22.1444 44.3142C20.2053 42.6467 18.3358 41.0796 16.6864 39.6972L16.678 39.69C11.8422 35.6371 7.66626 32.1369 4.76074 28.689C1.51282 24.8345 0 21.1799 0 17.1874C0 13.3084 1.35242 9.72975 3.80786 7.11025C6.2926 4.45976 9.70203 3 13.4092 3C16.1799 3 18.7174 3.86152 20.9509 5.56044C22.0781 6.418 23.0999 7.46753 24 8.69175C24.9005 7.46753 25.9219 6.418 27.0494 5.56044C29.283 3.86152 31.8204 3 34.5912 3C38.298 3 41.7078 4.45976 44.1925 7.11025C46.6479 9.72975 48 13.3084 48 17.1874C48 21.1799 46.4875 24.8345 43.2396 28.6887C40.3341 32.1369 36.1586 35.6367 31.3235 39.6893C29.6711 41.0738 27.7987 42.6434 25.8552 44.315C25.3422 44.7565 24.683 45 24 45ZM13.4092 5.76538C10.4967 5.76538 7.82117 6.90855 5.87476 8.98456C3.89941 11.0919 2.8114 14.005 2.8114 17.1874C2.8114 20.5453 4.08032 23.5483 6.92542 26.9246C9.67529 30.1881 13.7655 33.6161 18.5013 37.5856L18.5101 37.5928C20.1658 38.9805 22.0426 40.5537 23.996 42.2335C25.9611 40.5505 27.8408 38.9747 29.4998 37.5848C34.2352 33.6154 38.3251 30.1881 41.075 26.9246C43.9197 23.5483 45.1886 20.5453 45.1886 17.1874C45.1886 14.005 44.1006 11.0919 42.1252 8.98456C40.1792 6.90855 37.5033 5.76538 34.5912 5.76538C32.4576 5.76538 30.4988 6.43241 28.7692 7.74775C27.2278 8.92045 26.1541 10.4029 25.5245 11.4402C25.2008 11.9736 24.631 12.292 24 12.292C23.369 12.292 22.7992 11.9736 22.4755 11.4402C21.8463 10.4029 20.7726 8.92045 19.2308 7.74775C17.5012 6.43241 15.5424 5.76538 13.4092 5.76538Z" fill="black"/>
<path d="M22.375 30.2813V16.4062C22.375 15.6296 23.0046 15 23.7812 15C24.5579 15 25.1875 15.6296 25.1875 16.4062V30.2812C25.1875 31.0579 24.5579 31.6875 23.7812 31.6875C23.0046 31.6875 22.375 31.058 22.375 30.2813Z" fill="black"/>
<path d="M18.1562 26.4206C17.3796 26.4206 16.75 25.791 16.75 25.0144V21.6732C16.75 20.8966 17.3796 20.267 18.1562 20.267C18.9329 20.267 19.5625 20.8966 19.5625 21.6732V25.0144C19.5625 25.791 18.9329 26.4206 18.1562 26.4206Z" fill="black"/>
<path d="M29.4062 20.267C30.1829 20.267 30.8125 20.8966 30.8125 21.6732V25.0144C30.8125 25.791 30.1829 26.4206 29.4062 26.4206C28.6296 26.4206 28 25.791 28 25.0144V21.6732C28 20.8966 28.6296 20.267 29.4062 20.267Z" fill="black"/>
<path d="M12.5312 28.6705C11.7546 28.6705 11.125 28.0409 11.125 27.2642V19.4233C11.125 18.6467 11.7546 18.017 12.5312 18.017C13.3079 18.017 13.9375 18.6467 13.9375 19.4233V27.2642C13.9375 28.0409 13.3079 28.6705 12.5312 28.6705Z" fill="black"/>
<path d="M35.0312 18.017C35.8079 18.017 36.4375 18.6467 36.4375 19.4233V27.2642C36.4375 28.0409 35.8079 28.6705 35.0312 28.6705C34.2546 28.6705 33.625 28.0409 33.625 27.2642V19.4233C33.625 18.6467 34.2546 18.017 35.0312 18.017Z" fill="black"/>
</svg>
