<svg width="48" height="48" viewBox="0 0 48 48" fill="none" xmlns="http://www.w3.org/2000/svg">
<g clip-path="url(#clip0)">
<mask id="path-1-inside-1" fill="white">
<path d="M33.9126 4.52642C32.3269 4.68558 30.8631 5.69283 30.1827 7.09269C30.0005 7.46795 29.8771 7.8621 29.8157 8.26454C29.6594 9.29094 29.6524 11.9097 29.9045 14.2426L19.942 4.28004C19.0952 3.43325 17.9194 2.95369 16.716 2.96404C15.5214 2.97439 14.4106 3.44644 13.5957 4.29246C13.2253 4.67627 12.9388 5.11234 12.7357 5.57689L11.7626 4.6038C10.841 3.68221 9.56122 3.16021 8.25065 3.1716C6.95173 3.18273 5.74753 3.69282 4.85752 4.61596C3.08137 6.45474 3.0749 9.39964 4.81689 11.2498C4.24779 11.4638 3.72294 11.7894 3.26952 12.2164C2.32438 13.1077 1.77029 14.3725 1.75088 15.6864C1.73173 16.9732 2.20869 18.1696 3.09172 19.0526L4.03298 19.9986C3.6585 20.1877 3.3073 20.4375 2.99493 20.7499C1.41858 22.3262 1.41858 24.8909 2.99467 26.467L17.4777 40.948L17.5486 41.0142C19.581 42.7831 21.6061 44.0127 23.5683 44.6685C25.4078 45.2834 27.2502 45.4172 29.0443 45.0663C32.5751 44.376 35.3644 41.9511 37.3999 39.9156C41.3971 35.9184 43.0058 30.3351 41.6033 25.3358C41.4695 24.7646 41.1396 23.282 40.7845 21.6821C40.4382 20.1236 40.1245 18.682 39.8474 17.4106C39.6949 16.7115 39.5565 16.0757 39.4348 15.5223C38.9814 13.4607 38.6191 11.3846 38.358 9.35124C38.2612 8.5971 38.2469 8.38048 38.2446 8.33208C38.2068 7.46458 37.9141 6.6491 37.3978 5.97337C36.5883 4.91281 35.3176 4.38537 33.9126 4.52642ZM35.1618 7.68146C35.3266 7.89756 35.4206 8.1649 35.4333 8.4545C35.44 8.60564 35.461 8.88488 35.5671 9.70942C35.8385 11.8251 36.2151 13.9843 36.6864 16.1269C36.8078 16.6789 36.9457 17.3122 37.0976 18.0097C37.3753 19.2838 37.6903 20.7281 38.0373 22.292C38.4009 23.9295 38.7382 25.4458 38.8709 26.0102L38.8867 26.0711C40.0272 30.0983 38.6952 34.6405 35.4102 37.9254C33.6574 39.6783 31.2881 41.7603 28.5047 42.3046C25.6646 42.86 22.6972 41.7539 19.4327 38.9231L4.98485 24.4774C4.50581 23.9983 4.50581 23.2188 4.98485 22.7398C5.46674 22.2579 6.24857 22.2556 6.72761 22.7346L12.1472 28.1541C12.1632 28.1702 12.1805 28.1839 12.1971 28.1994C12.2157 28.216 12.2336 28.2339 12.253 28.2496C12.2703 28.2639 12.2887 28.276 12.3066 28.2892C12.3265 28.304 12.3459 28.3198 12.3666 28.3338C12.3855 28.3459 12.4054 28.3565 12.4246 28.3679C12.445 28.3801 12.4652 28.3935 12.4864 28.4044C12.5066 28.4153 12.5279 28.4241 12.5486 28.4334C12.5693 28.4432 12.5897 28.4538 12.6112 28.4624C12.6324 28.4712 12.6541 28.4779 12.6756 28.4854C12.6971 28.4929 12.7183 28.5012 12.7401 28.5079C12.7616 28.5144 12.7841 28.5188 12.8061 28.5242C12.8281 28.5297 12.8498 28.5359 12.8718 28.5403C12.8941 28.5444 12.9166 28.5467 12.9388 28.5499C12.9613 28.5532 12.9833 28.5576 13.0056 28.5597C13.0279 28.5618 13.0501 28.5618 13.0721 28.5631C13.0949 28.5641 13.1179 28.5664 13.1407 28.5664C13.1627 28.5662 13.1842 28.5643 13.2064 28.5633C13.2292 28.5623 13.2525 28.5623 13.2755 28.5599C13.2973 28.5579 13.3188 28.554 13.3405 28.5509C13.3635 28.5475 13.3866 28.5452 13.4093 28.5411C13.4306 28.5369 13.4513 28.5307 13.472 28.5255C13.495 28.5201 13.5183 28.5154 13.5413 28.509C13.562 28.5027 13.5822 28.4945 13.6027 28.4875C13.6252 28.48 13.6479 28.4727 13.6702 28.4639C13.6906 28.4559 13.7106 28.4453 13.7305 28.4362C13.752 28.4261 13.774 28.4171 13.7952 28.4062C13.8151 28.3956 13.8345 28.3829 13.8542 28.3715C13.8747 28.3594 13.8954 28.3485 13.915 28.3356C13.935 28.3224 13.9533 28.3076 13.9725 28.2936C13.9914 28.2794 14.0108 28.2667 14.0292 28.252C14.0473 28.237 14.0646 28.2201 14.0822 28.2041C14.0996 28.1883 14.1179 28.1736 14.1347 28.1567C14.1355 28.156 14.1366 28.1549 14.1373 28.1541C14.1718 28.1197 14.2038 28.084 14.2339 28.0473C14.2471 28.0315 14.2582 28.0141 14.2706 27.9976C14.2864 27.9766 14.3032 27.9556 14.3175 27.9336C14.3327 27.9106 14.3457 27.8868 14.3594 27.8633C14.3687 27.8467 14.3796 27.8306 14.3884 27.8141C14.4026 27.7869 14.4148 27.7587 14.4272 27.7307C14.4331 27.717 14.4407 27.7033 14.4463 27.6893C14.458 27.6606 14.467 27.6314 14.4769 27.6024C14.4815 27.5884 14.4872 27.5749 14.4916 27.5607C14.4999 27.5328 14.5056 27.5043 14.5121 27.4761C14.516 27.4603 14.5206 27.4448 14.5235 27.429C14.5289 27.4023 14.532 27.3749 14.5354 27.3477C14.538 27.3301 14.5413 27.3128 14.5429 27.2952C14.5457 27.2696 14.5457 27.2437 14.5468 27.2178C14.5478 27.1987 14.5493 27.1795 14.5499 27.1604C14.5499 27.1355 14.5475 27.1109 14.5462 27.0863C14.5452 27.0661 14.5452 27.0454 14.5434 27.0255C14.5411 27.0025 14.5369 26.9797 14.5336 26.9567C14.5305 26.9349 14.5284 26.9132 14.524 26.8917C14.5198 26.8695 14.5136 26.8482 14.5082 26.8262C14.5028 26.8042 14.4984 26.7817 14.4922 26.76C14.4857 26.7385 14.4774 26.7178 14.4702 26.6966C14.4624 26.6748 14.4557 26.6526 14.4471 26.6311C14.4388 26.6104 14.4282 26.5905 14.4189 26.5703C14.4093 26.5488 14.4003 26.5273 14.3894 26.5061C14.3788 26.4862 14.3666 26.4673 14.355 26.4479C14.3428 26.4274 14.3317 26.4065 14.3188 26.3863C14.3063 26.3676 14.2918 26.3495 14.2781 26.3312C14.2641 26.3115 14.2504 26.2916 14.2352 26.2727C14.2209 26.2548 14.2044 26.2382 14.1888 26.2212C14.1725 26.2028 14.1575 26.1842 14.1402 26.1668L5.08449 17.0651C4.74184 16.7224 4.55731 16.2475 4.56482 15.7281C4.57336 15.1704 4.80472 14.6357 5.19991 14.2643C5.93931 13.5679 7.14791 13.6083 7.89558 14.3559L16.8793 23.3169C16.8974 23.335 16.9169 23.3508 16.9355 23.3674C16.9521 23.3824 16.9684 23.3987 16.9854 23.4127C17.0059 23.4295 17.0274 23.4437 17.0483 23.459C17.0654 23.4714 17.082 23.4849 17.0993 23.4965C17.1231 23.512 17.148 23.5255 17.1723 23.5395C17.1881 23.5485 17.2033 23.5586 17.2191 23.5672C17.2463 23.5814 17.2748 23.5933 17.3027 23.6057C17.3167 23.6119 17.3299 23.6194 17.3439 23.6251C17.3747 23.6373 17.4062 23.6476 17.4376 23.6577C17.4495 23.6614 17.4609 23.6665 17.4725 23.6699C17.5056 23.6797 17.5393 23.687 17.5724 23.6942C17.5833 23.6968 17.5936 23.6999 17.6045 23.702C17.6387 23.7087 17.6728 23.7129 17.707 23.717C17.7176 23.7183 17.7279 23.7204 17.7383 23.7214C17.7756 23.725 17.8128 23.7261 17.8501 23.7266C17.8581 23.7268 17.8654 23.7279 17.8731 23.7279C17.9109 23.7279 17.9487 23.7253 17.9865 23.7222C17.9937 23.7217 18.0007 23.7219 18.008 23.7214C18.0452 23.7178 18.0817 23.7118 18.1182 23.7054C18.1262 23.7041 18.134 23.7036 18.1418 23.702C18.1783 23.695 18.2142 23.6854 18.2499 23.6756C18.2577 23.6735 18.2657 23.6722 18.2737 23.6699C18.3102 23.6588 18.3462 23.6456 18.3822 23.6319C18.3889 23.6293 18.3959 23.6275 18.4026 23.6249C18.4386 23.6101 18.4738 23.593 18.509 23.5754C18.515 23.5721 18.5212 23.57 18.5274 23.5669C18.5615 23.5488 18.5947 23.5286 18.6273 23.5079C18.6337 23.5035 18.6407 23.5001 18.6475 23.496C18.7254 23.4445 18.7994 23.3844 18.868 23.3159C18.8685 23.3153 18.869 23.3148 18.8695 23.3143C18.8868 23.297 18.9021 23.2781 18.9184 23.2602C18.9339 23.2426 18.9505 23.2261 18.9653 23.2082C18.9813 23.188 18.9953 23.1673 19.0103 23.1466C19.023 23.1293 19.037 23.1122 19.0489 23.0941C19.0631 23.0726 19.0753 23.0501 19.0882 23.0278C19.0985 23.0097 19.1099 22.9926 19.1195 22.9742C19.1319 22.951 19.142 22.9269 19.1526 22.9028C19.1607 22.885 19.1702 22.8676 19.1775 22.8495C19.1876 22.8239 19.1959 22.7975 19.2047 22.7716C19.2103 22.7545 19.2173 22.7377 19.2225 22.7206C19.2303 22.6942 19.2357 22.6671 19.2422 22.6404C19.2461 22.6231 19.2512 22.606 19.2546 22.5886C19.2598 22.5622 19.2626 22.5356 19.266 22.5089C19.2686 22.4908 19.2719 22.473 19.2738 22.4546C19.2763 22.4287 19.2766 22.402 19.2776 22.3756C19.2784 22.3573 19.28 22.3386 19.2802 22.3197C19.28 22.2941 19.2779 22.2682 19.2766 22.2426C19.2756 22.2235 19.2756 22.2043 19.2738 22.1849C19.2712 22.1606 19.2668 22.1365 19.2631 22.1127C19.26 22.092 19.258 22.0713 19.2543 22.0511C19.2499 22.0281 19.2432 22.0058 19.2375 21.983C19.2323 21.9618 19.2282 21.9401 19.222 21.9194C19.2155 21.8974 19.2067 21.8762 19.1992 21.8547C19.1917 21.8332 19.1855 21.8115 19.1767 21.7902C19.1684 21.7701 19.1583 21.7501 19.1488 21.7302C19.1389 21.7085 19.1299 21.6865 19.1187 21.6655C19.1079 21.6453 19.0954 21.6262 19.0838 21.6062C19.0719 21.586 19.061 21.5653 19.0478 21.5459C19.0349 21.5263 19.0199 21.5076 19.0062 21.4887C18.9919 21.4698 18.979 21.4502 18.964 21.4321C18.949 21.4134 18.9319 21.3963 18.9156 21.3785C18.8998 21.3606 18.885 21.3428 18.868 21.3257L6.9067 9.36444C6.14272 8.60046 6.13185 7.34735 6.88186 6.57094C7.24496 6.1975 7.73719 5.98994 8.2755 5.98528C8.8358 5.98036 9.38161 6.20215 9.77292 6.59346L21.7414 18.562C21.7595 18.5801 21.7789 18.5959 21.7978 18.6127C21.8144 18.6277 21.8304 18.6437 21.8478 18.658C21.8672 18.6738 21.8879 18.6872 21.9078 18.702C21.9262 18.7152 21.9435 18.7294 21.9619 18.7416C21.9829 18.7553 22.0049 18.7669 22.0264 18.7796C22.045 18.7905 22.0626 18.8024 22.0817 18.8122C22.1058 18.8249 22.1309 18.8355 22.1555 18.8466C22.1726 18.8544 22.1891 18.8632 22.2065 18.8702C22.2331 18.8808 22.2603 18.8893 22.2875 18.8984C22.3033 18.9038 22.3191 18.9103 22.3354 18.9152C22.3636 18.9238 22.3923 18.9297 22.421 18.9362C22.4363 18.9395 22.4516 18.9445 22.4674 18.9473C22.4969 18.953 22.5269 18.9566 22.5569 18.9603C22.5716 18.9621 22.5861 18.9652 22.6009 18.9665C22.6332 18.9698 22.6659 18.9703 22.6985 18.9714C22.7109 18.9714 22.7233 18.9729 22.7357 18.9729C22.7686 18.9732 22.8012 18.9706 22.8341 18.9683C22.8462 18.9675 22.8584 18.9678 22.8706 18.9665C22.9065 18.9631 22.942 18.9571 22.9775 18.9512C22.9862 18.9496 22.9953 18.9489 23.0046 18.9473C23.0419 18.9401 23.0789 18.9305 23.1157 18.9201C23.1224 18.9181 23.1294 18.9173 23.1361 18.9152C23.1759 18.9033 23.2148 18.8893 23.2538 18.8741C23.2575 18.8725 23.2614 18.8717 23.265 18.8702C23.3051 18.8539 23.3444 18.8353 23.3832 18.8151C23.3856 18.8143 23.3876 18.8133 23.39 18.812C23.4712 18.7695 23.5489 18.7183 23.6224 18.6587C23.6229 18.6582 23.6232 18.658 23.6237 18.6575C23.6604 18.6274 23.6961 18.5953 23.7306 18.5609C23.7308 18.5607 23.7311 18.5604 23.7316 18.5599C23.7492 18.5423 23.7647 18.5231 23.7815 18.5048C23.7968 18.4874 23.8131 18.4711 23.8276 18.4535C23.8442 18.4333 23.8584 18.4119 23.8737 18.3909C23.8861 18.3738 23.8996 18.3572 23.9112 18.3394C23.9267 18.3161 23.9397 18.2918 23.9536 18.268C23.963 18.2519 23.9736 18.2361 23.9821 18.2198C23.9958 18.1932 24.0075 18.166 24.0196 18.1388C24.0261 18.1241 24.0336 18.1098 24.0398 18.0948C24.0512 18.0664 24.0605 18.0374 24.0701 18.0081C24.0748 17.9941 24.0807 17.9804 24.0849 17.9659C24.0934 17.9367 24.0999 17.9069 24.1066 17.8769C24.11 17.8627 24.1141 17.8487 24.117 17.834C24.1232 17.8029 24.1265 17.7716 24.1304 17.7403C24.1322 17.7271 24.1348 17.7136 24.1364 17.7002C24.1392 17.6683 24.1397 17.6362 24.1408 17.6041C24.1413 17.5912 24.1428 17.5783 24.1426 17.5656C24.1426 17.5335 24.1405 17.5014 24.1379 17.4693C24.1374 17.4564 24.1374 17.4434 24.1364 17.4305C24.1333 17.3989 24.1278 17.3676 24.1226 17.3365C24.1203 17.3233 24.1193 17.3099 24.1169 17.2967C24.111 17.2664 24.103 17.2366 24.095 17.2069C24.0913 17.1929 24.089 17.1787 24.0849 17.1647C24.0761 17.1352 24.0649 17.1065 24.0541 17.0775C24.0491 17.0638 24.0453 17.0495 24.0396 17.0361C24.0284 17.0084 24.015 16.9815 24.002 16.9545C23.9951 16.9403 23.9894 16.9253 23.9816 16.9108C23.9684 16.8862 23.9529 16.8619 23.9384 16.8376C23.9288 16.8223 23.9205 16.8063 23.9107 16.7912C23.8954 16.7682 23.8778 16.746 23.8613 16.7237C23.8496 16.7084 23.8393 16.6924 23.8268 16.6774C23.8108 16.6572 23.7922 16.6386 23.7743 16.6191C23.7598 16.6031 23.7463 16.5865 23.7306 16.5707L15.5183 8.35848C15.0279 7.73865 15.0594 6.82767 15.6203 6.24718C15.9086 5.94905 16.3071 5.78134 16.7409 5.77772C17.1943 5.77358 17.6361 5.95293 17.9526 6.26944L29.6967 18.0136L29.7417 18.0576C30.3918 18.6968 31.36 18.8182 32.1506 18.3598C32.9358 17.9043 33.309 17.0099 33.0766 16.1253L33.0717 16.108C32.4889 13.9651 32.4376 9.7441 32.5986 8.68767C32.617 8.56527 32.6563 8.44259 32.7146 8.32225C32.9741 7.78886 33.5684 7.38875 34.1941 7.32613C34.4889 7.29688 34.8965 7.33441 35.1618 7.68146Z"/>
</mask>
<path d="M33.9126 4.52642C32.3269 4.68558 30.8631 5.69283 30.1827 7.09269C30.0005 7.46795 29.8771 7.8621 29.8157 8.26454C29.6594 9.29094 29.6524 11.9097 29.9045 14.2426L19.942 4.28004C19.0952 3.43325 17.9194 2.95369 16.716 2.96404C15.5214 2.97439 14.4106 3.44644 13.5957 4.29246C13.2253 4.67627 12.9388 5.11234 12.7357 5.57689L11.7626 4.6038C10.841 3.68221 9.56122 3.16021 8.25065 3.1716C6.95173 3.18273 5.74753 3.69282 4.85752 4.61596C3.08137 6.45474 3.0749 9.39964 4.81689 11.2498C4.24779 11.4638 3.72294 11.7894 3.26952 12.2164C2.32438 13.1077 1.77029 14.3725 1.75088 15.6864C1.73173 16.9732 2.20869 18.1696 3.09172 19.0526L4.03298 19.9986C3.6585 20.1877 3.3073 20.4375 2.99493 20.7499C1.41858 22.3262 1.41858 24.8909 2.99467 26.467L17.4777 40.948L17.5486 41.0142C19.581 42.7831 21.6061 44.0127 23.5683 44.6685C25.4078 45.2834 27.2502 45.4172 29.0443 45.0663C32.5751 44.376 35.3644 41.9511 37.3999 39.9156C41.3971 35.9184 43.0058 30.3351 41.6033 25.3358C41.4695 24.7646 41.1396 23.282 40.7845 21.6821C40.4382 20.1236 40.1245 18.682 39.8474 17.4106C39.6949 16.7115 39.5565 16.0757 39.4348 15.5223C38.9814 13.4607 38.6191 11.3846 38.358 9.35124C38.2612 8.5971 38.2469 8.38048 38.2446 8.33208C38.2068 7.46458 37.9141 6.6491 37.3978 5.97337C36.5883 4.91281 35.3176 4.38537 33.9126 4.52642ZM35.1618 7.68146C35.3266 7.89756 35.4206 8.1649 35.4333 8.4545C35.44 8.60564 35.461 8.88488 35.5671 9.70942C35.8385 11.8251 36.2151 13.9843 36.6864 16.1269C36.8078 16.6789 36.9457 17.3122 37.0976 18.0097C37.3753 19.2838 37.6903 20.7281 38.0373 22.292C38.4009 23.9295 38.7382 25.4458 38.8709 26.0102L38.8867 26.0711C40.0272 30.0983 38.6952 34.6405 35.4102 37.9254C33.6574 39.6783 31.2881 41.7603 28.5047 42.3046C25.6646 42.86 22.6972 41.7539 19.4327 38.9231L4.98485 24.4774C4.50581 23.9983 4.50581 23.2188 4.98485 22.7398C5.46674 22.2579 6.24857 22.2556 6.72761 22.7346L12.1472 28.1541C12.1632 28.1702 12.1805 28.1839 12.1971 28.1994C12.2157 28.216 12.2336 28.2339 12.253 28.2496C12.2703 28.2639 12.2887 28.276 12.3066 28.2892C12.3265 28.304 12.3459 28.3198 12.3666 28.3338C12.3855 28.3459 12.4054 28.3565 12.4246 28.3679C12.445 28.3801 12.4652 28.3935 12.4864 28.4044C12.5066 28.4153 12.5279 28.4241 12.5486 28.4334C12.5693 28.4432 12.5897 28.4538 12.6112 28.4624C12.6324 28.4712 12.6541 28.4779 12.6756 28.4854C12.6971 28.4929 12.7183 28.5012 12.7401 28.5079C12.7616 28.5144 12.7841 28.5188 12.8061 28.5242C12.8281 28.5297 12.8498 28.5359 12.8718 28.5403C12.8941 28.5444 12.9166 28.5467 12.9388 28.5499C12.9613 28.5532 12.9833 28.5576 13.0056 28.5597C13.0279 28.5618 13.0501 28.5618 13.0721 28.5631C13.0949 28.5641 13.1179 28.5664 13.1407 28.5664C13.1627 28.5662 13.1842 28.5643 13.2064 28.5633C13.2292 28.5623 13.2525 28.5623 13.2755 28.5599C13.2973 28.5579 13.3188 28.554 13.3405 28.5509C13.3635 28.5475 13.3866 28.5452 13.4093 28.5411C13.4306 28.5369 13.4513 28.5307 13.472 28.5255C13.495 28.5201 13.5183 28.5154 13.5413 28.509C13.562 28.5027 13.5822 28.4945 13.6027 28.4875C13.6252 28.48 13.6479 28.4727 13.6702 28.4639C13.6906 28.4559 13.7106 28.4453 13.7305 28.4362C13.752 28.4261 13.774 28.4171 13.7952 28.4062C13.8151 28.3956 13.8345 28.3829 13.8542 28.3715C13.8747 28.3594 13.8954 28.3485 13.915 28.3356C13.935 28.3224 13.9533 28.3076 13.9725 28.2936C13.9914 28.2794 14.0108 28.2667 14.0292 28.252C14.0473 28.237 14.0646 28.2201 14.0822 28.2041C14.0996 28.1883 14.1179 28.1736 14.1347 28.1567C14.1355 28.156 14.1366 28.1549 14.1373 28.1541C14.1718 28.1197 14.2038 28.084 14.2339 28.0473C14.2471 28.0315 14.2582 28.0141 14.2706 27.9976C14.2864 27.9766 14.3032 27.9556 14.3175 27.9336C14.3327 27.9106 14.3457 27.8868 14.3594 27.8633C14.3687 27.8467 14.3796 27.8306 14.3884 27.8141C14.4026 27.7869 14.4148 27.7587 14.4272 27.7307C14.4331 27.717 14.4407 27.7033 14.4463 27.6893C14.458 27.6606 14.467 27.6314 14.4769 27.6024C14.4815 27.5884 14.4872 27.5749 14.4916 27.5607C14.4999 27.5328 14.5056 27.5043 14.5121 27.4761C14.516 27.4603 14.5206 27.4448 14.5235 27.429C14.5289 27.4023 14.532 27.3749 14.5354 27.3477C14.538 27.3301 14.5413 27.3128 14.5429 27.2952C14.5457 27.2696 14.5457 27.2437 14.5468 27.2178C14.5478 27.1987 14.5493 27.1795 14.5499 27.1604C14.5499 27.1355 14.5475 27.1109 14.5462 27.0863C14.5452 27.0661 14.5452 27.0454 14.5434 27.0255C14.5411 27.0025 14.5369 26.9797 14.5336 26.9567C14.5305 26.9349 14.5284 26.9132 14.524 26.8917C14.5198 26.8695 14.5136 26.8482 14.5082 26.8262C14.5028 26.8042 14.4984 26.7817 14.4922 26.76C14.4857 26.7385 14.4774 26.7178 14.4702 26.6966C14.4624 26.6748 14.4557 26.6526 14.4471 26.6311C14.4388 26.6104 14.4282 26.5905 14.4189 26.5703C14.4093 26.5488 14.4003 26.5273 14.3894 26.5061C14.3788 26.4862 14.3666 26.4673 14.355 26.4479C14.3428 26.4274 14.3317 26.4065 14.3188 26.3863C14.3063 26.3676 14.2918 26.3495 14.2781 26.3312C14.2641 26.3115 14.2504 26.2916 14.2352 26.2727C14.2209 26.2548 14.2044 26.2382 14.1888 26.2212C14.1725 26.2028 14.1575 26.1842 14.1402 26.1668L5.08449 17.0651C4.74184 16.7224 4.55731 16.2475 4.56482 15.7281C4.57336 15.1704 4.80472 14.6357 5.19991 14.2643C5.93931 13.5679 7.14791 13.6083 7.89558 14.3559L16.8793 23.3169C16.8974 23.335 16.9169 23.3508 16.9355 23.3674C16.9521 23.3824 16.9684 23.3987 16.9854 23.4127C17.0059 23.4295 17.0274 23.4437 17.0483 23.459C17.0654 23.4714 17.082 23.4849 17.0993 23.4965C17.1231 23.512 17.148 23.5255 17.1723 23.5395C17.1881 23.5485 17.2033 23.5586 17.2191 23.5672C17.2463 23.5814 17.2748 23.5933 17.3027 23.6057C17.3167 23.6119 17.3299 23.6194 17.3439 23.6251C17.3747 23.6373 17.4062 23.6476 17.4376 23.6577C17.4495 23.6614 17.4609 23.6665 17.4725 23.6699C17.5056 23.6797 17.5393 23.687 17.5724 23.6942C17.5833 23.6968 17.5936 23.6999 17.6045 23.702C17.6387 23.7087 17.6728 23.7129 17.707 23.717C17.7176 23.7183 17.7279 23.7204 17.7383 23.7214C17.7756 23.725 17.8128 23.7261 17.8501 23.7266C17.8581 23.7268 17.8654 23.7279 17.8731 23.7279C17.9109 23.7279 17.9487 23.7253 17.9865 23.7222C17.9937 23.7217 18.0007 23.7219 18.008 23.7214C18.0452 23.7178 18.0817 23.7118 18.1182 23.7054C18.1262 23.7041 18.134 23.7036 18.1418 23.702C18.1783 23.695 18.2142 23.6854 18.2499 23.6756C18.2577 23.6735 18.2657 23.6722 18.2737 23.6699C18.3102 23.6588 18.3462 23.6456 18.3822 23.6319C18.3889 23.6293 18.3959 23.6275 18.4026 23.6249C18.4386 23.6101 18.4738 23.593 18.509 23.5754C18.515 23.5721 18.5212 23.57 18.5274 23.5669C18.5615 23.5488 18.5947 23.5286 18.6273 23.5079C18.6337 23.5035 18.6407 23.5001 18.6475 23.496C18.7254 23.4445 18.7994 23.3844 18.868 23.3159C18.8685 23.3153 18.869 23.3148 18.8695 23.3143C18.8868 23.297 18.9021 23.2781 18.9184 23.2602C18.9339 23.2426 18.9505 23.2261 18.9653 23.2082C18.9813 23.188 18.9953 23.1673 19.0103 23.1466C19.023 23.1293 19.037 23.1122 19.0489 23.0941C19.0631 23.0726 19.0753 23.0501 19.0882 23.0278C19.0985 23.0097 19.1099 22.9926 19.1195 22.9742C19.1319 22.951 19.142 22.9269 19.1526 22.9028C19.1607 22.885 19.1702 22.8676 19.1775 22.8495C19.1876 22.8239 19.1959 22.7975 19.2047 22.7716C19.2103 22.7545 19.2173 22.7377 19.2225 22.7206C19.2303 22.6942 19.2357 22.6671 19.2422 22.6404C19.2461 22.6231 19.2512 22.606 19.2546 22.5886C19.2598 22.5622 19.2626 22.5356 19.266 22.5089C19.2686 22.4908 19.2719 22.473 19.2738 22.4546C19.2763 22.4287 19.2766 22.402 19.2776 22.3756C19.2784 22.3573 19.28 22.3386 19.2802 22.3197C19.28 22.2941 19.2779 22.2682 19.2766 22.2426C19.2756 22.2235 19.2756 22.2043 19.2738 22.1849C19.2712 22.1606 19.2668 22.1365 19.2631 22.1127C19.26 22.092 19.258 22.0713 19.2543 22.0511C19.2499 22.0281 19.2432 22.0058 19.2375 21.983C19.2323 21.9618 19.2282 21.9401 19.222 21.9194C19.2155 21.8974 19.2067 21.8762 19.1992 21.8547C19.1917 21.8332 19.1855 21.8115 19.1767 21.7902C19.1684 21.7701 19.1583 21.7501 19.1488 21.7302C19.1389 21.7085 19.1299 21.6865 19.1187 21.6655C19.1079 21.6453 19.0954 21.6262 19.0838 21.6062C19.0719 21.586 19.061 21.5653 19.0478 21.5459C19.0349 21.5263 19.0199 21.5076 19.0062 21.4887C18.9919 21.4698 18.979 21.4502 18.964 21.4321C18.949 21.4134 18.9319 21.3963 18.9156 21.3785C18.8998 21.3606 18.885 21.3428 18.868 21.3257L6.9067 9.36444C6.14272 8.60046 6.13185 7.34735 6.88186 6.57094C7.24496 6.1975 7.73719 5.98994 8.2755 5.98528C8.8358 5.98036 9.38161 6.20215 9.77292 6.59346L21.7414 18.562C21.7595 18.5801 21.7789 18.5959 21.7978 18.6127C21.8144 18.6277 21.8304 18.6437 21.8478 18.658C21.8672 18.6738 21.8879 18.6872 21.9078 18.702C21.9262 18.7152 21.9435 18.7294 21.9619 18.7416C21.9829 18.7553 22.0049 18.7669 22.0264 18.7796C22.045 18.7905 22.0626 18.8024 22.0817 18.8122C22.1058 18.8249 22.1309 18.8355 22.1555 18.8466C22.1726 18.8544 22.1891 18.8632 22.2065 18.8702C22.2331 18.8808 22.2603 18.8893 22.2875 18.8984C22.3033 18.9038 22.3191 18.9103 22.3354 18.9152C22.3636 18.9238 22.3923 18.9297 22.421 18.9362C22.4363 18.9395 22.4516 18.9445 22.4674 18.9473C22.4969 18.953 22.5269 18.9566 22.5569 18.9603C22.5716 18.9621 22.5861 18.9652 22.6009 18.9665C22.6332 18.9698 22.6659 18.9703 22.6985 18.9714C22.7109 18.9714 22.7233 18.9729 22.7357 18.9729C22.7686 18.9732 22.8012 18.9706 22.8341 18.9683C22.8462 18.9675 22.8584 18.9678 22.8706 18.9665C22.9065 18.9631 22.942 18.9571 22.9775 18.9512C22.9862 18.9496 22.9953 18.9489 23.0046 18.9473C23.0419 18.9401 23.0789 18.9305 23.1157 18.9201C23.1224 18.9181 23.1294 18.9173 23.1361 18.9152C23.1759 18.9033 23.2148 18.8893 23.2538 18.8741C23.2575 18.8725 23.2614 18.8717 23.265 18.8702C23.3051 18.8539 23.3444 18.8353 23.3832 18.8151C23.3856 18.8143 23.3876 18.8133 23.39 18.812C23.4712 18.7695 23.5489 18.7183 23.6224 18.6587C23.6229 18.6582 23.6232 18.658 23.6237 18.6575C23.6604 18.6274 23.6961 18.5953 23.7306 18.5609C23.7308 18.5607 23.7311 18.5604 23.7316 18.5599C23.7492 18.5423 23.7647 18.5231 23.7815 18.5048C23.7968 18.4874 23.8131 18.4711 23.8276 18.4535C23.8442 18.4333 23.8584 18.4119 23.8737 18.3909C23.8861 18.3738 23.8996 18.3572 23.9112 18.3394C23.9267 18.3161 23.9397 18.2918 23.9536 18.268C23.963 18.2519 23.9736 18.2361 23.9821 18.2198C23.9958 18.1932 24.0075 18.166 24.0196 18.1388C24.0261 18.1241 24.0336 18.1098 24.0398 18.0948C24.0512 18.0664 24.0605 18.0374 24.0701 18.0081C24.0748 17.9941 24.0807 17.9804 24.0849 17.9659C24.0934 17.9367 24.0999 17.9069 24.1066 17.8769C24.11 17.8627 24.1141 17.8487 24.117 17.834C24.1232 17.8029 24.1265 17.7716 24.1304 17.7403C24.1322 17.7271 24.1348 17.7136 24.1364 17.7002C24.1392 17.6683 24.1397 17.6362 24.1408 17.6041C24.1413 17.5912 24.1428 17.5783 24.1426 17.5656C24.1426 17.5335 24.1405 17.5014 24.1379 17.4693C24.1374 17.4564 24.1374 17.4434 24.1364 17.4305C24.1333 17.3989 24.1278 17.3676 24.1226 17.3365C24.1203 17.3233 24.1193 17.3099 24.1169 17.2967C24.111 17.2664 24.103 17.2366 24.095 17.2069C24.0913 17.1929 24.089 17.1787 24.0849 17.1647C24.0761 17.1352 24.0649 17.1065 24.0541 17.0775C24.0491 17.0638 24.0453 17.0495 24.0396 17.0361C24.0284 17.0084 24.015 16.9815 24.002 16.9545C23.9951 16.9403 23.9894 16.9253 23.9816 16.9108C23.9684 16.8862 23.9529 16.8619 23.9384 16.8376C23.9288 16.8223 23.9205 16.8063 23.9107 16.7912C23.8954 16.7682 23.8778 16.746 23.8613 16.7237C23.8496 16.7084 23.8393 16.6924 23.8268 16.6774C23.8108 16.6572 23.7922 16.6386 23.7743 16.6191C23.7598 16.6031 23.7463 16.5865 23.7306 16.5707L15.5183 8.35848C15.0279 7.73865 15.0594 6.82767 15.6203 6.24718C15.9086 5.94905 16.3071 5.78134 16.7409 5.77772C17.1943 5.77358 17.6361 5.95293 17.9526 6.26944L29.6967 18.0136L29.7417 18.0576C30.3918 18.6968 31.36 18.8182 32.1506 18.3598C32.9358 17.9043 33.309 17.0099 33.0766 16.1253L33.0717 16.108C32.4889 13.9651 32.4376 9.7441 32.5986 8.68767C32.617 8.56527 32.6563 8.44259 32.7146 8.32225C32.9741 7.78886 33.5684 7.38875 34.1941 7.32613C34.4889 7.29688 34.8965 7.33441 35.1618 7.68146Z" fill="black" stroke="white" stroke-width="0.3" mask="url(#path-1-inside-1)"/>
</g>
<defs>
<clipPath id="clip0">
<rect width="48" height="48" fill="white"/>
</clipPath>
</defs>
</svg>
