<svg width="48" height="48" viewBox="0 0 512 512" fill="none" xmlns="http://www.w3.org/2000/svg">
    <g clip-path="url(#clip0)">
        <path d="M170.667 170.667C76.41 170.667 0 247.077 0 341.333C0 435.589 76.41 512 170.667 512C264.877 511.888 341.222 435.544 341.334 341.333C341.333 247.077 264.923 170.667 170.667 170.667ZM170.667 490.667C88.192 490.667 21.334 423.808 21.334 341.334C21.334 258.86 88.192 192 170.667 192C253.105 192.088 319.912 258.895 320 341.333C320 423.808 253.141 490.667 170.667 490.667Z" fill="black"/>
        <path d="M416 0C362.981 0 320 42.981 320 96C320 149.019 362.981 192 416 192C468.995 191.941 511.941 148.995 512 96C512 42.981 469.019 0 416 0ZM416 170.667C374.763 170.667 341.333 137.238 341.333 96C341.333 54.762 374.763 21.333 416 21.333C457.218 21.38 490.62 54.782 490.667 96C490.667 137.237 457.237 170.667 416 170.667Z" fill="black"/>
        <path d="M355.124 141.788L269.789 227.123L284.874 242.208L370.209 156.873L355.124 141.788Z" fill="black"/>
        <path d="M448 384C412.654 384 384 412.654 384 448C384 483.346 412.654 512 448 512C483.332 511.965 511.965 483.332 512 448C512 412.654 483.346 384 448 384ZM448 490.667C424.436 490.667 405.333 471.565 405.333 448C405.333 424.436 424.435 405.333 448 405.333C471.564 405.333 490.667 424.435 490.667 448C490.667 471.564 471.564 490.667 448 490.667Z" fill="black"/>
        <path d="M323.728 384.674L316.234 404.658L401.565 436.656L409.059 416.672L323.728 384.674Z" fill="black"/>
        <path d="M248.704 416.555C233.056 411.361 217.689 405.354 202.667 398.56V398.069C228.689 385.7 245.287 359.478 245.334 330.666V298.666C245.334 257.429 211.905 223.999 170.667 223.999C129.429 223.999 96 257.429 96 298.667V330.667C96.046 359.479 112.645 385.701 138.667 398.07V398.561C123.644 405.355 108.278 411.361 92.63 416.556C53.782 429.505 53.334 457.484 53.334 458.668L74.667 458.956C74.667 458.38 75.734 444.663 99.371 436.833C118.069 430.724 136.351 423.41 154.102 414.934C157.736 413.118 160.023 409.396 160.001 405.334V390.945C159.998 386.43 157.153 382.405 152.897 380.897C131.62 373.351 117.384 353.243 117.334 330.668V298.668C117.334 269.213 141.212 245.335 170.667 245.335C200.122 245.335 224 269.211 224 298.667V330.667C223.951 353.243 209.715 373.35 188.437 380.896C184.181 382.404 181.336 386.429 181.333 390.944V405.333C181.311 409.395 183.598 413.117 187.232 414.933C204.981 423.39 223.259 430.687 241.952 436.778C265.6 444.661 266.667 458.378 266.667 458.954L277.334 458.666H288C288 457.483 287.552 429.504 248.704 416.555Z" fill="black"/>
    </g>
    <defs>
        <clipPath id="clip0">
            <rect width="512" height="512" fill="white"/>
        </clipPath>
    </defs>
</svg>