<svg width="802" height="204" viewBox="0 0 802 204" fill="none" xmlns="http://www.w3.org/2000/svg">
<path d="M52 154C63 122 76 171.626 76 133.5C76 98.4999 107 97.5 124 105C141 112.5 135.5 136 123 133.5C110.5 131 95.722 89.494 110.5 78C124 67.5 133 61.5 194.5 67.5C223.363 70.3159 234.059 89.268 262 81.5002C289.159 73.9497 269.122 32.182 297 28.0002C327 23.5 353.529 53.3584 366 70.9999C407 128.999 433.363 74.0096 463.5 61.5C516.5 39.5 539 123 506.5 116C484.536 111.269 547.5 17.9997 603 94C621.247 118.987 637.282 107.407 662.5 114.5C694.5 123.5 697.5 81.5 680 88C662.5 94.5 741.5 135 741.5 170C741.5 203.69 739.543 173.96 773 170" stroke="#E0E0E0" stroke-width="2"/>
<g filter="url(#filter0_d)">
<circle r="37.6412" transform="matrix(-1 0 0 1 59.5 143.5)" stroke="#367BF6" stroke-width="3.71765"/>
</g>
<g clip-path="url(#clip0)">
<rect width="72" height="72" rx="36" transform="matrix(-1 0 0 1 95.5 108)" fill="white"/>
<rect opacity="0.15" x="-26.0802" y="66.2159" width="520.922" height="520.922" fill="url(#paint0_linear)"/>
<g clip-path="url(#clip1)">
<g clip-path="url(#clip2)">
<path d="M19.7622 163.472C26.016 160.53 32.7744 158.513 39.6799 157.974C41.8687 161.685 44.814 164.694 48.3679 167.131C51.6374 169.373 55.1491 170.92 59.207 170.989C64.9953 171.086 69.5548 166.861 71.114 161.266C71.3881 160.281 71.5932 159.278 71.8308 158.283C83.3473 156.657 91.5756 163.356 102.815 164.597C105.1 168.482 107.384 172.272 109.489 176.259C111.809 180.653 114.597 184.74 116.759 189.212C116.092 189.878 115.68 191.297 115.16 191.726C114.717 192.091 114.332 192.666 113.56 195.153C111.504 201.78 107.821 195.251 108.154 204.913C156.352 215.244 102.746 219.854 94.139 223.572C73.9993 232.273 47.5997 232.113 34.4853 212.029C31.6319 207.658 28.6332 203.381 25.7224 199.047C25.3377 198.474 25.1476 197.454 24.3846 197.623C19.4241 198.686 19.7784 199.04 15.8808 199.04C14.9173 197.113 12.0377 196.177 10.901 194.355C6.77804 187.746 7.4578 180.009 3.36216 173.384C3.25669 173.212 3.20331 173.009 3.12518 172.82C3.38755 172.662 3.6421 172.488 3.91423 172.348C7.95422 170.272 14.5429 165.928 19.7622 163.472Z" fill="#002E31"/>
<path d="M49.0786 152.652C50.824 147.956 47.8123 143.204 45.9074 138.723C45.7817 138.354 45.6535 137.986 45.5155 137.621C47.4243 138.38 48.5122 139.956 49.2901 141.851C49.5466 142.477 49.7843 143.127 49.6209 143.779C49.4412 144.499 49.8188 144.917 50.1886 145.415C52.906 149.083 56.5316 151.564 60.6285 153.435C60.2418 154.838 60.3805 155.117 61.7008 155.814C65.2567 157.693 68.1533 158.292 72.1155 158.267C71.8779 159.262 71.7228 160.281 71.4481 161.266C69.868 166.93 64.995 171.086 59.2073 170.989C55.1494 170.921 51.6371 169.373 48.3683 167.131C44.8794 164.739 41.9784 161.794 39.802 158.175C43.6275 157.796 47.8885 155.854 49.0786 152.652Z" fill="#9C603D"/>
<path d="M44.5392 137.347C45.5159 139.053 45.2716 140.516 46.7365 142.71C47.713 144.172 49.452 144.422 50.1877 145.414C52.9051 149.083 56.5307 151.563 60.6277 153.435C61.0671 153.381 61.418 153.619 61.778 153.803C64.5221 155.214 67.3984 155.283 70.3001 154.51C76.481 152.865 77.8182 145.82 75.3449 141.979C73.7212 139.457 71.6848 137.921 68.7057 137.639C68.3489 137.605 67.996 137.503 67.6406 137.497C64.6003 137.455 61.6198 137.109 58.8106 135.841C58.4116 136.667 58.03 137.503 57.6101 138.318C57.2143 139.087 56.8146 139.854 56.1577 140.458C54.7781 141.725 53.5067 141.785 52.0659 140.614C50.1773 139.078 49.0543 137.031 48.3062 134.778C47.7535 133.114 48.5426 131.617 50.1649 130.929C51.2085 130.488 52.3244 130.327 53.4129 130.056C51.3146 127.343 47.9801 127.151 45.7783 129.622C44.986 130.511 44.387 131.501 44.012 132.649C43.4424 134.391 43.3186 135.397 44.5392 137.347Z" fill="#002E31"/>
<path d="M53.4127 130.057C52.3248 130.328 51.2083 130.489 50.1647 130.93C48.5423 131.617 47.7533 133.115 48.306 134.779C49.054 137.032 50.1771 139.079 52.0663 140.615C53.5064 141.786 54.7779 141.726 56.1574 140.458C56.8143 139.855 57.2141 139.088 57.6099 138.319C58.0298 137.504 58.4113 136.668 58.8104 135.842C57.399 134.796 56.274 133.49 55.2727 132.054C54.7532 131.309 54.2167 130.551 53.4127 130.057Z" fill="#9C603D"/>
<path d="M43.2406 135.291C42.3461 132.662 43.8591 129.844 45.5746 127.658C47.2901 125.473 49.3486 123.322 49.7646 120.577C50.1429 118.086 49.1182 115.314 50.3883 113.136C52.1656 110.089 55.9494 109.349 58.8537 111.284C66.0756 116.094 58.7144 127.36 53.1012 129.959C52.0563 130.443 50.9365 130.764 49.9293 131.321C48.9228 131.879 48.0029 132.742 47.7471 133.863C47.443 135.197 47.8903 137.3 45.9652 137.614C44.6514 137.828 43.6137 136.387 43.2406 135.291Z" fill="#002E31"/>
<path d="M57.4193 142.165C58.3386 142.663 59.4857 142.439 60.084 141.595C60.6829 140.75 60.5117 139.595 59.7357 138.896L57.4193 142.165Z" fill="white"/>
</g>
</g>
</g>
<g filter="url(#filter1_d)">
<circle r="43" transform="matrix(-1 0 0 1 741 146)" stroke="#FF2E00" stroke-width="4"/>
</g>
<g clip-path="url(#clip3)">
<rect width="81" height="81" rx="40.5" transform="matrix(-1 0 0 1 781.5 105.5)" fill="white"/>
<rect opacity="0.15" width="93.5183" height="93.5183" transform="matrix(-1 0 0 1 781.5 105.5)" fill="url(#paint1_linear)"/>
<path d="M719.685 168.27C717.454 179.424 712.157 205.247 709.82 216.628C709.175 219.766 711.052 222.872 714.13 223.76C717.393 224.701 720.801 222.814 721.733 219.549L735.438 171.576C736.431 167.048 733.404 162.619 728.826 161.901C724.562 161.232 720.532 164.039 719.685 168.27Z" fill="#F3A396"/>
<path d="M738.059 172.203C738.059 166.459 733.403 161.802 727.659 161.802C722.563 161.802 718.331 165.47 717.439 170.309L717.432 170.307L712.998 190.58L733.178 195.256L737.587 175.308C737.894 174.327 738.059 173.284 738.059 172.203Z" fill="#006189"/>
<path d="M729.81 174.195C734.789 169.216 735.821 162.412 731.764 158.354C726.38 156.208 725.491 154.36 717.092 158.553L706.275 164.285L696.178 172.424L706.378 190.732L726.785 176.554C727.852 175.92 728.873 175.133 729.81 174.195Z" fill="#006189"/>
<path d="M737.426 155.826H745.096H752.459L769.705 162.768L765.834 222.406H745.096H724.152L723.94 162.407L737.426 155.826Z" fill="#006189"/>
<path d="M774.805 171.115C776.285 182.393 779.842 208.512 781.413 220.025C781.847 223.198 779.765 226.171 776.636 226.852C773.316 227.572 770.043 225.461 769.33 222.141L758.866 173.358C758.179 168.774 761.496 164.559 766.113 164.148C770.409 163.765 774.245 166.837 774.805 171.115Z" fill="#F3A396"/>
<path d="M757.285 172.446C757.488 166.706 762.006 162.229 767.376 162.447C772.14 162.639 775.967 166.465 776.629 171.333L776.637 171.331L780.063 191.758L760.707 193.749L757.616 175.567C757.365 174.575 757.247 173.527 757.285 172.446Z" fill="#006189"/>
<path d="M757.391 172.427C757.593 166.655 762.092 162.152 767.439 162.371C772.183 162.565 775.993 166.412 776.652 171.308L776.66 171.306L780.071 191.85L760.798 193.851L757.721 175.566C757.471 174.569 757.353 173.514 757.391 172.427Z" fill="#006189"/>
<path d="M750.58 152.251C748.928 147.807 751.778 143.311 753.58 139.071C753.699 138.721 753.821 138.373 753.951 138.028C752.145 138.746 751.116 140.238 750.379 142.03C750.137 142.622 749.912 143.238 750.067 143.855C750.237 144.536 749.879 144.932 749.529 145.403C746.958 148.874 742.333 145.627 738.456 147.398C740.309 151.311 740.014 154.297 738.456 155.12C735.091 156.899 733.762 157.512 730.013 157.489C730.237 158.43 731.145 160.372 731.145 160.372C731.145 160.372 735.519 169.695 740.995 169.603C744.835 169.538 748.159 168.074 751.252 165.952C754.553 163.688 757.504 161.943 759.564 158.518C756.063 157.565 751.706 155.281 750.58 152.251Z" fill="#FFCC8F"/>
<path d="M755.77 137.616L758.41 126.51C759.475 120.573 753.429 117.435 749.774 117.435H737.113C733.236 117.435 728.618 120.55 730.584 127.241L732.793 135.66L755.77 137.616Z" fill="#1A1A1A"/>
<path d="M731.978 131.015C731.978 135.003 732.665 138.443 733.351 140.886C734.037 143.328 733.79 145.226 736.635 146.657C743.724 150.226 752.497 146.862 753.958 140.851C755.092 136.184 755.216 131.015 755.216 131.015C755.216 131.015 756.295 120.95 743.763 121.145C731.23 121.341 731.978 131.015 731.978 131.015Z" fill="#FFCC8F"/>
<path d="M740.412 151.105C740.501 150.429 739.718 149.206 739.588 148.53C739.603 148.068 738.67 148.026 738.271 147.892C737.279 147.558 736.279 147.207 735.377 146.649C733.875 145.723 732.971 144.518 732.478 143.15C731.985 141.786 731.898 140.259 732.023 138.677C732.209 136.333 732.531 133.996 732.733 131.645C732.764 131.286 732.8 130.918 732.903 130.559C732.971 130.313 733.066 130.071 733.212 129.836C738.009 131.545 741.993 129.966 745.603 126.906C746.736 125.939 747.799 124.884 748.906 123.883C749.848 123.031 750.022 123.064 750.632 124.244C751.585 126.098 752 128.106 752.285 130.148C752.343 130.579 752.382 131.011 752.432 131.441C752.511 132.148 752.808 132.403 753.557 132.17C754.37 131.918 755.167 131.64 756.071 132.146C757.122 132.741 757.651 133.589 757.616 134.714C757.556 136.456 756.875 137.989 755.567 139.17C754.803 139.861 753.86 140.279 752.817 139.999C751.856 139.738 751.486 140.148 751.183 140.972C750.601 142.574 749.359 143.998 749.904 145.891C749.975 147.558 749.992 149.227 750.146 150.883C750.573 155.467 739.519 157.885 740.412 151.105Z" fill="#FFCC8F"/>
<path d="M731.083 113.943C735.339 111.249 743.318 113.069 747.746 115.098C747.518 111.843 755.699 117.681 754.211 122.15C754.211 122.15 754.181 122.165 754.136 122.187C754.949 123.952 756.134 125.348 755.136 132.159C755.136 132.159 752.943 127.155 752.886 122.761C749.431 124.284 738.968 127.538 732.793 125.466C731.696 127.076 732.175 127.629 732.175 127.629C731.528 123.216 730.218 127.629 730.013 123.201C728.674 121.039 725.894 117.229 731.083 113.943Z" fill="#1A1A1A"/>
<path d="M742.284 132.056C742.284 134.217 744.082 135.969 746.3 135.969C748.518 135.969 750.315 134.217 750.315 132.056C750.315 129.895 748.518 128.143 746.3 128.143C744.082 128.143 742.284 129.895 742.284 132.056Z" stroke="#1A1A1A" stroke-width="1.63657" stroke-miterlimit="10" stroke-linecap="round" stroke-linejoin="round"/>
<path d="M731.39 132.056C731.39 134.217 733.188 135.969 735.406 135.969C737.624 135.969 739.421 134.217 739.421 132.056C739.421 129.895 737.624 128.143 735.406 128.143C733.188 128.143 731.39 129.895 731.39 132.056Z" stroke="#1A1A1A" stroke-width="1.63657" stroke-miterlimit="10" stroke-linecap="round" stroke-linejoin="round"/>
<path d="M741.676 132.056C741.676 132.056 740.822 131.129 740.029 132.056" stroke="#1A1A1A" stroke-width="1.63657" stroke-miterlimit="10" stroke-linecap="round" stroke-linejoin="round"/>
<path d="M745.711 140.794L736.185 141.191C736.185 141.191 736.465 143.611 740.839 143.428C745.214 143.246 745.711 140.794 745.711 140.794Z" fill="white"/>
</g>
<g filter="url(#filter2_d)">
<g clip-path="url(#clip4)">
<rect width="104" height="104" rx="52" transform="matrix(-1 0 0 1 453 4)" fill="white"/>
<rect opacity="0.15" width="151.967" height="151.967" transform="matrix(-1 0 0 1 453 4)" fill="url(#paint2_linear)"/>
<path d="M404.841 17.6614C404.841 17.6614 397.747 13.5659 390.818 18.7653C383.887 23.9637 387.872 28.3919 382.014 30.6926C376.156 32.9934 379.29 41.5272 372.425 44.4828C365.56 47.4382 368.802 56.987 375.295 59.0193C375.295 59.0193 377.543 67.7838 384.628 67.7573C384.628 67.7573 390.295 75.6752 403.414 72.5183L408.27 71.1339L404.841 17.6614Z" fill="#ED6337"/>
<path d="M430.098 22.9996C430.098 22.9996 438.365 25.0226 439.157 32.6548C439.949 40.286 439.555 38.4587 443.735 42.7669C447.916 47.0752 441.611 50.7131 444.844 54.9163C446.495 57.0626 447.197 58.745 447.17 60.5903C447.124 63.8411 444.58 66.4577 441.373 66.9943C439.185 67.3602 437.229 69.1726 435.661 71.7616C432.552 76.9001 423.864 73.5453 423.864 73.5453C423.864 73.5453 414.857 77.525 410.086 73.2876C405.315 69.0512 418.763 19.5367 418.763 19.5367L430.098 22.9996Z" fill="#ED6337"/>
<path d="M397.465 17.2511C397.465 17.2511 401.735 9.81633 413.964 11.1852C426.192 12.5539 428.639 24.9681 428.639 24.9681L409.76 32.6671L397.465 17.2511Z" fill="#ED6337"/>
<path d="M421.189 48.0253C419.76 50.4514 418.361 54.1311 421.718 55.7699C424.06 56.9128 427.303 53.9853 428.732 51.5583C430.161 49.1321 429.712 46.8327 427.389 45.6495C425.067 44.4665 422.618 45.5992 421.189 48.0253Z" fill="#FFB599"/>
<path d="M386.149 30.8887C385.018 41.0002 393.144 50.2104 404.3 51.4592C415.455 52.708 426.646 45.2426 427.778 35.1311C428.91 25.0197 419.554 16.0903 408.399 14.8415C397.243 13.5927 387.281 20.7772 386.149 30.8887Z" fill="#ED6337"/>
<path d="M410.957 61.0903C410.957 61.0903 409.618 68.5178 409.585 73.3537C409.551 78.1896 414.682 85.8279 414.682 85.8279L392.792 82.7234C392.792 82.7234 397.239 76.8846 398.299 72.0904C399.361 67.2878 396.555 63.1309 396.555 63.1309L410.957 61.0903Z" fill="#FFB599"/>
<path d="M408.744 19.1241C417.658 20.122 424.712 28.3105 423.703 37.3243L421.979 48.0846C421.979 48.0846 420.077 63.4011 405.82 66.5291C404.24 66.8753 399.865 65.5265 398.399 64.8393C387.35 63.669 389.433 44.4413 389.433 44.4413L390.131 33.5661C391.14 24.5523 399.83 18.1263 408.744 19.1241Z" fill="#FFB599"/>
<path d="M407.728 54.3227L399.226 53.371C399.226 53.371 399.209 56.1373 403.171 56.5808C406.684 56.9741 407.728 54.3227 407.728 54.3227Z" fill="white"/>
<path d="M396.958 17.1947C396.958 17.1947 396.832 25.8392 406.32 28.2736C415.995 30.7565 413.222 36.2606 425.315 36.2202C425.315 36.2202 430.331 30.4549 424.654 23.2898C420.896 18.5473 413.022 14.0611 407.029 13.9923C405.013 13.9705 399.89 16.9406 396.958 17.1947Z" fill="#ED6337"/>
<path d="M398.144 17.9378C398.144 17.9378 403.574 24.7829 385.362 34.0442C385.362 34.0442 385.016 30.4549 387.252 27.0689C389.488 23.6829 398.144 17.9378 398.144 17.9378Z" fill="#ED6337"/>
<path d="M354.062 97.0713C355.812 91.5482 360.061 87.5842 365.076 86.0899C365.396 85.9339 365.73 85.8044 366.085 85.7171L404.827 75.8306L437.112 93.8284C437.626 94.08 438.125 94.358 438.608 94.6626L438.658 94.6905C438.682 94.7038 438.699 94.7222 438.724 94.7355C442.868 97.395 445.797 101.958 446.254 107.39L446.547 110.847L353.012 100.377L354.062 97.0713Z" fill="white"/>
<path d="M353.494 102.139C355.366 95.5392 359.708 90.7397 364.767 88.8584C365.09 88.6664 365.428 88.5054 365.785 88.3942L404.827 75.8308L436.809 96.5359C437.319 96.824 437.813 97.144 438.291 97.4957L438.34 97.5277C438.364 97.5431 438.381 97.5646 438.406 97.5799C442.503 100.653 445.343 106.012 445.687 112.458L445.908 116.559L352.373 106.089L353.494 102.139Z" fill="white"/>
<path d="M322.391 92.2166C323.521 90.4991 325.05 89.1315 326.78 87.9835C329.863 85.6533 336.718 82.2633 336.718 82.2633C339.413 81.3504 342.13 80.5984 344.992 80.7387C349.245 80.9473 351.847 82.9155 352.947 86.8506C353.367 88.3507 353.661 89.8866 354.057 91.394C354.51 93.1202 354.641 93.1417 356.298 92.3545C357.572 91.7488 363.516 89.1329 364.998 88.4131C368.76 86.5868 372.397 84.5104 376.22 82.8126C377.586 82.2059 379.347 81.6446 381.191 81.0069C382.164 83.4525 383.31 85.812 384.811 88.0153C385.164 112.37 383.748 117.246 382.583 117.52C375.002 119.296 367.627 121.827 360.145 123.963C355.912 125.172 351.6 125.931 347.201 125.591C343.896 125.337 341.149 124.13 339.215 121.491C338.295 120.237 337.366 118.987 336.484 117.706C333.711 113.679 330.714 109.848 326.783 106.806C325.544 105.847 324.314 104.872 323.246 103.723C320.162 100.402 319.816 96.1293 322.391 92.2166Z" fill="white"/>
<path d="M392.351 84.2654C392.613 84.4089 392.793 84.7035 393.012 84.929C391.354 88.0725 389.686 91.2106 388.041 94.361C384.594 100.963 383.285 108.028 383.446 115.428C383.583 121.677 382.348 127.667 379.876 133.411C377.657 138.564 375.443 143.718 373.299 148.901C371.921 152.232 371.428 155.737 371.548 159.338C371.574 160.147 371.898 160.881 371.992 161.648C372.006 161.765 372.029 161.882 372.055 161.997C372.051 161.991 372.046 161.985 372.041 161.978C368.442 156.174 365.538 149.35 363.687 142.786C361.964 136.675 362.721 130.393 362.581 124.145C363.075 118.901 363.693 113.792 362.826 108.535C361.998 103.516 360.583 98.4855 358.504 93.8407C359.283 85.1454 378.576 74.7477 392.351 84.2654Z" fill="white"/>
<path d="M424.726 86.913L404.211 75.3687L384.917 80.7546C384.917 80.7546 378.369 90.6534 394.763 93.8677C415.306 97.8952 424.726 86.913 424.726 86.913Z" fill="#FFB599"/>
</g>
</g>
<g filter="url(#filter3_d)">
<g clip-path="url(#clip5)">
<rect x="146" y="22" width="112" height="112" rx="56" fill="white"/>
<rect opacity="0.1" x="146" y="22" width="118" height="118" fill="url(#paint3_linear)"/>
<path d="M253.528 161.02C258.044 157.28 261.698 152.782 264.022 147.377C264.032 147.259 264.037 147.141 264.034 147.024C264.012 146.254 264.222 145.483 264.127 144.683C263.707 141.122 262.697 137.744 260.842 134.672C257.955 129.889 255.003 125.147 252.048 120.407C248.753 115.122 246.642 109.41 245.843 103.238C244.897 95.9311 248.795 87.8293 244.412 81.8441C242.32 78.9885 246.295 67.7447 242.058 68.6846C239.705 69.2068 227.515 76.8883 226.113 78.378C226.668 79.466 227.658 79.9631 228.467 80.8084C231.106 83.5645 231.291 85.8579 229.547 89.3082C228.417 91.5447 226.235 92.1922 223.442 91.5633C220.17 90.8263 218.169 88.5752 217.966 85.3393C217.903 84.3225 217.96 83.2968 217.961 82.2761C217.535 82.2741 217.324 82.4205 217.131 82.869C216.409 84.5531 208.327 87.76 207.698 89.3638C204.494 97.5406 205.435 104.818 206.847 113.277C207.94 119.822 212.131 124.087 212.602 134.896C212.827 140.066 213.009 141.384 212.496 147.024C212.025 152.194 211.3 155.364 212.602 161.215C213.161 163.728 198.644 168.81 200.775 170.938C203.404 173.563 221.766 172.437 229.867 170.938C238.293 168.521 245.444 167.325 253.528 161.02Z" fill="#FBE3C7"/>
<path d="M192.2 134C192.373 133.677 192.587 134.414 193.192 134.31C193.394 134.639 193.823 133.936 193.83 134.31C193.866 136.247 193.77 137.106 193.83 139.042C194.027 145.3 193.386 148.408 191.777 154.445C191.512 156.461 191.271 158.465 191.895 160.427C192.277 164.94 195.98 169.465 199.364 170.835C204.684 172.988 209.27 172.937 215.267 172.437C215.271 170.415 214.768 167.939 215.822 164.316C216.336 158.075 217.447 151.906 218.073 145.681C218.507 141.36 218.168 137.055 217.464 132.763C216.632 127.696 215.606 122.672 213.893 117.836C212.391 113.594 211.016 109.312 209.57 105.053C208.54 102.022 207.891 98.8963 207.537 95.7293C207.285 93.4852 207.441 91.2165 207.784 88.9716C201.401 89.8074 195.007 91.1709 189.388 94.4699C188.834 94.7955 188.306 95.1482 187.794 95.5178C185.983 97.3259 184.52 99.472 183.504 102.052C182.922 103.532 182.264 105.027 181.203 106.24C178.465 109.369 176.702 112.947 175.937 117.026C175.542 119.126 174.44 120.693 172.422 121.558C169.482 122.821 167.454 124.95 166.364 127.963C166.209 128.391 165.983 128.792 165.802 129.21C165.059 130.922 163.915 132.301 162.486 133.505C160.804 134.922 158.837 135.849 156.957 136.926C155.406 137.815 153.937 138.792 152.951 140.332C149.524 145.692 149.465 151.179 152.468 156.706C154.061 159.639 156.625 161.954 159.534 163.552C163.919 165.96 168.686 166.732 173.503 165.236C178.282 163.752 181.069 160.519 181.707 155.525C181.952 153.603 182.366 151.706 182.466 149.764C182.499 149.142 182.657 148.546 183.244 148.13C185.51 146.522 186.817 144.165 188.096 141.802C189.669 138.891 190.637 136.916 192.2 134Z" fill="#FFAC00"/>
<path d="M216.521 78.3135C215.83 78.8292 215.09 79.2738 214.293 79.6277C214.119 79.7047 213.941 79.7778 213.761 79.8451C209.846 81.3222 205.522 80.5344 201.628 82.2113C197.862 83.8336 194.875 86.7789 192.249 89.847C188.362 94.3893 184.839 99.5077 179.618 102.426C170.148 106.79 157.673 98.9932 154.884 93.8161C153.492 91.8097 153.269 91.0577 152.215 88.8572C151.231 86.805 150.633 83.3379 150.654 81.0604C150.699 76.408 151.645 71.4714 155.333 68.4296C163.91 60.7888 171.017 67.2265 181.5 70.6865C183.486 71.3427 185.673 71.8457 187.64 71.1331C190.736 70.0109 192.061 66.4124 192.73 63.1921C193.744 58.3096 194.146 53.2643 195.881 48.5875C198.017 42.8334 202.4 37.713 208.209 35.7085C214.018 33.7041 221.189 35.3683 224.764 40.359C227.326 43.9332 227.811 48.5973 227.527 52.9826C227.181 58.3223 225.804 63.5899 223.52 68.4295C221.868 71.9286 219.738 75.9034 216.521 78.3135Z" fill="#002E31"/>
<path d="M226.168 78.4426C224.187 77.0611 223.652 75.9165 224.476 74.1977C225.924 71.1783 226.895 68.0751 226.678 64.6881C226.614 63.6791 227.067 63.2842 228.053 63.2716C228.999 63.2608 229.639 62.6573 230.153 61.9281C232.313 58.8609 231.088 54.0213 227.715 52.2762C227.571 52.6418 227.44 53.0122 227.283 53.371C226.197 55.8464 225.036 56.289 222.663 54.9719C220.655 53.8565 219.292 52.128 218.729 49.9022C218.693 49.755 218.651 49.6224 218.605 49.5034C216.309 49.7998 213.984 49.5717 211.741 48.9731C211.607 54.1909 209.863 59.6126 206.909 63.761C206.151 64.8276 205.077 66.0053 203.835 67.0797C204.885 70.9443 207.386 73.681 210.636 75.899C212.549 77.2025 214.819 77.648 216.852 78.6522C217.318 78.7878 217.723 78.9788 217.748 79.555C217.796 80.6382 217.9 81.7301 217.217 82.6904C217.216 83.7112 217.159 84.7368 217.223 85.7537C217.425 88.9895 219.427 91.2407 222.699 91.9777C225.491 92.6066 228.564 91.5293 229.694 89.2927C231.438 85.8424 231.253 83.7112 228.614 80.955C227.805 80.1098 226.722 79.5307 226.168 78.4426Z" fill="#E57C2F"/>
<path d="M231.873 58.1397C231.873 61.7099 230.16 64.6035 228.046 64.6035C225.933 64.6035 224.219 61.7099 224.219 58.1397C224.219 54.5694 225.933 51.6758 228.046 51.6758C230.16 51.6758 231.873 54.5694 231.873 58.1397Z" fill="#E57C2F"/>
<path d="M216.208 66.2421C216.567 67.8068 215.759 69.4106 214.258 69.9449C212.758 70.4801 211.116 69.7499 210.401 68.3119L216.208 66.2421Z" fill="white"/>
<path fill-rule="evenodd" clip-rule="evenodd" d="M291.338 48.1572C293.404 48.2856 295.406 48.7038 297.238 49.6221C301.411 51.7137 303.242 55.5691 302.235 59.9674C301.886 61.4897 301.309 62.9419 300.717 64.3858C298.839 68.9645 298.161 73.7592 297.774 78.6112C297.67 79.9219 297.525 81.23 297.38 82.5371C297.354 82.769 297.329 83.0009 297.303 83.2327C296.949 86.4705 295.179 88.8783 292.452 90.7422C288.823 93.2247 284.721 94.7169 280.464 95.7809C277.881 96.427 275.286 97.0267 272.69 97.6264C270.334 98.1708 267.978 98.7153 265.631 99.2944C266.061 102.047 266.742 104.749 267.431 107.483C267.538 107.906 267.644 108.329 267.75 108.753C267.961 110.392 268.235 112.024 268.509 113.654C269.265 118.163 270.02 122.66 269.442 127.265C268.598 134.002 266.754 141.151 264.073 147.4C264.072 147.403 264.07 147.405 264.069 147.408C264.066 147.412 264.064 147.417 264.062 147.421C264.071 147.303 264.076 147.185 264.073 147.068C264.063 146.737 264.097 146.406 264.13 146.072C264.175 145.63 264.22 145.184 264.166 144.728C263.746 141.166 262.736 137.79 260.881 134.717C257.994 129.935 255.042 125.193 252.086 120.451C248.792 115.166 246.681 109.455 245.882 103.284C244.936 95.9765 242.592 89.2182 238.208 83.234C237.138 81.7724 235.943 80.2879 234.749 78.805C233.61 77.3909 232.473 75.9783 231.446 74.5886C231.632 74.4647 231.804 74.3588 231.959 74.2638C232.154 74.1436 232.321 74.0406 232.453 73.9399C237.096 69.5779 242.967 67.9553 248.564 68.0862C250.233 67.9661 251.904 67.891 253.576 67.8159C255.236 67.7413 256.896 67.6667 258.554 67.5479C259.47 67.4827 261.887 67.234 264.085 67.0078C265.817 66.8296 267.413 66.6654 268.031 66.616C269.853 66.4702 269.956 66.3864 269.486 64.6728C269.303 64.0023 269.099 63.337 268.895 62.6719C268.644 61.8522 268.393 61.0327 268.18 60.2034C267.169 56.2633 268.434 53.2716 272.003 50.9749C274.403 49.4299 277.125 48.7257 279.906 48.1718C279.906 48.1718 287.515 47.6825 291.338 48.1572Z" fill="#FFAC00"/>
</g>
</g>
<g filter="url(#filter4_d)">
<mask id="mask0" mask-type="alpha" maskUnits="userSpaceOnUse" x="547" y="22" width="112" height="112">
<circle cx="603" cy="78" r="56" fill="white"/>
</mask>
<g mask="url(#mask0)">
<rect width="113.665" height="113.665" transform="matrix(-1 0 0 1 660.665 22)" fill="white"/>
<rect opacity="0.15" width="113.665" height="113.665" transform="matrix(-1 0 0 1 660.665 22)" fill="url(#paint4_linear)"/>
<path d="M683.441 92.0641C690.627 98.4698 689.608 107.011 691.491 114.591C693.294 121.969 677.993 128.535 676.71 136.09C675.575 142.798 673.576 149.27 671.792 155.797C671.316 157.533 670.856 159.28 670.434 161.032C670.041 162.663 669.703 164.315 669.33 165.949C668.848 168.051 668.792 170.103 669.054 172.105C669.367 174.444 670.116 176.724 671.143 178.941C671.915 180.61 672.722 182.262 673.524 183.924C674.814 186.609 676.079 189.301 677.096 192.098C677.315 192.701 677.522 193.308 677.718 193.921C678.941 197.778 679.692 201.747 680.102 205.768C680.24 207.104 680.237 208.442 680.669 209.74C681.258 211.487 680.636 212.868 679.256 213.961C677.781 215.13 676.059 215.816 674.291 216.364C668.58 218.121 662.797 219.607 656.941 220.784C649.059 222.366 641.168 223.898 633.226 225.109C631.195 225.421 629.159 225.706 627.118 225.969C617.48 227.201 607.82 228.328 598.067 228.182C597.958 228.177 597.843 228.181 597.733 228.176C595.627 228.138 593.552 227.83 591.448 227.765C588.382 227.663 586.122 224.788 586.26 221.703C586.499 216.546 588.771 212.138 591.484 207.957C595.144 202.295 599.758 197.355 603.976 192.129C607.037 188.329 610.094 184.53 613.179 180.751C614.45 179.192 615.042 177.427 615.231 175.438C615.441 173.293 615.386 171.199 615.096 169.144C614.718 166.338 613.913 163.609 612.784 160.924C612.297 159.771 611.782 158.636 611.243 157.512L611.242 157.507C609.696 154.32 607.931 151.26 605.956 148.302C604.855 146.656 604.825 146.635 602.933 147.463C597.241 149.976 591.256 151.708 585.533 154.163C582.995 155.258 580.231 154.828 578.084 152.635C577.262 151.796 576.381 151.015 575.527 150.208C574.164 147.895 572.215 146.034 570.547 143.966C566.876 139.426 563.067 135.003 559.314 130.536C558.835 129.555 558.322 128.592 557.885 127.595C556.843 125.227 557.693 123.277 560.154 122.376C560.942 122.083 561.758 121.873 562.562 121.634C566.07 120.587 569.184 118.799 572.129 116.672C572.339 116.53 572.541 116.382 572.746 116.227C575.184 114.415 577.628 112.604 580.112 110.86C581.337 109.99 582.573 109.142 583.826 108.316C588.971 104.925 594.462 102.296 600.599 101.054C605.263 100.104 609.875 99.5073 614.582 100.519C617.279 102.382 620.208 103.822 623.127 105.284C625.02 106.232 626.716 107.426 628.222 108.919C632.39 113.08 636.373 117.381 639.04 122.716C639.64 123.93 640.412 125.035 641.462 125.898C643.051 127.196 644.736 126.779 645.5 124.878C645.945 123.781 646.016 122.597 645.983 121.413C645.859 116.62 645.128 111.931 643.921 107.272C642.576 102.055 640.895 96.9955 638.748 92.0641C638.204 90.813 637.485 89.7112 636.383 88.8832C635.705 86.8386 636.36 85.2984 637.764 83.6637C642.059 78.645 645.419 73.0527 647.469 66.7053C648.167 64.5604 649.131 62.48 650.166 60.4618C651.722 57.4398 656.572 35.5871 665.148 43.1777C668.379 47.6293 671.312 52.3449 674.786 56.635C679.265 62.1627 683.895 67.565 687.828 73.5122C688.163 74.3881 683.729 91.273 683.441 92.0641Z" fill="#0097D5"/>
<path d="M617.07 89.5654C606.564 95.5998 595.348 101.102 583.272 102.081C575.391 102.719 566.404 100.892 559.687 96.6334C545.03 87.3417 551.177 69.1321 568.343 70.3677C577.379 71.0189 586.825 74.5272 590.598 63.8362C592.761 57.705 594.406 51.3576 597.323 45.5466C601.909 36.4078 610.13 29.5489 620.961 31.0043C629.507 32.1515 636.845 38.9805 639.524 47.0725C643.344 58.6203 638.749 71.7514 630.412 80.607C622.658 86.1647 618.779 88.8377 617.07 89.5654Z" fill="url(#paint5_linear)"/>
<path d="M645.984 121.413C646.016 122.597 645.945 123.781 645.5 124.878C644.736 126.779 643.051 127.197 641.462 125.9C640.412 125.035 639.64 123.931 639.04 122.718C636.373 117.381 632.39 113.081 628.222 108.92C626.717 107.427 625.02 106.234 623.127 105.284C620.208 103.822 617.279 102.382 614.582 100.521C618.059 98.8597 619.3 96.0851 618.252 92.3664C618.002 91.481 617.743 90.6039 617.222 89.8344C616.994 89.2525 616.562 89.2082 615.996 89.2536C614.586 89.3684 613.158 89.4663 611.742 89.2548C609.384 88.9071 607.619 87.8938 606.279 86.4587C604.939 85.0296 604.017 83.181 603.328 81.152C602.31 78.1444 601.463 75.0722 600.46 72.0479C600.306 71.5854 600.156 71.1098 600.091 70.6104C600.045 70.2674 600.034 69.9173 600.09 69.5481C606.953 69.1107 611.055 65.0264 613.902 59.3039C614.792 57.4996 615.549 55.6247 616.389 53.7917C617.103 52.2323 617.336 52.1809 618.723 53.3197C620.894 55.1121 622.479 57.3825 623.922 59.764C624.224 60.2682 624.502 60.7832 624.794 61.2899C625.27 62.1252 625.773 62.2829 626.579 61.5946C627.453 60.849 628.294 60.0782 629.685 60.224C631.306 60.4021 632.415 61.1716 632.972 62.5864C633.826 64.7803 633.799 67.0447 632.806 69.2087C632.225 70.4729 631.279 71.4946 629.835 71.7037C628.503 71.8925 628.263 72.5987 628.326 73.7829C628.459 76.0795 627.677 78.5088 629.362 80.5677C630.34 82.5979 631.251 84.6603 632.326 86.6332C633.166 88.1902 634.394 89.2764 636.384 88.8832C637.485 89.7125 638.205 90.8142 638.748 92.0641C640.896 96.9956 642.576 102.056 643.921 107.272C645.128 111.931 645.859 116.62 645.984 121.413Z" fill="#FFBF9D"/>
<path d="M617.31 75.8554C617.921 78.2453 616.746 80.7415 614.466 81.6221C612.184 82.5028 609.638 81.4465 608.483 79.2657L617.31 75.8554Z" fill="white"/>
<path d="M684.138 115.114C684.234 115.472 684.323 115.838 684.413 116.199C682.537 116.327 680.649 116.617 678.848 116.928C673.043 117.94 666.344 118.762 661.895 114.89C657.721 111.255 657.326 104.909 658.164 99.4363C658.269 98.7564 658.384 98.0681 658.693 97.4527C659.12 96.5828 659.886 95.916 660.722 95.4141C664.824 92.9538 670.197 94.3542 674.319 96.7776C677.475 98.6285 680.311 101.04 683.459 102.859C682.923 104.377 682.38 105.896 681.822 107.406C681.452 108.431 681.497 109.292 681.978 110.286C682.747 111.871 683.68 113.386 684.138 115.114Z" fill="#53BAE4"/>
</g>
</g>
<defs>
<filter id="filter0_d" x="10" y="96" width="99" height="99" filterUnits="userSpaceOnUse" color-interpolation-filters="sRGB">
<feFlood flood-opacity="0" result="BackgroundImageFix"/>
<feColorMatrix in="SourceAlpha" type="matrix" values="0 0 0 0 0 0 0 0 0 0 0 0 0 0 0 0 0 0 127 0"/>
<feOffset dy="2"/>
<feGaussianBlur stdDeviation="5"/>
<feColorMatrix type="matrix" values="0 0 0 0 0.211765 0 0 0 0 0.482353 0 0 0 0 0.964706 0 0 0 0.5 0"/>
<feBlend mode="normal" in2="BackgroundImageFix" result="effect1_dropShadow"/>
<feBlend mode="normal" in="SourceGraphic" in2="effect1_dropShadow" result="shape"/>
</filter>
<filter id="filter1_d" x="686" y="93" width="110" height="110" filterUnits="userSpaceOnUse" color-interpolation-filters="sRGB">
<feFlood flood-opacity="0" result="BackgroundImageFix"/>
<feColorMatrix in="SourceAlpha" type="matrix" values="0 0 0 0 0 0 0 0 0 0 0 0 0 0 0 0 0 0 127 0"/>
<feOffset dy="2"/>
<feGaussianBlur stdDeviation="5"/>
<feColorMatrix type="matrix" values="0 0 0 0 1 0 0 0 0 0 0 0 0 0 0 0 0 0 0.5 0"/>
<feBlend mode="normal" in2="BackgroundImageFix" result="effect1_dropShadow"/>
<feBlend mode="normal" in="SourceGraphic" in2="effect1_dropShadow" result="shape"/>
</filter>
<filter id="filter2_d" x="344" y="2" width="114" height="114" filterUnits="userSpaceOnUse" color-interpolation-filters="sRGB">
<feFlood flood-opacity="0" result="BackgroundImageFix"/>
<feColorMatrix in="SourceAlpha" type="matrix" values="0 0 0 0 0 0 0 0 0 0 0 0 0 0 0 0 0 0 127 0"/>
<feOffset dy="3"/>
<feGaussianBlur stdDeviation="2.5"/>
<feColorMatrix type="matrix" values="0 0 0 0 0.863281 0 0 0 0 0.884209 0 0 0 0 0.920833 0 0 0 1 0"/>
<feBlend mode="normal" in2="BackgroundImageFix" result="effect1_dropShadow"/>
<feBlend mode="normal" in="SourceGraphic" in2="effect1_dropShadow" result="shape"/>
</filter>
<filter id="filter3_d" x="141" y="20" width="122" height="122" filterUnits="userSpaceOnUse" color-interpolation-filters="sRGB">
<feFlood flood-opacity="0" result="BackgroundImageFix"/>
<feColorMatrix in="SourceAlpha" type="matrix" values="0 0 0 0 0 0 0 0 0 0 0 0 0 0 0 0 0 0 127 0"/>
<feOffset dy="3"/>
<feGaussianBlur stdDeviation="2.5"/>
<feColorMatrix type="matrix" values="0 0 0 0 0.863281 0 0 0 0 0.884209 0 0 0 0 0.920833 0 0 0 1 0"/>
<feBlend mode="normal" in2="BackgroundImageFix" result="effect1_dropShadow"/>
<feBlend mode="normal" in="SourceGraphic" in2="effect1_dropShadow" result="shape"/>
</filter>
<filter id="filter4_d" x="542" y="20" width="122" height="122" filterUnits="userSpaceOnUse" color-interpolation-filters="sRGB">
<feFlood flood-opacity="0" result="BackgroundImageFix"/>
<feColorMatrix in="SourceAlpha" type="matrix" values="0 0 0 0 0 0 0 0 0 0 0 0 0 0 0 0 0 0 127 0"/>
<feOffset dy="3"/>
<feGaussianBlur stdDeviation="2.5"/>
<feColorMatrix type="matrix" values="0 0 0 0 0.862745 0 0 0 0 0.882353 0 0 0 0 0.921569 0 0 0 1 0"/>
<feBlend mode="normal" in2="BackgroundImageFix" result="effect1_dropShadow"/>
<feBlend mode="normal" in="SourceGraphic" in2="effect1_dropShadow" result="shape"/>
</filter>
<linearGradient id="paint0_linear" x1="234.381" y1="609.071" x2="234.381" y2="64.7189" gradientUnits="userSpaceOnUse">
<stop stop-color="#FFC258"/>
<stop offset="1" stop-color="#FFA621"/>
</linearGradient>
<linearGradient id="paint1_linear" x1="69.0867" y1="93.5183" x2="35.8969" y2="-3.14551" gradientUnits="userSpaceOnUse">
<stop offset="0.215539" stop-color="#118F5A"/>
<stop offset="1" stop-color="#71F47E"/>
</linearGradient>
<linearGradient id="paint2_linear" x1="113.975" y1="151.967" x2="58.3374" y2="-5.20276" gradientUnits="userSpaceOnUse">
<stop stop-color="#7400BB"/>
<stop offset="1" stop-color="#DE97FF"/>
</linearGradient>
<linearGradient id="paint3_linear" x1="235.09" y1="140" x2="191.3" y2="17.9286" gradientUnits="userSpaceOnUse">
<stop offset="0.213675" stop-color="#DA0000"/>
<stop offset="1" stop-color="#FF95B5"/>
</linearGradient>
<linearGradient id="paint4_linear" x1="102.298" y1="113.664" x2="82.906" y2="-3.10319" gradientUnits="userSpaceOnUse">
<stop stop-color="#008FBC"/>
<stop offset="1" stop-color="#55E0FF"/>
</linearGradient>
<linearGradient id="paint5_linear" x1="596.168" y1="27.8029" x2="596.168" y2="102.41" gradientUnits="userSpaceOnUse">
<stop stop-color="#FFB32F"/>
<stop offset="1" stop-color="#F29100"/>
</linearGradient>
<clipPath id="clip0">
<rect width="72" height="72" rx="36" transform="matrix(-1 0 0 1 95.5 108)" fill="white"/>
</clipPath>
<clipPath id="clip1">
<rect width="86.8476" height="86.8476" fill="white" transform="translate(8.44995 108)"/>
</clipPath>
<clipPath id="clip2">
<rect width="95.6796" height="95.6796" fill="white" transform="translate(8.44995 108)"/>
</clipPath>
<clipPath id="clip3">
<rect width="81" height="81" rx="40.5" transform="matrix(-1 0 0 1 781.5 105.5)" fill="white"/>
</clipPath>
<clipPath id="clip4">
<rect width="104" height="104" rx="52" transform="matrix(-1 0 0 1 453 4)" fill="white"/>
</clipPath>
<clipPath id="clip5">
<rect x="146" y="22" width="112" height="112" rx="56" fill="white"/>
</clipPath>
</defs>
</svg>
